<?xml version="1.0" encoding="UTF-8" standalone="no"?>
<!-- Created with Inkscape (http://www.inkscape.org/) -->

<svg
   width="176.002mm"
   height="175.75174mm"
   viewBox="0 0 176.002 175.75174"
   version="1.1"
   id="svg1"
   xml:space="preserve"
   xmlns="http://www.w3.org/2000/svg"
   xmlns:svg="http://www.w3.org/2000/svg"><defs
     id="defs1" /><g
     id="layer1"
     transform="translate(-20.893957,-64.054726)"><path
       style="fill:#000000"
       d="m 98.765638,239.58101 c -1.2403,-0.12019 -2.48262,-0.41172 -3.10279,-0.7281 -0.74347,-0.37929 -2.25618,-0.67042 -5.38012,-1.03543 -3.65604,-0.42719 -4.52339,-0.61184 -5.4644,-1.16331 -0.68404,-0.40087 -1.98127,-0.8044 -3.33934,-1.03876 -1.72022,-0.29686 -2.3991,-0.53982 -3.01198,-1.07793 -0.5909,-0.51882 -1.26786,-0.7733 -2.67404,-1.00523 -1.52057,-0.25079 -2.03753,-0.46033 -2.68689,-1.0891 -0.56131,-0.5435 -1.28532,-0.88974 -2.39803,-1.1468 -1.01964,-0.23556 -1.89527,-0.6328 -2.43022,-1.10249 -0.45995,-0.40384 -1.30683,-0.87524 -1.88197,-1.04755 -0.57514,-0.17232 -1.21495,-0.57161 -1.42181,-0.88732 -0.20686,-0.31571 -0.90977,-0.76906 -1.56201,-1.00745 -0.65224,-0.23838 -1.54428,-0.80787 -1.9823,-1.26551 -0.43802,-0.45765 -1.23812,-0.952 -1.778,-1.09857 -0.53988,-0.14656 -1.29121,-0.59643 -1.66962,-0.99971 -0.37841,-0.40328 -1.07881,-0.91867 -1.55644,-1.14532 -0.47763,-0.22665 -1.06273,-0.70866 -1.30023,-1.07113 -0.2375,-0.36247 -0.8156,-0.81939 -1.28467,-1.01538 -0.46907,-0.19599 -1.0544,-0.69753 -1.30073,-1.11454 -0.24633,-0.417 -0.76072,-0.86725 -1.1431,-1.00055 -0.38237,-0.13329 -0.86861,-0.57766 -1.08054,-0.98747 -0.21192,-0.40981 -0.71878,-0.88324 -1.12634,-1.05206 -0.40757,-0.16882 -0.8652,-0.57947 -1.01697,-0.91256 -0.15176,-0.33309 -0.6234,-0.78529 -1.04807,-1.0049 -0.43721,-0.22609 -0.93246,-0.78299 -1.14173,-1.28384 -0.21059,-0.50401 -0.64281,-0.98842 -1.00471,-1.12601 -0.34931,-0.13281 -0.81752,-0.5942 -1.04045,-1.0253 -0.22293,-0.4311 -0.68238,-0.88916 -1.02099,-1.0179 -0.34131,-0.12976 -0.77972,-0.62672 -0.98382,-1.11521 -0.20408,-0.48842 -0.70344,-1.05453 -1.12042,-1.27015 -0.41883,-0.21659 -0.82475,-0.67787 -0.91582,-1.04075 -0.09,-0.35846 -0.51343,-0.8645 -0.94102,-1.12453 -0.44966,-0.27346 -1.02059,-0.99297 -1.35418,-1.70662 -0.31721,-0.67861 -0.83371,-1.46244 -1.14778,-1.74184 -0.31406,-0.2794 -0.80391,-0.9652 -1.08855,-1.524 -0.28464,-0.5588 -0.72481,-1.16194 -0.97814,-1.34032 -0.25334,-0.17837 -0.66099,-0.95997 -0.90589,-1.73689 -0.2706,-0.85844 -0.72493,-1.64788 -1.15815,-2.01242 -0.46951,-0.39506 -0.88734,-1.16468 -1.22391,-2.25435 -0.28106,-0.90998 -0.71474,-1.80155 -0.96372,-1.98126 -0.6799,-0.49075 -0.82314,-0.83404 -1.06656,-2.55616 -0.185,-1.30884 -0.35451,-1.68448 -0.99884,-2.21348 -0.62935,-0.5167 -0.82944,-0.94239 -1.05862,-2.25223 -0.2022,-1.15562 -0.49189,-1.85348 -1.01825,-2.45297 -0.63349,-0.72152 -0.78106,-1.1898 -1.0627,-3.37226 -0.21622,-1.67563 -0.49403,-2.77083 -0.81984,-3.23213 -0.95756,-1.35575 -1.09456,-1.75674 -1.2506,-3.66049 -0.27709,-3.38057 -0.64144,-5.43028 -1.31228,-7.38253 l -0.6541,-1.9035 0.031,-10.2885 c 0.031,-10.28003 0.0731,-10.84312 1.00761,-13.46351 0.29484,-0.82671 0.62082,-2.79005 0.79856,-4.80948 0.31792,-3.6123 0.43078,-4.05676 1.30769,-5.14973 0.36416,-0.45389 0.66374,-1.38939 0.87985,-2.74748 0.26494,-1.66503 0.47574,-2.22789 1.10108,-2.94012 0.42538,-0.48448 0.77715,-1.01976 0.78172,-1.18953 0.005,-0.16976 0.10923,-1.09181 0.23258,-2.049 0.19824,-1.5383 0.32997,-1.83717 1.13469,-2.57426 0.63733,-0.58377 0.91085,-1.05221 0.91184,-1.56166 0.002,-1.2147 0.47113,-2.51089 1.1329,-3.13259 0.3449,-0.32402 0.81607,-1.17278 1.04705,-1.88614 0.23097,-0.71336 0.7355,-1.63992 1.12116,-2.05902 0.38567,-0.4191 0.84117,-1.20043 1.01223,-1.73628 0.17106,-0.53586 0.62843,-1.33596 1.01639,-1.778 0.38795,-0.44205 0.88426,-1.23209 1.10291,-1.75565 0.21865,-0.52355 0.67892,-1.08012 1.02282,-1.23682 0.38276,-0.1744 0.79014,-0.71659 1.05037,-1.398 0.2338,-0.612199 0.62778,-1.255779 0.87551,-1.430169 0.24773,-0.1744 0.87202,-0.97689 1.38731,-1.78332 0.7998,-1.25169 1.18332,-1.58268 2.62096,-2.26193 l 1.68407,-0.79569 1.15512,0.61093 c 0.75549,0.39957 4.42548,3.88469 10.60808,10.073689 9.06896,9.07838 9.4599,9.50909 9.62391,10.60282 0.27183,1.81266 -0.024,2.80268 -1.01151,3.38533 -0.59373,0.35031 -0.91243,0.76519 -1.04017,1.35408 -0.10129,0.46696 -0.56318,1.27054 -1.02642,1.78573 -0.46324,0.51519 -0.98369,1.40878 -1.15656,1.98576 -0.17286,0.57697 -0.59496,1.26981 -0.93799,1.53964 -0.41109,0.32337 -0.78224,1.06236 -1.08881,2.16795 -0.27792,1.00227 -0.71227,1.9064 -1.07923,2.24649 -0.70658,0.65484 -0.81609,0.95115 -1.16003,3.13897 -0.20062,1.27613 -0.409,1.74839 -1.02563,2.32441 -0.42562,0.39759 -0.77386,0.95067 -0.77386,1.22907 0,0.2784 -0.12022,1.68986 -0.26716,3.13659 -0.20908,2.05853 -0.43732,2.9812 -1.04981,4.24388 l -0.78265,1.61347 -0.0202,6.16797 -0.0202,6.16796 0.80364,1.53313 c 0.62681,1.19577 0.83648,1.97066 0.95288,3.52156 0.33421,4.45281 0.38422,4.68468 1.16422,5.3971 0.61056,0.55766 0.79836,1.03254 1.10659,2.79813 0.31002,1.7758 0.49435,2.23893 1.11774,2.80831 0.50799,0.46398 0.80601,1.03982 0.93279,1.80236 0.21884,1.31629 0.72871,2.40198 1.21583,2.5889 0.19051,0.0731 0.5524,0.68704 0.80419,1.36428 0.2518,0.67725 0.77894,1.57426 1.17143,1.99336 0.39249,0.4191 0.83336,1.07966 0.97972,1.46791 0.59064,1.56678 7.33463,8.81125 10.70858,11.50327 0.96606,0.7708 1.75647,1.49848 1.75647,1.61706 0,0.11858 0.43856,0.39108 0.97458,0.60555 0.53602,0.21448 1.16434,0.67956 1.39627,1.03352 0.27207,0.41523 0.88859,0.78223 1.73764,1.03437 0.83864,0.24905 1.59899,0.6985 2.09624,1.23911 0.56966,0.61933 1.08879,0.89705 1.92327,1.02892 0.75179,0.11879 1.4055,0.43471 1.90995,0.92302 0.60062,0.58142 1.20652,0.82646 2.794,1.12996 1.11488,0.21315 2.33973,0.61852 2.72188,0.90082 1.03251,0.76272 1.64034,0.93776 4.40074,1.26735 1.39532,0.1666 2.92799,0.51249 3.44925,0.77842 1.631682,0.83242 4.242122,1.06228 10.624662,0.93555 5.1342,-0.10195 6.20921,-0.19295 7.62752,-0.6457 1.62529,-0.51882 2.89095,-0.77813 6.55024,-1.34203 1.28415,-0.19789 2.07195,-0.471 2.57176,-0.89157 0.39629,-0.33345 1.33489,-0.72771 2.08577,-0.87612 0.75088,-0.14842 1.60344,-0.31914 1.89458,-0.37939 0.29115,-0.0602 0.9543,-0.44724 1.47367,-0.85999 0.51938,-0.41275 1.30987,-0.82945 1.75665,-0.92599 0.44678,-0.0965 1.27584,-0.60051 1.84236,-1.11992 0.69694,-0.63899 1.37258,-0.99915 2.08939,-1.11377 0.77939,-0.12463 1.21202,-0.37703 1.63697,-0.95504 0.31769,-0.4321 1.00624,-0.95795 1.53011,-1.16855 0.52388,-0.21061 0.9525,-0.46325 0.9525,-0.56144 0,-0.0982 0.23305,-0.42868 0.5179,-0.73442 0.3992,-0.4285 0.80856,-0.5559 1.78615,-0.5559 1.34381,0 3.02995,0.5573 3.02995,1.00145 0,0.14595 0.4664,0.60322 1.03645,1.01616 0.57005,0.41294 1.47048,1.35663 2.00097,2.0971 0.53048,0.74046 1.40711,1.60145 1.94805,1.91331 0.54094,0.31186 1.84078,1.50445 2.88853,2.6502 1.04775,1.14575 3.1764,3.34804 4.73034,4.89398 4.8043,4.77957 6.69983,6.91836 6.6977,7.55722 -0.001,0.32317 -0.37335,1.33053 -0.82726,2.23858 -0.6179,1.23612 -1.06143,1.77768 -1.76502,2.15511 -0.51685,0.27726 -1.07426,0.7555 -1.2387,1.06275 -0.16443,0.30725 -0.64399,0.70155 -1.06567,0.87622 -0.42169,0.17467 -1.25834,0.74308 -1.85923,1.26315 -0.60089,0.52007 -1.47813,1.07284 -1.94942,1.22838 -0.47129,0.15554 -1.08816,0.59478 -1.37081,0.97609 -0.31014,0.41841 -0.97076,0.82693 -1.66611,1.03033 -0.63371,0.18537 -1.46449,0.663 -1.84619,1.06141 -0.43152,0.4504 -1.17975,0.8409 -1.97828,1.03247 -0.85095,0.20414 -1.5721,0.59591 -2.13728,1.16109 -0.46915,0.46915 -1.08146,0.853 -1.36069,0.853 -0.77626,0 -2.2564,0.69012 -2.73245,1.27401 -0.25828,0.31678 -1.06349,0.67056 -2.04571,0.89878 -0.90712,0.21078 -1.94944,0.65377 -2.36907,1.00687 -0.81817,0.68844 -1.02497,0.75436 -3.59237,1.14522 -0.95657,0.14562 -2.40964,0.6032 -3.22905,1.01683 -1.28626,0.6493 -2.10712,0.82311 -6.00777,1.27209 -3.1055,0.35746 -4.87091,0.68192 -5.64692,1.03785 -0.62092,0.28479 -2.10682,0.62075 -3.302,0.74657 -2.60459,0.27419 -16.81402,0.25122 -19.735542,-0.0319 z m 72.638812,-30.78182 c -0.57933,-0.59372 -1.26415,-1.28259 -1.52182,-1.53081 -0.25767,-0.24823 -4.0853,-4.07728 -8.50585,-8.509 -4.42055,-4.43173 -8.29385,-8.23451 -8.60734,-8.45063 -0.48326,-0.33315 -0.58887,-0.68733 -0.69415,-2.32786 l -0.12418,-1.93492 1.17502,-1.14198 c 0.64626,-0.62809 1.17501,-1.32086 1.17501,-1.53948 0,-0.21863 0.38639,-0.74911 0.85865,-1.17885 0.59982,-0.54583 0.90835,-1.09217 1.02353,-1.8125 0.11742,-0.73432 0.41769,-1.25497 1.04307,-1.80864 0.56604,-0.50113 0.93637,-1.10045 1.0419,-1.68615 0.20404,-1.13245 0.51862,-1.76122 1.25516,-2.5087 0.3768,-0.38241 0.63394,-1.04006 0.74484,-1.905 0.23944,-1.86743 0.61598,-3.22598 0.89412,-3.22598 0.56284,0 1.06194,-1.76028 1.39466,-4.91882 0.2903,-2.75586 0.48389,-3.6164 1.0659,-4.7382 l 0.71117,-1.37075 v -6.11723 -6.11722 l -0.72575,-1.38639 c -0.61793,-1.18042 -0.77612,-1.91469 -1.06474,-4.94239 -0.18644,-1.9558 -0.34562,-3.58063 -0.35374,-3.61074 -0.008,-0.0301 -0.33965,-0.38709 -0.73672,-0.79329 -0.57537,-0.58859 -0.7859,-1.13493 -1.03687,-2.69069 -0.24251,-1.50327 -0.4798,-2.13993 -1.03198,-2.76883 -0.48408,-0.55134 -0.81854,-1.33251 -1.02941,-2.40433 -0.23817,-1.21062 -0.48427,-1.73231 -1.03632,-2.19683 -0.39818,-0.33505 -0.95862,-1.23634 -1.24541,-2.00288 -0.2868,-0.76653 -0.78131,-1.56396 -1.09891,-1.77206 -0.31761,-0.2081 -0.71094,-0.81846 -0.87407,-1.35636 -0.19597,-0.64616 -0.55771,-1.12525 -1.06614,-1.41199 -0.42324,-0.23871 -0.86947,-0.69591 -0.99161,-1.016 -0.12215,-0.3201 -1.695,-2.0679 -3.49523,-3.884 -4.00136,-4.03664 -5.44589,-5.35371 -6.09925,-5.56108 -0.2756,-0.0875 -0.74641,-0.49084 -1.04624,-0.89638 -0.30212,-0.40865 -0.8976,-0.81476 -1.33579,-0.91101 -0.43486,-0.0955 -1.08266,-0.50137 -1.43954,-0.90191 -0.35688,-0.40054 -1.21299,-0.91562 -1.90245,-1.14463 -0.83491,-0.27731 -1.34643,-0.62015 -1.53159,-1.02654 -0.26854,-0.58936 -0.77349,-0.80342 -2.93327,-1.24341 -0.45817,-0.0933 -1.14397,-0.49623 -1.524,-0.89531 -0.54949,-0.57703 -1.09778,-0.80105 -2.6778,-1.09411 -1.32073,-0.244969 -2.18547,-0.555129 -2.57933,-0.925139 -0.74909,-0.70374 -1.74135,-0.92084 -5.84784,-1.27952 -1.8161,-0.15863 -4.1801,-0.50883 -5.25334,-0.77822 -1.71331,-0.43006 -2.57537,-0.4738 -7.06718,-0.35864 -3.77079,0.0967 -5.30388,0.22841 -5.83105,0.50102 -0.39337,0.20342 -2.324352,0.5389 -4.291082,0.74551 -3.39013,0.35615 -4.60835,0.65817 -4.60835,1.14248 0,0.31216 -1.2092,0.73573 -2.667,0.934209 -1.64116,0.22344 -2.39244,0.51113 -3.175,1.21578 -0.34925,0.31448 -1.29373,0.77072 -2.09884,1.01387 -0.9246,0.27924 -1.60713,0.66078 -1.85282,1.03575 -0.22886,0.34928 -0.8287,0.70588 -1.45716,0.86625 -0.72005,0.18375 -1.29374,0.55813 -1.76028,1.14872 -0.40693,0.51512 -1.02048,0.94825 -1.48905,1.05117 -0.43832,0.0963 -1.2581,0.59176 -1.82175,1.10108 -0.97934,0.88498 -1.11817,0.92999 -3.12981,1.01493 -1.94732,0.0822 -2.1447,0.0442 -2.63468,-0.508 -0.52367,-0.59012 -5.9493,-6.126 -6.63947,-6.77438 -0.55753,-0.52378 -11.28014,-11.487469 -12.28596,-12.562209 -1.11156,-1.18771 -1.12514,-1.7101 -0.0727,-2.79638 0.45403,-0.46862 1.01184,-1.20079 1.23959,-1.62706 0.23808,-0.44561 0.965,-1.07488 1.71021,-1.48048 0.71286,-0.38798 1.46903,-0.96934 1.68038,-1.2919 0.21135,-0.32255 0.84706,-0.72512 1.4127,-0.89459 0.66009,-0.19776 1.18,-0.5647 1.4516,-1.02448 0.23379,-0.39578 0.80679,-0.84297 1.28038,-0.99927 0.47147,-0.1556 1.24633,-0.62455 1.72191,-1.04212 0.47558,-0.41756 1.40151,-0.92077 2.05762,-1.11823 0.7148,-0.21512 1.50478,-0.69922 1.97102,-1.20784 0.5866,-0.63993 1.07331,-0.89302 1.97764,-1.0284 0.92219,-0.13806 1.32156,-0.35094 1.72727,-0.92071 0.342,-0.4803 0.90314,-0.83807 1.59446,-1.0166 1.89076,-0.48826 2.02635,-0.54927 2.60238,-1.17081 0.41411,-0.44683 1.09535,-0.71321 2.52219,-0.9862 1.30269,-0.24925 2.30768,-0.62025 3.0125,-1.11209 0.81781,-0.5707 1.54724,-0.80441 3.21665,-1.03063 1.36517,-0.18498 2.73521,-0.56661 3.72612,-1.03791 1.38383,-0.65819 2.16465,-0.80659 6.67625,-1.26884 2.86254,-0.2933 5.77102,-0.73493 6.61437,-1.00435 1.325352,-0.42339 2.424622,-0.48594 9.198752,-0.5234 7.30388,-0.0404 7.76858,-0.0149 9.17583,0.50413 1.00961,0.37234 2.79163,0.66599 5.588,0.92082 5.13117,0.46761 5.59044,0.54976 7.16056,1.28083 0.71647,0.3336 2.58886,0.80322 4.26619,1.07002 2.18857,0.34811 3.1733,0.62347 3.67613,1.02794 0.9618,0.77367 1.51976,0.99852 2.94119,1.18526 0.81261,0.10676 1.44769,0.37199 1.84712,0.77141 0.78964,0.78964 1.21309,0.99735 2.78469,1.36589 0.89767,0.21051 1.45521,0.5168 1.80709,0.99273 0.34531,0.46706 0.93604,0.79777 1.83786,1.0289 0.86266,0.22109 1.56069,0.60067 1.98935,1.08175 0.39402,0.44223 1.11291,0.85511 1.78242,1.02369 0.666,0.1677 1.46438,0.62486 1.9643,1.12479 0.46324,0.46323 1.16457,0.91791 1.55852,1.01038 0.39394,0.0925 1.11631,0.54174 1.60526,0.99837 0.48895,0.45663 1.3462,1.06048 1.905,1.3419 0.5588,0.28142 1.35171,0.86504 1.76202,1.29693 0.41031,0.43189 0.89027,0.78526 1.06658,0.78526 0.1763,0 0.63082,0.40679 1.01004,0.90397 0.37922,0.49719 1.0186,1.07416 1.42084,1.28217 0.40224,0.20801 0.84001,0.664 0.97282,1.01331 0.13377,0.35186 0.61708,0.79206 1.08365,0.98701 0.46319,0.19353 0.97438,0.64204 1.13597,0.99669 0.16159,0.35465 0.68226,0.80712 1.15704,1.0055 0.56232,0.23495 0.9208,0.58997 1.02833,1.0184 0.0908,0.36174 0.49256,0.82706 0.89282,1.03405 0.40027,0.20698 0.96682,0.78151 1.259,1.27673 0.29219,0.49521 0.80769,1.02635 1.14556,1.18029 0.33787,0.15394 0.73601,0.547 0.88476,0.87346 0.14874,0.32645 0.56724,0.78802 0.92999,1.02571 0.36275,0.23768 0.83162,0.7649 1.04193,1.1716 0.21032,0.4067 0.77538,1.17445 1.2557,1.70611 0.48033,0.53166 1.04248,1.37152 1.24924,1.866359 0.20675,0.49484 0.65804,1.12164 1.00286,1.39287 0.34482,0.27123 0.70559,0.80652 0.80172,1.18952 0.0961,0.38299 0.6133,1.20303 1.14928,1.82231 0.53598,0.61927 1.09076,1.55768 1.23284,2.08534 0.1514,0.56225 0.56353,1.18504 0.9956,1.50447 0.52645,0.38923 0.82718,0.91995 1.05177,1.85615 0.17299,0.72108 0.62411,1.67014 1.00249,2.10902 0.37838,0.43888 0.88861,1.42231 1.13385,2.1854 0.24525,0.76308 0.71305,1.70492 1.03956,2.09296 0.33419,0.39715 0.71716,1.34501 0.8762,2.16857 0.1554,0.80467 0.33516,1.71141 0.39947,2.01496 0.0643,0.30356 0.39836,0.8864 0.74233,1.29519 0.64555,0.76719 0.97941,1.92887 1.27018,4.41973 0.11336,0.97108 0.4166,1.81585 0.93009,2.59108 0.68611,1.03584 0.79621,1.49374 1.10694,4.60387 0.28323,2.83475 0.46785,3.68847 1.03031,4.76415 0.66415,1.27016 0.69293,1.50217 0.93415,7.5312 0.16326,4.08047 0.1625,8.24168 -0.002,12.09488 -0.22133,5.17756 -0.31481,5.99908 -0.78824,6.92708 -0.49617,0.97257 -1.09188,4.16299 -1.44067,7.71574 -0.097,0.9882 -0.36967,1.78613 -0.86794,2.54 -0.54486,0.82436 -0.79974,1.63626 -1.01952,3.24751 -0.3072,2.25218 -0.5153,2.84386 -1.3065,3.71471 -0.29181,0.3212 -0.62397,1.34416 -0.84541,2.60366 -0.2789,1.58628 -0.54455,2.29876 -1.1286,3.02694 -0.44726,0.55763 -0.88448,1.51668 -1.05492,2.31396 -0.20019,0.93646 -0.55511,1.64155 -1.13669,2.25813 -0.52453,0.5561 -0.90933,1.27364 -1.01342,1.88974 -0.10453,0.61869 -0.53321,1.41542 -1.13681,2.11282 -0.53295,0.61578 -1.04579,1.46923 -1.13965,1.89656 -0.10953,0.49867 -0.43266,0.91245 -0.90217,1.15524 -0.50393,0.2606 -0.814,0.68463 -0.99667,1.363 -0.14583,0.54159 -0.4543,1.1409 -0.68548,1.3318 -0.23118,0.1909 -0.91832,1.09004 -1.52696,1.99809 -2.12956,3.17712 -2.31723,3.43435 -3.03801,4.16412 -1.13469,1.14885 -2.16187,1.6759 -3.26823,1.67693 -0.86389,8.1e-4 -1.17779,-0.16263 -2.07152,-1.07855 z"
       id="path1" /></g></svg>
