<?xml version="1.0" encoding="UTF-8" standalone="no"?>
<!-- Created with Inkscape (http://www.inkscape.org/) -->

<svg
   width="36.282604mm"
   height="172.05505mm"
   viewBox="0 0 36.282604 172.05505"
   version="1.1"
   id="svg1"
   xml:space="preserve"
   xmlns="http://www.w3.org/2000/svg"
   xmlns:svg="http://www.w3.org/2000/svg"><defs
     id="defs1" /><g
     id="layer1"
     transform="translate(-88.576158,-56.160107)"><path
       style="fill:#000000"
       d="m 91.453203,228.04889 c -0.725536,-0.30133 -2.619822,-2.41779 -2.788775,-3.11586 -0.07807,-0.32258 -0.110522,-31.05724 -0.07211,-68.29924 l 0.06985,-67.712726 0.746754,-1.07755 c 0.410714,-0.59265 1.026283,-1.32583 1.367931,-1.62927 0.341648,-0.30345 0.862859,-0.82208 1.158247,-1.15251 0.468373,-0.52395 13.22534,-13.27914 14.64126,-14.63921 0.29087,-0.2794 3.47092,-3.49766 7.06678,-7.15169 5.68604,-5.77803 6.67985,-6.68191 7.62723,-6.93701 1.38755,-0.37363 2.42754,-0.14355 3.0757,0.68046 0.50979,0.64808 0.5111,0.86494 0.5111,84.570646 0,91.539 0.10675,85.10145 -1.42784,86.10733 -0.664,0.43524 -1.6696,0.46753 -16.08672,0.51655 -8.458143,0.0288 -15.608376,-0.0432 -15.889407,-0.15992 z"
       id="path1" /></g></svg>
