<?xml version="1.0" encoding="UTF-8" standalone="no"?>
<!-- Created with Inkscape (http://www.inkscape.org/) -->

<svg
   width="137.35452mm"
   height="173.40953mm"
   viewBox="0 0 137.35452 173.40953"
   version="1.1"
   id="svg1"
   xml:space="preserve"
   xmlns="http://www.w3.org/2000/svg"
   xmlns:svg="http://www.w3.org/2000/svg"><defs
     id="defs1" /><g
     id="layer1"
     transform="translate(-34.508262,-77.745097)"><path
       style="fill:#000000"
       d="m 36.44876,250.93954 c -2.13217,-0.48395 -2.50673,-1.93329 -1.12629,-4.35805 0.57614,-1.01201 1.12913,-1.61953 1.77323,-1.94813 0.51479,-0.26263 1.07312,-0.77847 1.24072,-1.14633 0.16761,-0.36785 0.63654,-0.78449 1.04207,-0.92586 0.44324,-0.15451 0.86239,-0.55895 1.05087,-1.01399 0.18694,-0.45132 0.64427,-0.89515 1.13262,-1.09919 0.53372,-0.22301 0.9151,-0.61772 1.09473,-1.13301 0.15945,-0.45739 0.54361,-0.89265 0.91121,-1.03241 0.34955,-0.1329 0.8144,-0.58751 1.03301,-1.01025 0.2186,-0.42273 0.73649,-0.94393 1.15086,-1.15821 0.41437,-0.21428 0.92553,-0.72246 1.13592,-1.1293 0.21038,-0.40683 0.61541,-0.81362 0.90006,-0.90396 0.28466,-0.0904 0.71259,-0.46992 0.95097,-0.8435 0.62935,-0.98629 3.00644,-3.27944 3.59221,-3.46535 0.2758,-0.0875 0.62802,-0.54266 0.78272,-1.01139 0.19034,-0.57673 0.48713,-0.9039 0.9181,-1.01207 0.35026,-0.0879 0.86531,-0.54707 1.14456,-1.02036 0.28049,-0.47541 0.84726,-0.97889 1.26639,-1.125 0.4986,-0.17381 0.85182,-0.53169 1.03041,-1.04399 0.14945,-0.42873 0.60031,-0.94943 1.0019,-1.1571 0.40159,-0.20767 0.8938,-0.69401 1.09379,-1.08076 0.2,-0.38675 0.6516,-0.8573 1.00355,-1.04566 0.35196,-0.18836 0.77255,-0.66267 0.93466,-1.05403 0.16813,-0.40589 0.60476,-0.81963 1.01646,-0.96315 0.39694,-0.13838 0.90597,-0.60791 1.13117,-1.0434 0.22521,-0.43549 0.68376,-0.89609 1.01901,-1.02355 0.33526,-0.12747 0.81094,-0.55118 1.05708,-0.94159 0.24614,-0.39041 0.86413,-1.10989 1.3733,-1.59884 0.50918,-0.48895 0.97099,-1.0033 1.02626,-1.143 0.0553,-0.1397 0.44338,-0.4296 0.86248,-0.64423 0.4191,-0.21462 0.91416,-0.70675 1.10013,-1.09363 0.18598,-0.38687 0.61742,-0.80958 0.95877,-0.93936 0.34134,-0.12978 0.85108,-0.62656 1.13274,-1.10394 0.28376,-0.48093 0.79811,-0.93976 1.15348,-1.02895 0.40823,-0.10246 0.77035,-0.46969 0.99623,-1.0103 0.198,-0.47387 0.75202,-1.08365 1.25326,-1.37939 0.49412,-0.29154 0.89839,-0.70923 0.89839,-0.9282 0,-0.21897 0.38199,-0.62351 0.84888,-0.89898 0.46688,-0.27546 0.97627,-0.78046 1.13198,-1.12222 0.15572,-0.34175 0.62455,-0.79793 1.04186,-1.01372 0.41731,-0.2158 0.90804,-0.69897 1.09051,-1.07371 0.18248,-0.37474 0.67467,-0.86709 1.09377,-1.09413 0.4191,-0.22703 0.92089,-0.76731 1.11508,-1.20063 0.19419,-0.43332 0.60346,-0.92185 0.90949,-1.08563 0.30603,-0.16378 0.74493,-0.61692 0.97534,-1.00696 0.2304,-0.39005 0.7543,-0.84809 1.16421,-1.01789 0.40992,-0.16979 0.87921,-0.632 1.04288,-1.02713 0.16367,-0.39513 0.63607,-0.85862 1.04977,-1.02999 0.4137,-0.17136 0.91286,-0.62226 1.10923,-1.00201 0.19638,-0.37974 0.69792,-0.83164 1.11454,-1.00421 0.45478,-0.18838 0.85993,-0.60764 1.01385,-1.04915 0.15862,-0.45501 0.59681,-0.89774 1.14935,-1.16122 0.52135,-0.24861 0.99127,-0.70776 1.12913,-1.10322 0.1358,-0.38955 0.56481,-0.81352 1.00965,-0.99777 0.46113,-0.19101 0.874,-0.60866 1.02233,-1.03417 0.13685,-0.39258 0.57186,-0.8686 0.96667,-1.05783 0.39482,-0.18923 0.86292,-0.64673 1.04023,-1.01666 0.1773,-0.36994 0.72399,-0.90957 1.21487,-1.1992 0.49087,-0.28962 0.96879,-0.72885 1.06204,-0.97608 0.2242,-0.59441 2.78818,-3.05745 3.37744,-3.24447 0.25434,-0.0807 0.57779,-0.47767 0.71878,-0.8821 0.14099,-0.40444 0.6058,-0.91605 1.03293,-1.13693 0.42713,-0.22087 0.94459,-0.72645 1.14991,-1.12351 0.20533,-0.39706 0.7142,-0.86312 1.13082,-1.03569 0.44932,-0.18612 0.85984,-0.60738 1.00908,-1.03548 0.13838,-0.39695 0.60106,-0.90244 1.02819,-1.12332 0.42713,-0.22087 0.94872,-0.73445 1.15911,-1.14129 0.21038,-0.40683 0.61665,-0.81401 0.90282,-0.90484 0.28618,-0.0908 0.80321,-0.61328 1.14898,-1.161 0.34576,-0.54772 0.79724,-0.99586 1.00328,-0.99586 0.20605,0 0.66325,-0.4572 1.016,-1.016 0.35276,-0.5588 0.80605,-1.016 1.00733,-1.016 0.20128,0 0.57132,-0.29385 0.82231,-0.65301 0.70185,-1.00428 2.91335,-3.23959 3.7062,-3.74609 0.39041,-0.24941 0.81698,-0.73529 0.94794,-1.07974 0.13096,-0.34445 0.52873,-0.73676 0.88393,-0.87181 0.3552,-0.13504 0.87627,-0.63613 1.15793,-1.11351 0.28376,-0.48093 0.79811,-0.93976 1.15348,-1.02895 0.40823,-0.10246 0.77035,-0.46969 0.99623,-1.0103 0.198,-0.47387 0.75202,-1.08365 1.25326,-1.37939 0.49412,-0.29154 0.89839,-0.70923 0.89839,-0.9282 0,-0.21897 0.39498,-0.63118 0.87774,-0.91601 0.48275,-0.28483 0.94902,-0.74246 1.03614,-1.01696 0.0871,-0.2745 0.59748,-0.77626 1.13412,-1.11503 0.53665,-0.33877 1.047,-0.84053 1.13412,-1.11503 0.0871,-0.27449 0.55611,-0.73373 1.0422,-1.02053 0.48609,-0.2868 0.95649,-0.72372 1.04534,-0.97095 0.0888,-0.24722 0.54332,-0.8078 1.00994,-1.24575 0.46662,-0.43794 0.8484,-1.04553 0.8484,-1.35019 0,-0.7276 0.40488,-1.48978 1.28848,-2.42555 0.57146,-0.60521 0.7782,-1.15398 1.00475,-2.667 0.15689,-1.04775 0.57645,-2.4728 0.93236,-3.16677 0.63145,-1.23126 0.64281,-1.34492 0.46973,-4.699 -0.11457,-2.22016 -0.312,-3.70704 -0.5576,-4.19923 -0.20912,-0.4191 -0.60124,-1.7907 -0.87138,-3.048 -0.27437,-1.27697 -0.71698,-2.56628 -1.00276,-2.921 -0.28138,-0.34925 -0.72699,-1.0922 -0.99024,-1.651 -0.46537,-0.98782 -4.06082,-4.78918 -6.02855,-6.37381 -0.53668,-0.43219 -1.3584,-0.9159 -1.82603,-1.07491 -0.46764,-0.15901 -1.22745,-0.6203 -1.68848,-1.02509 -0.61999,-0.54435 -1.29141,-0.81375 -2.57876,-1.03467 -0.95728,-0.16428 -2.46693,-0.52096 -3.35477,-0.79261 -2.02963,-0.621 -3.67737,-0.62207 -6.25975,-0.004 -1.1176,0.26746 -2.98574,0.61648 -4.15143,0.7756 -2.52629,0.34485 -3.2259,0.5838 -3.56514,1.21769 -0.13996,0.2615 -0.69195,0.60654 -1.22665,0.76674 -0.53471,0.1602 -1.42433,0.75431 -1.97695,1.32024 -1.22831,1.2579 -2.4494,1.63038 -4.54964,1.38782 -2.14977,-0.24828 -2.62308,-0.47726 -3.03769,-1.46956 -0.24122,-0.57732 -0.62302,-0.95504 -1.15163,-1.13931 -0.45739,-0.15945 -0.89265,-0.54361 -1.03241,-0.91121 -0.1329,-0.34954 -0.58302,-0.81208 -1.00028,-1.02785 -0.41725,-0.21577 -0.90898,-0.70597 -1.09272,-1.08935 -0.18375,-0.38337 -0.64775,-0.84738 -1.03113,-1.03113 -0.38337,-0.18374 -0.8736,-0.67551 -1.0894,-1.09282 -0.2158,-0.41731 -0.67198,-0.88614 -1.01373,-1.04186 -0.34175,-0.15571 -0.84779,-0.66686 -1.12452,-1.13589 -0.27674,-0.46903 -0.78244,-0.95896 -1.12378,-1.08874 -0.34135,-0.12978 -0.77383,-0.55561 -0.96108,-0.94628 -0.18724,-0.39068 -0.65411,-0.86066 -1.03749,-1.04441 -0.38337,-0.18374 -0.8736,-0.67551 -1.0894,-1.09282 -0.2158,-0.41731 -0.68019,-0.88989 -1.03198,-1.05017 -0.35178,-0.16029 -0.79842,-0.67152 -0.99253,-1.136089 -0.26095,-0.62454 -0.55892,-0.88586 -1.14337,-1.00275 -1.022,-0.2044 -1.41626,-0.84525 -1.79532,-2.91819 -0.28203,-1.54226 -0.26501,-1.77176 0.19776,-2.667 0.27849,-0.53873 0.78178,-1.11672 1.11843,-1.28441 0.33664,-0.16769 0.89783,-0.63287 1.24708,-1.03374 0.34925,-0.40086 0.99165,-0.87147 1.42755,-1.04578 0.43591,-0.17431 0.91779,-0.59179 1.07086,-0.92774 0.15307,-0.33594 0.69762,-0.78601 1.21012,-1.00015 0.5125,-0.21413 1.36555,-0.78119 1.89567,-1.26011 0.53011,-0.47893 1.39185,-0.98896 1.91496,-1.1334 0.52311,-0.14443 1.25537,-0.59574 1.62726,-1.00291 0.4697,-0.51425 1.09574,-0.83028 2.05033,-1.035 0.8729,-0.1872 1.65252,-0.55735 2.13721,-1.0147 0.54841,-0.51747 1.2957,-0.8373 2.65673,-1.13703 1.09444,-0.24103 2.12946,-0.63855 2.45233,-0.94187 0.68513,-0.64365 1.58918,-0.85386 5.81398,-1.35187 1.8161,-0.21408 3.9033,-0.62021 4.63823,-0.90252 1.19963,-0.46082 1.92662,-0.51329 7.112,-0.51335 5.4011,-5e-5 5.91582,0.0409 7.93477,0.63055 1.18745,0.34683 3.68141,0.79723 5.54212,1.00089 2.96291,0.32428 3.53079,0.46383 4.572,1.12345 0.65389,0.41424 1.85299,0.8878 2.66467,1.05235 0.94059,0.19069 1.76961,0.55558 2.286,1.00619 0.44562,0.38886 1.44204,0.88949 2.21427,1.11251 0.86828,0.25076 1.68802,0.70189 2.14822,1.18224 0.48388,0.50506 1.10036,0.8337 1.76253,0.93958 0.6785,0.1085 1.31787,0.45698 1.91578,1.04416 0.49358,0.48473 1.26558,1.03781 1.71556,1.22907 0.44997,0.19126 1.07069,0.68934 1.37937,1.10685 0.30868,0.41751 0.76613,0.82414 1.01656,0.90362 0.25042,0.0795 1.38272,1.05219 2.5162,2.16156 1.13349,1.10937 2.16293,2.01704 2.28764,2.01704 0.12472,0 0.45576,0.44889 0.73566,0.99753 0.2799,0.54865 0.74134,1.07131 1.02542,1.16147 0.28409,0.0902 0.74467,0.61116 1.02353,1.15775 0.27885,0.5466 0.79838,1.18473 1.15449,1.41807 0.35612,0.23334 0.91484,0.94939 1.2416,1.591219 0.32675,0.64183 0.88026,1.43382 1.23001,1.75997 0.34975,0.32616 0.70785,0.97649 0.79578,1.44519 0.0908,0.48378 0.47161,1.1145 0.881,1.45898 0.87723,0.73813 1.12995,1.20986 1.52838,2.85282 0.1694,0.6985 0.5779,1.55575 0.90779,1.905 0.36735,0.3889 0.75744,1.31882 1.00653,2.39941 0.2237,0.97042 0.67247,2.11342 0.99726,2.54 0.79776,1.04776 0.85377,1.27938 1.26643,5.23718 0.29326,2.81264 0.4861,3.68818 1.04976,4.76615 l 0.69049,1.32055 0.007,6.28687 c 0.008,6.48995 -0.056,7.08736 -0.8741,8.19388 -0.3708,0.50153 -0.57236,1.53579 -0.8608,4.41715 -0.36104,3.60642 -0.62302,4.71681 -1.11286,4.71681 -0.27276,0 -0.59455,1.01093 -1.14546,3.59859 -0.31576,1.48314 -0.55534,2.03978 -1.00461,2.33415 -0.40363,0.26447 -0.73149,0.90939 -1.03803,2.04185 -0.30553,1.12869 -0.67556,1.85798 -1.16318,2.29245 -0.39331,0.35044 -0.84544,1.12119 -1.00474,1.71278 -0.17432,0.64738 -0.6327,1.38986 -1.15131,1.86489 -0.47393,0.4341 -0.99012,1.1577 -1.14709,1.608 -0.15983,0.45849 -0.59927,0.98103 -0.99872,1.18759 -0.42138,0.21791 -0.82892,0.71919 -0.99581,1.22486 -0.16318,0.49443 -0.55113,0.97839 -0.91847,1.14576 -0.36063,0.16432 -0.84288,0.75785 -1.11389,1.37093 -0.2724,0.61625 -1.31802,1.90031 -2.43162,2.98615 -1.07454,1.04775 -2.99886,2.98434 -4.27627,4.30353 -1.27741,1.3192 -2.71343,2.74795 -3.19116,3.175 -1.03771,0.92764 -32.32429,32.25201 -33.4226,33.46298 -0.41977,0.46282 -4.19167,4.22862 -8.382,8.36845 -4.19034,4.13982 -7.96908,7.91172 -8.39721,8.382 -2.89118,3.17581 -18.32497,18.10648 -19.66859,19.02742 l -1.651,1.13162 -19.177,0.0387 c -11.15839,0.0225 -19.61522,-0.0608 -20.22503,-0.19923 z m 58.32503,0.12492 c -1.88088,-0.63433 -2.21725,-1.40847 -1.6292,-3.74951 0.32699,-1.30176 0.58804,-1.81062 1.0929,-2.13042 0.36482,-0.23108 5.97825,-5.7083 12.4743,-12.1716 6.49605,-6.46329 12.21105,-12.14519 12.7,-12.62643 0.48895,-0.48124 1.2319,-1.01567 1.651,-1.18763 0.57674,-0.23664 6.34086,-0.33988 23.70849,-0.4246 12.62056,-0.0616 23.56852,-0.0342 24.32878,0.0608 0.89576,0.11192 1.62525,0.38168 2.07252,0.7664 l 0.69021,0.5937 v 14.30949 c 0,15.27194 -0.0242,15.58964 -1.24133,16.2877 -0.41263,0.23665 -9.19564,0.31852 -38.00167,0.35421 -20.60575,0.0255 -37.63645,-0.0114 -37.846,-0.0821 z"
       id="path1" /></g></svg>
