<?xml version="1.0" encoding="UTF-8" standalone="no"?>
<!-- Created with Inkscape (http://www.inkscape.org/) -->

<svg
   version="1.1"
   id="svg1"
   width="487.5603"
   height="655.94751"
   viewBox="0 0 487.5603 655.94751"
   xmlns="http://www.w3.org/2000/svg"
   xmlns:svg="http://www.w3.org/2000/svg">
  <defs
     id="defs1" />
  <g
     id="g1"
     transform="translate(-2144.7727,-1996.6167)">
    <path
       style="fill:#000000"
       d="m 2323.6965,2651.8147 c -5.4805,-0.4133 -10.2197,-1.3747 -12.96,-2.6292 -2.6486,-1.2125 -9.9616,-2.7416 -18.9012,-3.9522 -11.9553,-1.6189 -15.5355,-2.4837 -19.88,-4.8021 -2.9142,-1.5551 -8.2889,-3.3319 -11.9436,-3.9483 -5.2487,-0.8853 -7.2088,-1.7094 -9.3282,-3.9216 -1.5597,-1.6279 -4.1203,-3.0405 -6.1152,-3.3735 -6.5021,-1.0852 -9.3457,-2.3784 -11.4306,-5.1983 -1.6842,-2.2781 -3.0698,-2.9556 -7.126,-3.4844 -4.011,-0.523 -5.6638,-1.3182 -8.1257,-3.9095 -1.7121,-1.8022 -4.9424,-3.8103 -7.2431,-4.5027 -2.284,-0.6874 -5.3138,-2.4109 -6.7329,-3.83 -1.4191,-1.4191 -4.4923,-3.3998 -6.8294,-4.4016 -2.3371,-1.0018 -4.5209,-2.6773 -4.8529,-3.7233 -0.332,-1.046 -2.2449,-2.5585 -4.2509,-3.3611 -2.006,-0.8027 -4.3741,-2.5688 -5.2626,-3.9248 -0.8885,-1.356 -3.0306,-3.0567 -4.7603,-3.7794 -1.7297,-0.7227 -3.8853,-2.444 -4.7902,-3.825 -0.9049,-1.3811 -3.0452,-3.2115 -4.7562,-4.0676 -3.8249,-1.9136 -12.1862,-9.7806 -19.9293,-18.7508 -4.5165,-5.2323 -4.8473,-8.2983 -1.3036,-12.0831 1.385,-1.4792 2.9488,-3.9048 3.4751,-5.3901 0.5263,-1.4853 2.6496,-3.7691 4.7184,-5.0751 2.0689,-1.306 4.2248,-3.3911 4.7909,-4.6336 0.5661,-1.2424 2.074,-2.735 3.351,-3.3169 1.277,-0.5818 3.2161,-2.5734 4.309,-4.4258 1.0929,-1.8524 2.349,-3.368 2.7913,-3.368 1.1877,0 11.9813,-10.6955 13.272,-13.1513 0.6103,-1.1612 2.2902,-2.6772 3.7332,-3.3688 1.4429,-0.6915 3.2025,-2.4655 3.9102,-3.9421 0.7077,-1.4765 2.3315,-3.0818 3.6083,-3.5673 1.2769,-0.4854 3.1426,-2.2326 4.146,-3.8826 1.0034,-1.65 3.2097,-3.8425 4.9029,-4.8722 1.6932,-1.0297 3.2948,-2.6991 3.5592,-3.7099 0.2643,-1.0108 1.9194,-2.6867 3.6779,-3.7243 1.7585,-1.0375 3.8518,-3.152 4.6517,-4.6988 0.7998,-1.5467 2.7818,-3.3622 4.4044,-4.0343 1.6226,-0.6721 3.8324,-2.4609 4.9107,-3.9752 2.934,-4.1204 8.4086,-3.8891 13.7133,0.5795 5.8931,4.9641 7.282,6.4223 9.5616,10.0384 1.1412,1.8101 5.7468,6.439 10.2348,10.2865 4.488,3.8475 9.9756,8.7385 12.1946,10.8689 2.219,2.1304 4.9617,3.8735 6.0948,3.8735 1.1332,0 3.2774,1.3029 4.7649,2.8954 2.7297,2.922 8.1875,5.7446 11.1081,5.7446 0.8713,0 3.0334,1.2724 4.8046,2.8276 3.5181,3.0889 8.5468,4.8387 13.93,4.847 1.9014,0 5.4356,1.0574 7.8538,2.3432 6.3458,3.3741 17.4834,4.7123 34.8306,4.1851 13.6695,-0.4155 15.0981,-0.6353 19.7242,-3.0354 2.97,-1.5409 7.9215,-2.9957 12.2412,-3.5965 7.6815,-1.0684 12.0387,-2.7691 12.9097,-5.0389 0.291,-0.7583 2.1793,-1.9049 4.1963,-2.5478 2.017,-0.6429 5.2117,-2.6444 7.0995,-4.4477 1.8878,-1.8033 5.053,-3.7263 7.0339,-4.2732 2.6152,-0.7221 3.9324,-1.7812 4.8095,-3.8672 0.6643,-1.58 2.5896,-3.7129 4.2783,-4.7399 1.6888,-1.027 3.3449,-2.6208 3.6804,-3.5418 0.3354,-0.921 2.1569,-3.2507 4.0477,-5.1772 8.3299,-8.4869 10.4387,-11.1577 12.0145,-15.2173 0.9224,-2.376 2.9194,-5.4 4.4379,-6.72 2.41,-2.0949 2.8956,-3.4373 3.82,-10.56 0.8826,-6.7998 1.5082,-8.6401 3.7533,-11.04 2.6891,-2.8745 2.6953,-2.9121 3.2347,-19.7311 0.5991,-18.6783 0.032,-22.9697 -3.5289,-26.6961 -1.9491,-2.0397 -2.6176,-4.1119 -3.434,-10.644 -0.8732,-6.9868 -1.4117,-8.5219 -3.8844,-11.0731 -1.5789,-1.629 -3.576,-5.0318 -4.4381,-7.5618 -1.0087,-2.9604 -2.3719,-4.9665 -3.8245,-5.6284 -1.2414,-0.5656 -2.7118,-2.4063 -3.2677,-4.0905 -0.5558,-1.6842 -2.4043,-4.4208 -4.1077,-6.0813 -1.7035,-1.6605 -4.0659,-3.9989 -5.25,-5.1964 -6.1008,-6.1704 -9.9089,-9.3773 -11.1352,-9.3773 -0.7503,0 -2.4783,-1.4608 -3.84,-3.2461 -1.7196,-2.2545 -3.576,-3.4524 -6.0776,-3.9217 -2.2817,-0.428 -4.7404,-1.8829 -6.7081,-3.9693 -2.3494,-2.4911 -4.3467,-3.5261 -8.1963,-4.2474 -7.5958,-1.4233 -9.8292,-3.4655 -10.1757,-9.3047 -0.2317,-3.9032 0.1437,-5.339 1.9825,-7.5828 1.2476,-1.5224 3.1839,-4.2852 4.3028,-6.1394 1.1189,-1.8543 4.2608,-5.3103 6.9819,-7.68 2.721,-2.3698 6.3134,-5.6915 7.9829,-7.3816 1.6696,-1.6902 4.2452,-3.5237 5.7236,-4.0745 1.6064,-0.5986 3.0742,-2.1094 3.6478,-3.7547 0.5279,-1.5143 2.0307,-3.2412 3.3397,-3.8375 1.3089,-0.5964 3.249,-2.5576 4.3114,-4.3581 1.0691,-1.812 3.0139,-3.5454 4.3556,-3.8822 1.5619,-0.392 2.9148,-1.7831 3.8041,-3.9113 0.759,-1.8165 2.6439,-3.9564 4.1887,-4.7553 1.5447,-0.7988 3.0921,-2.3455 3.4385,-3.437 0.6534,-2.0585 18.4052,-20.1164 19.7755,-20.1164 0.4271,0 2.4873,-1.728 4.5783,-3.84 3.7994,-3.8375 3.8068,-3.84 11.4139,-3.84 8.7871,0 13.325,1.2768 14.1867,3.9918 0.3383,1.0658 2.5513,2.7449 5.0026,3.7957 2.4178,1.0364 6.0396,3.3692 8.0484,5.184 2.0088,1.8149 4.7256,3.5691 6.0374,3.8983 1.3117,0.3292 3.2349,2.0391 4.2737,3.7998 1.2265,2.0788 3.0128,3.5116 5.0949,4.0865 2.121,0.5856 6.2313,3.9379 12.144,9.9045 13.7083,13.8332 15.2688,15.5792 15.9361,17.8296 0.3409,1.1497 2.0696,2.9457 3.8415,3.9911 2.1189,1.2502 3.4428,2.9082 3.868,4.8438 0.3555,1.6186 1.8733,3.9753 3.3728,5.2371 1.4996,1.2618 3.8433,4.498 5.2082,7.1915 1.3649,2.6935 3.3315,5.3522 4.3703,5.9081 1.044,0.5587 2.3689,2.8282 2.9625,5.0745 0.5906,2.235 2.3582,5.4059 3.9279,7.0464 1.803,1.8843 3.3894,5.0662 4.3076,8.64 0.7995,3.1115 2.6735,7.1959 4.1646,9.0764 1.9278,2.4312 3.187,5.7598 4.3581,11.52 0.9059,4.4555 2.6873,9.8811 3.9588,12.057 1.5862,2.7146 2.5936,6.4806 3.2099,12 1.7126,15.3366 2.9073,29.1861 2.9059,33.6884 -8e-4,2.4884 0.8626,6.7164 1.9186,9.3955 2.3727,6.0196 2.3799,7.2499 0.083,14.1562 -1.2907,3.8797 -2.1585,10.7722 -2.9159,23.1574 -1.4275,23.3447 -2.7085,32.3493 -5.3463,37.5825 -2.4136,4.7882 -3.7998,9.6198 -4.7567,16.5789 -0.4907,3.5694 -1.3674,5.2645 -3.9277,7.5943 -2.3916,2.1763 -3.2974,3.8129 -3.3013,5.965 -0.01,5.1544 -1.7863,9.7726 -4.2722,11.103 -1.4208,0.7604 -2.927,2.9346 -3.7923,5.4741 -0.7895,2.317 -2.9455,5.977 -4.7912,8.1333 -1.8457,2.1562 -3.631,5.1733 -3.9673,6.7046 -0.3768,1.7154 -1.6555,3.324 -3.3316,4.1907 -1.6667,0.8619 -3.156,2.7274 -3.8457,4.8173 -0.6191,1.8759 -2.1892,4.1076 -3.489,4.9593 -1.2999,0.8517 -3.0521,2.8803 -3.8939,4.5081 -2.0985,4.058 -13.4633,16.4752 -17.5714,19.1985 -1.848,1.2251 -5.088,3.8608 -7.2,5.8572 -2.112,1.9965 -5.136,4.8387 -6.72,6.3162 -1.584,1.4775 -4.0946,2.9867 -5.5792,3.3538 -1.4845,0.3671 -3.6427,1.9436 -4.7958,3.5033 -1.1531,1.5597 -4.0556,3.6785 -6.4498,4.7085 -2.3943,1.03 -5.5176,3.1063 -6.9406,4.614 -1.423,1.5077 -4.0343,3.0127 -5.8028,3.3445 -1.7685,0.3318 -4.4586,1.9007 -5.9779,3.4866 -2.5281,2.6388 -4.3047,3.3894 -12.2957,5.1953 -1.497,0.3383 -3.7505,1.725 -5.0078,3.0816 -1.6964,1.8305 -4.0734,2.8072 -9.2174,3.7873 -3.8123,0.7264 -9.6805,2.6466 -13.0404,4.267 -4.8674,2.3475 -8.931,3.3234 -19.9955,4.8019 -9.2214,1.2322 -15.2229,2.5373 -17.8641,3.8848 -3.0353,1.5485 -6.8406,2.2251 -16.0652,2.8563 -13.7729,0.9425 -48.1804,0.9067 -61.0478,-0.064 z m -4.1297,-342.1649 c -3.8124,-1.9464 -6.7406,-4.2248 -7.9178,-6.1605 -1.0275,-1.6895 -2.9014,-3.5426 -4.1644,-4.1181 -1.263,-0.5754 -2.7724,-2.0911 -3.3543,-3.3681 -0.5818,-1.277 -2.5734,-3.216 -4.4258,-4.3089 -1.8524,-1.093 -3.368,-2.3983 -3.368,-2.9007 0,-1.2786 -11.5359,-12.8264 -14.16,-14.1746 -1.188,-0.6104 -2.16,-1.5781 -2.16,-2.1504 0,-1.2956 -19.0802,-20.3264 -21.8832,-21.8265 -3.6198,-1.9373 -4.5536,-9.0749 -2.5026,-19.1271 0.2855,-1.399 1.5297,-2.5969 3.3601,-3.235 1.6736,-0.5834 3.9045,-2.5936 5.2583,-4.7383 1.2933,-2.0487 3.0004,-3.7249 3.7936,-3.7249 0.7931,0 2.2565,-1.3393 3.2519,-2.9761 0.9954,-1.6368 3.1281,-3.7777 4.7392,-4.7575 1.6112,-0.9799 3.5616,-3.0039 4.3342,-4.4979 0.7726,-1.4941 2.4484,-3.275 3.7241,-3.9577 1.2756,-0.6827 3.0662,-2.5057 3.979,-4.051 0.9129,-1.5453 2.93,-3.4666 4.4826,-4.2694 1.5525,-0.8029 2.8228,-1.7835 2.8228,-2.1792 0,-0.3957 2.8148,-3.5166 6.2551,-6.9353 3.4404,-3.4188 7.336,-7.2959 8.6571,-8.6159 1.321,-1.32 3.052,-3.048 3.8466,-3.84 0.7947,-0.792 2.5117,-2.52 3.8156,-3.84 1.3039,-1.32 3.3461,-3.3797 4.5382,-4.5771 1.1921,-1.1973 2.8154,-2.8393 3.6074,-3.6487 0.792,-0.8094 2.736,-2.7445 4.32,-4.3001 1.584,-1.5557 3.312,-3.2908 3.84,-3.8557 0.528,-0.565 3.984,-4.0036 7.68,-7.6412 3.696,-3.6377 7.584,-7.548 8.64,-8.6896 1.056,-1.1416 2.6269,-2.7215 3.4909,-3.5108 2.4494,-2.2375 6.2371,-6.077 7.7008,-7.8059 0.7315,-0.864 2.273,-2.2189 3.4256,-3.0109 1.1526,-0.792 2.2232,-2.0788 2.3791,-2.8594 0.2487,-1.2449 -11.5788,-1.4219 -96.1964,-1.44 -90.2682,-0.019 -96.679,-0.1295 -99.5715,-1.7106 -1.7004,-0.9294 -3.5364,-2.521 -4.08,-3.5369 -0.644,-1.2031 -0.9812,-20.0225 -0.9674,-53.99 0.02,-49.0857 0.1276,-52.3778 1.8384,-56.1457 0.9995,-2.2014 2.826,-4.5774 4.0589,-5.28 1.8481,-1.0532 41.5879,-1.2774 226.4016,-1.2774 123.288,0 225.3614,0.3355 226.8298,0.7457 3.6907,1.031 6.4422,5.9102 6.4466,11.4318 0,5.8561 -1.2878,9.0936 -3.9703,9.9449 -1.1901,0.3778 -17.6498,16.2907 -36.5771,35.3622 -18.9273,19.0714 -34.7183,34.9649 -35.0911,35.3187 -9.8763,9.3739 -32.8116,31.7712 -34.6578,33.8446 -2.0257,2.2752 -41.1789,41.2938 -60.392,60.1845 -2.4795,2.4378 -6.8841,7.0802 -9.7881,10.3164 -2.904,3.2362 -5.928,6.5329 -6.72,7.3261 -0.792,0.7932 -9.864,9.7831 -20.16,19.9777 -10.296,10.1945 -19.3034,19.1592 -20.0165,19.9214 -1.015,1.085 -27.6064,27.7897 -31.9697,32.106 -0.5338,0.528 -8.5293,8.443 -17.7677,17.589 -16.7871,16.619 -23.9219,22.3384 -27.634,22.1519 -1.0847,-0.054 -4.6945,-1.489 -8.0218,-3.1878 z"
       id="path1" />
  </g>
</svg>
