<?xml version="1.0" encoding="UTF-8" standalone="no"?>
<!-- Created with Inkscape (http://www.inkscape.org/) -->

<svg
   width="170.64758mm"
   height="169.8369mm"
   viewBox="0 0 170.64758 169.8369"
   version="1.1"
   id="svg1"
   xml:space="preserve"
   xmlns="http://www.w3.org/2000/svg"
   xmlns:svg="http://www.w3.org/2000/svg"><defs
     id="defs1" /><g
     id="layer1"
     transform="translate(-13.680381,-76.005322)"><path
       style="fill:#000000"
       d="m 145.76038,245.64521 c -0.62865,-0.1164 -7.22655,-0.19997 -14.662,-0.18571 -11.21313,0.0215 -13.59181,-0.0345 -13.94585,-0.32808 -1.15746,-0.95991 -1.11015,1.97609 -1.11015,-68.89408 0,-36.79798 0.0662,-67.23634 0.14708,-67.64081 0.12812,-0.64058 1.23171,-1.92931 3.71515,-4.33843 0.32052,-0.31093 1.24317,-1.24721 2.05032,-2.08062 0.80716,-0.83341 1.68343,-1.58381 1.94727,-1.66755 0.26385,-0.0837 0.59507,-0.48315 0.73606,-0.887584 0.14099,-0.404431 0.6058,-0.916045 1.03293,-1.136921 0.42713,-0.220875 0.94459,-0.726457 1.14991,-1.123515 0.20533,-0.397058 0.7142,-0.863118 1.13082,-1.035688 0.44932,-0.186117 0.85984,-0.607376 1.00908,-1.035484 0.13838,-0.396946 0.60106,-0.902437 1.02819,-1.123313 0.42713,-0.220875 0.94872,-0.734457 1.15911,-1.141292 0.21038,-0.406834 0.61665,-0.814013 0.90282,-0.904841 0.28618,-0.09083 0.79749,-0.604214 1.13626,-1.14086 0.33877,-0.536645 0.85009,-1.050032 1.13626,-1.14086 0.28617,-0.09083 0.69598,-0.504851 0.91069,-0.920052 0.21471,-0.415202 0.67348,-0.862544 1.01948,-0.994094 0.346,-0.13155 0.85955,-0.629771 1.14121,-1.107157 0.28167,-0.477387 0.7925,-0.938347 1.13519,-1.024357 0.39099,-0.09813 0.75683,-0.476513 0.98218,-1.015832 0.1975,-0.472699 0.67587,-1.013621 1.06303,-1.20205 0.38716,-0.188429 0.88349,-0.662528 1.10295,-1.053553 0.21946,-0.391025 0.68476,-0.849578 1.03401,-1.019007 0.34925,-0.169428 0.78965,-0.657557 0.97865,-1.08473 0.19819,-0.447912 0.65702,-0.894959 1.08395,-1.056106 0.46532,-0.175638 0.8747,-0.601134 1.10217,-1.145535 0.44966,-1.07618 0.7117,-1.28389 2.27798,-1.805669 2.37156,-0.790043 3.20599,-0.478259 3.70783,1.385428 0.19183,0.712402 0.26853,15.671558 0.25575,49.881512 -0.0147,39.22921 0.0453,48.90507 0.30421,49.0725 0.17735,0.11471 6.85788,0.26571 14.84561,0.33556 14.17031,0.12392 14.54018,0.13972 15.22431,0.6507 0.38563,0.28803 0.93682,0.83924 1.22485,1.22492 0.51349,0.68756 0.52508,1.00048 0.5948,16.0579 0.0486,10.49042 -0.0165,15.68215 -0.20546,16.38379 -0.48255,1.79206 -0.0903,1.75069 -16.60072,1.75069 -8.02581,0 -14.77318,0.0694 -14.99415,0.15418 -0.35996,0.13812 -0.40178,1.68271 -0.40178,14.83951 v 14.68533 l -0.68939,0.8193 c -1.76027,2.09196 -2.91951,2.5 -5.66061,1.99246 z M 15.458512,212.86907 c -1.09949,-0.43842 -1.77813,-1.26136 -1.77813,-2.15622 0,-0.73112 0.47906,-1.31087 4.05619,-4.90873 2.23091,-2.24383 4.171071,-4.07969 4.311481,-4.07969 0.14041,0 0.4324,-0.34251 0.64888,-0.76113 0.222,-0.4293 0.78296,-0.92381 1.2867,-1.13429 0.58237,-0.24333 0.98234,-0.62913 1.14957,-1.10886 0.14106,-0.40463 0.53982,-0.8648 0.88615,-1.0226 0.34632,-0.15779 0.86328,-0.68283 1.1488,-1.16675 0.28551,-0.48391 0.74067,-0.95016 1.01146,-1.03611 0.27079,-0.0859 0.66447,-0.48912 0.87486,-0.89596 0.21038,-0.40683 0.72009,-0.91427 1.13268,-1.12763 0.4126,-0.21336 0.87746,-0.62577 1.03304,-0.91647 0.15557,-0.29069 1.41704,-1.63253 2.80325,-2.98187 1.38622,-1.34933 2.75491,-2.68193 3.04155,-2.96133 0.28664,-0.2794 1.17169,-1.20548 1.96678,-2.05795 0.79508,-0.85248 1.7016,-1.68454 2.01448,-1.84903 0.31288,-0.16449 0.74444,-0.63859 0.95903,-1.05355 0.21458,-0.41496 0.51633,-0.75447 0.67055,-0.75447 0.37457,0 3.51655,-3.15546 3.51655,-3.53164 0,-0.16252 0.38199,-0.52087 0.84888,-0.79634 0.46688,-0.27546 0.97627,-0.78046 1.13198,-1.12222 0.15572,-0.34175 0.63097,-0.80125 1.05613,-1.0211 0.42516,-0.21986 0.77301,-0.50801 0.77301,-0.64035 0,-0.33829 9.42661,-9.76653 9.9745,-9.97621 0.24722,-0.0946 0.68051,-0.56358 0.96287,-1.04215 0.28483,-0.48274 0.79893,-0.94179 1.15475,-1.0311 0.40884,-0.10261 0.77046,-0.46994 0.99746,-1.01324 0.23343,-0.55867 0.62191,-0.94493 1.12772,-1.12125 0.44543,-0.15528 0.8756,-0.54249 1.0176,-0.91598 0.2641,-0.69462 7.19795,-7.76042 7.61551,-7.76042 0.1378,0 0.42766,-0.34251 0.64414,-0.76113 0.222,-0.4293 0.78296,-0.92381 1.2867,-1.13429 0.58237,-0.24333 0.98234,-0.62913 1.14957,-1.10886 0.14106,-0.40463 0.53982,-0.8648 0.88615,-1.0226 0.34632,-0.15779 0.86328,-0.68283 1.1488,-1.16675 0.28551,-0.48391 0.74067,-0.95016 1.01146,-1.03611 0.27079,-0.0859 0.66447,-0.48912 0.87486,-0.89596 0.21038,-0.40683 0.72009,-0.91427 1.13268,-1.12763 0.4126,-0.21336 0.87809,-0.62695 1.03444,-0.91909 0.37883,-0.70784 7.51365,-7.84558 7.84237,-7.84558 0.14156,0 0.4337,-0.34096 0.6492,-0.7577 0.2155,-0.41673 0.73774,-0.93658 1.16053,-1.15522 0.4228,-0.21863 0.88918,-0.6619 1.03641,-0.98503 0.14723,-0.32314 0.63839,-0.7643 1.09146,-0.98035 0.45879,-0.21878 0.96188,-0.72624 1.13547,-1.14532 0.17143,-0.41386 0.58421,-0.87665 0.9173,-1.02842 0.33309,-0.15176 0.7845,-0.62186 1.00313,-1.04465 0.21864,-0.42279 0.73655,-0.94403 1.15092,-1.15831 0.41437,-0.21428 0.92553,-0.72246 1.13592,-1.1293 0.21038,-0.40683 0.61665,-0.81401 0.902817,-0.90484 0.28618,-0.0908 0.80236,-0.61192 1.14708,-1.15799 0.71632,-1.13473 3.15848,-2.52287 4.43848,-2.52287 1.082,0 1.94794,0.93477 2.14696,2.31761 0.088,0.61127 0.12571,10.10056 0.0838,21.08733 -0.0687,18.031 -0.1164,20.0218 -0.48998,20.447 -0.22763,0.25908 -0.61577,0.87111 -0.86254,1.36006 -0.55551,1.10071 -5.79046,6.81056 -6.842597,7.46335 -0.90557,0.56185 -3.94599,3.57676 -3.94599,3.91287 0,0.25219 3.75733,0.55592 6.984997,0.56465 2.35693,0.006 3.66078,0.57182 4.62799,2.00706 l 0.57901,0.8592 v 15.67618 c 0,15.22292 -0.0145,15.69461 -0.50141,16.31362 -0.29398,0.37374 -0.97098,0.75569 -1.63648,0.92326 -1.50017,0.37775 -89.370688,0.37819 -90.317978,4.5e-4 z"
       id="path1" /></g></svg>
