<?xml version="1.0" encoding="UTF-8" standalone="no"?>
<!-- Created with Inkscape (http://www.inkscape.org/) -->

<svg
   version="1.1"
   id="svg1"
   width="392.61279"
   height="656.48608"
   viewBox="0 0 392.61279 656.48608"
   xmlns="http://www.w3.org/2000/svg"
   xmlns:svg="http://www.w3.org/2000/svg">
  <defs
     id="defs1" />
  <g
     id="g1"
     transform="translate(-2260.751,-2005.0415)">
    <path
       style="fill:#000000"
       d="m 2419.68,2660.7648 c -15.3754,-2.852 -22.0436,-3.85 -35.9039,-5.3737 -13.3304,-1.4654 -16.2661,-2.0852 -19.1508,-4.0428 -2.1039,-1.4278 -6.5203,-2.8837 -11.5474,-3.8068 -6.4009,-1.1753 -8.7431,-2.0707 -10.961,-4.1902 -2.9847,-2.8523 -3.092,-2.8979 -11.069,-4.7031 -3.8389,-0.8688 -5.3739,-1.7316 -6.1635,-3.4646 -0.7617,-1.6717 -2.5275,-2.7271 -6.4079,-3.8297 -3.3006,-0.9379 -6.6461,-2.7474 -8.7165,-4.7145 -1.848,-1.7558 -4.5528,-3.4856 -6.0106,-3.844 -1.4579,-0.3583 -3.5105,-1.8591 -4.5615,-3.335 -1.0949,-1.5377 -3.7378,-3.306 -6.1895,-4.1414 -3.0155,-1.0275 -6.3639,-3.5704 -11.3425,-8.6141 -3.8852,-3.9359 -8.4263,-7.8607 -10.0915,-8.7218 -5.3076,-2.7447 -6.375,-7.5581 -3.2165,-14.5057 1.5812,-3.4783 14.6237,-18.1421 21.6833,-24.3788 1.5571,-1.3757 8.413,-7.9965 15.2352,-14.7131 6.8223,-6.7165 13.1698,-12.4549 14.1056,-12.7519 0.9358,-0.297 2.2113,-1.7708 2.8344,-3.2751 1.6881,-4.0753 15.2224,-17.5195 20.3291,-20.1937 l 4.4555,-2.3332 7.2756,2.3067 c 6.0531,1.9192 7.6433,2.869 9.4645,5.6533 1.3393,2.0476 3.3272,3.637 5.1218,4.0951 1.6131,0.4117 3.9691,1.8516 5.2356,3.1997 1.2814,1.3641 4.6639,3.1245 7.6271,3.9695 3.1904,0.9099 6.3295,2.5949 7.8321,4.2044 2.002,2.1443 3.6475,2.806 8.16,3.2816 3.1088,0.3277 8.8019,1.0142 12.6515,1.5257 9.6033,1.2757 24.2734,1.1169 38.6763,-0.4189 12.5174,-1.3348 14.5885,-1.9502 17.5407,-5.2124 0.9652,-1.0665 3.5321,-2.2393 5.7044,-2.6063 2.7137,-0.4585 5.1004,-1.7954 7.6275,-4.2725 2.4983,-2.449 4.8923,-3.7994 7.4644,-4.2107 2.8974,-0.4634 4.127,-1.264 5.2365,-3.4094 0.7975,-1.5422 2.3433,-3.0875 3.4351,-3.434 1.0919,-0.3465 2.6686,-2.0631 3.5038,-3.8147 0.8353,-1.7515 2.5511,-3.655 3.8131,-4.23 1.2619,-0.5749 3.1951,-2.5721 4.2961,-4.4381 1.101,-1.8661 2.7855,-3.8122 3.7433,-4.3248 0.978,-0.5235 2.4437,-3.3534 3.3432,-6.4552 1.0538,-3.6338 2.5638,-6.3442 4.4143,-7.9232 2.3713,-2.0234 3.0257,-3.6325 4.1712,-10.2557 0.9236,-5.3406 2.2218,-9.1588 4.0547,-11.9259 2.6697,-4.0301 2.6992,-4.2407 2.9994,-21.4169 0.347,-19.8532 0.078,-22.0642 -3.2844,-27.0192 -1.4787,-2.1791 -2.9937,-6.4998 -3.8205,-10.8966 -1.0173,-5.409 -1.9551,-7.7803 -3.641,-9.2057 -2.8965,-2.449 -4.4373,-5.4421 -4.4373,-8.6197 0,-1.5775 -1.3339,-3.9199 -3.6,-6.3218 -9.614,-10.1904 -11.5983,-12.3322 -15.7694,-17.0218 -2.4692,-2.776 -5.8303,-5.5148 -7.4692,-6.0861 -1.6389,-0.5713 -3.6093,-2.2562 -4.3788,-3.7442 -1.1233,-2.1723 -2.4179,-2.9169 -6.5705,-3.779 -3.6688,-0.7616 -5.9005,-1.8918 -7.6804,-3.8893 -2.6913,-3.0206 -3.774,-3.389 -12.5358,-4.2651 -3.1263,-0.3126 -7.6623,-1.4514 -10.08,-2.5308 -2.4178,-1.0793 -8.2819,-2.5498 -13.0314,-3.2678 -7.6277,-1.1529 -8.9441,-1.6507 -11.28,-4.265 l -2.6445,-2.9597 -0.24,-43.4248 c -0.132,-23.8837 -0.2348,-47.0969 -0.2284,-51.5849 0.015,-10.2994 2.1874,-16.5902 6.5556,-18.9804 4.9253,-2.6952 17.4296,-2.0184 37.1128,2.0086 9.24,1.8904 19.9444,3.7314 23.7875,4.0912 5.5874,0.523 7.656,1.1853 10.3238,3.3054 2.179,1.7317 5.3781,3.011 9.2228,3.6883 3.2376,0.5703 6.7999,1.6931 7.9162,2.4953 1.1163,0.8021 2.9727,2.1428 4.1253,2.9793 1.1525,0.8365 4.5941,2.1734 7.648,2.9709 3.1282,0.8168 6.4558,2.4247 7.6215,3.6825 1.138,1.228 4.3394,3.0261 7.1142,3.9958 2.8214,0.986 5.6993,2.753 6.5295,4.0089 0.8164,1.2352 3.6775,3.2248 6.3578,4.4214 2.6804,1.1966 5.7374,3.1479 6.7934,4.3363 1.056,1.1885 3.474,2.954 5.3734,3.9234 1.8993,0.9694 4.1714,2.8584 5.049,4.1978 0.8776,1.3394 2.8803,3.0996 4.4504,3.9116 1.5701,0.8119 3.4969,2.7181 4.2818,4.2359 0.7849,1.5178 2.7387,3.2169 4.3417,3.7757 1.619,0.5644 3.3072,2.0483 3.7975,3.338 0.4856,1.2771 2.1031,3.2588 3.5945,4.4037 1.4914,1.145 3.3903,3.2537 4.2198,4.6861 0.8294,1.4324 2.6697,3.1699 4.0895,3.8613 1.4198,0.6913 3.4426,2.9448 4.4951,5.0079 1.0525,2.063 2.8161,4.2339 3.9192,4.8243 1.1031,0.5904 3.0096,3.3435 4.2366,6.118 1.2271,2.7745 3.5631,6.3767 5.1912,8.0049 1.6282,1.6281 2.9603,3.6006 2.9603,4.3832 0,0.7827 1.5037,3.2228 3.3415,5.4225 1.8378,2.1998 3.8075,5.8046 4.3771,8.0109 0.5696,2.2062 1.243,4.7294 1.4965,5.6071 0.2534,0.8776 1.6806,3.1306 3.1714,5.0065 1.6767,2.11 3.1355,5.5707 3.8247,9.0739 0.6169,3.1357 2.4068,7.6146 4.0107,10.036 2.4882,3.7566 3.0789,5.9414 4.1907,15.5 1.0984,9.4438 1.6832,11.6371 3.8661,14.499 2.2857,2.9967 2.669,4.6251 3.4439,14.6304 1.1172,14.4252 1.1225,48.344 0.01,62.7066 -0.7659,9.886 -1.1796,11.6288 -3.7069,15.6139 -2.1161,3.3367 -3.0019,6.1422 -3.458,10.9519 -1.3212,13.9333 -1.7073,15.6524 -4.1734,18.5832 -1.3501,1.6045 -3.2438,5.7629 -4.2083,9.241 -0.9644,3.478 -2.6552,7.2835 -3.7573,8.4566 -1.1021,1.1731 -2.8567,4.8735 -3.8992,8.2231 -1.0425,3.3495 -2.7151,6.9626 -3.7169,8.0289 -1.0018,1.0664 -2.9263,4.3522 -4.2767,7.3018 -1.5179,3.3156 -3.3634,5.7768 -4.834,6.4468 -1.7235,0.7853 -2.6954,2.3484 -3.5281,5.6742 -1.1934,4.7661 -1.9285,5.6761 -16.3256,20.209 -4.0436,4.0818 -8.0349,8.7948 -8.8695,10.4734 -0.8346,1.6785 -2.4558,3.3498 -3.6027,3.7138 -1.1469,0.364 -5.3637,3.9051 -9.3706,7.869 -4.5457,4.497 -9.1606,8.0508 -12.2725,9.4508 -2.743,1.2339 -5.4585,3.1242 -6.0346,4.2006 -0.576,1.0763 -2.5931,2.6028 -4.4824,3.3922 -1.8893,0.7894 -4.892,2.7145 -6.6728,4.278 -1.7807,1.5636 -5.0794,3.3295 -7.3303,3.9244 -2.2509,0.5949 -5.3886,2.3124 -6.9726,3.8168 -1.6586,1.5751 -4.9157,3.2279 -7.68,3.8971 -5.9113,1.4309 -8.0711,2.4913 -10.6322,5.2197 -1.3984,1.4898 -3.6877,2.3343 -7.6797,2.8331 -3.4634,0.4327 -8.0016,1.9386 -11.605,3.8508 -4.2322,2.2459 -7.7867,3.322 -12.4803,3.7783 -9.5228,0.9258 -34.9819,4.2918 -44.6204,5.8994 -8.9086,1.4859 -10.7241,1.5329 -16.6624,0.4314 z m -149.76,-333.4932 c -4.5611,-1.7012 -7.0762,-3.3692 -8.1743,-5.421 -0.7059,-1.3189 -1.0107,-48.7484 -0.9932,-154.5641 0.028,-170.1971 -0.5529,-156.5545 6.8266,-160.3192 3.8454,-1.9618 4.4222,-1.9688 157.4969,-1.9103 166.7891,0.064 158.1154,-0.2197 161.722,5.2848 1.5099,2.3044 1.7073,6.9595 2.0898,49.2802 0.4419,48.9051 -0.099,59.2028 -3.3018,62.7994 -4.2838,4.8113 -1.5273,4.6869 -102.0896,4.6042 -59.1163,-0.049 -94.124,0.2645 -94.4829,0.8453 -0.3136,0.5073 -0.5579,43.5066 -0.5428,95.5538 0.03,104.2854 0.3018,99.5566 -5.9151,102.9489 -2.9716,1.6216 -6.9298,1.7518 -56.4756,1.858 -37.2019,0.08 -54.1491,-0.21 -56.16,-0.96 z"
       id="path1" />
  </g>
</svg>
