<?xml version="1.0" encoding="UTF-8" standalone="no"?>
<!-- Created with Inkscape (http://www.inkscape.org/) -->

<svg
   width="199.44861mm"
   height="270.8544mm"
   viewBox="0 0 199.44861 270.8544"
   version="1.1"
   id="svg1"
   xml:space="preserve"
   xmlns="http://www.w3.org/2000/svg"
   xmlns:svg="http://www.w3.org/2000/svg"><defs
     id="defs1" /><g
     id="layer1"
     transform="translate(-4.999941,-14.15897)"><path
       style="fill:#000000"
       d="m 119.38804,284.65534 c -0.85948,-0.50061 -0.77067,-1.02707 0.17639,-1.04567 0.65685,-0.0129 0.56747,-0.13508 -0.51827,-0.7084 -0.72161,-0.38104 -1.45368,-0.96934 -1.62682,-1.30732 -0.4426,-0.86404 -0.85154,-4.2848 -0.43407,-3.631 0.20234,0.31688 0.37271,-9.67691 0.44805,-26.28194 0.0899,-19.81136 0.23174,-27.04605 0.54435,-27.76339 0.30639,-0.70308 0.69223,-0.9814 1.40164,-1.01106 0.59667,-0.0249 0.73782,-0.10391 0.36151,-0.20225 -1.00207,-0.26187 -0.73496,-1.16493 0.35278,-1.19273 0.53358,-0.0136 1.28764,-0.16123 1.67569,-0.32798 0.59127,-0.25408 0.51983,-0.30721 -0.44097,-0.32799 -0.63059,-0.0136 -1.14653,-0.17454 -1.14653,-0.35757 0,-0.61176 1.5551,-1.43111 2.7162,-1.43111 0.85119,0 1.30569,-0.24052 1.7575,-0.93007 0.33518,-0.51155 1.14958,-1.15577 1.80978,-1.43162 1.04416,-0.43628 1.27579,-0.43431 1.77997,0.0152 0.47526,0.42367 0.65545,0.43385 1.00087,0.0565 0.33269,-0.36345 0.27706,-0.49792 -0.26458,-0.63956 -1.49729,-0.39155 -0.10819,-2.19363 1.4506,-1.88187 0.89505,0.17901 0.9591,0.1132 0.91239,-0.93759 -0.0438,-0.98545 0.074,-1.1444 0.91991,-1.24174 0.68548,-0.0789 0.97014,0.0473 0.97014,0.4299 0,0.65888 0.91738,0.38149 1.20341,-0.36387 0.10979,-0.28612 0.0506,-0.42815 -0.13142,-0.31562 -0.43134,0.26658 -1.02583,-0.89616 -0.80735,-1.57906 0.18454,-0.57679 1.11083,-1.41111 1.56668,-1.41111 0.15694,0 0.30376,0.43656 0.32627,0.97014 0.0252,0.59686 0.103,0.7326 0.20226,0.35277 0.0887,-0.33954 0.4275,-0.62742 0.75282,-0.63972 0.41056,-0.0155 0.34119,-0.12273 -0.22676,-0.35047 -0.86062,-0.3451 -0.84958,-0.81744 0.0654,-2.79785 0.54217,-1.17352 1.63482,-1.39018 1.63482,-0.32416 0,0.43462 0.1082,0.68201 0.24045,0.54977 0.13224,-0.13225 0.20104,-1.091 0.15289,-2.13056 -0.0975,-2.10597 0.73755,-4.60704 1.45373,-4.35381 0.268,0.0948 0.4273,0.70553 0.39916,1.53038 -0.0257,0.75497 0.0256,1.09486 0.11406,0.75531 0.0885,-0.33954 0.42706,-0.62989 0.75238,-0.64521 0.36693,-0.0173 0.42408,-0.0954 0.15053,-0.20578 -0.7387,-0.29808 -0.37993,-9.71633 0.47824,-12.55456 0.48771,-1.61301 0.84892,-0.25455 0.89111,3.35139 0.0255,2.18281 0.14461,3.44656 0.26459,2.80834 0.11997,-0.63823 0.37689,-1.19385 0.57092,-1.23472 0.19402,-0.0409 0.30265,-0.31244 0.24139,-0.60348 -0.63962,-3.03885 -0.7902,-5.41391 -0.59254,-9.34599 0.12673,-2.52092 0.38544,-4.7703 0.57492,-4.99861 0.23316,-0.28093 0.17812,-0.50984 -0.17027,-0.70818 -0.28314,-0.16118 -0.58782,-0.68993 -0.67708,-1.175 -0.0892,-0.48507 -0.1839,0.90399 -0.21033,3.08681 -0.0264,2.18281 -0.19553,3.96875 -0.3758,3.96875 -0.60209,0 -1.3765,-5.46327 -1.49251,-10.52925 -0.0362,-1.58171 0.094,-2.33093 0.44353,-2.55224 0.40233,-0.25472 0.38401,-0.31428 -0.098,-0.31867 -0.32605,-0.003 -0.65969,-0.28321 -0.74141,-0.62276 -0.0817,-0.33955 -0.0816,-0.0383 3.6e-4,0.66935 0.0819,0.70769 2e-4,1.37864 -0.18158,1.49099 -0.63045,0.38963 -1.50604,-1.1028 -1.72332,-2.93737 -0.17148,-1.44785 -0.38811,-1.92126 -1.00854,-2.20395 -0.89915,-0.40968 -1.57351,-1.67168 -1.57351,-2.94465 0,-0.59811 -0.1961,-0.86534 -0.635,-0.86534 -0.81584,0 -1.48167,-0.66976 -1.48167,-1.4904 0,-0.36289 -0.38667,-0.79074 -0.88628,-0.9807 -0.48746,-0.18533 -1.05344,-0.70384 -1.25775,-1.15225 -0.20431,-0.44841 -0.71759,-0.96753 -1.14063,-1.15361 -0.42304,-0.18608 -0.97696,-0.77488 -1.23094,-1.30846 -0.30816,-0.64739 -0.73442,-0.97014 -1.28129,-0.97014 -0.45072,0 -1.03138,-0.2553 -1.29035,-0.56734 -0.39725,-0.47866 -0.38041,-0.63348 0.10778,-0.99044 0.3556,-0.26003 0.46944,-0.59977 0.29536,-0.88144 -0.19925,-0.32239 -0.35483,-0.34252 -0.52457,-0.0679 -0.62249,1.00722 -4.13833,0.0725 -4.37636,-1.16349 -0.11054,-0.57399 0.0406,-0.62771 1.2316,-0.43786 1.19265,0.19012 1.25044,0.16944 0.47565,-0.17015 -0.48507,-0.21261 -1.83842,-0.35912 -3.00746,-0.32559 -2.34102,0.0671 -4.18459,-0.45436 -3.96242,-1.12088 0.0787,-0.23599 0.52813,-0.52926 0.99881,-0.65172 0.82509,-0.21466 0.81823,-0.22767 -0.19141,-0.36251 -1.13668,-0.15181 -1.4758,-0.6686 -2.43779,-3.71498 -0.74296,-2.35279 -0.7446,-4.84489 -0.004,-5.58582 0.49085,-0.49086 0.62304,-0.4992 0.97014,-0.0612 0.27271,0.34412 0.62858,0.41325 1.1074,0.2151 0.66097,-0.27351 0.66351,-0.29353 0.0402,-0.31676 -0.58671,-0.0219 -0.63876,-0.21856 -0.44051,-1.6649 0.12364,-0.90205 0.40278,-1.85455 0.62031,-2.11666 0.6044,-0.72826 1.36745,-0.56767 1.36745,0.28779 0,0.42039 0.10954,0.65481 0.24342,0.52093 0.13388,-0.13388 0.20111,-1.04061 0.14939,-2.01496 -0.0867,-1.63415 0.004,-1.86117 1.16769,-2.92723 0.69395,-0.63563 1.26172,-1.43267 1.26172,-1.7712 0,-0.92628 0.66377,-1.98023 1.24714,-1.98023 0.31602,0 0.51675,0.3426 0.51675,0.88195 0,0.84196 0.0286,0.85395 0.62996,0.26458 0.51457,-0.50428 0.54688,-0.70275 0.17639,-1.08353 -0.24946,-0.2564 -0.45357,-0.69806 -0.45357,-0.98147 0,-1.03737 1.01292,-2.90012 1.69468,-3.11651 0.46154,-0.14648 0.78438,-0.6699 0.94572,-1.5333 0.13473,-0.72098 0.40894,-1.50932 0.60937,-1.75186 0.50311,-0.60882 1.33634,-0.55383 1.33634,0.0882 0,0.29105 0.15875,0.52917 0.35278,0.52917 0.46702,0 0.44833,-0.46889 -0.0381,-0.9553 -0.28595,-0.28595 -0.27361,-0.75462 0.046,-1.74625 0.53175,-1.64993 0.96939,-2.23734 1.66689,-2.23734 0.40317,0 0.483,0.27448 0.33346,1.14653 -0.10814,0.63059 -0.11476,0.94809 -0.0147,0.70556 0.10005,-0.24254 0.4465,-0.45351 0.76988,-0.46883 0.36665,-0.0174 0.42198,-0.0948 0.14699,-0.20578 -0.27051,-0.10916 -0.44098,-0.86189 -0.44098,-1.94728 0,-1.52026 0.15257,-1.91186 1.08369,-2.78166 0.59603,-0.55677 1.23849,-1.57296 1.42769,-2.2582 0.24389,-0.88328 0.54453,-1.24589 1.03298,-1.24589 0.37894,0 0.68898,0.22326 0.68898,0.49614 0,0.32916 0.24749,0.43142 0.73537,0.30383 0.40446,-0.10577 0.5758,-0.29093 0.38075,-0.41148 -1.18891,-0.73479 -0.62869,-4.08059 0.76987,-4.59795 0.4702,-0.17394 0.84399,-0.79674 1.09043,-1.81683 0.48034,-1.98836 1.59782,-2.40888 1.63205,-0.61416 0.0202,1.05645 0.0539,1.0939 0.34141,0.37864 0.17548,-0.43656 0.5226,-0.79618 0.77139,-0.79915 0.3013,-0.004 0.32595,-0.0919 0.0738,-0.26458 -0.68166,-0.46676 -0.78877,-1.33496 -0.30625,-2.482518 0.4552,-1.082602 1.5667,-1.582568 1.5667,-0.70472 0,0.329259 0.0941,0.329259 0.42334,0 0.23283,-0.232833 0.74877,-0.434491 1.14652,-0.448128 0.6947,-0.02382 0.69632,-0.03532 0.0411,-0.291923 -1.19603,-0.468367 -0.10093,-0.688932 3.99663,-0.804971 l 3.99141,-0.113033 0.95885,1.146527 c 0.55843,0.667733 1.28928,1.146528 1.7501,1.146528 1.92898,0 3.07885,1.737398 1.18584,1.791738 -0.56584,0.0162 -0.74961,0.1118 -0.44097,0.22929 0.29104,0.11079 0.63613,0.36586 0.76686,0.56682 0.15749,0.24209 0.42912,0.20653 0.80495,-0.10538 0.89861,-0.74578 3.22215,0.0945 3.90325,1.41163 0.36641,0.70856 0.80729,1.04479 1.36997,1.04479 0.45633,0 1.04157,0.2553 1.30054,0.56734 0.39684,0.47816 0.38173,0.63251 -0.0961,0.98193 -0.47057,0.34409 -0.4904,0.51933 -0.1166,1.03053 0.39073,0.53435 0.47781,0.54447 0.65742,0.0764 0.31014,-0.8082 1.8528,-0.65081 2.58483,0.26373 0.35363,0.44179 1.11921,1.13915 1.7013,1.54967 0.93374,0.65854 3.34549,2.74345 4.18041,3.61389 0.16493,0.17194 0.62133,0.62615 1.01424,1.00935 0.39291,0.38321 0.9525,0.93486 1.24354,1.22591 0.29104,0.29104 0.82682,0.82682 1.19063,1.19062 1.68652,1.68652 2.13273,2.16019 3.21133,3.40895 0.63486,0.735 1.64743,1.85378 2.25016,2.48616 1.52813,1.60334 2.04202,2.64012 1.58284,3.1934 -0.21316,0.25684 -0.23795,0.58238 -0.0587,0.7712 0.17057,0.17971 0.38651,0.64425 0.47985,1.0323 0.10988,0.45685 0.18413,0.30141 0.21063,-0.44097 0.0476,-1.33439 0.48382,-1.4644 1.24881,-0.37222 0.37447,0.53463 0.47591,1.18982 0.3277,2.11667 -0.21212,1.32652 0.28877,1.90738 0.70637,0.81914 0.34597,-0.90158 1.21688,-0.19002 1.77605,1.45107 0.52014,1.52653 0.51341,1.58456 -0.21521,1.85409 l -0.75216,0.27825 0.76773,0.20076 c 0.51971,0.13591 0.76774,0.0405 0.76774,-0.29537 0,-0.6546 0.52181,-0.62948 1.20953,0.0582 0.68218,0.68218 0.7697,3.88606 0.11339,4.15089 -0.27499,0.11096 -0.21967,0.18842 0.14699,0.20578 0.32338,0.0153 0.66803,0.22629 0.7659,0.46883 0.0979,0.24253 0.19047,0.004 0.20578,-0.52917 0.0352,-1.22729 0.83685,-1.26881 1.38234,-0.0716 0.53314,1.17011 0.52521,3.43065 -0.0139,3.96979 -0.32926,0.32926 -0.29581,0.42333 0.15052,0.42333 0.31562,0 0.64646,0.27782 0.73519,0.61736 0.0887,0.33955 0.17975,0.0882 0.20226,-0.55856 0.0268,-0.77046 0.19297,-1.12577 0.48189,-1.03048 1.26778,0.41817 1.87755,4.85957 0.75353,5.4886 -0.49416,0.27655 -0.47086,0.34441 0.17639,0.51367 0.56658,0.14817 0.74578,0.0334 0.74578,-0.4775 0,-0.92474 0.93992,-0.8467 1.46002,0.12122 0.23458,0.43656 0.46566,2.03789 0.51352,3.55851 0.0478,1.52063 0.17901,2.85677 0.29145,2.96922 0.11245,0.11244 0.20445,-0.21889 0.20445,-0.7363 0,-1.14594 0.47858,-1.20767 1.21472,-0.15669 0.70665,1.00888 0.79616,7.17138 0.1082,7.44898 -0.27301,0.11016 -0.21517,0.18855 0.15185,0.20579 0.32605,0.0153 0.66162,0.38504 0.74571,0.8216 0.0841,0.43656 0.1745,0.11906 0.20092,-0.70556 0.0513,-1.5998 0.37172,-1.85492 1.15138,-0.91662 0.63566,0.765 0.92396,10.49292 0.3321,11.20606 -0.29886,0.36011 -0.26873,0.52458 0.12368,0.67516 0.3958,0.15188 0.5443,-0.14548 0.62637,-1.2543 0.13479,-1.82117 0.76664,-2.07673 1.36999,-0.55411 0.34424,0.86874 0.49503,4.84011 0.59663,15.7134 0.13373,14.31276 -0.10535,18.97099 -1.03094,20.08626 -0.62059,0.74776 -1.0045,0.17095 -1.0045,-1.50922 0,-1.53215 -0.0236,-1.56607 -0.79375,-1.14114 -0.68622,0.37862 -0.71011,0.45549 -0.17639,0.56745 0.55097,0.11556 0.61736,0.6401 0.61736,4.87745 0,3.34804 -0.15071,5.10868 -0.51116,5.97136 -0.71392,1.70864 -1.2441,1.52428 -1.30077,-0.45231 -0.0264,-0.92163 -0.11684,-1.3185 -0.20092,-0.88194 -0.0841,0.43656 -0.37055,0.79375 -0.63659,0.79375 -0.4014,0 -0.39552,0.1651 0.0345,0.97014 0.9711,1.81793 -0.008,7.8493 -1.27375,7.8493 -0.18956,0 -0.34465,-0.4825 -0.34465,-1.07224 0,-0.89912 -0.0794,-0.99879 -0.49159,-0.61736 -0.35823,0.33148 -0.39529,0.63624 -0.13661,1.12338 0.41636,0.78408 0.0497,4.75057 -0.50043,5.41343 -0.81424,0.9811 -1.35515,0.49768 -1.18028,-1.05484 0.0929,-0.82462 0.0855,-1.18181 -0.0165,-0.79375 -0.10194,0.38805 -0.27595,0.94368 -0.38668,1.23472 -0.11073,0.29104 -0.16877,1.20467 -0.12897,2.03029 0.10058,2.08703 -0.568,3.96693 -1.41082,3.96693 -0.55632,0 -0.63949,-0.19366 -0.4924,-1.14653 0.16937,-1.09718 0.15959,-1.10857 -0.22717,-0.26458 -0.22228,0.48507 -0.37403,1.70944 -0.33722,2.72082 0.0611,1.67878 -0.0427,1.94855 -1.19276,3.09856 -0.70341,0.70341 -1.25969,1.61281 -1.25969,2.05932 0,1.39346 -1.73046,2.38721 -1.79174,1.02894 -0.0166,-0.36881 -0.0995,-0.43983 -0.20579,-0.17639 -0.0979,0.24253 -0.44252,0.4458 -0.7659,0.4517 -0.53046,0.01 -0.52758,0.0459 0.0294,0.3703 1.0297,0.59975 0.74929,2.05707 -0.64969,3.37648 -0.69687,0.65724 -1.38225,1.62848 -1.52305,2.15832 -0.1697,0.63858 -0.53106,1.00337 -1.07192,1.08208 -0.73392,0.10682 -0.79123,0.0182 -0.57035,-0.88194 0.20829,-0.84881 0.1751,-0.92038 -0.21867,-0.47153 -0.25533,0.29105 -0.70236,0.7509 -0.9934,1.0219 -0.29104,0.271 -0.34766,0.39116 -0.12583,0.26702 0.49445,-0.27669 0.94772,1.31658 0.64547,2.26886 -0.30973,0.97588 -1.57214,0.88264 -1.60034,-0.11819 l -0.0224,-0.79375 -0.31904,0.79375 c -0.17548,0.43656 -0.60198,0.80381 -0.94778,0.81611 -0.49534,0.0176 -0.46033,0.0901 0.16502,0.34141 0.92442,0.37157 1.03008,1.17841 0.2393,1.82718 -0.30495,0.25018 -0.77997,0.69301 -1.05561,0.98405 -4.20665,4.44181 -6.86532,7.05555 -7.17685,7.05555 -0.21192,0 -0.38774,-0.27781 -0.39072,-0.61736 -0.003,-0.3918 -0.10009,-0.47115 -0.26458,-0.2172 -0.14255,0.22009 -0.57668,0.47949 -0.96474,0.57644 -0.54078,0.13511 -0.47899,0.18583 0.26459,0.2172 1.08326,0.0457 1.13136,0.13883 0.59213,1.14639 -0.25067,0.46838 -0.6963,0.68565 -1.32291,0.64498 -1.77338,-0.11509 -1.87745,-0.0596 -1.38888,0.74048 0.37893,0.62055 0.34366,0.80141 -0.24082,1.23472 -0.86358,0.64023 -1.42337,0.64219 -2.05838,0.007 -0.43215,-0.43215 -0.57965,-0.40806 -1.08008,0.17639 -0.54348,0.63474 -0.53585,0.6769 0.12253,0.6769 0.46232,0 0.7021,0.23632 0.7021,0.69196 0,0.507 -0.37149,0.79198 -1.38983,1.0662 -0.89279,0.2404 -1.47269,0.63527 -1.6215,1.10413 -0.12741,0.40144 -0.76688,0.95353 -1.42105,1.22686 -1.46654,0.61275 -1.39671,0.61469 -2.06881,-0.0574 -0.48094,-0.48095 -0.55436,-0.48437 -0.55436,-0.0259 0,0.29067 -0.27782,0.60109 -0.61736,0.68983 -0.46458,0.1214 -0.42093,0.17146 0.17639,0.20225 0.97514,0.0503 1.04402,0.94049 0.11138,1.43963 -0.95496,0.51108 -3.45413,0.45947 -3.67011,-0.0758 -0.11016,-0.27301 -0.18854,-0.21518 -0.20578,0.15185 -0.0153,0.32605 -0.30567,0.66106 -0.64522,0.74447 -0.33955,0.0834 -0.10142,0.0872 0.52917,0.009 1.25273,-0.15635 1.57629,0.50415 0.6312,1.2885 -0.74163,0.6155 -3.13987,0.86247 -3.98466,0.41035 -0.56642,-0.30314 -0.76419,-0.27379 -0.92173,0.13676 -0.11873,0.30941 0.002,0.52271 0.29669,0.52271 0.67237,0 1.0534,0.68496 0.62137,1.11699 -0.58724,0.58724 -3.09223,0.99781 -4.18165,0.68537 -0.72849,-0.20893 -1.15813,-0.15475 -1.47664,0.18621 -0.36957,0.39563 -0.32166,0.48087 0.27026,0.48087 0.88978,0 0.94587,0.91234 0.0844,1.37337 -0.80986,0.43343 -4.69238,0.63262 -5.27399,0.27059 -0.24254,-0.15097 -0.44097,-0.11801 -0.44097,0.0732 0,0.19125 -0.27782,0.42033 -0.61736,0.50907 -0.33955,0.0887 -0.0882,0.17975 0.55856,0.20225 0.77046,0.0268 1.12577,0.19298 1.03047,0.4819 -0.28519,0.86464 -1.89591,1.31259 -4.73817,1.31771 -2.46561,0.004 -2.90318,-0.0845 -3.01287,-0.61216 -0.10435,-0.502 -0.16893,-0.46904 -0.34562,0.17639 -0.18052,0.65943 -0.0772,0.79375 0.6108,0.79375 1.22967,0 1.37026,0.59249 0.30604,1.28979 -1.34152,0.879 -8.92494,1.16562 -9.72307,0.36749 -0.48697,-0.48698 -0.60009,-0.47333 -1.12119,0.13527 -0.55902,0.65289 -0.5234,0.6769 1.00447,0.6769 1.90514,0 2.17439,0.78351 0.47307,1.3766 -1.38429,0.48256 -4.50315,0.48623 -5.32722,0.006 z m 12.87639,-3.73316 c -0.24253,-0.0979 -0.63941,-0.0979 -0.88194,0 -0.24254,0.0979 -0.0441,0.17793 0.44097,0.17793 0.48507,0 0.68351,-0.0801 0.44097,-0.17793 z m 30.25069,-14.57196 c 0,-0.18794 -0.23812,-0.25033 -0.52916,-0.13864 -0.29104,0.11168 -0.52917,0.26545 -0.52917,0.3417 0,0.0763 0.23813,0.13865 0.52917,0.13865 0.29104,0 0.52916,-0.15377 0.52916,-0.34171 z m 11.64167,-9.50304 c 0,-0.17587 -0.3175,-0.23673 -0.70555,-0.13525 -0.38806,0.10148 -0.70556,0.24537 -0.70556,0.31975 0,0.0744 0.3175,0.13525 0.70556,0.13525 0.38805,0 0.70555,-0.14389 0.70555,-0.31975 z m 2.28751,-2.51144 c -0.10639,-0.17215 -0.43979,-0.21846 -0.74089,-0.10292 -0.42762,0.16409 -0.44814,0.27145 -0.0937,0.49048 0.5351,0.33071 1.11277,0.0625 0.83463,-0.38756 z m 2.2986,-2.47439 c 0,-0.59766 -0.0833,-0.64245 -0.49214,-0.26458 -0.50771,0.46927 -0.42391,0.98405 0.16018,0.98405 0.18258,0 0.33196,-0.32376 0.33196,-0.71947 z m 7.26759,-9.70391 c 0.12401,-0.4941 0.12704,-0.99681 0.007,-1.11713 -0.12031,-0.12031 -0.21875,0.0934 -0.21875,0.47504 0,0.38159 -0.1905,0.8843 -0.42334,1.11713 -0.32167,0.32168 -0.32328,0.42334 -0.007,0.42334 0.22914,0 0.51808,-0.40427 0.64209,-0.89838 z m 4.699,-7.14814 c -0.0171,-0.3673 -0.0962,-0.42708 -0.20578,-0.15557 -0.0979,0.24254 -0.44252,0.44341 -0.7659,0.44638 -0.49417,0.004 -0.50623,0.0571 -0.0756,0.3295 0.64688,0.40922 1.08332,0.15073 1.04732,-0.62031 z m -58.87895,-20.00784 c 0.64851,-0.78141 0.27948,-0.87124 -0.44805,-0.10907 -0.33955,0.35572 -0.47805,0.64676 -0.30778,0.64676 0.17027,0 0.51039,-0.24196 0.75583,-0.53769 z m 70.79744,-16.13106 c -0.0841,-0.43656 -0.15288,-0.0794 -0.15288,0.79375 0,0.87313 0.0688,1.23032 0.15288,0.79375 0.0841,-0.43656 0.0841,-1.15093 0,-1.5875 z m 0.004,-26.98264 c -0.0811,-0.53625 -0.1496,-0.18124 -0.15225,0.78889 -0.003,0.97014 0.0637,1.40889 0.14743,0.97499 0.0837,-0.43389 0.0859,-1.22764 0.005,-1.76388 z m -63.40037,-5.60225 c 0,-0.0744 -0.3175,-0.13524 -0.70555,-0.13524 -0.38806,0 -0.70556,0.14388 -0.70556,0.31975 0,0.17586 0.3175,0.23672 0.70556,0.13524 0.38805,-0.10148 0.70555,-0.24537 0.70555,-0.31975 z m -2.46944,-3.79827 c 0,-0.0744 -0.3175,-0.21827 -0.70556,-0.31975 -0.38805,-0.10147 -0.70555,-0.0406 -0.70555,0.13525 0,0.17586 0.3175,0.31975 0.70555,0.31975 0.38806,0 0.70556,-0.0609 0.70556,-0.13525 z m 58.80209,-15.10034 c -0.11261,-0.28142 -0.1962,-0.19783 -0.21313,0.21314 -0.0153,0.37188 0.0681,0.58024 0.18528,0.46302 0.11723,-0.11723 0.12976,-0.4215 0.0279,-0.67616 z m -73.5047,-14.42254 c 0.73931,-0.0239 0.74163,-0.0354 0.0623,-0.30863 -0.92014,-0.37017 -1.24407,-0.15439 -1.1938,0.79522 0.0316,0.59683 0.0777,0.63227 0.20226,0.15557 0.0887,-0.33955 0.50688,-0.62852 0.92921,-0.64216 z m 63.9797,-2.51079 c -0.11261,-0.28143 -0.1962,-0.19783 -0.21313,0.21313 -0.0153,0.37189 0.0681,0.58025 0.18528,0.46302 0.11723,-0.11722 0.12976,-0.42149 0.0279,-0.67615 z m -58.80209,-5.09028 c 0,-0.0744 -0.3175,-0.13524 -0.70556,-0.13524 -0.38805,0 -0.70555,0.14388 -0.70555,0.31975 0,0.17586 0.3175,0.23672 0.70555,0.13524 0.38806,-0.10148 0.70556,-0.24537 0.70556,-0.31975 z m 53.84468,-2.08267 c -0.11961,-0.3117 -0.37577,-0.46891 -0.56924,-0.34934 -0.22349,0.13813 -0.19224,0.39058 0.0857,0.69233 0.53833,0.58445 0.775,0.41657 0.48353,-0.34299 z m -47.71989,-9.16507 c 0.11169,-0.29104 0.0493,-0.52917 -0.13864,-0.52917 -0.18794,0 -0.34171,0.23813 -0.34171,0.52917 0,0.29104 0.0624,0.52916 0.13865,0.52916 0.0763,0 0.23002,-0.23812 0.3417,-0.52916 z m 33.51861,-5.18663 c -0.0957,-0.15478 -0.60113,-0.25981 -1.12325,-0.23338 -0.83146,0.0421 -0.85078,0.067 -0.15557,0.20092 0.44438,0.0856 0.79613,0.41381 0.79915,0.74571 0.005,0.49713 0.0577,0.51013 0.3295,0.0805 0.17826,-0.28178 0.24583,-0.63897 0.15017,-0.79375 z m -28.64861,-2.90384 c -0.19722,-0.36009 -0.70288,0.71707 -0.73424,1.56408 -0.0108,0.29104 0.19061,0.13229 0.44752,-0.35278 0.25692,-0.48507 0.38594,-1.03015 0.28672,-1.2113 z m 21.81354,-1.25814 c 0,-0.38806 -0.14389,-0.70556 -0.31975,-0.70556 -0.17586,0 -0.23672,0.3175 -0.13524,0.70556 0.10147,0.38805 0.24536,0.70555 0.31975,0.70555 0.0744,0 0.13524,-0.3175 0.13524,-0.70555 z m -7.24701,-5.316044 c -0.11163,-0.180621 -0.63016,-0.326061 -1.15228,-0.323201 l -0.94932,0.0052 0.88194,0.467116 c 0.9242,0.489489 1.56586,0.411039 1.21966,-0.149115 z m -5.35808,-1.265357 c -0.23884,-0.09663 -0.71509,-0.102516 -1.05833,-0.01307 -0.34324,0.08944 -0.14783,0.168509 0.43425,0.175698 0.58209,0.0072 0.86292,-0.06599 0.62408,-0.162626 z M 77.142911,282.66311 c -1.15242,-0.20974 -2.27437,-1.1918 -1.73933,-1.52247 0.21671,-0.13394 1.0539,-0.20579 1.86042,-0.15968 0.80652,0.0461 1.012,0.0136 0.45662,-0.0724 -0.62209,-0.0962 -1.0789,-0.42052 -1.18982,-0.84465 -0.16332,-0.62457 -0.21915,-0.63498 -0.60139,-0.11223 -0.66378,0.90777 -6.40079,0.59899 -7.12366,-0.38341 -0.49111,-0.66743 -0.44667,-0.71715 0.82219,-0.92008 0.73775,-0.11799 0.98417,-0.23705 0.54761,-0.26459 -0.49933,-0.0315 -0.79576,-0.27905 -0.79916,-0.66742 -0.004,-0.49796 -0.0662,-0.52134 -0.31971,-0.12088 -0.3593,0.56757 -3.68103,0.58851 -5.14363,0.0324 -1.1062,-0.42057 -1.16581,-1.40086 -0.0875,-1.43869 0.43656,-0.0153 0.59432,-0.10826 0.35058,-0.20652 -0.24375,-0.0983 -0.34365,-0.3397 -0.22201,-0.53652 0.14908,-0.24122 0.005,-0.24237 -0.44093,-0.004 -0.89117,0.47694 -4.03514,0.11046 -4.80292,-0.55985 -0.80469,-0.70255 -0.78367,-1.1352 0.0552,-1.1352 0.52663,0 0.62539,-0.17219 0.45524,-0.79375 -0.19173,-0.70037 -0.23343,-0.71574 -0.35444,-0.13062 -0.1204,0.5822 -0.37271,0.63883 -2.0671,0.46395 -1.98779,-0.20516 -2.93956,-0.69111 -2.93956,-1.50088 0,-0.32619 0.39247,-0.42132 1.32291,-0.32065 0.72761,0.0787 1.00542,0.0517 0.61736,-0.0601 -0.38805,-0.1118 -0.87602,-0.34117 -1.08436,-0.5097 -0.2176,-0.17602 -0.52472,-0.16051 -0.72167,0.0364 -0.52037,0.52037 -3.45613,-0.433 -3.59774,-1.16834 -0.086,-0.44634 0.14203,-0.61302 0.87999,-0.64334 0.59624,-0.0245 0.74822,-0.10568 0.37864,-0.20226 -0.33954,-0.0887 -0.61736,-0.41956 -0.61736,-0.73518 0,-0.44634 -0.0941,-0.47979 -0.42333,-0.15053 -0.80949,0.8095 -2.67723,0.50077 -3.66287,-0.60544 -0.50416,-0.56583 -1.37922,-1.22039 -1.94458,-1.45457 -0.56536,-0.23418 -1.22565,-0.83363 -1.46732,-1.33212 -0.26917,-0.55521 -0.88357,-1.02063 -1.58592,-1.20136 -1.23399,-0.31752 -1.63576,-1.53636 -0.57629,-1.74828 0.49283,-0.0986 0.46879,-0.23378 -0.17708,-0.996 -0.42532,-0.50194 -0.66003,-0.62967 -0.54473,-0.29646 0.13232,0.3824 -0.0337,0.66051 -0.47878,0.80175 -1.41881,0.45032 -2.60662,-0.7457 -1.6704,-1.68193 0.69395,-0.69395 -0.0169,-1.3936 -0.87279,-0.85907 -0.33746,0.21074 -0.87631,0.28234 -1.19745,0.15911 -0.80899,-0.31044 -1.12687,-1.30572 -0.53406,-1.6721 0.3805,-0.23516 0.39527,-0.39664 0.0664,-0.72555 -0.32891,-0.32891 -0.55318,-0.3151 -1.00763,0.0621 -0.50795,0.42157 -0.6724,0.37665 -1.25498,-0.34282 -0.75779,-0.93582 -0.34854,-1.87842 0.6889,-1.58673 0.32536,0.0915 0.23438,-0.0216 -0.20218,-0.25126 -0.43657,-0.22968 -0.79375,-0.58244 -0.79375,-0.7839 0,-0.20146 -0.22883,-0.0581 -0.50851,0.3185 -0.40689,0.54794 -0.636,0.60673 -1.14653,0.29419 -0.84893,-0.5197 -1.02357,-1.5826 -0.34193,-2.08102 0.49068,-0.3588 0.47947,-0.46128 -0.10515,-0.96185 -0.60463,-0.5177 -0.66848,-0.50624 -0.84031,0.15085 -0.34037,1.30157 -1.3925,0.40288 -1.79759,-1.53544 -0.15219,-0.7282 -0.35394,-0.89618 -0.90369,-0.75241 -0.55256,0.1445 -0.81994,-0.0834 -1.21937,-1.03938 -0.28138,-0.67346 -0.8917,-1.47351 -1.35626,-1.7779 -1.05307,-0.68999 -1.87904,-2.54986 -1.40606,-3.16605 0.22193,-0.28913 0.17783,-0.74392 -0.12826,-1.3226 -0.44752,-0.84606 -0.46671,-0.85049 -0.4717,-0.10901 -0.0126,1.87357 -1.39402,1.12852 -1.6659,-0.89848 -0.14499,-1.08096 -0.3566,-1.46195 -0.812,-1.46195 -0.33875,0 -0.80178,-0.22396 -1.02895,-0.49769 -0.61814,-0.74481 -0.86068,-2.83545 -0.42367,-3.65199 0.3016,-0.56356 0.2718,-0.76197 -0.13808,-0.91926 -0.30941,-0.11873 -0.52271,0.002 -0.52271,0.29669 0,0.2735 -0.14595,0.58748 -0.32434,0.69773 -0.59545,0.36801 -1.35146,-0.8112 -1.6053,-2.50389 -0.20782,-1.38582 -0.14274,-1.75372 0.37753,-2.13415 0.54649,-0.3996 0.55406,-0.45966 0.0579,-0.45966 -0.3139,0 -0.64332,-0.27781 -0.73206,-0.61736 -0.0887,-0.33955 -0.17974,-0.10143 -0.20225,0.52916 -0.0478,1.33807 -0.48409,1.46403 -1.25564,0.36248 -0.66386,-0.94778 -0.75362,-4.86762 -0.12584,-5.49539 0.32926,-0.32926 0.29581,-0.42334 -0.15052,-0.42334 -0.31562,0 -0.64646,-0.27781 -0.73519,-0.61736 -0.0887,-0.33955 -0.17975,-0.0221 -0.20226,0.70556 -0.0513,1.65728 -0.87095,1.77983 -1.41752,0.21194 -0.5191,-1.48908 -0.49545,-5.34253 0.036,-5.87402 0.32925,-0.32926 0.29551,-0.42334 -0.15186,-0.42334 -0.32055,0 -0.62509,0.33916 -0.68791,0.76612 -0.1548,1.05202 -0.86209,1.19914 -1.35321,0.28146 -0.9157401,-1.71106 -0.8559801,-8.8121 0.0693,-8.24022 0.22454,0.13877 0.30768,0.0342 0.20267,-0.25478 -0.0979,-0.26954 -0.35666,-0.45039 -0.5749401,-0.40188 -0.21828,0.0485 -0.42072,-0.18962 -0.44986,-0.52917 -0.0291,-0.33955 -0.1482,0.097 -0.26458,0.97014 -0.24879,1.86654 -1.04726,2.13933 -1.54887,0.52917 -0.53009,-1.70157 -0.51791,-12.25793 0.0144,-12.43539 0.59884,-0.19965 0.55759,-1.04624 -0.068,-1.39636 -0.3287,-0.18395 -0.555,-1.03369 -0.63885,-2.39878 -0.0714,-1.16265 -0.15985,-0.0992 -0.19654,2.36318 -0.0682,4.57875 -0.41901,5.7123 -1.21389,3.9226 -0.32861,-0.73988 -0.4403,-4.66052 -0.4403,-15.45525 0,-10.79473 0.11169,-14.71538 0.4403,-15.45526 0.79463,-1.78912 1.14564,-0.65601 1.21516,3.92261 0.0374,2.4624 0.12445,3.48029 0.19349,2.26198 0.069,-1.21831 0.26514,-2.12882 0.43579,-2.02335 0.17066,0.10547 0.41807,-0.14786 0.54982,-0.56296 0.15126,-0.47656 0.0631,-0.86379 -0.23918,-1.05065 -0.64277,-0.39735 -0.63074,-10.47701 0.0148,-12.40418 0.6332,-1.89032 1.44675,-1.74348 1.44675,0.26113 0,1.52788 0.024,1.5635 0.67689,1.00448 0.6103901,-0.52263 0.6233601,-0.63312 0.13197,-1.12451 -0.75998,-0.75997 -0.47021,-6.67233 0.3914601,-7.9874 0.87077,-1.32898 1.35504,-0.75213 1.14,1.35796 -0.10172,0.99819 -0.0746,1.35383 0.0603,0.79077 0.13485,-0.5628 0.56268,-1.14696 0.95074,-1.29813 0.59691,-0.23252 0.61049,-0.27866 0.0882,-0.29964 -0.52941,-0.0213 -0.61662,-0.38914 -0.61216,-2.58243 0.005,-2.54766 0.47926,-4.13471 1.31772,-4.41127 0.29717,-0.098 0.45432,0.29555 0.48189,1.20687 0.0225,0.74377 0.11353,1.0745 0.20226,0.73495 0.0887,-0.33955 0.27628,-0.61736 0.41677,-0.61736 0.14049,0 0.1945,-0.99219 0.12003,-2.20486 -0.14962,-2.43635 0.3251,-4.14514 1.15157,-4.14514 0.34486,0 0.54789,0.34816 0.56575,0.97014 0.0153,0.53358 0.10792,0.7717 0.20578,0.52917 0.0979,-0.24254 0.44252,-0.4458 0.7659,-0.4517 0.52511,-0.01 0.52099,-0.0497 -0.0385,-0.37543 -0.52561,-0.30596 -0.58902,-0.65934 -0.3937,-2.19413 0.2781,-2.18536 0.62804,-2.94813 1.47599,-3.21726 0.3852,-0.12226 0.80164,-0.8317 1.064,-1.81263 0.32874,-1.2291 0.57639,-1.58147 1.04315,-1.48424 0.39101,0.0815 0.58204,0.40712 0.52893,0.90174 -0.0793,0.7387 -0.0534,0.74613 0.56444,0.16193 0.37109,-0.35088 0.51955,-0.7554 0.34772,-0.94745 -0.41993,-0.46934 -0.37408,-2.57117 0.0744,-3.40911 0.20582,-0.38458 0.76145,-0.84647 1.23472,-1.02641 0.65038,-0.24727 0.8605,-0.58771 0.8605,-1.39422 0,-0.63503 0.32017,-1.38724 0.79079,-1.85786 l 0.7908,-0.7908 0.2258,1.05538 c 0.12419,0.58046 0.24458,0.85694 0.26753,0.61441 0.023,-0.24254 0.31021,-0.44097 0.63834,-0.44097 0.53546,0 0.53035,-0.0484 -0.0499,-0.4727 -0.51307,-0.37516 -0.59691,-0.73676 -0.40635,-1.75255 0.36717,-1.95714 1.97628,-3.25704 1.97628,-1.59651 0,1.62268 0.41356,0.25117 0.50317,-1.6687 0.0835,-1.789 0.22418,-2.13098 1.20995,-2.94127 0.6135,-0.50428 1.11403,-1.15937 1.11228,-1.45575 -0.004,-0.66386 0.97411,-2.10697 1.42794,-2.10697 0.18302,0 0.33277,0.40314 0.33277,0.89586 0,0.72532 0.0884,0.81327 0.46443,0.46201 0.31208,-0.29153 0.41457,-1.03505 0.31244,-2.26662 -0.15649,-1.88704 -0.0903,-2.01641 1.84368,-3.60307 0.30495,-0.25019 0.55445,-0.83416 0.55445,-1.29772 0,-0.93325 0.93207,-2.07124 1.43955,-1.7576 0.17839,0.11025 0.32434,0.42423 0.32434,0.69773 0,0.30078 0.21265,0.41567 0.53817,0.29076 0.41666,-0.15989 0.44617,-0.31737 0.13071,-0.69747 -0.23991,-0.28908 -0.32234,-1.01542 -0.20047,-1.76645 0.31324,-1.93023 2.00103,-3.52736 2.00103,-1.89353 0,0.44738 0.2259,0.69536 0.61736,0.6777 0.36881,-0.0166 0.43983,-0.0995 0.17639,-0.20579 -0.55766,-0.22502 -0.57804,-2.73038 -0.0306,-3.7583 0.22572,-0.423808 0.64317,-0.942218 0.92765,-1.152024 0.28449,-0.209807 0.85387,-1.074798 1.26529,-1.922205 0.90546,-1.864954 1.61878,-2.214563 1.65784,-0.812533 0.0153,0.549745 0.10793,0.801099 0.20579,0.558565 0.0979,-0.242535 0.44252,-0.443403 0.7659,-0.446375 0.36424,-0.0033 0.44196,-0.104021 0.20424,-0.264583 -1.1643,-0.786415 -0.67413,-3.913952 0.73131,-4.666122 0.55629,-0.29772 0.95632,-0.89478 1.09509,-1.63447 0.2863,-1.52612 1.11882,-2.26559 1.68262,-1.49455 0.25638,0.35062 0.65044,0.46453 1.08256,0.31296 0.60649,-0.21275 0.61593,-0.26271 0.0879,-0.46535 -0.37737,-0.14481 -0.59157,-0.62261 -0.59157,-1.3196 0,-1.44557 0.55487,-2.4175 1.60895,-2.81826 0.62959,-0.23937 0.86049,-0.59243 0.86049,-1.31573 0,-1.02973 0.85472,-2.55667 1.43112,-2.55667 0.18302,0 0.35119,0.43657 0.3737,0.97014 0.0252,0.59687 0.10299,0.7326 0.20225,0.35278 0.0887,-0.33955 0.30979,-0.61736 0.49124,-0.61736 0.18178,0 0.15442,-0.28098 -0.0609,-0.62583 -0.80183,-1.28394 0.69337,-4.46534 1.78233,-3.79232 0.15151,0.0936 0.36549,-0.50091 0.47552,-1.32122 0.1398,-1.0423 0.49878,-1.74729 1.192,-2.34092 0.54557,-0.4672 1.15543,-1.41868 1.35524,-2.11441 0.46221,-1.60937 1.55845,-1.94997 1.61791,-0.5027 0.0245,0.59625 0.10568,0.74822 0.20226,0.37865 0.0887,-0.33955 0.41956,-0.61736 0.73519,-0.61736 0.44633,0 0.47978,-0.0941 0.15052,-0.42334 -1.01429,-1.01429 -0.10132,-4.51555 1.17745,-4.51555 0.27634,0 0.59582,-0.43656 0.70996,-0.97014 0.32787,-1.53271 0.8171,-2.55764 1.22084,-2.55764 0.20444,0 0.51528,0.35719 0.69075,0.79375 0.17548,0.43656 0.32911,0.59531 0.34141,0.35278 0.0123,-0.24254 0.29083,-0.44097 0.61896,-0.44097 0.53324,0 0.52742,-0.0506 -0.0548,-0.47627 -1.10572,-0.80853 -0.23109,-4.10984 1.08885,-4.10984 0.26728,0 0.48597,0.30263 0.48597,0.67252 0,0.52664 0.17219,0.6254 0.79375,0.45524 0.6957,-0.19044 0.71234,-0.23413 0.13476,-0.35363 -0.56818,-0.11756 -0.63519,-0.38405 -0.48625,-1.93401 0.13317,-1.38592 0.38079,-1.96396 1.08112,-2.52375 0.49962,-0.39935 1.11531,-1.35893 1.3682,-2.13239 0.55019,-1.6827 1.69453,-2.17051 1.69453,-0.72233 0,0.74671 0.0882,0.83935 0.46443,0.48788 0.31408,-0.29339 0.41429,-1.03845 0.30955,-2.30144 -0.14398,-1.7362 -0.0756,-1.94165 0.97204,-2.92029 0.6198,-0.57898 1.28171,-1.61334 1.47092,-2.29858 0.37099,-1.34364 1.11612,-1.62016 1.69369,-0.62853 0.19956,0.34262 0.36436,0.42112 0.37031,0.17639 0.006,-0.24253 0.2792,-0.44097 0.60732,-0.44097 0.53324,0 0.52743,-0.0506 -0.0547,-0.47627 -0.51261,-0.37483 -0.60574,-0.75722 -0.43728,-1.79537 0.25522,-1.57272 0.80085,-2.31447 1.70251,-2.31447 0.50393,0 0.66236,-0.2587 0.66236,-1.08153 0,-2.15947 1.71676,-3.56357 1.80481,-1.47611 0.0252,0.59686 0.103,0.7326 0.20226,0.35278 0.0887,-0.33955 0.418159,-0.61737 0.732059,-0.61737 0.49739,0 0.49029,-0.0588 -0.0553,-0.45772 -1.146979,-0.8387 0.0533,-4.50727 1.31612,-4.02267 0.32411,0.12437 0.48785,0.44545 0.37592,0.73713 -0.14725,0.38373 -0.007,0.46685 0.54333,0.32284 0.67432,-0.17634 0.68845,-0.23284 0.1556,-0.62246 -0.9618,-0.70329 -0.37139,-3.52303 0.9408,-4.49318 0.64284,-0.47527 1.11652,-1.2149 1.25674,-1.96235 0.25588,-1.36397 1.09799,-1.88189 1.70658,-1.0496 0.25076,0.34293 0.58846,0.45094 0.86859,0.27781 0.3224,-0.19925 0.34253,-0.35484 0.0679,-0.52457 -0.42116,-0.26029 -0.52836,-2.25198 -0.1713,-3.18247 0.12053,-0.31409 0.67615,-0.8074 1.23472,-1.09625 0.65302,-0.33769 1.01751,-0.805311 1.02099,-1.309871 0.003,-0.43158 0.15688,-1.02281 0.34201,-1.31386 0.27833,-0.43754 0.46064,-0.45229 1.05293,-0.0852 0.59722,0.37014 0.71632,0.35715 0.71632,-0.0781 0,-0.28714 0.51594,-0.67104 1.14653,-0.85312 0.88385,-0.2552 0.96468,-0.33833 0.35278,-0.36286 -0.45151,-0.0181 -0.79375,-0.25708 -0.79375,-0.55426 0,-0.28735 0.35719,-0.6088 0.79375,-0.71435 0.43656,-0.10554 15.08125,-0.14825 32.54375,-0.0949 25.17061,0.0769 31.73172,0.18836 31.6618,0.53795 -0.0517,0.25871 0.27634,0.44097 0.79375,0.44097 0.81022,0 0.88585,0.13629 0.92999,1.6757 0.0264,0.92163 0.11684,1.31851 0.20092,0.88194 0.17773,-0.92275 0.64024,-1.03776 0.94801,-0.23573 0.34499,0.89901 0.24604,4.014871 -0.15105,4.756841 -0.49411,0.92324 -1.31496,0.86239 -1.50251,-0.11138 l -0.15289,-0.79375 -0.048,0.79375 c -0.0264,0.43656 -0.21238,0.79375 -0.41323,0.79375 -0.24483,0 -0.23784,0.23795 0.0212,0.72198 0.30062,0.5617 0.24464,1.01203 -0.25217,2.02847 -0.35121,0.71857 -0.87669,1.30649 -1.16773,1.30649 -0.74504,0 -1.04668,0.52702 -1.05293,1.83967 -0.004,0.76937 -0.23232,1.25556 -0.71096,1.51172 -0.57955,0.31017 -0.70555,0.26828 -0.70555,-0.23453 0,-0.44772 -0.10495,-0.50719 -0.39072,-0.22142 -0.2149,0.21489 -0.41975,1.12051 -0.45523,2.01249 -0.0664,1.66972 -0.88056,2.95957 -1.59094,2.52052 -0.21336,-0.13186 -0.30432,-0.66658 -0.20213,-1.18827 0.17212,-0.87866 0.16006,-0.89006 -0.16372,-0.15476 -0.19224,0.43656 -0.63246,0.79857 -0.97826,0.80447 -0.59577,0.0102 -0.59637,0.0296 -0.0114,0.37031 1.1033,0.64262 0.79974,2.6351 -0.61737,4.05221 -0.67909,0.67909 -1.23472,1.53394 -1.23472,1.89966 0,1.13196 -0.39943,1.78098 -1.09607,1.78098 -0.39022,0 -0.67939,-0.25662 -0.69567,-0.61736 -0.0166,-0.3688 -0.0995,-0.43982 -0.20578,-0.17639 -0.0979,0.24254 -0.41418,0.44098 -0.70291,0.44098 -0.43995,0 -0.42991,0.0951 0.062,0.58691 0.69153,0.69153 0.48317,2.36181 -0.41899,3.35869 -0.77047,0.85135 -1.17586,0.80866 -1.17586,-0.12384 0,-1.52804 -0.42507,-0.29334 -0.48142,1.39838 -0.0851,2.55336 -1.59245,3.95824 -1.6631,1.55001 -0.0153,-0.52213 -0.10727,-0.7112 -0.20434,-0.42015 -0.0971,0.29104 -0.25745,0.76729 -0.3564,1.05833 -0.099,0.29104 -0.20828,1.27814 -0.24296,2.19354 -0.0692,1.82671 -0.5724,2.60618 -1.46211,2.26476 -0.40127,-0.15398 -0.51089,-0.46397 -0.35965,-1.01698 0.20707,-0.75714 0.19669,-0.7618 -0.2152,-0.0966 -0.23802,0.38438 -0.39459,1.41809 -0.34794,2.29714 0.0763,1.43695 -0.042,1.71055 -1.17158,2.71062 -0.69103,0.61179 -1.25641,1.4304 -1.25641,1.81915 0,0.38874 -0.0964,0.95791 -0.21413,1.26482 -0.29334,0.76443 -1.54257,0.71745 -1.57761,-0.0593 -0.0166,-0.3688 -0.0995,-0.43982 -0.20579,-0.17639 -0.0979,0.24254 -0.44252,0.4458 -0.7659,0.4517 -0.53046,0.01 -0.52758,0.0459 0.0294,0.37031 1.28484,0.74835 0.25302,4.17192 -1.26573,4.19967 -0.16258,0.003 -0.20425,-0.66928 -0.0926,-1.4939 0.11164,-0.82462 0.11301,-1.26118 0.003,-0.97014 -0.10995,0.29104 -0.28723,0.76729 -0.39394,1.05834 -0.10672,0.29104 -0.16338,1.17374 -0.12591,1.96156 0.0468,0.98319 -0.152,1.70231 -0.63376,2.29306 -0.55362,0.67886 -0.73877,0.74888 -0.87652,0.33149 -0.0961,-0.29105 -0.25407,-0.7673 -0.35114,-1.05834 -0.1096,-0.32862 -0.18704,-0.22835 -0.20434,0.26459 -0.0153,0.43656 -0.20604,0.79375 -0.42382,0.79375 -0.28241,0 -0.28814,0.12993 -0.02,0.45304 0.36789,0.44328 0.0986,2.51391 -0.44028,3.3859 -0.42498,0.68765 -1.25922,0.42904 -1.28829,-0.39936 -0.0153,-0.43656 -0.10792,-0.59531 -0.20578,-0.35278 -0.0979,0.24254 -0.44252,0.44341 -0.7659,0.44638 -0.38324,0.004 -0.44708,0.0956 -0.18335,0.26458 0.41309,0.26461 0.59046,1.08987 0.51795,2.40993 -0.0223,0.40679 -0.59625,1.31174 -1.27534,2.01098 -0.76379,0.78645 -1.23473,1.61863 -1.23473,2.18186 0,0.99657 -0.814,1.5224 -1.50379,0.97142 -0.24007,-0.19176 -0.74238,-0.23728 -1.11625,-0.10116 -0.6072,0.22108 -0.61662,0.27172 -0.0882,0.4745 1.23549,0.4741 0.45853,3.61979 -0.98345,3.98171 -0.73271,0.1839 -0.89443,0.43625 -0.89443,1.39576 0,1.20002 -0.85902,2.44483 -1.43955,2.08605 -0.17838,-0.11025 -0.32434,-0.45567 -0.32434,-0.7676 0,-1.27908 -0.40563,-0.0425 -0.52882,1.61207 -0.073,0.98073 -0.30698,2.1087 -0.51993,2.5066 -0.49306,0.92129 -1.42069,0.9402 -1.42069,0.029 0,-0.46016 -0.17174,-0.62858 -0.50902,-0.49915 -0.39712,0.15239 -0.43075,0.40121 -0.15299,1.13179 0.5384,1.416078 0.076,3.103699 -1.07501,3.923273 -0.62963,0.448332 -1.08932,1.165217 -1.23081,1.919418 -0.12421,0.662098 -0.45789,1.396395 -0.7415,1.631772 -0.54639,0.453469 -0.64411,0.331374 -0.99159,-1.239006 -0.13962,-0.630969 -0.16045,-0.621645 -0.19705,0.08819 -0.0256,0.495825 -0.26602,0.79375 -0.64064,0.79375 -0.46645,0 -0.50565,0.09407 -0.17639,0.423333 0.45451,0.454512 0.56154,1.981017 0.2042,2.912247 -0.12053,0.31409 -0.67616,0.8074 -1.23473,1.09625 -0.81247,0.42015 -1.01558,0.76166 -1.01558,1.70764 0,0.65608 -0.25256,1.39208 -0.56734,1.65332 -0.48204,0.40006 -0.64117,0.36989 -1.05833,-0.20062 -0.27005,-0.36931 -0.49806,-0.52206 -0.50669,-0.33946 -0.11582,2.45028 -0.33552,3.78561 -0.6939,4.21743 -0.5629,0.67825 -1.40707,0.67533 -1.40707,-0.005 0,-0.29104 -0.26988,-0.52917 -0.59973,-0.52917 -0.46645,0 -0.50564,0.0941 -0.17638,0.42334 0.73002,0.73002 0.51291,3.01486 -0.37042,3.89819 l -0.79375,0.79375 -0.21814,-1.23472 c -0.22156,-1.25401 -0.26649,-1.10432 -0.52084,1.73507 -0.22799,2.54509 -1.83205,4.22219 -1.94778,2.03647 -0.0316,-0.59683 -0.0777,-0.63227 -0.20225,-0.15557 -0.0887,0.33955 -0.39916,0.61736 -0.68983,0.61736 -0.45851,0 -0.45508,0.0734 0.0259,0.55437 0.3049,0.3049 0.55437,0.70687 0.55437,0.89327 0,0.683 -1.03253,2.78569 -1.36791,2.78569 -0.67565,0 -1.45431,1.12367 -1.45431,2.09867 0,1.19448 -0.94856,2.17754 -1.39856,1.44942 -0.43978,-0.71157 -0.99667,-0.1439 -0.81111,0.8268 0.26443,1.38329 -0.54799,3.38622 -1.3735,3.38622 -0.57155,0 -0.67767,-0.18501 -0.55648,-0.97013 0.0824,-0.53358 0.0833,-0.77171 0.002,-0.52917 -0.0812,0.24253 -0.40582,0.44097 -0.72144,0.44097 -0.44633,0 -0.47978,0.0941 -0.15052,0.42333 0.72868,0.72868 0.51302,3.01476 -0.36746,3.89525 l -0.7908,0.79079 -0.2258,-1.05538 c -0.23285,-1.08838 -0.25663,-1.01392 -0.4728,1.48076 -0.17353,2.0026 -0.46893,2.82838 -1.09816,3.06984 -0.33568,0.12881 -0.64519,-0.0851 -0.84616,-0.58477 -0.17428,-0.43333 -0.32694,-0.58944 -0.33923,-0.3469 -0.0123,0.24253 -0.27183,0.44097 -0.57673,0.44097 -0.49093,0 -0.4872,0.0672 0.0326,0.58691 0.98419,0.9842 -0.0916,3.9992 -1.42698,3.9992 -0.23558,0 -0.5208,0.56979 -0.63381,1.2662 -0.36614,2.25624 -1.62139,3.08364 -1.69165,1.11505 -0.0269,-0.7527 -0.1005,-0.90417 -0.21435,-0.44097 -0.0954,0.38805 -0.30602,0.86963 -0.46807,1.07016 -0.16205,0.20054 -0.1615,0.58003 0.001,0.84331 0.16765,0.27127 0.11461,1.10691 -0.12241,1.92845 -0.30989,1.0741 -0.62375,1.47941 -1.2113,1.56422 -0.697289,0.10066 -0.769869,-0.006 -0.601209,-0.88194 0.1055,-0.54804 0.0983,-0.79799 -0.0161,-0.55545 -0.11434,0.24253 -0.47248,0.4535 -0.79586,0.46882 -0.36666,0.0174 -0.42198,0.0948 -0.14699,0.20579 0.7178,0.28964 0.56234,3.42772 -0.20417,4.12141 -0.86516,0.78296 -1.11771,0.7358 -1.12415,-0.20991 -0.004,-0.62524 -0.0749,-0.68392 -0.3326,-0.27642 -0.17996,0.28454 -0.20376,0.68141 -0.0529,0.88195 0.392,0.52105 -0.5869,3.6096 -1.22119,3.853 -0.33848,0.12989 -0.64681,-0.0823 -0.84854,-0.58385 -0.17428,-0.43333 -0.32694,-0.58944 -0.33924,-0.3469 -0.0123,0.24253 -0.30017,0.4458 -0.63972,0.4517 -0.58796,0.0102 -0.58796,0.0279 0,0.3703 0.35663,0.20772 0.61736,0.77905 0.61736,1.35281 0,1.08444 -1.18966,2.85227 -1.91943,2.85227 -0.26922,0 -0.53772,0.60093 -0.6532,1.46195 -0.27393,2.04231 -1.61915,2.90489 -1.70874,1.09569 -0.0412,-0.8318 -0.0698,-0.85695 -0.20093,-0.17639 -0.0841,0.43656 -0.32003,0.79375 -0.52432,0.79375 -0.23881,0 -0.22261,0.17933 0.0454,0.50224 0.30918,0.37254 0.31969,0.86299 0.0407,1.89918 -0.57763,2.14515 -1.74201,2.77516 -1.81006,0.97937 -0.0153,-0.40423 -0.10792,-0.53652 -0.20578,-0.29399 -0.0979,0.24254 -0.44252,0.44341 -0.7659,0.44638 -0.50781,0.005 -0.51582,0.0512 -0.0588,0.34122 0.72344,0.4591 0.61203,4.32043 -0.15858,5.49654 -0.77468,1.18231 -1.24726,1.07641 -1.28038,-0.28691 -0.0153,-0.63059 -0.10792,-0.94809 -0.20579,-0.70556 -0.0979,0.24254 -0.43317,0.44097 -0.74513,0.44097 -0.47865,0 -0.4652,0.0746 0.0862,0.47776 0.60935,0.44557 0.63273,0.82 0.34691,5.55625 -0.38702,6.41328 -0.38766,8.75047 -0.004,15.27286 0.27853,4.73712 0.25048,5.29826 -0.28435,5.68934 -0.5452,0.39867 -0.53543,0.44902 0.12043,0.62053 0.53217,0.13916 0.71377,0.0156 0.71377,-0.48588 0,-0.84311 0.92254,-0.88045 1.36301,-0.0552 0.18122,0.33954 0.44111,1.51323 0.57752,2.60818 0.21461,1.72264 0.16002,2.04198 -0.40528,2.37053 -0.57105,0.33188 -0.57883,0.38104 -0.0618,0.39042 0.32532,0.006 0.66409,0.28854 0.75282,0.62809 0.12458,0.4767 0.17066,0.44126 0.20226,-0.15557 0.0225,-0.42511 0.18687,-0.86313 0.36526,-0.97338 0.49695,-0.30713 1.43955,0.81608 1.43955,1.71537 0,0.45893 0.60222,1.41496 1.41111,2.24015 1.35531,1.38262 1.87313,2.90607 0.98778,2.90607 -0.30574,0 -0.29349,0.12249 0.0441,0.44097 0.37394,0.35278 0.49977,0.35278 0.62912,0 0.23069,-0.62916 0.70276,-0.54666 1.514,0.26458 0.91345,0.91345 0.89102,1.3593 -0.0882,1.7529 -0.60815,0.24444 -0.6494,0.32427 -0.17639,0.34141 0.33955,0.0123 0.62742,0.30017 0.63972,0.63972 0.0171,0.47301 0.097,0.43176 0.34141,-0.17639 0.43424,-1.08033 0.81092,-1.0055 2.4661,0.48985 0.78143,0.70598 1.93283,1.53942 2.558649,1.85208 0.68386,0.34166 1.18285,0.8852 1.2506,1.36224 0.0954,0.67192 0.3291,0.79375 1.5225,0.79375 0.77537,0 1.71683,0.16433 2.09213,0.36519 0.89688,0.48 0.87631,1.3987 -0.0313,1.3987 -0.68018,0 -0.68655,0.0414 -0.13581,0.88194 0.31783,0.48507 0.88223,0.88194 1.25422,0.88194 0.37199,0 0.81992,0.35719 0.9954,0.79375 0.17548,0.43657 0.32911,0.59532 0.34141,0.35278 0.0321,-0.63381 0.96559,-0.54421 1.21934,0.11705 0.11777,0.30691 0.21413,13.15629 0.21413,28.55418 0,27.62696 -0.0769,29.59802 -1.09237,27.9948 -0.23433,-0.36995 -0.30923,-0.31519 -0.31334,0.22909 -0.003,0.39339 -0.25253,1.06807 -0.55457,1.4993 -0.71191,1.01639 -3.5034,1.12489 -4.28879,0.16669 -0.27832,-0.33955 -0.41667,-0.43697 -0.30745,-0.2165 0.10922,0.22048 -0.15682,0.49612 -0.5912,0.61255 -0.88634,0.23756 -6.662159,0.21215 -8.021719,-0.0353 z m -16.32332,-8.77599 c -0.11723,-0.11722 -0.4215,-0.12975 -0.67616,-0.0279 -0.28142,0.11262 -0.19783,0.19621 0.21314,0.21314 0.37188,0.0153 0.58024,-0.0681 0.46302,-0.18529 z m -12.81615,-7.46518 c -0.21344,-0.14255 -0.46343,-0.49321 -0.55553,-0.77925 -0.11787,-0.36609 -0.22821,-0.28775 -0.37265,0.26459 -0.16547,0.63277 -0.0579,0.7836 0.55554,0.77925 0.44214,-0.003 0.5982,-0.11395 0.37264,-0.26459 z m -2.00052,-2.05982 c -0.11722,-0.11722 -0.4215,-0.12975 -0.67616,-0.0279 -0.28142,0.11262 -0.19783,0.19621 0.21314,0.21314 0.37189,0.0153 0.58025,-0.0681 0.46302,-0.18529 z m -1.42736,-0.91134 c -0.11261,-0.28142 -0.19621,-0.19783 -0.21313,0.21314 -0.0153,0.37188 0.0681,0.58024 0.18528,0.46302 0.11723,-0.11723 0.12976,-0.4215 0.0279,-0.67616 z m -15.05765,-15.23854 c 0,-0.0744 -0.3175,-0.21827 -0.70556,-0.31975 -0.38805,-0.10148 -0.70555,-0.0406 -0.70555,0.13524 0,0.17587 0.3175,0.31975 0.70555,0.31975 0.38806,0 0.70556,-0.0609 0.70556,-0.13524 z m -7.9375,-9.74253 c 0.11992,-0.19403 0.0499,-0.35278 -0.15557,-0.35278 -0.20548,0 -0.3736,0.15875 -0.3736,0.35278 0,0.19402 0.07,0.35277 0.15557,0.35277 0.0856,0 0.25368,-0.15875 0.3736,-0.35277 z M 84.19846,218.92828 c 0,-0.0762 -0.24637,-0.23318 -0.54749,-0.34873 -0.313939,-0.12047 -0.455549,-0.0613 -0.331949,0.13864 0.207169,0.33521 0.879439,0.49581 0.879439,0.21009 z m -72.791359,-2.41899 c -0.0979,-0.24253 -0.17793,-0.0441 -0.17793,0.44097 0,0.48507 0.0801,0.68351 0.17793,0.44098 0.0979,-0.24254 0.0979,-0.63941 0,-0.88195 z m 69.34048,-0.3288 c -0.22089,-0.22089 -0.27006,0.0111 -0.13881,0.65483 0.15054,0.73835 0.23925,0.82706 0.34206,0.34205 0.0763,-0.36015 -0.0151,-0.80875 -0.20325,-0.99688 z m -11.48492,-14.48786 c -0.0979,-0.24254 -0.17794,-0.0441 -0.17794,0.44097 0,0.48507 0.0801,0.6835 0.17794,0.44097 0.0979,-0.24253 0.0979,-0.63941 0,-0.88194 z m 7.16409,-43.12709 c 1.8e-4,-0.61667 -0.0586,-0.59445 -0.46692,0.17639 -0.25691,0.48507 -0.39348,1.01796 -0.30348,1.18419 0.23249,0.42941 0.77016,-0.52016 0.7704,-1.36058 z M 88.07902,140.55306 c 0,-0.30249 -0.16134,-0.45027 -0.35853,-0.3284 -0.1972,0.12187 -0.2672,0.36936 -0.15557,0.54998 0.30241,0.48932 0.5141,0.39808 0.5141,-0.22158 z m 0.24099,-1.63283 c -0.11262,-0.28142 -0.19621,-0.19783 -0.21314,0.21314 -0.0153,0.37189 0.0681,0.58025 0.18528,0.46302 0.11723,-0.11722 0.12976,-0.4215 0.0279,-0.67616 z m -68.327099,-1.16857 c 0,-0.0517 -0.3175,-0.17713 -0.70556,-0.27861 -0.44094,-0.11531 -0.70555,-0.0108 -0.70555,0.27861 0,0.28943 0.26461,0.39391 0.70555,0.2786 0.38806,-0.10148 0.70556,-0.22685 0.70556,-0.2786 z M 97.845,123.75079 c -0.11261,-0.28142 -0.1962,-0.19783 -0.21313,0.21314 -0.0153,0.37188 0.0681,0.58024 0.18528,0.46302 0.11723,-0.11723 0.12976,-0.4215 0.0279,-0.67616 z m 2.22846,-2.4033 c 0,-0.19403 -0.07,-0.35278 -0.15557,-0.35278 -0.0856,0 -0.25368,0.15875 -0.3736,0.35278 -0.11991,0.19403 -0.0499,0.35278 0.15557,0.35278 0.20548,0 0.3736,-0.15875 0.3736,-0.35278 z m -68.855319,-2.47485 c 0.50332,-0.005 0.51434,-0.055 0.073,-0.33415 -0.616,-0.38956 -1.07794,0.1668 -1.0142,1.2215 0.0368,0.60853 0.0637,0.5964 0.19552,-0.0882 0.0856,-0.44438 0.41382,-0.79613 0.74571,-0.79915 z m 4.96102,-7.78137 c -0.49124,-0.3036 -1.01681,-0.1143 -1.01681,0.36624 0,0.16441 0.33092,0.21239 0.73538,0.10662 0.5362,-0.14022 0.61242,-0.26829 0.28143,-0.47286 z m 75.888749,-9.00489 c 0,-0.42896 -0.0879,-0.441 -0.49214,-0.0674 -0.27068,0.25018 -0.41846,0.57653 -0.3284,0.72522 0.24431,0.40337 0.82054,-0.0586 0.82054,-0.65785 z M 43.390301,99.803255 c 0.73931,-0.02387 0.74163,-0.03536 0.0623,-0.308634 -0.92015,-0.370167 -1.24408,-0.154389 -1.1938,0.795219 0.0316,0.59683 0.0777,0.63227 0.20226,0.15557 0.0887,-0.33955 0.50688,-0.628518 0.92921,-0.642155 z m 73.475749,-5.459689 c 0.12401,-0.494106 0.12704,-0.996814 0.007,-1.11713 -0.12031,-0.120316 -0.21875,0.09345 -0.21875,0.47504 0,0.381588 -0.1905,0.884297 -0.42334,1.11713 -0.32167,0.321671 -0.32328,0.423333 -0.007,0.423333 0.22914,0 0.51808,-0.404268 0.64209,-0.898373 z M 48.567911,92.243333 c 0,-0.0518 -0.3175,-0.17713 -0.70556,-0.27861 -0.44095,-0.11531 -0.70555,-0.0108 -0.70555,0.27861 0,0.28943 0.2646,0.39391 0.70555,0.2786 0.38806,-0.10148 0.70556,-0.22685 0.70556,-0.2786 z m 4.17454,-7.23735 c 0.50029,-0.005 0.51045,-0.0544 0.0681,-0.33416 -0.52664,-0.33305 -1.08122,0.13271 -1.03439,0.86873 0.0124,0.19403 0.10252,0.15434 0.20039,-0.0882 0.0979,-0.24253 0.44252,-0.4434 0.7659,-0.44637 z m 71.196329,-2.56553 c -0.0973,-0.23979 -0.18574,-0.15646 -0.20136,0.18968 -0.0153,0.33955 -0.19597,0.61736 -0.40145,0.61736 -0.20547,0 -0.26288,0.17914 -0.12757,0.39808 0.31392,0.50793 0.97969,-0.59059 0.73038,-1.20512 z m 2.48122,-4.19799 c -0.11261,-0.28142 -0.19621,-0.19783 -0.21313,0.21313 -0.0153,0.37189 0.0681,0.58025 0.18528,0.46303 0.11723,-0.11723 0.12976,-0.4215 0.0279,-0.67616 z m -68.879099,-1.02916 c -0.30784,-0.49809 -0.8591,-0.36829 -0.8591,0.20229 0,0.3147 0.20694,0.43868 0.52714,0.31581 0.28992,-0.11126 0.43931,-0.3444 0.33196,-0.5181 z m 71.107559,-1.37414 c 0,-0.19403 -0.07,-0.35278 -0.15557,-0.35278 -0.0856,0 -0.25368,0.15875 -0.3736,0.35278 -0.11991,0.19403 -0.0499,0.35278 0.15557,0.35278 0.20548,0 0.3736,-0.15875 0.3736,-0.35278 z m -69.609009,-1.47726 c -0.11261,-0.28142 -0.19621,-0.19783 -0.21314,0.21314 -0.0153,0.37189 0.0681,0.58025 0.18529,0.46302 0.11723,-0.11723 0.12976,-0.4215 0.0279,-0.67616 z m 0.62589,-0.96781 c 0.11163,-0.18062 0.0416,-0.42811 -0.15557,-0.54999 -0.19719,-0.12187 -0.35853,0.0259 -0.35853,0.32841 0,0.61966 0.21169,0.7109 0.5141,0.22158 z m 4.95396,-7.5114 c 0.20132,-0.15025 0.0877,-0.2656 -0.26459,-0.26868 -0.34318,-0.003 -0.61736,0.25572 -0.61736,0.58256 0,0.32338 0.11906,0.44429 0.26459,0.26868 0.14552,-0.1756 0.42333,-0.43775 0.61736,-0.58256 z m 76.023599,-9.26992 c 0,-0.29104 -0.0624,-0.52917 -0.13864,-0.52917 -0.0763,0 -0.23002,0.23813 -0.34171,0.52917 -0.11168,0.29104 -0.0493,0.52917 0.13865,0.52917 0.18794,0 0.3417,-0.23813 0.3417,-0.52917 z m -69.169229,-2.57846 c 0.0136,-0.25398 -0.13396,-0.36368 -0.32798,-0.24376 -0.19403,0.11992 -0.34162,0.64522 -0.32799,1.16735 0.0221,0.84766 0.0573,0.87376 0.32799,0.24376 0.16675,-0.38805 0.31434,-0.91336 0.32798,-1.16735 z m 4.73848,-6.94654 c 0.11168,-0.29104 0.0493,-0.52916 -0.13865,-0.52916 -0.18794,0 -0.3417,0.23812 -0.3417,0.52916 0,0.29104 0.0624,0.52917 0.13864,0.52917 0.0763,0 0.23002,-0.23813 0.34171,-0.52917 z m 4.89556,-8.08658 c -0.11327,-0.18329 -0.32616,-0.0263 -0.47309,0.34889 -0.43262,1.10476 -0.35327,1.39615 0.18117,0.66526 0.27384,-0.37449 0.4052,-0.83086 0.29192,-1.01415 z m 71.529639,-1.61481 c 0,-0.38805 -0.0609,-0.70555 -0.13525,-0.70555 -0.0744,0 -0.21827,0.3175 -0.31975,0.70555 -0.10148,0.38806 -0.0406,0.70556 0.13525,0.70556 0.17586,0 0.31975,-0.3175 0.31975,-0.70556 z m 4.8271,-8.88559 c -0.11262,-0.28142 -0.19621,-0.19783 -0.21314,0.21314 -0.0153,0.37189 0.0681,0.58025 0.18529,0.46302 0.11722,-0.11722 0.12975,-0.42149 0.0279,-0.67616 z m -68.67988,-0.42527 c 0,-0.0763 -0.23812,-0.23003 -0.52916,-0.34171 -0.29104,-0.11168 -0.52917,-0.0493 -0.52917,0.13865 0,0.18793 0.23813,0.3417 0.52917,0.3417 0.29104,0 0.52916,-0.0624 0.52916,-0.13864 z m 70.90293,-2.24261 c -0.003,-0.35231 -0.11844,-0.4659 -0.26869,-0.26458 -0.1448,0.19403 -0.40696,0.47184 -0.58256,0.61736 -0.1756,0.14552 -0.0547,0.26458 0.26869,0.26458 0.32684,0 0.58556,-0.27418 0.58256,-0.61736 z m -66.37561,-5.03248 c 0.49416,-0.005 0.50623,-0.0571 0.0756,-0.3295 -0.64688,-0.40922 -1.08333,-0.15073 -1.04733,0.6203 0.0171,0.3673 0.0962,0.42709 0.20579,0.15557 0.0979,-0.24253 0.44252,-0.4434 0.7659,-0.44637 z"
       id="path1" /></g></svg>
