<?xml version="1.0" encoding="UTF-8" standalone="no"?>
<!-- Created with Inkscape (http://www.inkscape.org/) -->

<svg
   version="1.1"
   id="svg1"
   width="641.93445"
   height="640.83398"
   viewBox="0 0 641.93445 640.83398"
   xmlns="http://www.w3.org/2000/svg"
   xmlns:svg="http://www.w3.org/2000/svg">
  <defs
     id="defs1" />
  <g
     id="g1"
     transform="translate(-1990.6898,-1908.7996)">
    <path
       style="fill:#000000"
       d="m 1994.7558,2548.9971 c -1.1957,-0.5129 -2.5997,-2.0523 -3.12,-3.4208 -0.592,-1.5571 -0.946,-30.4742 -0.946,-77.2687 v -74.7804 l 3.84,-3.8018 c 2.112,-2.091 3.84,-4.5058 3.84,-5.3661 0,-0.8858 1.4846,-2.1846 3.4228,-2.9944 2.192,-0.9159 3.8717,-2.4979 4.6714,-4.3996 0.748,-1.7792 2.4704,-3.4833 4.2967,-4.2512 1.9011,-0.7994 3.4181,-2.3426 4.031,-4.1007 0.5791,-1.6613 2.1061,-3.2844 3.718,-3.9521 1.5045,-0.6232 3.2649,-2.4114 3.9121,-3.9739 0.7109,-1.7163 2.4402,-3.3688 4.3682,-4.1744 2.0262,-0.8466 3.4136,-2.2185 3.7998,-3.7575 0.3368,-1.3417 2.0702,-3.2865 3.8822,-4.3556 1.8005,-1.0624 3.7338,-2.9412 4.296,-4.1753 0.5623,-1.234 2.2975,-2.7251 3.8561,-3.3133 1.7799,-0.6719 3.205,-2.1346 3.832,-3.9333 0.6106,-1.7514 2.1103,-3.3243 3.8613,-4.0496 1.5746,-0.6522 3.4979,-2.4137 4.2739,-3.9144 0.776,-1.5007 2.6934,-3.3917 4.2608,-4.2022 1.6006,-0.8277 3.1234,-2.5634 3.4738,-3.9596 0.4034,-1.6074 1.7571,-2.9593 3.8309,-3.8258 1.7639,-0.737 3.8433,-2.5704 4.621,-4.0741 0.7776,-1.5038 2.5356,-3.4692 3.9066,-4.3675 1.3711,-0.8983 2.9875,-2.7191 3.5922,-4.0462 0.6046,-1.327 2.5136,-3.0037 4.2421,-3.7259 2.0203,-0.8442 3.3666,-2.2052 3.7696,-3.8106 0.4105,-1.6356 1.7594,-2.9707 3.9087,-3.8687 2.1772,-0.9097 3.7435,-2.476 4.6531,-4.6532 0.8795,-2.1048 2.2381,-3.4994 3.788,-3.8885 1.3292,-0.3336 3.0799,-1.8889 3.8905,-3.4564 0.8105,-1.5674 2.7318,-3.5004 4.2694,-4.2955 1.5376,-0.7952 3.0766,-2.3307 3.4199,-3.4123 0.3433,-1.0816 2.2638,-3.0016 4.2679,-4.2668 2.0679,-1.3054 3.9106,-3.3632 4.2607,-4.7581 0.3984,-1.5872 1.7685,-2.939 3.8676,-3.8161 1.7879,-0.747 3.5426,-2.2779 3.8993,-3.4019 0.3567,-1.124 2.3424,-3.1128 4.4125,-4.4197 2.0701,-1.3068 3.7639,-3.0131 3.7639,-3.7919 0,-0.7788 1.674,-2.4726 3.7199,-3.7642 2.046,-1.2916 3.9728,-3.3558 4.2819,-4.5872 0.3353,-1.3359 1.7442,-2.6851 3.4934,-3.3454 1.8331,-0.6919 3.418,-2.2633 4.2296,-4.1935 0.796,-1.8932 2.4767,-3.5826 4.3461,-4.3686 1.9393,-0.8154 3.418,-2.3424 4.0646,-4.1972 0.6433,-1.8453 1.8855,-3.1336 3.3842,-3.5098 1.3023,-0.3268 3.4029,-2.234 4.668,-4.2381 1.2652,-2.004 3.1852,-3.9246 4.2668,-4.2679 1.0816,-0.3433 2.6171,-1.8822 3.4123,-3.4199 0.7951,-1.5376 2.7665,-3.4787 4.3808,-4.3135 1.6144,-0.8348 3.3631,-2.7453 3.8861,-4.2456 0.5484,-1.5732 2.1087,-3.2073 3.6862,-3.8608 1.5045,-0.6232 3.2415,-2.3549 3.8601,-3.8483 0.6186,-1.4934 2.404,-3.2452 3.9676,-3.8929 1.5636,-0.6476 3.4779,-2.4054 4.2539,-3.9061 0.7761,-1.5007 2.6388,-3.3634 4.1395,-4.1395 1.5007,-0.776 3.237,-2.6385 3.8585,-4.1389 0.6513,-1.5723 2.3454,-3.1867 3.9992,-3.8109 1.8562,-0.7006 3.2368,-2.1372 3.91,-4.0682 0.6909,-1.9819 2.1232,-3.4375 4.2618,-4.3311 2.0534,-0.8579 3.4417,-2.2247 3.8296,-3.7699 0.3367,-1.3417 2.0701,-3.2865 3.8821,-4.3556 1.8006,-1.0624 3.7617,-3.0025 4.3581,-4.3114 0.5964,-1.309 2.2487,-2.7858 3.6717,-3.2819 1.4931,-0.5205 3.0961,-2.13 3.7901,-3.8054 0.6888,-1.6629 2.4173,-3.4066 4.0455,-4.0811 1.5636,-0.6476 3.4779,-2.4054 4.2539,-3.9061 0.7761,-1.5007 2.6934,-3.3917 4.2608,-4.2022 1.6006,-0.8277 3.1234,-2.5634 3.4738,-3.9596 0.4101,-1.634 1.7666,-2.9633 3.9587,-3.8792 2.0948,-0.8752 3.7212,-2.417 4.3739,-4.1464 0.5716,-1.5142 2.0489,-3.2131 3.2829,-3.7753 1.2341,-0.5623 3.1129,-2.4955 4.1753,-4.2961 1.0691,-1.812 3.0139,-3.5454 4.3556,-3.8821 1.5452,-0.3879 2.912,-1.7762 3.7699,-3.8296 0.8868,-2.1224 2.35,-3.5712 4.2897,-4.2474 1.9578,-0.6825 3.4035,-2.1267 4.3166,-4.312 0.881,-2.1084 2.2389,-3.5031 3.7897,-3.8924 1.3292,-0.3336 3.0798,-1.8889 3.8904,-3.4564 0.8105,-1.5674 2.7318,-3.5004 4.2694,-4.2955 1.5377,-0.7952 3.0766,-2.3307 3.4199,-3.4123 0.3433,-1.0816 2.3097,-3.0306 4.3699,-4.3311 2.0601,-1.3005 4.0075,-3.4075 4.3274,-4.6821 0.3391,-1.3513 1.7665,-2.8083 3.4234,-3.4946 1.563,-0.6474 3.4767,-2.405 4.2527,-3.9057 0.7761,-1.5007 2.6691,-3.3791 4.2067,-4.1742 1.5377,-0.7952 3.0766,-2.3307 3.4199,-3.4123 0.3433,-1.0816 2.2639,-3.0016 4.2679,-4.2668 2.0041,-1.2651 3.9113,-3.3657 4.2381,-4.668 0.3766,-1.5005 1.665,-2.7411 3.5171,-3.3867 1.9405,-0.6765 3.2683,-2.0097 3.9505,-3.9668 0.6847,-1.9643 2.1267,-3.4071 4.3214,-4.3241 2.1124,-0.8826 3.6385,-2.365 4.2548,-4.1329 0.5836,-1.6742 2.1706,-3.2891 4.0415,-4.1129 1.6943,-0.746 3.6564,-2.5699 4.3602,-4.0532 0.7038,-1.4832 2.2946,-3.1593 3.5352,-3.7245 1.2405,-0.5652 2.7771,-2.2871 3.4147,-3.8264 0.7024,-1.6958 2.4456,-3.3362 4.4234,-4.1626 2.1225,-0.8868 3.6107,-2.3581 4.2552,-4.207 0.6322,-1.8137 2.008,-3.1978 3.799,-3.8221 1.5442,-0.5384 3.3091,-2.0793 3.922,-3.4243 0.6128,-1.345 2.5646,-3.3013 4.3373,-4.3472 1.7727,-1.0459 3.6299,-2.9716 4.1271,-4.2794 0.4972,-1.3077 2.1577,-3.026 3.69,-3.8183 1.5324,-0.7924 3.3197,-2.7291 3.9719,-4.3037 0.7195,-1.737 2.2975,-3.2505 4.0123,-3.8483 1.8107,-0.6312 3.183,-2.0084 3.819,-3.8326 0.6376,-1.829 2.0084,-3.2015 3.8326,-3.8375 1.7793,-0.6202 3.3188,-2.1286 4.1218,-4.0382 0.7752,-1.8438 2.4733,-3.5493 4.2976,-4.3164 1.6587,-0.6974 3.4261,-2.3468 3.9274,-3.6654 0.5013,-1.3185 2.2581,-3.0936 3.9041,-3.9448 1.6477,-0.8521 3.4232,-2.7829 3.9508,-4.2963 0.5927,-1.7001 2.007,-3.1144 3.7071,-3.7071 1.5118,-0.527 3.4318,-2.279 4.2666,-3.8933 0.8348,-1.6144 2.7822,-3.5891 4.3276,-4.3882 1.5454,-0.7992 3.378,-2.6385 4.0725,-4.0875 0.6945,-1.449 2.3935,-3.1765 3.7757,-3.839 1.3822,-0.6624 3.0222,-2.4338 3.6446,-3.9364 0.632,-1.5257 2.5804,-3.4228 4.4131,-4.2967 2.0341,-0.97 3.5162,-2.5003 3.8991,-4.0259 0.3589,-1.4302 1.8774,-3.0952 3.6252,-3.975 1.6541,-0.8327 4.4353,-2.8696 6.1805,-4.5265 l 3.173,-3.0125 71.707,-0.2582 c 48.8248,-0.1758 73.3091,0.074 76.7277,0.7841 7.1323,1.4806 9.2848,4.3997 8.4095,11.4047 -0.9228,7.3864 -1.8769,9.3546 -5.4231,11.1885 -2.4372,1.2603 -405.9994,403.9437 -414.1924,413.2904 -1.1139,1.2708 -3.0579,3.277 -4.32,4.4582 -3.0166,2.8233 5.7956,-5.9682 -100.4835,100.2481 -51.5962,51.5657 -94.6928,94.9249 -95.7703,96.3538 -1.7381,2.3048 -2.713,2.6391 -8.64,2.9625 -3.6745,0.2005 -7.6592,-0.055 -8.8549,-0.568 z m 110.1824,-519.5823 c -1.0478,-0.9762 -2.2344,-2.951 -2.6368,-4.3884 -0.4024,-1.4374 -0.7316,-26.3734 -0.7316,-55.4134 0,-47.4471 0.1639,-53.1615 1.6167,-56.3658 0.9884,-2.1799 2.4809,-3.7775 3.84,-4.1104 1.2228,-0.2995 69.3993,-0.4229 151.5033,-0.2742 155.7936,0.2822 152.2318,0.1898 154.7853,4.0141 1.4462,2.1659 0.7754,8.8819 -1.0523,10.536 -0.9829,0.8894 -2.5725,3.359 -3.5325,5.4879 -1.1978,2.6562 -2.7476,4.2895 -4.9391,5.2052 -1.7565,0.7339 -3.5882,2.3721 -4.0704,3.6404 -0.4822,1.2684 -2.4668,3.2443 -4.4101,4.3909 -1.9434,1.1466 -3.761,2.955 -4.0392,4.0188 -0.2781,1.0637 -1.7395,2.572 -3.2475,3.3518 -1.5079,0.7798 -3.4043,2.6992 -4.2142,4.2653 -0.8099,1.5661 -2.7539,3.5101 -4.32,4.32 -1.5661,0.8099 -3.4981,2.7306 -4.2932,4.2682 -0.7952,1.5377 -2.3443,3.0809 -3.4425,3.4295 -1.0982,0.3485 -2.7877,1.9344 -3.7545,3.5241 -0.9667,1.5896 -3.1077,3.7113 -4.7577,4.7147 -1.65,1.0034 -3.4187,2.9258 -3.9305,4.272 -0.5376,1.4138 -2.1623,2.8769 -3.8469,3.4642 -1.8837,0.6566 -3.3788,2.1233 -4.2222,4.142 -0.8517,2.0382 -2.1986,3.3494 -3.8725,3.7695 -1.7133,0.43 -3.0253,1.7421 -3.9466,3.947 -0.759,1.8166 -2.5904,3.9288 -4.0698,4.6939 -1.4794,0.765 -3.1872,2.4825 -3.7951,3.8167 -0.6079,1.3342 -2.4385,3.1153 -4.0681,3.958 -1.6296,0.8427 -3.3686,2.5992 -3.8644,3.9034 -0.4959,1.3042 -1.9667,2.7762 -3.2686,3.2712 -1.3018,0.4949 -3.1456,2.1068 -4.0972,3.5819 -0.9516,1.4752 -3.969,4.9683 -6.7054,7.7627 -4.4105,4.5039 -5.6091,5.1864 -10.56,6.0126 -3.4034,0.568 -42.8027,0.8604 -100.868,0.7486 -91.2206,-0.1756 -95.3644,-0.2591 -97.1884,-1.9584 z"
       id="path1" />
  </g>
</svg>
