<?xml version="1.0" encoding="UTF-8" standalone="no"?>
<!-- Created with Inkscape (http://www.inkscape.org/) -->

<svg
   version="1.1"
   id="svg1"
   width="790.12671"
   height="1024.1196"
   viewBox="0 0 790.12671 1024.1196"
   xmlns="http://www.w3.org/2000/svg"
   xmlns:svg="http://www.w3.org/2000/svg">
  <defs
     id="defs1" />
  <g
     id="g1"
     transform="translate(-2842.3892,-2751.0006)">
    <path
       style="fill:#000000"
       d="m 3126.9167,3773.8156 c -8.6808,-2.5104 -6.49,-6.8858 2.9344,-5.8605 2.9333,0.3191 4.1333,0.2307 2.6667,-0.1965 -1.4667,-0.4272 -2.969,-1.2538 -3.3385,-1.8368 -0.3695,-0.5831 -3.3601,-0.5685 -6.6458,0.032 -7.3298,1.3404 -25.9364,-0.3848 -28.6764,-2.6588 -3.264,-2.7089 -2.3247,-3.9983 2.994,-4.1102 2.75,-0.058 4.1,-0.4479 3,-0.8666 -1.1,-0.4188 -2.4043,-1.3828 -2.8984,-2.1424 -0.5957,-0.9157 -1.6168,-0.7847 -3.0305,0.3886 -2.4319,2.0182 -19.0774,1.0414 -23.6126,-1.3858 -3.2279,-1.7275 -2.5591,-4.4112 1.2389,-4.9717 1.8045,-0.2662 2.56,-1.0986 2.0956,-2.3089 -0.5677,-1.4794 -1.3274,-1.5707 -3.4805,-0.4184 -3.3719,1.8045 -17.6222,0.7098 -20.3623,-1.5643 -3.2052,-2.66 -2.243,-3.9508 3.0498,-4.0915 4.1166,-0.1094 4.4329,-0.2916 1.7902,-1.031 -1.7654,-0.4939 -3.6732,-2.0841 -4.2396,-3.5337 -0.8805,-2.2536 -1.0434,-2.2975 -1.1236,-0.3024 -0.1835,4.5705 -18.7603,2.2927 -18.7603,-2.3003 0,-1.2915 1.3374,-2.0895 3.6666,-2.1877 2.2559,-0.095 2.7689,-0.3893 1.3334,-0.7645 -1.2834,-0.3353 -2.3334,-1.5587 -2.3334,-2.7186 0,-1.8838 -0.2614,-1.8723 -2.4494,0.1079 -2.5041,2.2661 -8.6843,1.9524 -13.8839,-0.7049 -3.337,-1.7053 -2.9048,-5.0785 0.6667,-5.2038 1.65,-0.058 2.25,-0.4079 1.3333,-0.7778 -0.9167,-0.3699 -1.6759,-1.6725 -1.6871,-2.8948 -0.013,-1.41 -0.3784,-1.6787 -1,-0.7352 -2.9904,4.5393 -15.1915,2.1469 -16.9262,-3.3189 -0.5657,-1.7823 -2.4609,-3.0405 -5.4143,-3.5946 -5.9833,-1.1224 -8.7247,-4.2383 -5.6848,-6.4612 2.7313,-1.9972 1.1758,-5.1865 -1.6561,-3.3957 -3.1371,1.9839 -7.3711,1.4828 -9.7582,-1.1549 -3.0562,-3.3771 -2.7807,-4.2041 1.46,-4.383 2.2559,-0.095 2.7689,-0.3893 1.3334,-0.7644 -1.2834,-0.3354 -2.3334,-1.5805 -2.3334,-2.7669 0,-1.8244 -0.2808,-1.7729 -1.8212,0.3336 -1.6337,2.2342 -2.2621,2.308 -6.1033,0.717 -2.3551,-0.9756 -5.1847,-3.1514 -6.2881,-4.8353 -1.1033,-1.6839 -4.0568,-4.2716 -6.5633,-5.7505 -2.5066,-1.4789 -4.5574,-3.6011 -4.5574,-4.716 0,-1.1149 -2.0516,-2.8843 -4.5591,-3.932 -3.0283,-1.2653 -4.7072,-2.9456 -5,-5.0043 -0.2618,-1.84 -1.5244,-3.2986 -3.1076,-3.5897 -3.816,-0.7019 -6,-2.8019 -6,-5.7695 0,-1.6457 -1.4065,-3.063 -3.9032,-3.9334 -2.4752,-0.8629 -4.4012,-2.7888 -5.264,-5.264 -0.7484,-2.1468 -2.2781,-3.9033 -3.3993,-3.9033 -1.1213,0 -3.0595,-1.65 -4.3073,-3.6666 -1.2477,-2.0167 -4.2134,-5.7667 -6.5904,-8.3334 -5.6091,-6.0566 -6.6758,-11.914 -2.2024,-12.0937 1.995,-0.08 1.9512,-0.243 -0.3024,-1.1235 -1.4496,-0.5664 -3.0398,-2.4742 -3.5338,-4.2396 -0.7991,-2.8562 -0.9127,-2.7325 -1.0309,1.1235 -0.227,7.4006 -4.9868,4.3209 -6.3553,-4.112 -0.4871,-3.0016 -1.3597,-4.453 -2.4302,-4.0423 -2.5518,0.9793 -5.8061,-3.0478 -6.8168,-8.4353 -0.7203,-3.8392 -0.4034,-5.2059 1.5358,-6.6239 2.0896,-1.5279 2.131,-1.7865 0.2862,-1.7865 -1.1864,0 -2.4315,-1.05 -2.7669,-2.3333 -0.4708,-1.8018 -0.645,-1.6678 -0.7644,0.5879 -0.3561,6.7257 -6.8213,3.325 -6.8213,-3.5879 0,-3.5591 -2.8947,-8 -5.2146,-8 -3.9937,0 -5.7622,-18.9478 -1.9667,-21.0719 1.8677,-1.0452 1.7796,-1.3017 -0.6667,-1.9414 -1.8394,-0.481 -2.8187,-0.1129 -2.8187,1.0594 0,2.8582 -2.7438,3.7814 -4.8825,1.6428 -1.2163,-1.2163 -2.2582,-5.9045 -2.7462,-12.3572 -0.6896,-9.1173 -0.4832,-10.619 1.676,-12.1979 2.0815,-1.522 2.1308,-1.8005 0.3187,-1.8005 -1.1791,0 -2.4464,-0.75 -2.8163,-1.6667 -0.3699,-0.9166 -0.7199,0.2479 -0.7778,2.588 -0.1399,5.6569 -2.1371,6.6203 -4.9199,2.3732 -2.8835,-4.4007 -3.6007,-32.707 -0.852,-33.6261 2.2904,-0.7659 2.105,-3.0017 -0.2488,-3.0017 -1.162,0 -2.1271,-1.7049 -2.4533,-4.3334 -0.2958,-2.3833 -0.6338,0.017 -0.7512,5.3334 -0.1173,5.3166 -0.7399,9.6666 -1.3834,9.6666 -2.1703,0 -3.8221,-3.3004 -4.703,-9.3966 -1.1904,-8.2388 -1.2461,-116.6237 -0.064,-124.7638 2.0246,-13.9431 5.8409,-14.4177 6.1188,-0.7609 0.1,4.9067 0.4576,7.4213 0.795,5.588 0.3373,-1.8333 1.5276,-3.8534 2.645,-4.4891 1.6883,-0.9604 1.7229,-1.347 0.2051,-2.2868 -2.5725,-1.5929 -2.3235,-28.4335 0.3149,-33.9383 2.421,-5.0512 4.3454,-4.6067 5.1918,1.1994 0.5163,3.542 1.0127,4.1981 2.201,2.9087 0.9485,-1.0291 1.0835,-2.3767 0.3537,-3.5293 -1.6809,-2.6548 -1.361,-15.6804 0.5205,-21.1979 1.7712,-5.1939 5.0803,-6.1817 6.198,-1.8501 0.5443,2.1093 1.3719,2.5864 3.296,1.8998 2.2938,-0.8185 2.3296,-1.0087 0.3333,-1.7747 -4.4583,-1.7108 -2.0295,-20.9417 2.6448,-20.9417 1.1045,0 1.8262,1.6535 1.8913,4.3333 0.058,2.3834 0.4478,3.4334 0.8666,2.3334 0.4187,-1.1 1.3333,-2.3737 2.0324,-2.8305 0.7901,-0.5162 0.7188,-1.8623 -0.1885,-3.5575 -1.475,-2.756 -0.7729,-9.6566 1.4189,-13.9454 1.8307,-3.5822 5.0986,-2.8802 5.0986,1.0953 0,3.0947 0.201,3.2276 2.0638,1.3648 1.657,-1.657 1.7584,-2.6344 0.5145,-4.9585 -2.2536,-4.2111 0.5673,-12.8361 4.8341,-14.7802 2.1449,-0.9773 3.7498,-3.2767 4.6686,-6.6888 1.0256,-3.8086 2.0046,-5.0735 3.6596,-4.7281 1.4069,0.2936 2.1448,1.5536 1.9556,3.3394 l -0.3039,2.8678 2.9888,-2.9225 c 2.2516,-2.2016 2.5732,-3.1855 1.3039,-3.9888 -2.9146,-1.8443 -1.8397,-7.3561 2.32,-11.896 2.2027,-2.4041 8.3163,-8.8553 13.5857,-14.3361 8.29,-8.6224 9.5411,-10.5548 9.2861,-14.3419 -0.1621,-2.4072 0.2604,-5.4229 0.9389,-6.7016 0.85,-1.6018 0.6559,-2.8594 -0.6243,-4.044 -1.5431,-1.4278 -1.858,-1.2584 -1.858,1 0,3.0184 -2.9439,3.6386 -4.9962,1.0526 -2.0387,-2.5688 -3.3162,-11.6808 -1.8836,-13.4344 0.8457,-1.0352 0.6467,-2.1481 -0.5873,-3.2849 -1.5514,-1.4292 -1.8663,-1.2604 -1.8663,1 0,3.4493 -3.4662,3.5413 -5.2864,0.1403 -1.9816,-3.7028 -1.7678,-17.0424 0.2864,-17.8713 1.0319,-0.4164 0.8133,-0.7126 -0.5739,-0.7778 -1.2323,-0.058 -2.5006,-1.4553 -2.8184,-3.1053 -0.3178,-1.65 -0.6596,-0.4688 -0.7594,2.6249 -0.215,6.6598 -3.1114,6.6968 -5.4218,0.069 -1.8421,-5.2843 -1.8444,-18.7429 0,-20.5838 1.0084,-1.0084 0.8142,-1.6566 -0.6667,-2.2248 -1.6081,-0.6171 -2.0896,0.1103 -2.0896,3.1563 0,4.799 -3.1515,5.3441 -5.5397,0.9581 -2.3747,-4.3613 -2.3622,-30.0638 0.015,-31.5419 1.2605,-0.7837 1.3615,-1.4013 0.3333,-2.0368 -0.8116,-0.5016 -1.5178,-0.4266 -1.5694,0.1667 -0.052,0.5933 -0.6093,-0.1213 -1.2396,-1.588 -0.8416,-1.9584 -1.1708,-0.8076 -1.2396,4.3334 -0.052,3.85 -0.6203,7 -1.2638,7 -5.5185,0 -7.0477,-19.8013 -6.3326,-82 0.5724,-49.7894 1.4676,-59.3334 5.5653,-59.3334 1.4574,0 1.9635,1.8993 2.0426,7.6667 0.058,4.2167 0.4459,6.7667 0.8622,5.6667 0.4163,-1.1 1.5689,-2.4798 2.5614,-3.0663 0.9925,-0.5864 1.8045,-1.6718 1.8045,-2.412 0,-0.7402 -0.5697,-0.9937 -1.266,-0.5634 -3.343,2.0661 -3.4202,-25.0267 -0.089,-31.251 1.8072,-3.3768 4.3251,-2.9626 5.3183,0.8748 0.5442,2.1023 1.3073,2.4786 3.3701,1.6615 2.2603,-0.8952 2.3111,-1.0705 0.3334,-1.1499 -4.3712,-0.1756 -2.6034,-21.4547 2.0197,-24.312 2.6087,-1.6122 3.8357,0.3011 3.0003,4.6785 -0.7039,3.689 -0.6043,3.8854 0.8096,1.5968 0.8891,-1.4393 1.4723,-6.0367 1.3003,-10.2511 -0.1715,-4.2027 0.3502,-8.8784 1.1594,-10.3903 2.148,-4.0137 5.3564,-3.4767 5.4826,0.9177 0.058,2.0167 0.4079,2.9167 0.7778,2 0.3699,-0.9167 1.6725,-1.6759 2.8947,-1.6871 1.8276,-0.017 1.8868,-0.2327 0.3334,-1.216 -1.1983,-0.7585 -1.8889,-3.5196 -1.8889,-7.5518 0,-5.523 0.5606,-6.8243 4.2771,-9.9269 2.393,-1.9978 4.8778,-5.7462 5.6407,-8.5092 0.984,-3.5637 1.9894,-4.8077 3.6117,-4.469 1.377,0.2874 2.1345,1.5579 1.9548,3.2782 l -0.2934,2.809 3.2086,-2.8581 c 2.6067,-2.3218 2.8494,-3.0591 1.2935,-3.9298 -3.21,-1.7964 -2.1499,-7.2496 2.4181,-12.4398 4.3447,-4.9367 15.5213,-16.9788 18.0508,-19.4487 0.742,-0.7246 2.3809,-2.3857 3.6419,-3.6914 6.4347,-6.6624 17.9843,-17.9609 23.3073,-22.8004 3.3,-3.0003 8.23,-7.5034 10.9555,-10.007 2.7256,-2.5036 6.0256,-4.5428 7.3334,-4.5316 3.6118,0.031 6.1972,2.1144 5.0092,4.0365 -0.6794,1.0993 -0.5064,1.3565 0.4959,0.7371 0.8466,-0.5233 1.5393,-1.816 1.5393,-2.8727 0,-1.0567 0.75,-1.9593 1.6667,-2.0058 0.9166,-0.046 0.2664,-0.6457 -1.445,-1.3317 -5.0901,-2.0401 -2.4446,-5.5364 5.445,-7.1964 2.0166,-0.4244 3.6666,-1.6463 3.6666,-2.7154 0,-4.4862 14.6127,-8.7965 17.1723,-5.0653 0.4552,0.6636 1.8777,0.1236 3.1611,-1.2 2.2303,-2.3005 2.1862,-2.4067 -1,-2.4067 -4.4411,0 -4.3818,-3.6674 0.087,-5.3663 1.881,-0.7152 5.781,-1.3004 8.6666,-1.3004 4.0721,0 5.2675,0.5224 5.3403,2.3334 0.08,1.995 0.243,1.9512 1.1235,-0.3024 0.5664,-1.4496 2.4742,-3.0885 4.2396,-3.6419 2.7951,-0.8762 2.7039,-0.941 -0.7057,-0.5016 -8.2182,1.059 -9.9845,-2.2844 -2.794,-5.2888 6.5291,-2.7281 14.8979,-2.5257 16.6027,0.4013 1.2262,2.1052 1.363,2.116 1.3996,0.1112 0.022,-1.2223 0.7906,-2.5249 1.7072,-2.8948 0.9167,-0.3699 0.017,-0.7199 -2,-0.7778 -4.4501,-0.1277 -4.9136,-3.3441 -0.7991,-5.546 4.494,-2.4052 20.9405,-2.3266 22.4873,0.1074 1.0978,1.7276 1.2738,1.6973 1.2914,-0.2222 0.011,-1.2222 0.7704,-2.5248 1.6871,-2.8947 0.9167,-0.3699 -0.2833,-0.7199 -2.6667,-0.7778 -5.341,-0.1297 -5.9152,-3.5698 -0.9132,-5.4716 4.9331,-1.8756 25.0279,-1.6524 26.9799,0.2997 1.2444,1.2444 1.6,1.116 1.6,-0.5781 0,-1.3526 1.3897,-2.3887 3.6667,-2.7336 2.0166,-0.3055 0.1666,-0.6453 -4.1111,-0.7552 -5.5577,-0.1428 -7.6224,-0.6755 -7.2332,-1.8665 1.0071,-3.0821 9.5825,-4.8489 23.9019,-4.9247 15.0139,-0.079 20.0616,0.7445 16.8875,2.7565 -0.9984,0.6329 -1.1369,1.1364 -0.3158,1.1478 0.8044,0.011 2.8463,-1.1796 4.5373,-2.6462 l 3.0747,-2.6667 -6.5373,-0.02 c -14.3324,-0.045 -11.2207,-5.5901 3.6069,-6.428 10.7552,-0.6077 15.8557,0.4026 15.8557,3.1405 0,1.3106 -1.4571,2.0209 -4.3333,2.1124 l -4.3333,0.1378 5.1369,1.3603 c 3.976,1.053 5.558,2.3683 7.0003,5.8203 1.178,2.8192 2.5346,4.2023 3.6879,3.7597 1.1159,-0.4282 2.1443,0.4942 2.6481,2.3753 1.4075,5.2551 0.9863,204.57 -0.4402,208.322 -2.1056,5.538 -4.0152,3.9382 -4.2734,-3.5799 l -0.2403,-7 -0.5116,6.6328 c -0.6538,8.4765 -1.8454,9.7871 -9.4473,10.3915 l -6.2271,0.495 6.3333,0.2404 c 4.4096,0.1673 6.3334,0.8045 6.3334,2.0977 0,1.0215 -0.9491,2.2215 -2.1091,2.6666 -3.6673,1.4073 -14.6248,0.8755 -16.2909,-0.7907 -1.2445,-1.2444 -1.6,-1.1169 -1.6,0.574 0,1.1956 -1.35,2.4339 -3,2.7517 -2.1188,0.4081 -1.6985,0.6312 1.4311,0.7594 6.9958,0.2867 5.1324,4.4538 -2.8778,6.4355 -7.14,1.7665 -9.7832,1.262 -10.6561,-2.0341 -0.3376,-1.2747 -0.6537,-0.7059 -0.7426,1.3358 -0.085,1.9555 0.5954,3.8179 1.512,4.1385 2.3151,0.8098 -2.6617,6.3059 -5.71,6.3059 -2.1617,0 -5.6471,-2.917 -4.9451,-4.1386 0.177,-0.308 -0.4282,0.3118 -1.3448,1.3773 -1.1633,1.3524 -1.2317,2.2061 -0.2265,2.8273 0.792,0.4895 1.2419,2.6249 0.9999,4.7453 -0.3214,2.8149 -1.2497,3.9704 -3.4401,4.2814 -2.3387,0.3322 -3.0341,-0.2557 -3.1547,-2.6666 -0.113,-2.2591 -0.319,-2.4638 -0.7644,-0.7594 -0.3354,1.2833 -1.5805,2.3333 -2.7669,2.3333 -1.8448,0 -1.8034,0.2586 0.2862,1.7866 1.981,1.4485 2.2628,2.7729 1.4896,7 -1.6573,9.0592 -7.4232,14.698 -7.4232,7.2595 0,-1.7917 -0.7138,-2.2764 -2.6189,-1.7783 -2.2994,0.6014 -2.3807,0.923 -0.6666,2.6371 1.5383,1.5384 1.9522,6.1392 1.9522,21.7015 0,18.5477 0.1603,19.7912 2.6346,20.4382 2.9108,0.7612 4.7946,4.4697 5.9693,11.7515 0.546,3.3844 1.7484,5.2401 4.0849,6.3047 1.8212,0.8298 3.3112,1.9937 3.3112,2.5864 0,2.3322 12.0283,13.6461 14.5077,13.6461 3.0861,0 7.1901,3.665 6.0925,5.4409 -0.4167,0.6742 -2.0722,1.2732 -3.6789,1.3311 -1.6067,0.058 -2.1713,0.4079 -1.2546,0.7777 0.9166,0.3699 1.6849,1.6726 1.7072,2.8948 0.037,2.0049 0.1734,1.994 1.3996,-0.1111 1.6204,-2.7822 11.2849,-3.0918 18.4597,-0.5914 5.7632,2.0084 6.5823,4.3195 2.0645,5.8255 l -3.5023,1.1674 2.9982,2.6326 c 1.6489,1.4479 2.5596,1.8825 2.0236,0.9659 -0.6177,-1.0564 -0.1612,-1.6667 1.2468,-1.6667 1.3839,0 1.944,0.7226 1.4857,1.9169 -0.4807,1.2529 0.2782,2.0612 2.1907,2.3334 2.3701,0.3372 3.0783,1.5568 3.726,6.4164 0.6424,4.8198 0.8391,5.1631 1,1.7453 0.2444,-5.1932 2.2406,-6.7403 4.1334,-3.2037 1.508,2.8178 2.0422,176.9267 0.5598,182.4584 -1.3311,4.9669 -4.4677,3.6303 -4.6932,-2 -0.1988,-4.9628 -0.2062,-4.9554 -1,0.9931 -0.711,5.3284 -1.2434,6.0874 -4.7997,6.8423 -3.0883,0.6555 -3.3162,0.885 -1,1.0068 3.429,0.1803 4.0546,3.4678 0.8909,4.6818 -3.538,1.3576 -10.5967,0.9035 -12.2909,-0.7907 -1.2445,-1.2445 -1.6,-1.0963 -1.6,0.6667 0,1.5142 1.0803,2.2666 3.2546,2.2666 4.7484,0 5.3471,2.2109 1.3144,4.8533 -2.6551,1.7397 -6.9476,2.3906 -17.5315,2.6587 -7.7086,0.1952 -14.3455,0.6849 -14.7488,1.0882 -0.4032,0.4032 0.8314,0.7332 2.7437,0.7332 9.4318,0 2.9589,5.9837 -8.0324,7.4254 -4.5288,0.594 -7,1.5527 -7,2.7156 0,4.2866 -11.9405,8.3947 -15.1298,5.2054 -2.5545,-2.5546 -3.7834,0.2115 -1.6593,3.7348 1.1588,1.922 0.9278,2.8059 -1.1324,4.3333 -1.4235,1.0553 -3.6735,1.9188 -5,1.9188 -1.4336,0 -2.4119,0.9734 -2.4119,2.4 0,3.286 -2.5894,5.6 -6.2666,5.6 -2.5805,0 -3.0667,0.6976 -3.0667,4.4 0,4.5794 -1.9607,7.6 -4.9333,7.6 -0.9534,0 -1.7334,-0.8812 -1.7334,-1.9582 0,-1.2073 -0.7799,-1.6588 -2.034,-1.1776 -1.5842,0.6079 -1.6903,1.1947 -0.4797,2.6534 2.0222,2.4367 0.6179,16.4575 -2.1928,21.8928 -3.0781,5.9524 -5.0136,3.5269 -4.18,-5.2383 0.3926,-4.128 0.4175,-6.3054 0.055,-4.8388 -0.3621,1.4667 -0.9618,3.5665 -1.3328,4.6662 -0.371,1.0998 -0.6173,16.8095 -0.5473,34.9107 0.1129,29.2402 -0.1175,33.048 -2.0662,34.1385 -1.9297,1.0799 -1.8545,1.316 0.6254,1.9645 2.2782,0.5958 2.8187,0.137 2.8187,-2.3927 0,-3.6221 2.2842,-5.5364 4.2548,-3.5657 0.7457,0.7457 2.021,5.5803 2.834,10.7436 1.1641,7.393 2.095,9.7179 4.3808,10.9412 2.9452,1.5762 5.8637,6.5154 5.8637,9.9235 0,1.0291 -1.05,2.5261 -2.3333,3.3267 -1.8278,1.1404 -1.1776,1.2859 3.0012,0.6719 4.8889,-0.7184 5.8034,-0.3333 10.9485,4.6105 3.0876,2.967 6.7943,5.3945 8.2369,5.3945 3.0763,0 7.1758,3.6683 6.0803,5.4408 -0.4167,0.6742 -1.866,1.2258 -3.2208,1.2258 -1.8161,0 -2.2778,0.7086 -1.7576,2.6977 0.6481,2.4787 0.8386,2.5157 2.345,0.4555 3.0012,-4.1044 25.7863,-0.4185 24.3375,3.9371 -0.2884,0.867 -2.1083,1.8764 -4.0442,2.2431 -2.5553,0.4839 -3.2103,1.1624 -2.39,2.4756 0.7874,1.2607 1.4063,1.3617 2.0419,0.3334 1.0716,-1.7339 17.357,-1.8873 25.8619,-0.2437 11.3339,2.1903 10.4405,7.2842 -1.1073,6.3137 -3.3,-0.2773 -4.9133,-0.242 -3.5851,0.078 1.3282,0.3205 2.7482,1.4515 3.1557,2.5133 0.5438,1.4172 1.2004,1.5493 2.4687,0.4966 0.959,-0.7958 5.4821,-1.256 10.1643,-1.034 6.7837,0.3216 8.5234,0.8571 8.8808,2.7333 0.2857,1.4998 -0.424,2.3808 -1.9866,2.4663 -1.6649,0.091 -1.3805,0.4229 0.9022,1.0531 2.8947,0.7991 3.4364,1.8783 4.116,8.2004 l 0.7827,7.2802 0.2173,-6.3333 c 0.2341,-6.8203 3.2112,-8.9272 4.7103,-3.3333 1.2907,4.8163 0.9244,206.8028 -0.3788,208.8609 -0.6481,1.0235 -2.1015,1.5067 -3.2298,1.0737 -1.4084,-0.5404 -2.1821,0.1302 -2.4679,2.1391 -0.3468,2.437 -1.5311,3.0584 -7.0831,3.7168 -3.6667,0.4348 -6.0667,0.894 -5.3333,1.0204 0.7333,0.1264 0.4333,0.8115 -0.6667,1.5224 -2.5229,1.6304 -39.2069,1.515 -44.9344,-0.1414 z m -123.0656,-60.4466 c 0,-0.3234 -0.6,-0.9588 -1.3333,-1.412 -0.7334,-0.4532 -1.3334,-0.1887 -1.3334,0.588 0,0.7766 0.6,1.412 1.3334,1.412 0.7333,0 1.3333,-0.2646 1.3333,-0.588 z m -106.6667,-105.3333 c 0,-0.3234 -0.6,-0.9588 -1.3333,-1.412 -0.7333,-0.4533 -1.3333,-0.1887 -1.3333,0.5879 0,0.7766 0.6,1.4121 1.3333,1.4121 0.7333,0 1.3333,-0.2646 1.3333,-0.588 z m -18.0492,-31.1607 c -0.9827,-0.2284 -2.0541,-1.4284 -2.3808,-2.6667 -0.3637,-1.3787 -0.6539,-0.9163 -0.7486,1.1931 -0.1929,4.296 0.9459,5.5369 3.1895,3.4754 1.4114,-1.2967 1.4004,-1.6623 -0.06,-2.0018 z m -11.7066,-24.5013 c -0.4256,-1.0637 -0.7416,-0.7477 -0.8056,0.8055 -0.058,1.4056 0.2573,2.1931 0.7003,1.75 0.4431,-0.443 0.4905,-1.593 0.1053,-2.5555 z m 236.4225,-37.0834 c 0,-0.7333 -1.65,-1.2735 -3.6667,-1.2004 l -3.6666,0.1329 3.3333,1.0675 c 1.8333,0.5872 3.4833,1.1274 3.6667,1.2004 0.1833,0.073 0.3333,-0.467 0.3333,-1.2004 z m -18.6667,-18.6666 c 0,-0.7334 -0.6354,-1.3334 -1.412,-1.3334 -0.7766,0 -1.0412,0.6 -0.588,1.3334 0.4533,0.7333 1.0887,1.3333 1.4121,1.3333 0.3233,0 0.5879,-0.6 0.5879,-1.3333 z m 7.6389,-122.1389 c -0.443,-0.4431 -1.593,-0.4905 -2.5555,-0.1053 -1.0637,0.4256 -0.7477,0.7416 0.8055,0.8056 1.4056,0.058 2.1931,-0.2573 1.75,-0.7003 z m 31.0278,-21.7825 c 0,-2.2352 -2.3647,-2.7887 -3.1518,-0.7376 -0.4644,1.2102 0,1.9923 1.1936,1.9923 1.077,0 1.9582,-0.5646 1.9582,-1.2547 z m 39,-16.9617 c -0.9167,-0.3699 -2.4167,-0.3699 -3.3333,0 -0.9167,0.3699 -0.1667,0.6725 1.6666,0.6725 1.8334,0 2.5834,-0.3026 1.6667,-0.6725 z m -268.7558,-62.0336 c -0.4257,-1.0636 -0.7416,-0.7477 -0.8056,0.8056 -0.058,1.4055 0.2572,2.193 0.7003,1.75 0.4431,-0.4431 0.4904,-1.5931 0.1053,-2.5556 z m 5.7558,-2.9278 c 0,-0.2812 -1.2,-0.825 -2.6667,-1.2085 -1.4666,-0.3836 -2.6666,-0.1536 -2.6666,0.5111 0,0.6647 1.2,1.2085 2.6666,1.2085 1.4667,0 2.6667,-0.23 2.6667,-0.5111 z m 14.573,-26.5676 c 0.052,-0.5932 -0.5063,-0.7078 -1.2397,-0.2546 -0.7333,0.4532 -1.2911,2.1386 -1.2396,3.7454 0.09,2.8164 0.1349,2.8256 1.2396,0.2546 0.6303,-1.4667 1.1881,-3.1521 1.2397,-3.7454 z m 254.3992,-117.7268 c -0.443,-0.4431 -1.593,-0.4904 -2.5555,-0.1053 -1.0637,0.4256 -0.7477,0.7416 0.8055,0.8056 1.4056,0.058 2.1931,-0.2573 1.75,-0.7003 z m -47.6389,-44.6911 c 0,-2.4027 -0.3114,-2.5714 -2.0631,-1.1177 -1.6478,1.3676 -1.7149,1.9331 -0.3333,2.8096 2.379,1.5091 2.3964,1.4968 2.3964,-1.6919 z M 2903.4008,2970.957 c -0.3699,-0.9167 -0.6725,-0.1667 -0.6725,1.6667 0,1.8333 0.3026,2.5833 0.6725,1.6666 0.3699,-0.9166 0.3699,-2.4166 0,-3.3333 z m 26.6945,-55.9167 c -0.4257,-1.0636 -0.7416,-0.7477 -0.8056,0.8056 -0.058,1.4055 0.2572,2.193 0.7003,1.75 0.4431,-0.4431 0.4904,-1.5931 0.1053,-2.5556 z m 5.7558,-4.4166 c 0,-0.1956 -1.2,-0.6695 -2.6667,-1.053 -1.6665,-0.4358 -2.6666,-0.041 -2.6666,1.053 0,1.0939 1.0001,1.4888 2.6666,1.053 1.4667,-0.3836 2.6667,-0.8574 2.6667,-1.053 z m 14.573,-26.3334 c 0.052,-0.55 -0.5063,-1 -1.2397,-1 -0.7333,0 -1.2911,1.65 -1.2396,3.6667 0.083,3.2491 0.2242,3.363 1.2396,1 0.6303,-1.4667 1.1881,-3.1167 1.2397,-3.6667 z m 56.8598,-54.5442 c 2.1704,-0.9101 2.052,-1.0285 -0.7661,-0.7661 -2.4842,0.2313 -3.4124,1.1595 -3.6437,3.6437 -0.2624,2.8181 -0.144,2.9365 0.7661,0.7661 0.5921,-1.4119 2.2318,-3.0516 3.6437,-3.6437 z m 24.5672,-17.9317 c 0,-0.2883 -0.9,-0.5241 -2,-0.5241 -1.1,0 -2,0.5812 -2,1.2915 0,0.7103 0.9,0.9462 2,0.524 1.1,-0.4221 2,-1.0032 2,-1.2914 z m 268.6667,962.1426 c -1.9429,-0.8349 -2.1238,-1.2304 -0.6667,-1.457 1.1,-0.171 -1.2461,-0.6632 -5.2134,-1.0937 l -7.2135,-0.7827 0.3094,-107.9335 c 0.1892,-66.029 0.808,-108.8652 1.5937,-110.3333 0.7063,-1.3199 2.3132,-2.4181 3.5707,-2.4404 2.0866,-0.037 2.076,-0.1629 -0.1208,-1.4409 -1.9016,-1.1062 -2.0774,-1.798 -0.8368,-3.2928 1.8713,-2.2548 16.6194,-2.6483 17.96,-0.4793 0.5717,0.9251 1.4048,0.7274 2.412,-0.5723 0.8463,-1.092 2.7387,-2.2436 4.2054,-2.559 1.4666,-0.3155 -0.033,-0.3467 -3.3334,-0.069 -11.1167,0.9343 -12.4978,-3.8091 -1.8297,-6.2842 7.1729,-1.6642 23.6653,-1.5593 25.386,0.1614 1.0084,1.0084 1.6566,0.8142 2.2248,-0.6666 0.5914,-1.541 -0.042,-2.0896 -2.4109,-2.0896 -1.767,0 -3.5673,-0.5737 -4.0006,-1.2748 -1.3744,-2.2238 5.075,-5.2642 13.1901,-6.2179 6.3496,-0.7463 8.133,-0.5208 9.3813,1.1865 1.3821,1.8901 1.707,1.8426 3.1448,-0.4596 1.4228,-2.2783 1.2267,-2.5676 -1.7411,-2.5676 -1.8396,0 -3.3447,-0.5571 -3.3447,-1.2381 0,-2.2759 4.1566,-5.4285 7.1574,-5.4285 3.7136,0 21.7709,-17.2553 22.9426,-21.9236 1.6225,-6.4646 7.2334,-7.8418 7.2334,-1.7755 0,1.5456 0.4,2.4101 0.8889,1.9212 0.489,-0.4889 0.7525,-4.6539 0.5857,-9.2554 -0.1668,-4.6015 0.6663,-17.2149 1.8515,-28.0297 1.9626,-17.9096 1.9698,-20.9935 0.081,-34.5799 -1.1406,-8.2042 -2.0738,-17.7491 -2.0738,-21.2109 0,-5.5086 -0.3737,-6.3473 -2.9948,-6.7202 -4.1182,-0.5859 -8.6117,-9.9482 -6.4421,-13.4223 1.038,-1.6621 1.0962,-3.1525 0.1844,-4.7168 -1.1195,-1.9205 -1.3396,-1.6919 -1.3736,1.4266 -0.037,3.4271 -0.272,3.5917 -3.0406,2.1338 -1.65,-0.869 -3.4408,-2.2401 -3.9796,-3.0469 -1.7035,-2.5514 -1.1007,-6.1338 1.0322,-6.1338 1.691,0 1.7497,-0.3327 0.3333,-1.8885 -1.0499,-1.1533 -2.2123,-1.4128 -2.9859,-0.6667 -2.5734,2.4824 -7.0222,1.0944 -11.0409,-3.4448 -2.2723,-2.5666 -5.2492,-4.6666 -6.6153,-4.6666 -2.8743,0 -8.4104,-3.5604 -8.4104,-5.409 0,-0.6917 1.65,-1.3051 3.6666,-1.363 2.0167,-0.058 2.9167,-0.4079 2,-0.7777 -0.9166,-0.3699 -1.6758,-1.6726 -1.6871,-2.8948 -0.018,-1.9191 -0.1933,-1.9494 -1.288,-0.2222 -2.4981,3.9413 -21.3582,1.4348 -21.3582,-2.8384 0,-0.7762 1.1585,-1.7142 2.5744,-2.0845 1.5121,-0.3954 2.2824,-1.4342 1.8667,-2.5174 -0.5522,-1.4391 -1.3182,-1.5175 -3.4872,-0.3566 -3.2689,1.7494 -22.2249,0.6377 -26.2985,-1.5425 -4.0963,-2.1922 -3.3296,-5.3273 1.3028,-5.3273 3.046,0 3.7733,-0.4815 3.1562,-2.0896 -0.5682,-1.4808 -1.2164,-1.675 -2.2248,-0.6667 -1.7527,1.7528 -8.8488,1.8294 -11.5451,0.1248 -1.5592,-0.9858 -1.6393,-1.607 -0.3709,-2.8754 1.2684,-1.2684 0.9779,-1.937 -1.3445,-3.0948 l -2.9624,-1.4768 -0.3425,-93.0314 c -0.2304,-62.6125 0.1119,-93.8802 1.047,-95.6274 0.8925,-1.6677 2.9221,-2.6609 5.6757,-2.7776 3.266,-0.1383 3.5539,-0.3215 1.2096,-0.7694 -1.6923,-0.3234 -2.8426,-1.2917 -2.5562,-2.1518 0.8448,-2.5373 5.3222,-2.7046 7.1057,-0.2654 1.5228,2.0824 1.7628,2.0425 3.1351,-0.5217 1.3034,-2.4355 1.1116,-2.7793 -1.5609,-2.7972 -1.6758,-0.011 -3.876,-0.5455 -4.8894,-1.1874 -3.2748,-2.0741 4.0844,-5.4572 13.8557,-6.3697 7.5785,-0.7077 9.3132,-0.4809 10.6867,1.3974 1.5064,2.0601 1.6968,2.0232 2.345,-0.4555 0.5681,-2.1724 0.062,-2.6977 -2.6008,-2.6977 -4.9973,0 -3.4114,-4.3378 2.2659,-6.1979 2.6624,-0.8723 8.4902,-5.3479 13.5426,-10.4003 7.0086,-7.0087 9.0575,-9.9849 9.7678,-14.1888 0.6243,-3.6957 2.0814,-6.1942 4.7725,-8.1838 l 3.8738,-2.864 v -22.3048 c 0,-16.5963 0.4265,-22.477 1.6667,-22.9774 0.9956,-0.4017 0.7272,-0.7149 -0.6667,-0.7777 -1.6137,-0.073 -2.3333,0.8985 -2.3333,3.1493 0,8.3293 -6.2143,3.0852 -7.5052,-6.3335 -0.4981,-3.6341 -0.2796,-6.9174 0.5261,-7.9025 0.9676,-1.1831 0.8628,-2.1597 -0.352,-3.2774 -1.365,-1.2561 -1.8733,-1.045 -2.4081,1 -0.8286,3.1687 -2.6936,3.3022 -5.5954,0.4005 -1.3891,-1.3892 -1.9057,-3.3312 -1.4106,-5.3036 0.7061,-2.8134 0.4246,-3.0407 -2.9342,-2.3689 -2.7437,0.5487 -4.3973,-0.011 -6.3235,-2.1391 -2.41,-2.6629 -2.4372,-2.9778 -0.3581,-4.1413 1.2376,-0.6926 1.9169,-2.128 1.5094,-3.1898 -0.6451,-1.6812 -0.989,-1.6823 -2.6629,-0.01 -1.2767,1.2768 -3.3596,1.6571 -6.2038,1.1328 -10.6578,-1.9647 -15.2947,-7.0006 -6.7262,-7.305 3.0867,-0.1096 3.9229,-0.4104 2.1111,-0.7594 -1.65,-0.3178 -3,-1.5561 -3,-2.7517 0,-1.6909 -0.3555,-1.8184 -1.6,-0.574 -1.9612,1.9613 -14.9452,2.1156 -18.4876,0.2198 -4.5881,-2.4555 -2.7533,-3.9488 5.0876,-4.1408 l 7.6667,-0.1878 -6.6667,-0.836 c -8.0828,-1.0136 -10,-2.1058 -10,-5.6971 0,-2.2944 -0.3321,-2.4756 -2,-1.0914 -1.7752,1.4733 -1.964,-9.7078 -1.6795,-99.5034 l 0.3204,-101.1633 0.7311,98 0.731,98 0.199,-104.6666 c 0.1094,-57.5667 0.2362,-105.3525 0.2818,-106.1907 0.1169,-2.1484 3.6009,-3.447 12.0829,-4.5037 l 7.3333,-0.9136 -6.9213,-0.196 c -7.5642,-0.2142 -9.5508,-1.5911 -6.2492,-4.3312 2.3354,-1.9381 18.1466,-1.9952 25.1705,-0.091 6.7121,1.8198 4.9668,4.8038 -3.2515,5.5593 -6.9124,0.6355 -7.1418,0.7758 -4.9048,3 1.2907,1.2833 3.0539,2.3242 3.9182,2.3129 1.0485,-0.014 0.9796,-0.3956 -0.207,-1.1478 -3.1289,-1.9833 1.7979,-2.8338 16.2208,-2.8 14.1282,0.033 22.8342,1.3781 25.3762,3.9201 2.3257,2.3257 -1.6238,4.1219 -7.8185,3.5559 -2.9334,-0.2681 -4.2834,-0.2253 -3,0.095 1.2833,0.3205 2.3333,1.5609 2.3333,2.7565 0,1.6909 0.3556,1.8184 1.6,0.574 2.0374,-2.0375 21.8,-2.1353 27.5344,-0.1363 5.8227,2.0298 5.5054,5.2029 -0.5203,5.2029 -3.9145,0 -4.4311,0.3085 -3.0297,1.8087 1.2634,1.3524 2.8283,1.4943 6.2035,0.5623 8.4435,-2.3313 22.8788,1.3507 22.8788,5.8357 0,0.6197 -1.4812,1.1267 -3.2915,1.1267 -2.4025,0 -3.0807,0.5494 -2.511,2.034 0.6072,1.5823 1.1957,1.6895 2.6498,0.4827 2.2791,-1.8915 15.786,-0.7575 18.5781,1.5597 3.4658,2.8764 2.1619,4.7371 -3.0921,4.4128 -2.75,-0.1698 -3.65,-0.01 -2,0.3604 1.65,0.3681 3,1.6474 3,2.8431 0,1.6908 0.3555,1.8184 1.6,0.5739 2.2779,-2.2778 11.9301,-1.9804 15.4367,0.4756 4.1633,2.9162 3.6872,4.5653 -1.37,4.7458 -2.3834,0.085 -3.3622,0.4139 -2.1752,0.7307 1.187,0.3168 2.7964,1.8972 3.5764,3.512 1.0484,2.1702 1.4418,2.3646 1.5085,0.7453 0.2512,-6.0973 16.0903,-2.5653 16.0903,3.588 0,1.8243 2.9226,3.2693 6.6124,3.2693 1.3169,0 3.1952,0.9649 4.174,2.1443 1.512,1.8219 1.398,2.4233 -0.7583,4 -1.3958,1.0206 -1.8231,1.8557 -0.9496,1.8557 0.8734,0 1.6064,1.05 1.6287,2.3333 0.039,2.2223 0.1052,2.2223 1.3996,0 2.2937,-3.9381 7.2552,-2.7693 12.7185,2.9962 2.7777,2.9313 6.0976,5.662 7.3776,6.0683 1.28,0.4062 2.7158,1.9627 3.1907,3.4588 0.4748,1.4961 2.9055,3.5735 5.4015,4.6164 2.9881,1.2484 4.5382,2.7948 4.5382,4.527 0,1.7413 1.5619,3.2835 4.6192,4.5609 2.9493,1.2323 4.9192,3.1251 5.4489,5.2357 0.4937,1.967 2.0967,3.6237 3.9586,4.091 1.7209,0.4319 3.5448,2.0958 4.0532,3.6976 0.5084,1.6017 2.7984,4.7963 5.0889,7.0989 2.2905,2.3027 5.4497,5.6408 7.0205,7.418 1.5707,1.7772 3.8135,3.9982 4.984,4.9356 3.5089,2.8101 4.2762,8.4257 1.4351,10.5031 -2.1962,1.6059 -2.2166,1.7925 -0.1966,1.7925 1.2402,0 2.2549,0.7147 2.2549,1.5882 0,0.8735 0.835,0.4462 1.8557,-0.9497 1.5767,-2.1562 2.1781,-2.2702 4,-0.7582 1.1793,0.9788 2.1443,3.521 2.1443,5.6493 0,2.8752 0.8358,4.1876 3.2522,5.1063 4.1123,1.5635 6.0811,5.2144 6.0811,11.2765 0,3.6033 -0.5649,4.777 -2.3333,4.848 -2.0423,0.082 -2.0132,0.2192 0.2338,1.0995 1.412,0.5532 3.0198,2.161 3.573,3.5729 0.776,1.981 1.0271,1.5523 1.0994,-1.8772 0.108,-5.1201 2.4933,-5.1751 5.0741,-0.1169 2.0534,4.0246 2.1919,14.0915 0.2106,15.316 -1.03,0.6366 -0.9341,1.2467 0.3177,2.0203 1.1982,0.7406 2.2786,0.2015 3.2559,-1.6245 1.3379,-2.5 1.6436,-2.5519 3.5863,-0.6091 2.7523,2.7523 4.4534,16.2102 2.6521,20.9822 -1.067,2.8269 -0.9603,3.7967 0.4786,4.3488 1.272,0.4881 1.8518,-0.32 1.8518,-2.5809 0,-4.4523 3.6848,-4.294 5.4057,0.2322 2.1243,5.5874 1.9324,27.2316 -0.2537,28.6166 -1.4398,0.9122 -1.3511,1.1565 0.4261,1.1727 1.4182,0.013 2.4493,1.3705 2.8002,3.687 0.3055,2.0167 0.6454,0.4667 0.7552,-3.4444 0.2366,-8.4206 2.603,-8.8117 5.2482,-0.8673 2.5565,7.6777 1.749,131.2777 -0.8783,134.4415 -3.0144,3.6299 -4.1592,2.5479 -4.3699,-4.1298 -0.1234,-3.9121 -0.4121,-4.9316 -0.7552,-2.6666 -0.3509,2.3165 -1.382,3.6742 -2.8002,3.687 -1.9334,0.018 -1.9673,0.1963 -0.2448,1.288 1.5734,0.9971 1.9357,3.8006 1.6983,13.1429 -0.1659,6.5314 -0.901,13.4518 -1.6336,15.3787 -1.7907,4.7098 -5.3664,4.6037 -5.5033,-0.1633 -0.058,-2.0167 -0.4079,-2.9167 -0.7778,-2 -0.3698,0.9167 -1.6371,1.6667 -2.8162,1.6667 -1.8108,0 -1.7608,0.2799 0.3217,1.8027 4.6269,3.3833 0.4922,23.5306 -4.8291,23.5306 -0.6196,0 -1.1266,-1.1 -1.1266,-2.4444 0,-1.3445 -0.92,-2.4445 -2.0445,-2.4445 -1.4069,0 -1.6148,0.4296 -0.6667,1.3778 1.9127,1.9127 1.6912,12.814 -0.342,16.8326 -0.9243,1.8269 -2.7753,3.5324 -4.1134,3.7901 -1.9957,0.3843 -2.3263,-0.2125 -1.8398,-3.3215 0.3262,-2.0846 0.3421,-3.0401 0.035,-2.1234 -0.3068,0.9166 -1.5638,1.714 -2.7934,1.7719 -1.3868,0.065 -1.6028,0.3606 -0.5689,0.7778 2.0231,0.8163 2.2181,10.2619 0.2864,13.8713 -1.8864,3.5249 -5.251,3.2646 -5.441,-0.421 -0.1164,-2.2576 -0.3056,-2.4226 -0.7645,-0.6667 -0.3353,1.2833 -1.6157,2.3516 -2.8453,2.3739 -2.0055,0.036 -1.991,0.1829 0.1412,1.4239 1.848,1.0756 2.189,2.3839 1.5329,5.8812 -0.752,4.0085 -0.249,5.0808 4.6233,9.8566 5.7121,5.5991 6.5412,7.8569 3.867,10.5311 -1.2444,1.2444 -1.2444,1.6 0,1.6 0.88,0 1.679,1.35 1.7755,3 0.1199,2.049 0.4369,1.6145 1,-1.3709 0.7993,-4.2371 0.9164,-4.3062 3.8245,-2.2577 3.0643,2.1584 4.085,7.8007 1.68,9.287 -0.831,0.5136 -0.7075,1.4798 0.3333,2.6078 1.3827,1.4986 1.8279,1.487 2.7196,-0.07 1.7617,-3.077 4.8288,-2.106 5.699,1.8043 1.5068,6.771 2.0591,8.2798 2.9827,8.1483 2.8779,-0.4097 4.3961,0.5959 6.2178,4.1188 2.8087,5.4313 2.5493,7.9451 -0.9657,9.358 l -3,1.2058 2.9022,0.084 c 1.5963,0.046 3.1767,1.1346 3.512,2.4179 0.3752,1.4355 0.6693,0.9225 0.7645,-1.3333 0.192,-4.5539 2.0879,-4.6922 4.9269,-0.3594 1.4396,2.1973 2.0062,5.3301 1.6878,9.3334 -0.2636,3.3143 -0.069,6.026 0.4325,6.026 0.5016,0 1.1629,0.75 1.4697,1.6666 0.3068,0.9167 0.3031,0.017 -0.01,-2 -0.6248,-4.0482 0.5583,-4.5767 4.232,-1.8905 3.0774,2.2503 4.5441,14.5888 2.0863,17.5503 -1.3666,1.6467 -1.2773,2.0069 0.4977,2.0069 1.1898,0 2.1633,-0.9 2.1633,-2 0,-2.4907 3.1662,-2.6112 5.1699,-0.1969 2.2771,2.7438 3.5153,17.7647 1.6496,20.0126 -1.2105,1.4587 -1.1044,2.0455 0.4798,2.6534 1.4846,0.5697 2.034,-0.1085 2.034,-2.511 0,-4.1045 2.0134,-4.2353 4.4861,-0.2914 2.3891,3.8107 3.9634,18.2577 2.4479,22.4655 -0.7643,2.1224 -0.5609,4.3244 0.6036,6.5345 1.7015,3.2291 1.757,3.1561 1.7761,-2.3334 0.024,-6.9003 3.0338,-7.7462 5.2225,-1.4677 1.9013,5.454 1.9339,34.7976 0.041,36.6907 -1.0084,1.0084 -0.8141,1.6566 0.6667,2.2248 1.5791,0.606 2.0946,-0.084 2.11,-2.823 0.011,-1.9936 0.5456,-4.4539 1.1874,-5.4673 0.9108,-1.4381 1.7112,-1.0122 3.6463,1.9404 2.3112,3.5265 2.4793,7.3563 2.4793,56.5092 0,41.6733 -0.3833,53.6346 -1.8285,57.0596 -1.0056,2.3833 -2.3556,4.3333 -3,4.3333 -0.6443,0 -1.2764,-4.95 -1.4045,-11 -0.1394,-6.5849 -0.4352,-8.5917 -0.7369,-5 -0.3493,4.1592 -1.4027,6.7262 -3.4337,8.3668 -1.8211,1.4712 -2.1729,2.228 -0.9298,2 1.659,-0.3042 2.0702,2.1337 2.4118,14.2999 0.4357,15.5152 -1.221,24.6667 -4.4653,24.6667 -1.3281,0 -2.0042,-1.5885 -2.1281,-5 -0.1124,-3.0952 -0.4017,-3.8571 -0.7594,-2 -0.3234,1.6795 -1.564,3.0089 -2.8184,3.0204 -1.898,0.017 -1.941,0.2099 -0.2811,1.2596 1.4921,0.9437 1.8871,3.6676 1.6559,11.4208 -0.167,5.5998 -0.9199,11.3329 -1.6731,12.7403 -1.7665,3.3008 -5.2756,3.3121 -5.2756,0.017 0,-1.8699 -0.6923,-2.3608 -2.6189,-1.857 -2.2994,0.6013 -2.3807,0.923 -0.6667,2.6371 2.2863,2.2863 2.5034,8.3902 0.5488,15.4284 -1.3004,4.6826 -4.1578,6.5339 -5.8525,3.7919 -0.4107,-0.6645 -2.0145,-0.8767 -3.5641,-0.4714 -2.4453,0.6394 -2.5332,0.8957 -0.6653,1.941 4.2978,2.4052 1.5138,17.7385 -3.2207,17.7385 -1.3403,0 -1.8883,-1.2655 -1.7322,-4 0.1256,-2.2 -0.068,-2.95 -0.4311,-1.6666 -0.3627,1.2833 -1.9655,2.4029 -3.5617,2.488 -2.2552,0.1201 -2.3821,0.2906 -0.5689,0.7644 1.757,0.4591 2.3282,1.9852 2.3129,6.1787 -0.023,6.1725 -0.7727,7.8038 -4.5329,9.8589 -1.4043,0.7675 -3.5195,4.0109 -4.7003,7.2076 -2.4067,6.5151 -6.6764,8.7586 -6.8517,3.6001 -0.058,-1.7038 -0.4079,-2.3477 -0.7778,-1.4311 -0.3698,0.9167 -1.6725,1.7141 -2.8947,1.7719 -1.3858,0.066 -1.5949,0.3584 -0.5555,0.7778 2.4175,0.9755 2.0891,10.4398 -0.435,12.5347 -1.6341,1.3561 -2.3247,1.3832 -3.1045,0.1215 -0.7144,-1.156 -1.9314,-1.2515 -4.2317,-0.3321 -2.1287,0.8508 -2.4717,1.3193 -1.0066,1.375 5.1991,0.1978 3.5876,5.8766 -3.8078,13.4179 -32.9067,33.556 -37.3018,37.7888 -41.4342,39.9032 -2.4499,1.2535 -3.1645,1.168 -3.7865,-0.453 -0.598,-1.5583 -1.1415,-1.6481 -2.4692,-0.4078 -1.3738,1.2833 -1.2863,1.9154 0.4532,3.2748 1.9476,1.522 1.8519,1.9417 -0.9921,4.3503 -3.795,3.214 -4.71,3.2843 -7.4237,0.5706 -1.9048,-1.9048 -2.0953,-1.9048 -2.0953,0 0,1.1524 -1.05,2.1332 -2.3333,2.1797 -1.7878,0.065 -1.6319,0.3665 0.6667,1.2904 3.5648,1.4329 3.6375,1.7971 0.9047,4.5299 -2.4736,2.4736 -10.0226,2.7774 -12.3047,0.4952 -1.2445,-1.2444 -1.6,-1.1169 -1.6,0.5739 0,1.1957 -1.05,2.4319 -2.3334,2.7471 -1.2833,0.3153 -0.3833,0.3298 2,0.032 4.5608,-0.5692 6.0243,1.9314 2.6667,4.5567 -3.1283,2.446 -9.9851,4.1716 -11.3102,2.8465 -0.8038,-0.8038 -1.8956,-0.515 -2.9762,0.787 -1.4187,1.7094 -1.3417,2.0565 0.4565,2.0565 1.1898,0 2.1632,0.5266 2.1632,1.1701 0,2.5076 -3.8193,4.1079 -10.3562,4.3392 -6.8689,0.2432 -13.3384,2.4293 -7.3104,2.4703 3.7043,0.025 3.9725,3.4061 0.4209,5.3068 -3.5135,1.8804 -12.5241,1.7438 -14.4876,-0.2197 -1.2445,-1.2445 -1.6,-1.118 -1.6,0.5689 0,1.1929 -1.05,2.4433 -2.3333,2.7786 -1.4356,0.3752 -0.9226,0.6693 1.3333,0.7645 4.797,0.2023 4.8491,3.7711 0.081,5.5838 -5.0366,1.9149 -15.8526,1.0747 -15.3817,-1.1949 0.2015,-0.9712 -0.2485,-1.3858 -1,-0.9213 -2.0492,1.2664 -1.6509,3.5152 0.967,5.4586 2.1644,1.6067 2.1748,1.8931 0.1437,3.9556 -2.879,2.9236 -18.8917,4.3618 -21.7892,1.9571 -1.6648,-1.3816 -2.0212,-1.296 -2.0212,0.4858 0,1.2744 1.0957,2.1633 2.6667,2.1633 3.5113,0 3.4206,3.5027 -0.1401,5.4083 -4.4967,2.4065 -23.6697,2.3495 -25.2128,-0.075 -1.0997,-1.7277 -1.2758,-1.6975 -1.2934,0.2222 -0.011,1.2223 -0.7704,2.5249 -1.6871,2.8948 -0.9166,0.3699 0.2834,0.7199 2.6667,0.7778 5.2616,0.1278 5.7801,3.018 0.9373,5.2245 -4.7595,2.1686 -30.8373,2.0705 -31.7209,-0.1193 -0.4157,-1.0301 -0.7127,-0.8094 -0.7778,0.5781 -0.065,1.3884 -1.5041,2.4567 -3.7719,2.8002 -2.0167,0.3055 -0.4667,0.6454 3.4444,0.7553 8.1904,0.2301 8.8487,2.548 1.4554,5.1245 -5.2895,1.8434 -41.8045,2.1684 -45.8998,0.4086 z m 118.9722,-32.8056 c -0.4431,-0.443 -1.5931,-0.4904 -2.5556,-0.1052 -1.0636,0.4256 -0.7477,0.7415 0.8056,0.8055 1.4055,0.058 2.193,-0.2572 1.75,-0.7003 z m 48,-26.6666 c -0.4431,-0.4431 -1.5931,-0.4905 -2.5556,-0.1053 -1.0636,0.4256 -0.7477,0.7416 0.8056,0.8056 1.4055,0.058 2.193,-0.2573 1.75,-0.7003 z m 113.5892,-110.1945 c -0.058,-1.65 -0.4079,-2.25 -0.7778,-1.3333 -0.3699,0.9167 -1.6725,1.6758 -2.8948,1.6871 -1.922,0.018 -1.952,0.195 -0.2222,1.3129 3.0843,1.9932 4.0093,1.5974 3.8948,-1.6667 z m 18.3216,-37.3333 c -0.3699,-0.9167 -0.6725,-0.1667 -0.6725,1.6667 0,1.8333 0.3026,2.5833 0.6725,1.6666 0.3699,-0.9166 0.3699,-2.4166 0,-3.3333 z m -254.5775,-35.1389 c -0.443,-0.4431 -1.593,-0.4904 -2.5555,-0.1053 -1.0637,0.4257 -0.7477,0.7416 0.8055,0.8056 1.4056,0.058 2.1931,-0.2572 1.75,-0.7003 z m 57.2019,-62.7331 c 1.2997,-1.0072 1.4974,-1.8403 0.5723,-2.412 -0.7772,-0.4804 -1.4552,-3.988 -1.5068,-7.7947 -0.069,-5.0967 -0.3958,-6.2183 -1.2396,-4.2546 -0.6303,1.4666 -1.1064,7.1666 -1.058,12.6666 0.048,5.5 0.3485,8.5 0.6672,6.6667 0.3187,-1.8333 1.4729,-4.0257 2.5649,-4.872 z m -0.9855,-43.3827 c 0.08,-4.1733 0.8356,-8.0149 1.68,-8.5368 1.093,-0.6755 0.9383,-1.3855 -0.537,-2.4643 -1.1399,-0.8334 -2.3491,-2.9919 -2.6871,-4.7965 -0.3381,-1.8046 -0.6082,6.319 -0.6002,18.0523 0.011,15.6721 0.2778,19.2103 1.007,13.3333 0.5459,-4.4 1.0577,-11.4146 1.1373,-15.588 z m 225.0877,-33.3964 c -0.3189,-1.6586 -0.5919,-0.6156 -0.6067,2.3178 -0.015,2.9333 0.2461,4.2903 0.5798,3.0155 0.3338,-1.2748 0.3459,-3.6748 0.027,-5.3333 z m -231.6096,-1.8249 c 0,-0.2882 -0.9,-0.524 -2,-0.524 -1.1,0 -2,0.5812 -2,1.2915 0,0.7103 0.9,0.9461 2,0.524 1.1,-0.4221 2,-1.0033 2,-1.2915 z m -27.3334,-28.1663 c -1.4666,-0.3664 -3.1075,-1.3468 -3.6462,-2.1786 -0.6217,-0.9599 -0.9871,-0.6599 -1,0.8209 -0.015,1.6985 0.9772,2.2912 3.6462,2.1787 2.8104,-0.1186 3.0439,-0.3103 1,-0.821 z m 232.2442,-53.941 c -0.4257,-1.0637 -0.7416,-0.7477 -0.8056,0.8055 -0.058,1.4056 0.2573,2.1931 0.7003,1.75 0.4431,-0.443 0.4904,-1.593 0.1053,-2.5555 z m -27.5775,-47.75 c 0,-0.7334 -0.6354,-1.3334 -1.412,-1.3334 -0.7766,0 -1.0412,0.6 -0.588,1.3334 0.4532,0.7333 1.0886,1.3333 1.412,1.3333 0.3234,0 0.588,-0.6 0.588,-1.3333 z m -27.2,-34.1334 c -0.4745,-1.2366 -1.1628,-1.9483 -1.5294,-1.5816 -0.3667,0.3666 -0.2785,1.6784 0.1961,2.915 0.4745,1.2366 1.1627,1.9483 1.5294,1.5816 0.3667,-0.3666 0.2784,-1.6784 -0.1961,-2.915 z m 18.7775,-58.1166 c -0.4257,-1.0637 -0.7416,-0.7477 -0.8056,0.8055 -0.058,1.4056 0.2573,2.1931 0.7003,1.75 0.4431,-0.443 0.4904,-1.593 0.1053,-2.5555 z M 3357.164,3084.957 c -0.011,-0.55 -0.602,-1.9 -1.3129,-3 -1.0452,-1.6173 -1.2964,-1.4259 -1.3129,1 -0.011,1.65 0.5796,3 1.3129,3 0.7333,0 1.3241,-0.45 1.3129,-1 z m -14.6462,-75.5034 c 0,-0.2769 -0.9138,-1.2617 -2.0306,-2.1886 -1.6978,-1.409 -1.8929,-1.3266 -1.1906,0.5034 0.7172,1.869 3.2212,3.179 3.2212,1.6852 z m 220.883,-63.8299 c -0.3699,-0.9167 -0.6725,-0.1667 -0.6725,1.6666 0,1.8334 0.3026,2.5834 0.6725,1.6667 0.3699,-0.9167 0.3699,-2.4167 0,-3.3333 z m -18.8282,-35.578 c -0.4834,-0.7821 -1.4671,-1.422 -2.1861,-1.422 -0.719,0 -0.5336,0.8395 0.412,1.8655 1.9142,2.0771 3.1422,1.7701 1.7741,-0.4435 z m -18.0548,-26.7554 c 0,-0.7333 -0.2646,-1.3333 -0.588,-1.3333 -0.3234,0 -0.9588,0.6 -1.412,1.3333 -0.4533,0.7334 -0.1887,1.3334 0.5879,1.3334 0.7766,0 1.4121,-0.6 1.4121,-1.3334 z m -79.3334,-70.6666 c -0.4532,-0.7334 -1.5386,-1.3242 -2.412,-1.3129 -0.9542,0.012 -0.7897,0.5363 0.412,1.3129 2.5615,1.6553 3.0231,1.6553 2,0 z"
       id="path1" />
  </g>
</svg>
