<?xml version="1.0" encoding="UTF-8" standalone="no"?>
<!-- Created with Inkscape (http://www.inkscape.org/) -->

<svg
   width="197.5321mm"
   height="269.06094mm"
   viewBox="0 0 197.5321 269.06094"
   version="1.1"
   id="svg1"
   xml:space="preserve"
   xmlns="http://www.w3.org/2000/svg"
   xmlns:svg="http://www.w3.org/2000/svg"><defs
     id="defs1" /><g
     id="layer1"
     transform="translate(-7.8654712,-24.293035)"><path
       style="fill:#000000"
       d="m 51.491171,293.05218 c -0.34363,-0.20232 -0.5327,-0.51685 -0.42015,-0.69895 0.11254,-0.1821 -0.19859,-0.3311 -0.69142,-0.3311 -1.04852,0 -1.4645,-1.08651 -1.15237,-3.00994 0.13404,-0.82602 0.064,-1.18235 -0.22153,-1.12738 -0.26182,0.0504 -0.45717,-0.53342 -0.52383,-1.56545 -0.0957,-1.48113 0.0191,-1.77119 1.14653,-2.89865 0.68905,-0.68906 1.25283,-1.56429 1.25283,-1.94495 0,-0.81246 0.97108,-1.89641 1.43955,-1.60688 0.17838,0.11025 0.33687,0.54827 0.35219,0.97338 0.0153,0.42511 0.10792,0.57449 0.20578,0.33196 0.0979,-0.24254 0.44252,-0.44341 0.7659,-0.44638 0.3595,-0.003 0.44089,-0.10611 0.20946,-0.26458 -1.25033,-0.85615 -0.89007,-3.77427 0.56936,-4.61187 0.70805,-0.40636 1.03743,-0.93348 1.1936,-1.91014 0.21062,-1.31712 1.24547,-2.25158 1.5342,-1.38536 0.0763,0.22893 0.44668,0.41624 0.82304,0.41624 0.63209,0 0.64391,-0.0616 0.15497,-0.80784 -0.80584,-1.22988 -0.1174,-3.38196 1.24657,-3.89681 0.85438,-0.32249 1.03038,-0.58949 1.03038,-1.56314 0,-0.8269 0.28603,-1.43931 0.96699,-2.07041 0.53184,-0.49289 1.20653,-1.54376 1.4993,-2.33526 0.59737,-1.61496 1.36754,-2.10503 1.64439,-1.04635 0.12759,0.48791 0.39172,0.64728 0.86685,0.52304 0.62927,-0.16456 0.63657,-0.2129 0.0923,-0.61088 -0.9735,-0.71184 -0.44439,-3.31528 0.90354,-4.44581 0.59519,-0.4992 1.08217,-1.18433 1.08217,-1.5225 0,-1.79657 1.73078,-2.76461 1.80481,-1.00945 0.0252,0.59686 0.103,0.7326 0.20226,0.35278 0.0887,-0.33955 0.41242,-0.61737 0.71931,-0.61737 0.48168,0 0.47055,-0.0966 -0.0814,-0.70652 -0.55944,-0.61817 -0.58678,-0.88213 -0.21863,-2.11091 0.35978,-1.20085 1.79654,-2.6827 1.81241,-1.86928 0.0171,0.87857 0.69029,-0.97914 0.69475,-1.91731 0.004,-0.84186 0.27134,-1.33258 1.0326,-1.89541 0.62328,-0.4608 1.11248,-1.21399 1.24406,-1.91539 0.11927,-0.63577 0.44383,-1.34431 0.72123,-1.57454 0.75157,-0.62374 1.33447,-0.0769 1.06978,1.00355 -0.1989,0.81188 -0.16856,0.8575 0.236,0.35487 0.25532,-0.31723 0.70236,-0.66188 0.9934,-0.7659 0.41673,-0.14894 0.39799,-0.19504 -0.0882,-0.21697 -0.4951,-0.0223 -0.61736,-0.35146 -0.61736,-1.66189 0,-1.41048 0.16893,-1.79336 1.23472,-2.79853 0.6791,-0.64047 1.23473,-1.42372 1.23473,-1.74054 0,-0.77835 0.64813,-1.94078 1.08211,-1.94078 0.19345,0 0.4953,0.35719 0.67078,0.79375 0.17548,0.43656 0.32911,0.59531 0.34141,0.35278 0.0123,-0.24254 0.27183,-0.44097 0.57673,-0.44097 0.48955,0 0.48532,-0.0691 -0.0362,-0.59056 -0.42729,-0.42729 -0.53475,-0.93934 -0.3887,-1.85209 0.19522,-1.22008 1.42606,-2.66665 1.97847,-2.32525 0.14881,0.092 0.35914,-0.49318 0.4674,-1.30034 0.13727,-1.02344 0.52469,-1.77396 1.2802,-2.48004 0.59584,-0.55687 1.08335,-1.30435 1.08335,-1.66108 0,-0.91752 1.20363,-2.30774 1.72111,-1.98792 0.23334,0.14422 0.33989,0.60604 0.23678,1.02627 -0.10312,0.42023 -0.0963,0.56562 0.015,0.32309 0.1114,-0.24253 0.46712,-0.45351 0.7905,-0.46882 0.36665,-0.0174 0.42198,-0.0948 0.14699,-0.20579 -0.26603,-0.10734 -0.44097,-0.84358 -0.44097,-1.85574 0,-1.4683 0.15418,-1.81811 1.23472,-2.80138 0.74303,-0.67615 1.23472,-1.45417 1.23472,-1.95377 0,-1.52784 1.72156,-2.1343 1.79174,-0.63118 0.0172,0.3673 0.0962,0.42708 0.20579,0.15557 0.0979,-0.24254 0.41417,-0.44097 0.7029,-0.44097 0.4523,0 0.44823,-0.0767 -0.0294,-0.55437 -0.64808,-0.64808 -0.70066,-1.48435 -0.17952,-2.85507 0.58097,-1.52806 1.74182,-2.07715 1.74182,-0.8239 0,0.44739 0.2259,0.69537 0.61736,0.67771 0.36881,-0.0166 0.43983,-0.0995 0.17639,-0.20579 -0.2544,-0.10265 -0.44097,-0.80394 -0.44097,-1.65754 0,-2.28605 1.71285,-4.25775 1.80481,-2.07757 0.0252,0.59686 0.103,0.7326 0.20226,0.35278 0.0887,-0.33955 0.50688,-0.62743 0.92921,-0.63973 l 0.76789,-0.0224 -0.79375,-0.31904 c -0.90037,-0.36191 -0.96628,-0.79091 -0.38319,-2.49401 0.64813,-1.89305 1.688319,-2.34789 1.733949,-0.7582 0.0153,0.53358 0.10793,0.77171 0.20579,0.52917 0.0979,-0.24253 0.44252,-0.4434 0.7659,-0.44637 0.36424,-0.003 0.44196,-0.10402 0.20424,-0.26459 -1.17253,-0.79197 -0.64732,-4.10258 0.75199,-4.74015 0.56034,-0.2553 0.93021,-0.7918 1.07388,-1.55764 0.29135,-1.55303 1.11967,-2.26797 1.70314,-1.47002 0.26002,0.35561 0.59976,0.46945 0.88143,0.29537 0.32239,-0.19925 0.34253,-0.35484 0.0679,-0.52457 -1.05443,-0.65167 -0.14205,-3.95204 1.18458,-4.285 0.72691,-0.18245 0.89442,-0.43833 0.89442,-1.36629 0,-0.65814 0.27329,-1.38912 0.64514,-1.72565 0.8638,-0.78172 1.11341,-0.73603 1.1466,0.20991 0.0153,0.43656 0.10793,0.59531 0.20579,0.35278 0.0979,-0.24254 0.44252,-0.4458 0.7659,-0.4517 0.51205,-0.009 0.50406,-0.0595 -0.062,-0.38853 -0.52411,-0.30466 -0.60341,-0.62571 -0.40966,-1.65847 0.13214,-0.70437 0.3905,-1.56141 0.57413,-1.90453 0.44445,-0.83046 1.36739,-0.79761 1.36739,0.0487 0,0.52663 0.17219,0.62539 0.79375,0.45523 0.64543,-0.17668 0.67839,-0.24127 0.17639,-0.34561 -1.2932,-0.26882 -0.57243,-4.02406 0.90124,-4.69551 0.56888,-0.2592 0.92914,-0.83599 1.15361,-1.84698 0.39959,-1.79974 1.53649,-2.29914 1.60204,-0.70372 0.0245,0.59624 0.10568,0.74821 0.20226,0.37864 0.0887,-0.33955 0.41957,-0.61736 0.73519,-0.61736 0.44633,0 0.47978,-0.0941 0.15052,-0.42333 -0.51972,-0.51972 -0.55371,-2.55445 -0.0581,-3.48042 0.20086,-0.3753 0.66012,-0.68236 1.02059,-0.68236 0.71624,0 1.08367,-0.65911 1.08367,-1.94393 0,-0.82934 0.82122,-1.93663 1.43631,-1.93663 0.18017,0 0.33001,0.35719 0.33298,0.79375 0.003,0.45627 0.1156,0.62875 0.26458,0.40568 0.14255,-0.21344 0.49731,-0.47872 0.78835,-0.58951 0.39983,-0.1522 0.36655,-0.20825 -0.13615,-0.22929 -0.58646,-0.0245 -0.63866,-0.22223 -0.44051,-1.66795 0.12364,-0.90206 0.40279,-1.85456 0.62032,-2.11667 0.6044,-0.72826 1.36745,-0.56767 1.36745,0.28779 0,0.42039 0.10954,0.65481 0.24342,0.52093 0.13388,-0.13388 0.2011,-1.04061 0.14939,-2.01496 -0.0867,-1.63414 0.004,-1.86117 1.16769,-2.92723 0.69395,-0.63563 1.26172,-1.43267 1.26172,-1.77119 0,-1.79707 1.73076,-2.76572 1.80481,-1.0101 0.0252,0.59687 0.103,0.7326 0.20226,0.35278 0.0887,-0.33955 0.42751,-0.61979 0.75283,-0.62276 0.37458,-0.003 0.44722,-0.10045 0.19807,-0.26459 -0.73137,-0.48181 -0.87833,-1.78072 -0.34569,-3.0555 0.47585,-1.13886 0.69863,-1.31991 1.51909,-1.23452 0.35144,0.0366 0.75327,-1.08656 0.78273,-2.18777 0.0339,-1.26574 0.94618,-2.02531 1.53512,-1.27808 0.29808,0.37819 0.64635,0.45595 1.13551,0.25353 0.60092,-0.24867 0.614,-0.29565 0.0882,-0.31676 -1.23158,-0.0495 -0.43716,-4.08174 0.80417,-4.08174 0.35718,0 0.49636,0.32963 0.44686,1.05833 -0.0647,0.95215 -0.0318,0.98822 0.32772,0.35947 0.21979,-0.38437 0.35964,-1.4519 0.31079,-2.37229 -0.0795,-1.49827 0.0431,-1.80928 1.17159,-2.97123 0.69322,-0.71379 1.2604,-1.63499 1.2604,-2.04713 0,-0.83482 0.91557,-2.31743 1.43111,-2.31743 0.18303,0 0.34531,0.43656 0.36063,0.97014 0.0153,0.53358 0.10792,0.7717 0.20578,0.52917 0.0979,-0.24254 0.43318,-0.44098 0.74513,-0.44098 0.47388,0 0.45783,-0.08 -0.0975,-0.48607 -0.61405,-0.449 -0.63589,-0.70467 -0.28634,-3.3522 0.36814,-2.78843 0.92494,-4.11532 1.56175,-3.72174 0.17205,0.10632 0.31281,0.76603 0.31281,1.46602 0,0.69998 0.0993,1.17343 0.2206,1.05209 0.12134,-0.12133 0.21079,-5.58497 0.19879,-12.14143 -0.012,-6.55646 0.0589,-12.20095 0.15758,-12.54332 0.0987,-0.34236 0.36639,-0.52903 0.59496,-0.41481 0.22856,0.11422 0.0981,-0.0505 -0.28999,-0.36609 -0.67804,-0.5514 -0.71243,-0.52445 -0.88194,0.69108 -0.37571,2.69411 -1.60647,0.9943 -1.97295,-2.72483 -0.19629,-1.99204 -0.34128,-2.38369 -0.88244,-2.38369 -0.35616,0 -0.8119,-0.30707 -1.01275,-0.68237 -0.52072,-0.97297 -0.46557,-4.157222 0.0758,-4.375662 0.27499,-0.11097 0.21967,-0.18842 -0.14699,-0.20579 -0.32338,-0.0153 -0.6791,-0.22629 -0.79049,-0.46882 -0.1114,-0.24254 -0.11817,-0.0971 -0.015,0.32309 0.10311,0.42023 0.0366,0.85731 -0.14781,0.97128 -0.61704,0.381352 -1.41203,-0.19699 -1.62906,-1.1851 -0.11818,-0.53807 -0.60413,-1.18663 -1.07989,-1.44125 -0.47576,-0.25462 -0.86502,-0.58748 -0.86502,-0.73968 0,-0.37166 -3.12101,-3.43088 -3.95617,-3.87784 -0.36504,-0.19537 -0.81093,-0.74243 -0.99087,-1.2157 -0.24307,-0.63934 -0.59031,-0.8605 -1.35103,-0.8605 -1.09364,0 -2.02458,-0.78792 -1.64898,-1.39566 0.12517,-0.20252 0.4828,-0.36823 0.79473,-0.36823 0.31192,0 0.46202,-0.10512 0.33353,-0.2336 -0.12848,-0.12849 -0.82564,-0.21136 -1.54923,-0.18415 -1.85062,0.0696 -3.9792,-0.56343 -3.9792,-1.18334 0,-0.28357 0.15875,-0.51557 0.35278,-0.51557 0.19403,0 0.35278,-0.15875 0.35278,-0.35278 0,-0.19403 -0.2249,-0.35278 -0.49977,-0.35278 -0.27487,0 -0.73859,-0.67469 -1.03048,-1.4993 -0.46371,-1.31001 -0.53423,-1.37682 -0.55857,-0.52917 -0.0304,1.06079 -0.53215,1.29788 -0.87205,0.41212 -0.37928,-0.98838 -0.24591,-55.82515 0.13635,-56.06139 0.23059,-0.14252 0.38223,8.62976 0.4433,25.64376 l 0.0928,25.86037 0.0859,-27.05487 c 0.0643,-20.2507 0.19004,-27.11925 0.50007,-27.31086 0.2278,-0.14079 1.17655,-0.23862 2.10832,-0.2174 0.93177,0.0212 1.77697,-0.0954 1.87823,-0.25929 0.5727,-0.92664 9.44759,-0.61178 10.63957,0.37748 0.85923,0.7131 0.51554,1.01829 -1.19379,1.06003 -0.92163,0.0225 -1.39788,0.11353 -1.05833,0.20226 0.33954,0.0887 0.61979,0.4275 0.62276,0.75283 0.005,0.51005 0.0516,0.51863 0.34121,0.0623 0.43751,-0.68941 5.69047,-0.71411 7.33126,-0.0345 1.44209,0.59733 1.51031,1.44558 0.11626,1.44558 -0.85555,0 -0.9944,0.11818 -0.83865,0.71378 0.17078,0.65305 0.22329,0.66368 0.61716,0.12502 0.81575,-1.1156 6.53847,-0.26811 6.53847,0.96829 0,0.17027 -0.67469,0.32541 -1.49931,0.34475 -1.15632,0.0271 -1.30502,0.0895 -0.65004,0.27277 0.46709,0.13068 0.97187,0.55142 1.12173,0.93497 0.23297,0.59627 0.27607,0.60787 0.29727,0.08 0.0492,-1.22479 5.31646,-0.62179 5.31646,0.60863 0,0.34169 -0.35387,0.55282 -0.97014,0.57882 -0.59686,0.0252 -0.7326,0.103 -0.35278,0.20225 0.33955,0.0887 0.61736,0.39916 0.61736,0.68984 0,0.45473 0.0787,0.4498 0.56385,-0.0353 0.90754,-0.90755 4.37504,-0.0714 4.37504,1.05503 0,0.28421 -0.31252,0.51675 -0.69448,0.51675 -0.46017,0 -0.62858,0.17174 -0.49916,0.50902 0.15239,0.39712 0.40121,0.43075 1.13179,0.15299 1.47353,-0.56024 3.20497,-0.0692 3.87549,1.09914 0.37984,0.66182 0.96896,1.08559 1.69978,1.2227 1.51002,0.28328 2.20739,1.11615 1.42468,1.70148 -0.37221,0.27835 -0.46842,0.59872 -0.27284,0.90858 0.21058,0.33363 0.37521,0.36035 0.54341,0.0882 0.13272,-0.21475 0.65074,-0.39044 1.15117,-0.39044 0.87465,0 2.32198,1.07247 5.47094,4.054 0.71894,0.68071 1.46893,1.23766 1.66664,1.23766 0.1977,0 0.59991,0.46498 0.89379,1.03329 0.30372,0.58732 0.87762,1.08216 1.32971,1.14653 0.57036,0.0812 0.84676,0.41182 0.97699,1.16862 0.14323,0.83236 0.3999,1.09328 1.21463,1.23472 0.80134,0.13912 1.09825,0.4311 1.32383,1.30184 0.20084,0.77528 0.5324,1.15721 1.07185,1.23472 0.42959,0.0617 0.94623,0.44495 1.14809,0.8516 0.20187,0.40666 0.92022,1.293 1.59633,1.96965 3.91454,3.91764 4.58486,5.13282 3.25778,5.90577 -0.56087,0.32668 -0.56323,0.36057 -0.0259,0.37031 0.32532,0.006 0.66409,0.28854 0.75283,0.62809 0.1214,0.46458 0.17146,0.42092 0.20225,-0.17639 0.0445,-0.86389 0.70967,-1.04223 1.38148,-0.37041 0.56345,0.56345 0.54972,3.34742 -0.0176,3.57636 -0.27499,0.11096 -0.21967,0.18842 0.14699,0.20578 0.32338,0.0153 0.6791,0.22629 0.7905,0.46883 0.11139,0.24253 0.11816,0.0971 0.015,-0.32309 -0.23013,-0.93788 0.45096,-1.43551 1.06346,-0.77699 0.58198,0.62571 1.18235,2.47425 0.98745,3.04035 -0.0835,0.24254 -0.4164,0.45104 -0.73978,0.46334 -0.41545,0.0158 -0.35508,0.11597 0.20579,0.34141 0.46872,0.1884 0.81424,0.64873 0.84381,1.12416 0.0275,0.44282 0.14659,0.20151 0.26458,-0.53623 0.19555,-1.2227 0.27127,-1.29957 0.85606,-0.869 0.4606,0.33913 0.68112,1.0657 0.78186,2.57608 0.17392,2.60745 0.18275,2.63882 0.46385,1.64714 0.20599,-0.72672 0.29824,-0.759 0.90342,-0.3161 0.76617,0.56072 1.37021,3.92903 0.87559,4.88255 -0.20728,0.3996 -0.13807,0.64498 0.22076,0.78268 0.35267,0.13533 0.5227,-0.0253 0.5227,-0.4939 0,-0.98265 1.0105,-0.86623 1.40122,0.16143 0.4152,1.09207 0.56263,4.17959 0.22561,4.7249 -0.14155,0.22902 -0.10028,0.41641 0.0917,0.41641 0.19198,0 0.41948,0.27781 0.50555,0.61736 0.0861,0.33954 0.1071,0.10142 0.0467,-0.52917 -0.0604,-0.63059 -7e-4,-1.1441 0.13262,-1.14113 0.54594,0.0122 1.10147,0.59405 1.45506,1.52405 0.48609,1.27852 0.48495,5.27489 -0.002,5.76149 -0.26681,0.2668 -0.21542,0.4383 0.17639,0.58865 0.40997,0.15732 0.55287,-0.0129 0.55287,-0.65872 0,-1.08375 0.8796,-1.15845 1.4344,-0.12181 0.55203,1.03149 0.87187,7.40838 0.41473,8.26909 -0.268,0.50462 -0.23435,0.80216 0.12872,1.13812 0.41422,0.38328 0.4916,0.23058 0.4916,-0.97014 0,-1.78511 0.56612,-1.82903 1.316,-0.1021 0.76317,1.757542 0.85402,15.225152 0.10877,16.123122 -0.38735,0.46673 -0.36855,0.66413 0.11404,1.19738 0.48054,0.53099 0.57786,1.51848 0.57786,5.86352 0,4.53758 -0.08,5.28347 -0.60776,5.6694 -0.5486,0.40115 -0.55719,0.53905 -0.0882,1.41678 0.66104,1.23714 0.66373,13.81528 0.003,15.81615 -0.59362,1.7987 -1.41321,1.67269 -1.46501,-0.22524 -0.0225,-0.82462 -0.11353,-1.2215 -0.20226,-0.88195 -0.0887,0.33955 -0.42751,0.6198 -0.75283,0.62277 -0.51003,0.005 -0.51861,0.0516 -0.0623,0.34106 0.73257,0.46469 0.7551,7.23888 0.0286,8.59614 -0.62535,1.16825 -1.4397,1.21704 -1.4397,0.0863 0,-0.69049 -0.13917,-0.81252 -0.74577,-0.65389 -0.64725,0.16926 -0.67055,0.23712 -0.17639,0.51367 0.7063,0.39526 0.79381,4.58585 0.12321,5.90017 -0.71654,1.40438 -1.31171,1.31403 -1.36575,-0.20733 -0.029,-0.81667 -0.1086,-1.03791 -0.20093,-0.55856 -0.0841,0.43656 -0.41172,0.79375 -0.72807,0.79375 -0.44736,0 -0.48111,0.0941 -0.15185,0.42333 0.6233,0.62331 0.53296,4.20205 -0.12997,5.14852 -0.63565,0.90752 -1.19201,0.7345 -1.25151,-0.3892 -0.0316,-0.59683 -0.0777,-0.63227 -0.20225,-0.15557 -0.0887,0.33955 -0.42751,0.62219 -0.75283,0.62809 -0.51778,0.009 -0.51025,0.058 0.0604,0.38963 0.54923,0.31923 0.61319,0.637 0.40616,2.01775 -0.13516,0.90136 -0.3944,1.91665 -0.57611,2.2562 -0.4717,0.88145 -1.35856,0.76905 -1.39173,-0.17639 -0.0153,-0.43656 -0.10792,-0.59531 -0.20579,-0.35278 -0.0979,0.24254 -0.43317,0.44098 -0.74513,0.44098 -0.47952,0 -0.46652,0.0736 0.0841,0.47626 1.10573,0.80853 0.23109,4.10985 -1.08884,4.10985 -0.26729,0 -0.48597,-0.26459 -0.48597,-0.58797 0,-0.32338 -0.111,-0.47696 -0.24667,-0.3413 -0.13566,0.13567 -0.20278,0.96011 -0.14916,1.83211 0.0847,1.37796 -0.0441,1.71774 -0.98473,2.59639 -0.59523,0.55602 -1.28216,1.62118 -1.52653,2.36701 -0.51533,1.57285 -1.65447,2.08561 -1.71995,0.77421 -0.0298,-0.59774 -0.0846,-0.65249 -0.20225,-0.20226 -0.0887,0.33955 -0.42751,0.61979 -0.75283,0.62276 -0.45113,0.004 -0.48161,0.0751 -0.12846,0.29904 1.05682,0.67019 0.39629,3.53858 -0.98511,4.27787 -0.37526,0.20084 -0.7851,0.91319 -0.91076,1.58302 -0.31431,1.67544 -1.12404,2.32439 -1.78034,1.42684 -0.54122,-0.74016 -0.61079,-0.52925 -0.49813,1.51013 0.0733,1.32772 -0.80106,2.89214 -1.61652,2.89214 -0.4001,0 -0.50844,-0.26321 -0.39932,-0.97013 0.0824,-0.53358 0.0833,-0.77171 0.002,-0.52917 -0.0812,0.24253 -0.41375,0.4535 -0.73908,0.46882 -0.36692,0.0173 -0.42407,0.0954 -0.15052,0.20579 0.53526,0.21598 0.58687,2.71514 0.0758,3.67011 -0.49913,0.93264 -1.38934,0.86376 -1.43962,-0.11139 -0.0308,-0.59731 -0.0808,-0.64096 -0.20225,-0.17639 -0.0887,0.33955 -0.30979,0.61736 -0.49124,0.61736 -0.18144,0 -0.14196,0.30094 0.0877,0.66876 0.32808,0.52535 0.30684,0.95987 -0.099,2.02631 -0.59774,1.5705 -1.7078,2.05874 -1.75158,0.77038 -0.0153,-0.45078 -0.10792,-0.62117 -0.20579,-0.37864 -0.0979,0.24253 -0.44252,0.4434 -0.7659,0.44637 -0.50133,0.005 -0.51118,0.054 -0.0668,0.33496 0.32272,0.20407 0.52115,0.88576 0.52115,1.79033 0,1.19934 -0.19678,1.62871 -1.09946,2.39907 -0.6047,0.51607 -1.20917,1.41366 -1.34326,1.99466 -0.47462,2.05647 -1.55262,2.44839 -1.64623,0.59851 -0.0421,-0.83146 -0.067,-0.85077 -0.20093,-0.15557 -0.0841,0.43657 -0.41171,0.79375 -0.72807,0.79375 -0.44736,0 -0.48111,0.0941 -0.15185,0.42334 0.52377,0.52377 0.55008,2.20844 0.0491,3.14452 -0.20583,0.38459 -0.76145,0.84647 -1.23472,1.02641 -0.64405,0.24487 -0.8605,0.58923 -0.8605,1.36902 0,0.57303 -0.26707,1.30894 -0.59349,1.63536 -0.55613,0.55613 -0.62274,0.55347 -1.05833,-0.0422 -0.25567,-0.34964 -0.47191,-0.48631 -0.48054,-0.3037 -0.11582,2.45027 -0.33552,3.7856 -0.6939,4.21742 -0.61802,0.74467 -1.40707,0.64924 -1.40707,-0.17018 0,-0.48562 -0.16628,-0.63067 -0.55288,-0.48232 -0.3918,0.15035 -0.44319,0.32185 -0.17639,0.58865 0.64911,0.64911 0.44444,2.98965 -0.32907,3.76316 -1.0003,1.0003 -1.31304,0.8781 -1.12861,-0.44098 0.0882,-0.63059 0.0439,-1.03712 -0.0984,-0.9034 -0.14231,0.13371 -0.32248,1.13852 -0.40039,2.23291 -0.0779,1.09438 -0.30482,2.29466 -0.50424,2.66729 -0.54411,1.01667 -1.38906,0.84461 -1.43703,-0.29263 -0.0252,-0.59686 -0.10299,-0.7326 -0.20225,-0.35278 -0.0887,0.33955 -0.37845,0.61736 -0.64382,0.61736 -0.26536,0 -0.59575,0.18328 -0.73419,0.40729 -0.15188,0.24574 -0.0972,0.31178 0.13787,0.16651 0.21427,-0.13243 0.56604,0.0889 0.78172,0.49193 0.52646,0.9837 -0.14945,3.03419 -1.17874,3.57591 -1.01043,0.53178 -1.28275,0.98316 -1.28926,2.13692 -0.006,1.11761 -1.21269,2.02256 -1.54429,1.15843 -0.11657,-0.3038 -0.43164,-0.42721 -0.76453,-0.29947 -0.40126,0.15398 -0.45654,0.32697 -0.18974,0.59377 0.89069,0.89069 0.0363,3.76316 -1.11928,3.76316 -0.57085,0 -0.64464,-0.17971 -0.4708,-1.14653 0.19447,-1.0815 0.18351,-1.0965 -0.19314,-0.26458 -0.21962,0.48507 -0.36636,1.56968 -0.32609,2.41025 0.0497,1.03674 -0.12372,1.74592 -0.53906,2.20486 -0.80742,0.89219 -1.20222,0.85477 -1.23632,-0.1172 -0.0153,-0.43656 -0.10793,-0.59531 -0.20579,-0.35277 -0.0979,0.24253 -0.44252,0.4458 -0.7659,0.4517 -0.51206,0.009 -0.50406,0.0595 0.062,0.38852 0.52411,0.30466 0.60341,0.62571 0.40966,1.65847 -0.46162,2.46067 -1.32638,3.23768 -1.93052,1.73464 -0.17548,-0.43656 -0.32912,-0.59531 -0.34141,-0.35278 -0.0123,0.24254 -0.30018,0.4434 -0.63973,0.44638 -0.37208,0.003 -0.46698,0.10837 -0.23885,0.26458 1.18334,0.81028 0.74189,3.52771 -0.69829,4.29847 -0.55417,0.29658 -0.93255,0.9291 -1.13778,1.90198 -0.40262,1.90859 -1.5235,2.28036 -1.57621,0.52279 -0.0309,-1.03048 -0.0639,-1.06959 -0.27278,-0.32313 -0.13068,0.4671 -0.55142,0.97188 -0.93497,1.12173 -0.59626,0.23297 -0.60786,0.27607 -0.08,0.29727 1.34227,0.0539 0.35917,3.90535 -0.99686,3.90535 -0.3725,0 -0.4644,-0.26964 -0.33066,-0.97014 0.10187,-0.53358 0.0917,-0.7717 -0.0227,-0.52917 -0.11434,0.24254 -0.47248,0.45351 -0.79586,0.46882 -0.36666,0.0174 -0.42198,0.0948 -0.14699,0.20579 0.6704,0.27052 0.57065,3.45291 -0.12637,4.03138 -0.48204,0.40005 -0.64117,0.36989 -1.05833,-0.20062 -0.27005,-0.36931 -0.49099,-0.48238 -0.49099,-0.25127 0,0.23111 -0.26847,0.42021 -0.5966,0.42021 -0.54517,0 -0.54264,0.0394 0.0294,0.45772 0.49257,0.36018 0.5745,0.73217 0.38441,1.74542 -0.13287,0.70823 -0.43951,1.55838 -0.68143,1.88922 -0.47069,0.64371 -1.25244,0.40902 -1.25244,-0.37599 0,-0.29875 -0.25741,-0.40801 -0.69292,-0.29412 -0.60838,0.1591 -0.6299,0.24421 -0.17638,0.69773 0.88624,0.88625 0.63031,2.52327 -0.58439,3.73798 -0.60551,0.60551 -1.28692,1.74335 -1.51426,2.52855 -0.50672,1.75019 -1.59653,2.18613 -1.65909,0.66366 -0.0245,-0.59625 -0.10567,-0.74822 -0.20225,-0.37865 -0.0887,0.33955 -0.39148,0.61737 -0.67277,0.61737 -0.43437,0 -0.42766,0.12784 0.0446,0.84854 0.49928,0.76199 0.50173,0.9784 0.0241,2.12163 -0.29256,0.70019 -0.81691,1.37833 -1.16522,1.50697 -0.85141,0.31445 -1.1506,0.81036 -1.15705,1.91785 -0.003,0.50982 -0.26071,1.13883 -0.57274,1.3978 -0.47772,0.39647 -0.63169,0.38285 -0.97464,-0.0862 -0.34333,-0.46953 -0.47804,-0.48129 -0.85768,-0.0749 -0.2615,0.27993 -0.2966,0.48213 -0.0837,0.48213 0.50677,0 0.45091,1.75325 -0.0899,2.82223 -0.68153,1.34711 -1.5001,1.14167 -1.40566,-0.35278 0.0429,-0.6791 -0.009,-0.9966 -0.11615,-0.70556 -0.10679,0.29104 -0.28148,0.76729 -0.38819,1.05834 -0.10672,0.29104 -0.16127,1.20809 -0.12122,2.03789 0.0617,1.27779 -0.0928,1.66347 -1.00941,2.51967 -0.59523,0.55603 -1.28216,1.6112 -1.52653,2.34484 -0.51942,1.55939 -1.28472,1.97564 -1.57706,0.85775 -0.19158,-0.73262 -0.23266,-0.71314 -0.66522,0.31562 -0.32085,0.76309 -0.70121,1.09645 -1.25103,1.09645 -0.7692,0 -0.77197,0.0133 -0.10523,0.50541 0.5627,0.41531 0.60304,0.58828 0.22628,0.97014 -0.37132,0.37636 -6.47553,0.48024 -32.102769,0.54631 -21.46913,0.0554 -31.84517,-0.0367 -32.26905,-0.28626 z m 48.36439,-1.2945 c -8.08613,-0.0528 -21.42113,-0.0528 -29.63333,-5e-5 -8.21221,0.0528 -1.59628,0.096 14.70205,0.096 16.298329,3e-5 23.017409,-0.0432 14.93128,-0.096 z m 20.129189,-5.84178 c -0.0316,-0.59683 -0.0777,-0.63228 -0.20226,-0.15557 -0.0887,0.33955 -0.31781,0.61736 -0.50906,0.61736 -0.19126,0 -0.24802,0.16134 -0.12615,0.35853 0.34655,0.56073 0.88278,0.0355 0.83747,-0.82032 z m -68.809539,-1.66028 c 0.50853,-0.005 0.51647,-0.0516 0.0588,-0.34738 -0.81605,-0.52737 -1.06079,-0.42264 -1.03049,0.44098 0.0153,0.43656 0.10792,0.59531 0.20579,0.35277 0.0979,-0.24253 0.44252,-0.4434 0.7659,-0.44637 z m 3.82756,-6.76352 c -0.11262,-0.28142 -0.19621,-0.19783 -0.21314,0.21314 -0.0153,0.37188 0.0681,0.58024 0.18529,0.46302 0.11722,-0.11723 0.12976,-0.4215 0.0279,-0.67616 z m 1.5229,-0.77465 c 0,-0.0744 -0.3175,-0.21828 -0.70555,-0.31976 -0.38806,-0.10147 -0.70556,-0.0406 -0.70556,0.13525 0,0.17586 0.3175,0.31975 0.70556,0.31975 0.38805,0 0.70555,-0.0609 0.70555,-0.13524 z m 70.555549,-1.97036 c 0,-0.18793 -0.23812,-0.25032 -0.52916,-0.13864 -0.29104,0.11168 -0.52917,0.26545 -0.52917,0.3417 0,0.0763 0.23813,0.13865 0.52917,0.13865 0.29104,0 0.52916,-0.15377 0.52916,-0.34171 z m -66.381009,-5.30814 c 0.5003,-0.005 0.51045,-0.0544 0.0681,-0.33415 -0.52665,-0.33305 -1.08123,0.13271 -1.0344,0.86872 0.0124,0.19403 0.10252,0.15434 0.20039,-0.0882 0.0979,-0.24254 0.44252,-0.4434 0.7659,-0.44638 z m 71.208169,-3.09248 c -0.11627,-0.44279 -0.17024,-0.39224 -0.20012,0.18747 -0.0225,0.43656 -0.20904,0.79375 -0.41452,0.79375 -0.20548,0 -0.26289,0.17914 -0.12757,0.39808 0.33943,0.54921 0.95044,-0.58628 0.74221,-1.3793 z m -68.689029,-1.19711 c 0.36609,-0.11788 0.28775,-0.22821 -0.26458,-0.37265 -0.63278,-0.16547 -0.78361,-0.0579 -0.77925,0.55553 0.003,0.44215 0.11394,0.59821 0.26458,0.37265 0.14255,-0.21344 0.49321,-0.46343 0.77925,-0.55553 z m 4.70927,-7.37146 c 0.73866,-0.0239 0.74103,-0.0355 0.0623,-0.30463 -0.75604,-0.29985 -1.24917,0.12962 -1.1884,1.03498 0.0252,0.37494 0.0825,0.34924 0.19686,-0.0882 0.0887,-0.33955 0.50688,-0.62852 0.92921,-0.64215 z m 4.62204,-7.77904 c -0.22862,-0.36992 -0.85554,-0.073 -0.85554,0.40525 0,0.17648 0.23721,0.22985 0.52714,0.1186 0.28992,-0.11126 0.4377,-0.34699 0.3284,-0.52385 z m 71.111119,-1.36839 c 0,-0.19403 -0.35719,-0.34162 -0.79375,-0.32798 -0.75738,0.0236 -0.76142,0.0387 -0.0882,0.32798 0.38806,0.16675 0.74525,0.31434 0.79375,0.32798 0.0485,0.0136 0.0882,-0.13395 0.0882,-0.32798 z m -68.086109,-2.64583 c 0,-0.0518 -0.3175,-0.17713 -0.70555,-0.27861 -0.44095,-0.11531 -0.70556,-0.0108 -0.70556,0.27861 0,0.28943 0.26461,0.39391 0.70556,0.2786 0.38805,-0.10148 0.70555,-0.22685 0.70555,-0.2786 z m 4.23333,-7.32759 c 0.35359,-0.1346 0.2658,-0.21068 -0.26458,-0.22929 -0.53327,-0.0187 -0.79198,0.17475 -0.78835,0.58951 0.003,0.3808 0.10472,0.46866 0.26459,0.22929 0.14255,-0.21344 0.4973,-0.47872 0.78834,-0.58951 z m 4.93889,-7.45134 c 0,-0.0763 -0.23812,-0.23002 -0.52916,-0.3417 -0.29105,-0.11169 -0.52917,-0.0493 -0.52917,0.13864 0,0.18794 0.23812,0.34171 0.52917,0.34171 0.29104,0 0.52916,-0.0624 0.52916,-0.13865 z m 70.908329,-1.79056 c 0,-0.3147 -0.20694,-0.43868 -0.52714,-0.31581 -0.28993,0.11126 -0.43931,0.3444 -0.33196,0.5181 0.30784,0.49809 0.8591,0.36829 0.8591,-0.20229 z m -68.538449,-2.32892 c 0.54671,-0.0216 0.53669,-0.0613 -0.0768,-0.30463 -0.79581,-0.31562 -1.23312,0.12328 -1.20696,1.21137 0.0155,0.64569 0.044,0.6382 0.33601,-0.0882 0.17547,-0.43657 0.60197,-0.80491 0.94777,-0.81855 z m 5.03846,-7.60107 c 0,-0.0744 -0.3175,-0.13525 -0.70556,-0.13525 -0.38806,0 -0.70556,0.14389 -0.70556,0.31976 0,0.17586 0.3175,0.23672 0.70556,0.13524 0.38806,-0.10148 0.70556,-0.24537 0.70556,-0.31975 z m 75.426299,-9.49319 c -0.10861,-0.10862 -0.30587,0.0872 -0.43835,0.43509 -0.19145,0.50278 -0.15093,0.5433 0.19748,0.19748 0.2411,-0.2393 0.34949,-0.52396 0.24087,-0.63257 z m 4.9607,-7.92817 c -0.0293,-0.72693 -0.066,-0.75794 -0.20895,-0.17638 -0.0954,0.38805 -0.31372,0.87891 -0.48518,1.09079 -0.17147,0.21188 -0.20492,0.49208 -0.0743,0.62266 0.35878,0.35878 0.80858,-0.54091 0.76846,-1.53707 z m -68.39256,-1.5875 c 0,-0.0518 -0.3175,-0.17712 -0.70556,-0.2786 -0.44094,-0.11531 -0.70555,-0.0108 -0.70555,0.2786 0,0.28943 0.26461,0.39392 0.70555,0.27861 0.38806,-0.10148 0.70556,-0.22685 0.70556,-0.27861 z m 4.17454,-7.23734 c 0.50029,-0.005 0.51045,-0.0544 0.0681,-0.33416 -0.52664,-0.33305 -1.08122,0.13271 -1.03439,0.86873 0.0124,0.19402 0.10252,0.15434 0.20039,-0.0882 0.0979,-0.24253 0.44252,-0.4434 0.7659,-0.44637 z m 75.90601,-9.16682 c 0,-0.19403 -0.07,-0.35278 -0.15557,-0.35278 -0.0856,0 -0.25368,0.15875 -0.3736,0.35278 -0.11991,0.19403 -0.0499,0.35278 0.15557,0.35278 0.20548,0 0.3736,-0.15875 0.3736,-0.35278 z m -68.67893,-2.49424 c 0.73936,-0.0238 0.74183,-0.0357 0.0637,-0.30463 -0.80257,-0.31831 -1.24623,0.13665 -1.18128,1.21137 0.0368,0.60853 0.0637,0.5964 0.19552,-0.0882 0.1007,-0.52281 0.41545,-0.80221 0.9221,-0.81854 z m 73.5769,-5.37589 c -0.0316,-0.59682 -0.0777,-0.63227 -0.20226,-0.15557 -0.0887,0.33955 -0.31781,0.61737 -0.50906,0.61737 -0.19126,0 -0.24802,0.16134 -0.12615,0.35853 0.34655,0.56073 0.88278,0.0355 0.83747,-0.82033 z m -68.79227,-2.38609 c -0.49124,-0.30361 -1.01681,-0.11431 -1.01681,0.36623 0,0.16442 0.33092,0.2124 0.73538,0.10663 0.5362,-0.14022 0.61242,-0.2683 0.28143,-0.47286 z m 71.19084,-2.50993 c -0.11261,-0.28142 -0.19621,-0.19783 -0.21313,0.21314 -0.0153,0.37189 0.0681,0.58025 0.18528,0.46302 0.11723,-0.11722 0.12976,-0.4215 0.0278,-0.67616 z m -64.15609,-8.7587 c 0.5025,-0.005 0.51328,-0.0549 0.0716,-0.33415 -0.57602,-0.36428 -1.08122,0.15269 -1.02132,1.04511 0.0252,0.37495 0.0825,0.34924 0.19686,-0.0882 0.0887,-0.33955 0.4275,-0.6198 0.75282,-0.62277 z m 4.94285,-7.79925 c -0.68556,-0.43457 -0.99996,-0.3758 -0.99996,0.18691 0,0.32916 0.24749,0.43142 0.73537,0.30383 0.55911,-0.14621 0.62253,-0.26384 0.26459,-0.49074 z m 1.35769,-2.84482 c -0.11262,-0.28143 -0.19621,-0.19783 -0.21314,0.21313 -0.0153,0.37189 0.0681,0.58025 0.18529,0.46302 0.11722,-0.11722 0.12976,-0.42149 0.0279,-0.67615 z m 67.3732,-1.78594 c -0.0979,-0.24254 -0.17793,-0.0441 -0.17793,0.44097 0,0.48507 0.0801,0.68351 0.17793,0.44097 0.0979,-0.24253 0.0979,-0.63941 0,-0.88194 z m -61.67576,-6.61999 c 0.49416,-0.005 0.50623,-0.0571 0.0756,-0.3295 -0.64688,-0.40922 -1.08332,-0.15072 -1.04733,0.62031 0.0172,0.3673 0.0962,0.42708 0.20579,0.15557 0.0979,-0.24254 0.44252,-0.4434 0.7659,-0.44638 z m 2.38554,-40.26577 c 0.14878,-0.24072 0.0975,-0.31196 -0.12544,-0.17419 -0.20744,0.12821 -0.45756,0.0337 -0.55582,-0.21007 -0.10779,-0.26736 -0.18972,-0.19826 -0.20652,0.17419 -0.0315,0.69813 0.50734,0.82563 0.88778,0.21007 z m 59.29022,-11.675352 c -0.0979,-0.24253 -0.17793,-0.0441 -0.17793,0.44097 0,0.48507 0.0801,0.68351 0.17793,0.44098 0.0979,-0.24254 0.0979,-0.63941 0,-0.88195 z m -75.99266,-5.08433 c -0.24253,-0.0979 -0.63941,-0.0979 -0.88194,0 -0.24254,0.0979 -0.0441,0.17794 0.44097,0.17794 0.48507,0 0.68351,-0.0801 0.44097,-0.17794 z m 42.59792,-42.98164 c 0,-0.3257 -0.3052,-0.51343 -0.79375,-0.48824 -0.59732,0.0308 -0.64097,0.0808 -0.17639,0.20225 0.33955,0.0887 0.61736,0.30845 0.61736,0.48825 0,0.1798 0.0794,0.32691 0.17639,0.32691 0.097,0 0.17639,-0.23813 0.17639,-0.52917 z m -7.25903,-5.22213 c -0.28834,-0.16137 -0.79708,-0.22175 -1.13053,-0.13419 -0.44279,0.11627 -0.39224,0.17023 0.18747,0.20012 0.50287,0.0259 0.79573,0.26716 0.79915,0.65829 0.005,0.5221 0.0565,0.53649 0.33678,0.0933 0.23015,-0.364 0.17123,-0.61372 -0.19287,-0.81748 z M 63.581231,209.57797 c 0,-0.46645 -0.0941,-0.50565 -0.42334,-0.17639 -0.23283,0.23284 -1.07063,0.42334 -1.86178,0.42334 -2.24463,0 -4.21012,-1.72934 -2.03641,-1.79174 0.53358,-0.0153 0.7717,-0.10793 0.52917,-0.20579 -0.24254,-0.0979 -0.44341,-0.44252 -0.44638,-0.7659 -0.003,-0.36691 -0.10284,-0.44259 -0.26458,-0.20131 -0.47604,0.71017 -2.15146,0.87759 -3.43121,0.34288 -1.2456,-0.52044 -1.7112,-1.61148 -0.68771,-1.61148 0.30621,0 0.44493,-0.16999 0.31296,-0.38351 -0.15145,-0.24505 -0.35931,-0.26123 -0.57572,-0.0448 -0.39912,0.39912 -2.86132,-0.24077 -3.54074,-0.92019 -0.57615,-0.57614 0.16612,-1.09953 1.26409,-0.89134 l 0.7547,0.1431 -0.76362,-0.34022 c -0.41999,-0.18712 -0.91228,-0.60585 -1.09397,-0.93051 -0.30021,-0.53645 -0.35021,-0.53851 -0.54822,-0.0225 -0.36853,0.96037 -1.88765,0.66052 -3.17482,-0.62665 -0.65693,-0.65693 -1.53709,-1.30318 -1.9559,-1.43611 -0.41882,-0.13293 -1.00194,-0.70668 -1.29584,-1.27502 -0.2939,-0.56833 -0.81603,-1.03333 -1.1603,-1.03333 -0.86101,0 -1.4726,-0.68861 -1.4726,-1.65805 0,-0.66422 -0.18971,-0.81139 -1.04593,-0.81139 -1.38321,0 -2.19268,-1.27982 -1.07174,-1.69448 0.72509,-0.26823 0.72282,-0.28392 -0.16094,-1.11417 -0.73815,-0.69346 -0.89639,-0.73785 -0.89639,-0.25146 0,0.77124 -1.60852,0.79884 -1.90254,0.0326 -0.30836,-0.80357 -0.28855,-0.8483 0.50587,-1.14217 0.70255,-0.25989 0.69827,-0.28676 -0.17639,-1.10846 l -0.89639,-0.84211 v 0.76705 c 0,0.7944 -0.53611,0.97545 -1.35378,0.45717 -0.57639,-0.36535 -0.38832,-2.01811 0.21563,-1.89498 0.70559,0.14385 0.4931,-0.53498 -0.35297,-1.12759 -0.72882,-0.51048 -0.8043,-0.49961 -1.0448,0.15051 -0.3668,0.99156 -1.2809,0.52915 -1.62973,-0.82443 -0.19929,-0.77332 -0.52821,-1.14415 -1.08686,-1.22534 -0.51495,-0.0748 -0.93029,-0.48703 -1.16279,-1.15397 -0.19893,-0.57065 -0.67099,-1.20308 -1.04902,-1.4054 -0.63696,-0.34089 -2.05635,-2.30883 -2.05936,-2.85525 -7.2e-4,-0.13166 0.24815,-0.48885 0.55305,-0.79375 0.48218,-0.48219 0.48538,-0.55437 0.0245,-0.55437 -0.2914,0 -0.59862,-0.35719 -0.68271,-0.79375 -0.11056,-0.574 -0.16618,-0.47634 -0.20092,0.35278 -0.0913,2.17821 -1.30866,1.12439 -1.61103,-1.39457 -0.16478,-1.37268 -0.0963,-1.66219 0.4184,-1.7692 0.49848,-0.10364 0.46459,-0.16925 -0.17833,-0.34525 -0.62156,-0.17015 -0.79375,-0.0714 -0.79375,0.45524 0,1.15706 -1.06788,0.7357 -1.64834,-0.65039 -0.40208,-0.96014 -0.46149,-1.56887 -0.21666,-2.21986 0.2454,-0.65248 0.209,-1.01683 -0.13355,-1.33682 -0.38453,-0.35921 -0.4709,-0.27558 -0.4709,0.45597 0,2.0015 -1.66377,0.19299 -1.7722,-1.92637 -0.0954,-1.86484 -0.0429,-2.05154 0.62568,-2.22627 0.47972,-0.12536 0.44616,-0.17045 -0.15053,-0.20225 -0.42233,-0.0225 -0.84048,-0.31874 -0.92921,-0.65828 -0.0887,-0.33955 -0.17975,-0.0882 -0.20226,0.55856 -0.0471,1.35282 -0.67687,1.36716 -1.35864,0.0309 -0.55888,-1.09538 -0.57334,-3.93719 -0.0228,-4.4877 0.32926,-0.32926 0.29007,-0.42333 -0.17639,-0.42333 -0.3716,0 -0.59972,0.27821 -0.59972,0.73142 0,1.18447 -1.17776,0.66116 -1.65578,-0.73572 -0.61748,-1.80439 -0.56934,-4.42296 0.0935,-5.08578 0.47763,-0.47763 0.4817,-0.55437 0.0294,-0.55437 -0.28873,0 -0.60504,-0.19843 -0.7029,-0.44097 -0.0979,-0.24253 -0.19047,0.075 -0.20579,0.70556 -0.0351,1.44447 -0.94326,1.55218 -1.48721,0.17639 -0.56243,-1.42255 -0.59279,-6.51492 -0.0399,-6.70119 0.60482,-0.20379 0.55747,-0.79534 -0.0637,-0.79534 -0.27754,0 -0.57342,-0.35719 -0.65751,-0.79375 -0.0841,-0.43656 -0.1745,0.0397 -0.20092,1.05833 -0.0502,1.93326 -0.3371,2.24955 -1.15138,1.26914 -0.67299,-0.81029 -0.91934,-9.43989 -0.29109,-10.19688 0.35792,-0.43127 0.33457,-0.61195 -0.12418,-0.96106 -0.32176,-0.24487 -0.6242998,-1.11332 -0.7028098,-2.01745 -0.0758,-0.87312 -0.12296,-0.13348 -0.10475,1.64365 0.0333,3.24749 -0.1876,4.09759 -0.88377,3.40142 -0.77246,-0.77247 -1.00031,-5.65815 -1.00031,-21.44923 0,-8.92528 0.14048,-17.31802 0.31218,-18.65053 0.56678,-4.398612 1.8597698,-4.019592 1.6459,0.48247 -0.0691,1.45521 -0.0582,1.97115 0.0242,1.14653 0.0942,-0.94229 0.3253198,-1.49931 0.6220198,-1.49931 0.25965,0 0.56274,-0.23622 0.67353,-0.52493 0.11641,-0.30336 0.0207,-0.48949 -0.22684,-0.44097 -0.69387,0.13603 -0.77327,-8.178232 -0.0936,-9.804832 0.68318,-1.63509 1.23971,-1.2819 1.3009,0.82558 0.0264,0.91018 0.11684,1.29769 0.20092,0.86113 0.0856,-0.44438 0.41382,-0.79613 0.74571,-0.79916 0.51085,-0.005 0.51965,-0.0518 0.0637,-0.34083 -0.76084,-0.4823 -0.6344,-6.05057 0.1651,-7.27077 0.67692,-1.03311 1.24601,-0.82088 1.24601,0.46468 0,0.50596 0.0942,0.82569 0.20939,0.71052 0.11517,-0.11516 0.24049,-1.45131 0.27848,-2.96921 0.0674,-2.69402 0.56998,-4.34732 1.32146,-4.34732 0.20536,0 0.45642,0.3175 0.5579,0.70556 0.10147,0.38806 0.43586,0.70556 0.74308,0.70556 0.43445,0 0.4645,-0.0941 0.13524,-0.42334 -0.5431,-0.5431 -0.54794,-3.50332 -0.008,-4.6891 0.57053,-1.25218 1.54356,-1.0113 1.46417,0.36247 -0.0332,0.57519 0.0181,0.76799 0.11406,0.42844 0.096,-0.33955 0.44067,-0.6299 0.766,-0.64521 0.36692,-0.0173 0.42407,-0.0954 0.15052,-0.20579 -0.27382,-0.11049 -0.44098,-0.87671 -0.44098,-2.02139 0,-1.98731 0.47114,-2.90673 1.5875,-3.09801 0.52976,-0.0908 0.73244,-0.4431 0.81345,-1.41402 0.13193,-1.58133 0.87706,-2.34607 1.656,-1.69961 0.50232,0.41689 0.69382,0.23574 0.54582,-0.51634 -0.14837,-0.75395 0.39684,-2.66898 0.90435,-3.17649 0.91653,-0.91652 1.29025,-0.64178 1.06428,0.78241 -0.18482,1.16481 -0.16452,1.21751 0.16981,0.44098 0.20884,-0.48507 0.41101,-1.55502 0.44927,-2.37766 0.0886,-1.90494 0.65386,-2.54651 1.67937,-1.90607 0.4766,0.29764 0.85955,0.33989 1.08026,0.11917 0.22072,-0.22071 0.20597,-0.42594 -0.0416,-0.57895 -0.66561,-0.41137 -0.42024,-1.89343 0.41023,-2.47778 0.7608,-0.53533 0.80301,-0.51785 1.0166,0.42097 0.12256,0.53871 0.24163,0.70167 0.26458,0.36212 0.023,-0.33955 0.31955,-0.62742 0.6591,-0.63972 0.47301,-0.0171 0.43177,-0.097 -0.17639,-0.34141 -0.43656,-0.17548 -0.79375,-0.5103 -0.79375,-0.74405 0,-0.4873 9.7061,-10.39863 10.7318,-10.95871 0.5319,-0.29045 0.77846,-0.23212 1.14652,0.27124 0.2579,0.35269 0.4689,0.4638 0.4689,0.24692 0,-0.21689 0.27782,-0.46694 0.61737,-0.55567 0.46457,-0.12141 0.42092,-0.17146 -0.17639,-0.20226 -1.03962,-0.0536 -1.01878,-0.93555 0.0385,-1.62829 0.8981,-0.58846 1.88376,-0.41213 2.0581,0.36817 0.0756,0.33822 0.34001,0.22256 0.87533,-0.38281 l 0.76706,-0.86743 h -0.85525 c -0.51591,0 -0.85525,-0.20504 -0.85525,-0.51676 0,-0.64999 1.08684,-1.24713 2.26986,-1.24713 0.66644,0 0.90514,-0.18393 0.90514,-0.69743 0,-1.27874 2.7478,-2.5016 3.63273,-1.61667 0.46007,0.46007 0.5586,0.46295 0.72807,0.0213 0.1078,-0.28092 -0.0752,-0.66473 -0.4067,-0.8529 -1.02125,-0.57972 0.20127,-1.40247 2.33113,-1.56883 1.85247,-0.1447 3.00239,-0.57714 1.53468,-0.57714 -0.93403,0 -0.975,-0.40557 -0.11922,-1.18005 0.79244,-0.71714 4.48922,-0.82797 4.76567,-0.14287 0.11096,0.275 0.18842,0.21967 0.20579,-0.14699 0.0153,-0.32338 0.22629,-0.66803 0.46882,-0.7659 0.24253,-0.0979 0.004,-0.19047 -0.52917,-0.20578 -1.25086,-0.0359 -1.29343,-0.98073 -0.0652,-1.4477 1.32133,-0.50236 4.6436,-0.43609 4.85868,0.0969 0.11038,0.27355 0.18851,0.2164 0.20579,-0.15052 0.0153,-0.32532 0.30566,-0.6711 0.64521,-0.76839 0.33955,-0.0973 0.022,-0.0913 -0.70556,0.0134 -1.02154,0.14694 -1.32291,0.0706 -1.32291,-0.33494 0,-1.04797 1.11815,-1.48753 3.97324,-1.56194 1.54683,-0.0403 2.8996,-0.16049 3.00616,-0.26705 0.10656,-0.10656 -0.22959,-0.19375 -0.747,-0.19375 -1.13289,0 -1.26909,-0.85778 -0.22494,-1.41659 0.39369,-0.2107 2.02795,-0.47569 3.63169,-0.58886 2.46059,-0.17365 3.00998,-0.11168 3.51854,0.39688 0.53943,0.53943 0.62503,0.54439 0.81578,0.0473 0.11722,-0.30546 0.47395,-0.57923 0.79274,-0.60837 0.31879,-0.0291 -0.13476,-0.1482 -1.00788,-0.26458 -1.78856,-0.2384 -1.96569,-0.69168 -0.54453,-1.3935 1.42348,-0.70296 9.04461,-0.754 9.87553,-0.0661 0.55119,0.4563 0.67412,0.44612 1.06481,-0.0882 0.58552,-0.80075 1.86415,-0.76216 3.27637,0.0989 l 1.14856,0.70029 -0.0902,29.18042 -0.0902,29.18042 -0.88195,0.24531 c -0.55629,0.15472 -0.65399,0.25829 -0.26458,0.28047 0.76969,0.0438 0.81299,0.94294 0.0593,1.23214 -0.88428,0.33933 -1.14516,0.25731 -1.28246,-0.40323 -0.10435,-0.502 -0.16893,-0.46904 -0.34562,0.17639 -0.15053,0.54989 -0.0649,0.79375 0.27885,0.79375 0.61492,0 0.64986,0.84542 0.0552,1.3349 -0.24254,0.19963 -1.18981,0.47443 -2.10506,0.61068 -1.19038,0.1772 -1.72471,0.43875 -1.87708,0.91882 -0.22603,0.71215 -1.86944,1.72171 -2.80269,1.72171 -0.30693,0 -0.68492,-0.34297 -0.83999,-0.76216 -0.24609,-0.66525 -0.31121,-0.68591 -0.51208,-0.16245 -0.12658,0.32985 -0.0438,0.89806 0.18389,1.26269 0.57073,0.91388 -0.18595,1.77859 -1.55639,1.77859 -0.68478,0 -0.99008,0.15188 -0.88642,0.44097 0.27732,0.77341 -0.44769,1.67569 -1.34646,1.67569 -0.72867,0 -0.86953,0.16944 -0.86953,1.04592 0,1.34889 -1.35145,2.25705 -1.65146,1.10978 -0.16876,-0.64533 -0.24356,-0.66385 -0.72731,-0.1801 -0.40243,0.40243 -0.43757,0.64084 -0.13855,0.93986 0.70797,0.70797 0.43078,1.73532 -0.77503,2.872552 -0.77338,0.72939 -1.2504,1.56924 -1.39404,2.45438 -0.37918,2.33658 -1.92586,3.35343 -1.81679,1.19442 0.0319,-0.63059 -0.0106,-0.78934 -0.0943,-0.35278 -0.0837,0.43656 -0.26071,0.79338 -0.39334,0.79292 -0.13264,-4.5e-4 -0.19154,1.22986 -0.13091,2.73403 0.11413,2.83124 -0.45404,5.38447 -1.25677,5.64767 -0.31258,0.10249 -0.45289,-0.40322 -0.4819,-1.73689 -0.0225,-1.03481 -0.11957,-1.56398 -0.21571,-1.17592 -0.0961,0.38805 -0.41426,0.84316 -0.70696,1.01135 -0.34819,0.20008 -0.40135,0.38665 -0.15376,0.53967 0.46409,0.28682 0.85594,14.69709 0.46769,17.19961 -0.1889,1.21763 -0.12549,1.96459 0.22007,2.59242 0.4752,0.86338 0.48179,0.85531 0.3127,-0.38305 -0.18983,-1.39029 0.17647,-2.30924 0.77342,-1.94031 0.65373,0.40403 1.15425,2.97902 1.09206,5.61817 -0.0327,1.38931 0.11347,2.9229 0.32492,3.40797 0.34055,0.78123 0.36048,0.73088 0.17454,-0.44097 -0.16347,-1.03033 -0.0937,-1.32292 0.31533,-1.32292 0.8227,0 1.29663,0.80989 1.54827,2.64582 0.19296,1.40779 0.12231,1.77291 -0.41974,2.16927 -0.55081,0.40276 -0.56391,0.47658 -0.0846,0.47658 0.31196,0 0.64726,0.19843 0.74513,0.44097 0.10956,0.27151 0.18864,0.21173 0.20579,-0.15557 0.0632,-1.3545 1.79174,-0.95125 1.79174,0.41799 0,0.78253 6.90532,7.85324 8.20208,8.39853 0.57844,0.24324 0.97014,0.68063 0.97014,1.08332 0,0.75925 0.65245,1.10364 2.09084,1.10364 0.87154,0 2.14249,0.90589 2.14249,1.52709 0,0.13024 -0.34396,0.2368 -0.76435,0.2368 -0.42039,0 -0.67822,0.0861 -0.57294,0.19141 0.10527,0.10528 1.41115,0.23943 2.90195,0.29812 1.87031,0.0736 2.88102,0.27718 3.26051,0.65668 0.80734,0.80733 0.25524,1.34321 -1.23049,1.19435 -0.71589,-0.0717 -0.95605,-0.0627 -0.53369,0.0202 0.42236,0.0828 0.95774,0.37929 1.18972,0.65881 0.23199,0.27953 0.68811,0.50823 1.0136,0.50823 0.97481,0 1.43525,0.75516 1.49493,2.45181 0.0468,1.32953 0.0812,1.4046 0.20033,0.43719 0.0856,-0.69491 0.31278,-1.11221 0.56091,-1.03033 0.4547,0.15004 0.76627,4.10734 0.42914,5.45058 -0.24341,0.96984 -1.5852,1.12424 -1.62747,0.18728 -0.0166,-0.36881 -0.0995,-0.43983 -0.20579,-0.17639 -0.0979,0.24253 -0.41417,0.44097 -0.7029,0.44097 -0.43995,0 -0.42992,0.095 0.0619,0.58691 1.00518,1.00519 -0.0977,3.9992 -1.47314,3.9992 -0.28358,0 -0.47449,0.39424 -0.47449,0.97984 0,1.02257 -0.85676,2.54794 -1.43112,2.54794 -0.18302,0 -0.33511,-0.43656 -0.33797,-0.97014 l -0.005,-0.97014 -0.4665,0.88195 c -0.25657,0.48507 -0.33685,1.05305 -0.1784,1.26218 0.32752,0.43225 -0.16678,2.4378 -0.78419,3.18173 -0.63534,0.76554 -1.02724,0.58951 -1.05781,-0.47516 -0.0153,-0.53358 -0.10792,-0.77171 -0.20578,-0.52917 -0.0979,0.24253 -0.44252,0.4535 -0.7659,0.46882 -0.36666,0.0174 -0.42199,0.0948 -0.14699,0.20579 0.7178,0.28964 0.56234,3.42772 -0.20417,4.12141 -0.86516,0.78296 -1.11771,0.7358 -1.12415,-0.20991 -0.004,-0.63476 -0.072,-0.68835 -0.33809,-0.26753 -0.18298,0.28942 -0.20071,0.65819 -0.0394,0.81949 0.35694,0.35694 -0.34529,2.87735 -0.97468,3.49826 -0.36713,0.36219 -0.53737,0.33464 -0.89133,-0.14425 -0.54011,-0.73072 -1.39271,-0.3339 -0.91287,0.42487 0.70854,1.12041 0.36867,2.5147 -0.89516,3.67232 -0.6791,0.62203 -1.23473,1.44156 -1.23473,1.82117 0,0.78709 -0.93232,2.25831 -1.43111,2.25831 -0.18303,0 -0.35119,-0.43656 -0.3737,-0.97014 -0.0252,-0.59686 -0.10299,-0.7326 -0.20225,-0.35278 -0.0887,0.33955 -0.41816,0.61736 -0.73206,0.61736 -0.48716,0 -0.47576,0.0694 0.0779,0.47428 0.71976,0.52631 0.57078,1.86452 -0.3694,3.31808 -0.68885,1.06499 -1.2027,1.00219 -1.2027,-0.14699 0,-1.65251 -0.40194,-0.6065 -0.58668,1.52676 -0.17186,1.98459 -0.56894,2.94176 -1.2204,2.94176 -0.17027,0 -0.30958,-0.22326 -0.30958,-0.49614 0,-0.31944 -0.24679,-0.4316 -0.69292,-0.31494 -0.59048,0.15442 -0.62066,0.25346 -0.20412,0.66999 0.89269,0.8927 -0.53816,4.48446 -1.53985,3.86538 -0.21336,-0.13186 -0.30432,-0.66659 -0.20213,-1.18827 0.17212,-0.87867 0.16006,-0.89006 -0.16373,-0.15477 -0.19223,0.43656 -0.63245,0.79858 -0.97825,0.80448 -0.59577,0.0102 -0.59637,0.0296 -0.0114,0.37031 0.39521,0.23018 0.61737,0.78851 0.61737,1.55157 0,1.78773 -1.73706,3.2532 -1.78625,1.50697 l -0.0224,-0.79375 -0.30675,0.76053 c -0.18097,0.44867 -0.75733,0.85948 -1.40558,1.00186 -0.60434,0.13274 -1.28818,0.54457 -1.51963,0.91517 -0.5674,0.90856 -3.07331,0.96898 -3.07331,0.0741 z m -6.44555,-3.84675 c -0.11722,-0.11722 -0.42149,-0.12975 -0.67615,-0.0279 -0.28143,0.11262 -0.19783,0.19621 0.21313,0.21314 0.37189,0.0153 0.58025,-0.0681 0.46302,-0.18529 z m -7.66556,-4.86101 c 0,-0.0744 -0.39688,-0.21113 -0.88195,-0.30386 -0.48507,-0.0927 -0.88194,-0.0319 -0.88194,0.13526 0,0.16713 0.39687,0.30386 0.88194,0.30386 0.48507,0 0.88195,-0.0609 0.88195,-0.13526 z m 25.2882,-2.04755 c -0.11261,-0.28142 -0.1962,-0.19783 -0.21313,0.21314 -0.0153,0.37188 0.0681,0.58024 0.18528,0.46302 0.11723,-0.11723 0.12976,-0.4215 0.0279,-0.67616 z m -31.81459,-3.10886 c -0.11992,-0.19402 -0.37678,-0.35277 -0.57081,-0.35277 -0.19403,0 -0.25466,0.15875 -0.13475,0.35277 0.11992,0.19403 0.37678,0.35278 0.57081,0.35278 0.19403,0 0.25466,-0.15875 0.13475,-0.35278 z m 38.95715,-7.51734 c -0.0239,-0.7452 -0.0357,-0.74762 -0.32799,-0.0674 -0.41726,0.97102 -0.41726,1.31622 0,1.05834 0.19403,-0.11992 0.34162,-0.56585 0.32799,-0.99096 z m 2.38244,-4.54324 c -0.11261,-0.28143 -0.1962,-0.19783 -0.21313,0.21313 -0.0153,0.37189 0.0681,0.58025 0.18528,0.46302 0.11723,-0.11722 0.12976,-0.42149 0.0279,-0.67615 z m 9.51445,-15.0813 c -0.0935,-0.34689 -0.16376,-0.2647 -0.18951,0.22176 -0.0225,0.42511 -0.20226,0.87264 -0.39946,0.99452 -0.19719,0.12187 -0.25042,0.3965 -0.11829,0.6103 0.30578,0.49475 0.9114,-1.06934 0.70726,-1.82658 z m -76.895,-7.84926 c -0.11261,-0.28142 -0.19621,-0.19783 -0.21313,0.21314 -0.0153,0.37188 0.0681,0.58024 0.18528,0.46302 0.11723,-0.11723 0.12976,-0.4215 0.0279,-0.67616 z m 57.61457,-59.90607 c 0,-0.19403 -0.35719,-0.34162 -0.79375,-0.32799 -0.75738,0.0237 -0.76142,0.0387 -0.0882,0.32799 0.38806,0.16675 0.74525,0.31434 0.79375,0.32798 0.0485,0.0136 0.0882,-0.13395 0.0882,-0.32798 z m 12.34722,-12.336152 c 0,-0.18794 -0.23813,-0.25033 -0.52917,-0.13865 -0.29104,0.11169 -0.52916,0.26545 -0.52916,0.34171 0,0.0762 0.23812,0.13864 0.52916,0.13864 0.29104,0 0.52917,-0.15376 0.52917,-0.3417 z m 3.07945,-1.9881 c -0.11722,-0.11722 -0.42149,-0.12976 -0.67615,-0.0279 -0.28143,0.11262 -0.19783,0.19621 0.21313,0.21314 0.37189,0.0153 0.58025,-0.0681 0.46302,-0.18529 z m -73.04124,-5.14467 c -0.11261,-0.28143 -0.19621,-0.19783 -0.21313,0.21313 -0.0153,0.37189 0.0681,0.58025 0.18528,0.46302 0.11723,-0.11722 0.12976,-0.42149 0.0279,-0.67615 z m 5.69744,-9.81704 c 0.49417,-0.005 0.50623,-0.0571 0.0756,-0.3295 -0.64688,-0.40922 -1.08332,-0.15073 -1.04733,0.62031 0.0171,0.3673 0.0962,0.42708 0.20579,0.15557 0.0979,-0.24254 0.44252,-0.44341 0.7659,-0.44638 z m 12.05324,-16.43651 c 0,-0.0763 -0.23812,-0.13864 -0.52917,-0.13864 -0.29104,0 -0.52916,0.15377 -0.52916,0.3417 0,0.18794 0.23812,0.25033 0.52916,0.13865 0.29105,-0.11168 0.52917,-0.26545 0.52917,-0.34171 z m 6.67798,-7.30321 c 0.0136,-0.15697 -0.13395,-0.18729 -0.32798,-0.0674 -0.19403,0.11992 -0.34162,0.56585 -0.32798,0.99096 0.0239,0.7452 0.0357,0.74762 0.32798,0.0674 0.16675,-0.38806 0.31435,-0.83399 0.32798,-0.99096 z m 9.28168,-6.94654 c 0.21214,0 0.3026,-0.0831 0.20102,-0.18469 -0.41711,-0.41711 -1.29137,0.26361 -1.06758,0.83125 0.212,0.53772 0.24256,0.53522 0.35637,-0.0292 0.0685,-0.33955 0.29805,-0.61736 0.51019,-0.61736 z"
       id="path1" /></g></svg>
