<?xml version="1.0" encoding="UTF-8" standalone="no"?>
<!-- Created with Inkscape (http://www.inkscape.org/) -->

<svg
   width="142.15253mm"
   height="152.97086mm"
   viewBox="0 0 142.15253 152.97086"
   version="1.1"
   id="svg1"
   xml:space="preserve"
   xmlns="http://www.w3.org/2000/svg"
   xmlns:svg="http://www.w3.org/2000/svg"><defs
     id="defs1" /><g
     id="layer1"
     transform="translate(-28.839638,-71.440743)"><path
       style="fill:#000000"
       d="m 140.24377,224.14466 c -0.0823,-0.24692 -1.29157,-0.61292 -2.74975,-0.83225 -2.52483,-0.37976 -2.63604,-0.43884 -3.71064,-1.97127 -0.60929,-0.86888 -1.29673,-2.1251 -1.52765,-2.7916 -0.23091,-0.6665 -0.64121,-1.46025 -0.91178,-1.76389 -0.27056,-0.30364 -0.67965,-1.26644 -0.90908,-2.13957 -0.22942,-0.87312 -0.71484,-1.90927 -1.0787,-2.30254 -0.71098,-0.76845 -2.58023,-5.05174 -2.96082,-6.78457 -0.12762,-0.58105 -0.60926,-1.56775 -1.07031,-2.19267 -0.46104,-0.62491 -0.94308,-1.75661 -1.07119,-2.51488 -0.12811,-0.75827 -0.49732,-1.57624 -0.82047,-1.8177 -1.38915,-1.03799 -3.23034,-4.73646 -3.23034,-6.48889 0,-0.45612 -0.30912,-1.13843 -0.68694,-1.51625 -0.37782,-0.37782 -0.85346,-1.30533 -1.05698,-2.06112 -0.20351,-0.7558 -0.6812,-1.73297 -1.06153,-2.17149 -0.38033,-0.43852 -0.87826,-1.36317 -1.1065,-2.05476 -0.22825,-0.69159 -0.97451,-2.30248 -1.65835,-3.57976 -0.68385,-1.27727 -1.45556,-2.71919 -1.71491,-3.20426 -0.25935,-0.48507 -0.47253,-1.21146 -0.47372,-1.6142 -10e-4,-0.40274 -0.38038,-1.08756 -0.84263,-1.52182 -0.46226,-0.43426 -0.9361,-1.38765 -1.05299,-2.11865 -0.11689,-0.73099 -0.52933,-1.61577 -0.91653,-1.96619 -0.3872,-0.35041 -0.80151,-1.21063 -0.92068,-1.9116 -0.45333,-2.66656 -0.89574,-3.92031 -1.38335,-3.92031 -0.63866,0 -2.21708,-2.67524 -2.51199,-4.25754 -0.12409,-0.66579 -0.66701,-2.08364 -1.20649,-3.1508 -1.33336,-2.63753 -3.07786,-6.7295 -3.22108,-7.55549 -0.18644,-1.07525 -0.953699,-1.05783 -1.376149,0.0313 -0.21289,0.54881 -0.66827,1.55347 -1.01197,2.23257 -0.34369,0.67909 -0.72359,1.64397 -0.8442,2.14416 -0.12062,0.50019 -0.60085,1.32113 -1.06718,1.82431 -0.55665,0.60062 -0.98117,1.67161 -1.23595,3.11803 -0.21345,1.21174 -0.766,2.77205 -1.2279,3.46736 -1.55962,2.34773 -2.2726,3.72869 -2.51354,4.86845 -0.13195,0.62414 -0.61602,1.68905 -1.07573,2.36646 -0.4597,0.67741 -0.99464,1.80687 -1.18876,2.50991 -0.19412,0.70303 -0.75904,1.65461 -1.25539,2.1146 -0.49775,0.4613 -0.90244,1.22627 -0.90244,1.70585 0,0.75556 -1.54161,4.04455 -2.97712,6.3516 -0.2567,0.41256 -0.55941,1.15242 -0.6727,1.64415 -0.44213,1.91899 -2.34779,5.55145 -3.20817,6.11519 -0.70286,0.46053 -0.90312,0.8847 -0.90312,1.91283 0,0.8057 -0.32464,1.80032 -0.83214,2.54951 -0.45767,0.67563 -0.94543,1.58815 -1.0839,2.02782 -0.26437,0.83941 -2.35955,5.2764 -3.20409,6.78532 -0.75458,1.34818 -2.14699,4.59767 -2.64541,6.17361 -0.24546,0.77611 -0.71403,1.80799 -1.04128,2.29306 -0.32725,0.48507 -0.80716,1.43757 -1.06646,2.11666 -0.25931,0.6791 -0.74339,1.55222 -1.07574,1.94028 -0.33236,0.38806 -0.86269,1.49931 -1.17851,2.46944 -0.7426,2.28107 -1.83486,4.05695 -2.49524,4.05695 -0.28711,0 -1.20226,0.2248 -2.03365,0.49956 -1.16357,0.38453 -4.98732,0.54761 -16.60625,0.70822 l -15.09462,0.20867 -0.90501,-0.90501 c -0.84309,-0.84309 -0.89648,-1.09205 -0.78038,-3.63934 0.10797,-2.36886 0.25429,-2.88843 1.09476,-3.88723 0.53358,-0.63409 0.97014,-1.38707 0.97014,-1.6733 0,-0.28622 0.30743,-1.10747 0.68318,-1.82501 1.38356,-2.64208 3.14118,-6.64945 3.7441,-8.53656 0.64234,-2.01048 1.26537,-3.2003 2.30908,-4.40972 0.33489,-0.38806 0.79635,-1.41993 1.02548,-2.29306 0.22913,-0.87312 0.70742,-2.06375 1.06288,-2.64583 0.35545,-0.58208 0.99643,-2.01083 1.42439,-3.175 0.82856,-2.25391 1.5797,-3.35139 2.29377,-3.35139 0.25879,0 0.68013,-1.08352 1.02618,-2.63894 0.32291,-1.45141 0.73486,-2.73025 0.91545,-2.84186 0.40975,-0.25324 3.50716,-6.62459 3.50716,-7.2142 0,-0.23777 0.37423,-0.87706 0.83162,-1.42064 0.45739,-0.54358 0.9317,-1.61418 1.05402,-2.37911 0.12231,-0.76494 0.51875,-1.77186 0.88096,-2.2376 0.36221,-0.46575 0.84852,-1.42943 1.08069,-2.14151 0.23217,-0.71209 0.64344,-1.47837 0.91392,-1.70285 0.27048,-0.22448 0.74731,-1.17746 1.05962,-2.11773 0.31231,-0.94028 0.79306,-1.89651 1.06833,-2.12497 0.27528,-0.22845 0.60387,-0.96639 0.73021,-1.63986 0.12635,-0.67347 0.58389,-1.6497 1.01676,-2.16941 0.43287,-0.51971 0.89242,-1.51845 1.02124,-2.21941 0.12881,-0.70097 0.54302,-1.55396 0.92046,-1.89554 0.37744,-0.34158 0.92836,-1.45386 1.22426,-2.47173 0.2959,-1.01786 0.76753,-2.04115 1.04806,-2.27397 0.28053,-0.23282 0.60794,-0.86902 0.72759,-1.41377 0.11965,-0.54476 0.6061,-1.51713 1.08101,-2.16083 0.47491,-0.6437 0.86347,-1.4069 0.86347,-1.696 0,-0.2891 0.30145,-1.17107 0.66989,-1.95994 0.36844,-0.78886 0.94747,-2.30742 1.28672,-3.37457 0.33926,-1.06715 0.91093,-2.31888 1.27039,-2.7816 0.35945,-0.46273 0.65355,-1.01836 0.65355,-1.23473 0,-0.37757 2.34406,-5.44286 3.36552,-7.27256 0.67562,-1.21022 1.38613,-2.71742 2.1237,-4.505 0.34185,-0.82852 1.04828,-1.95293 1.56984,-2.49869 0.65804,-0.68857 1.02074,-1.5384 1.18498,-2.77649 0.13017,-0.98131 0.57003,-2.20799 0.97746,-2.72595 0.40744,-0.51797 0.886,-1.58803 1.06347,-2.37791 0.18845,-0.83873 0.75789,-1.84269 1.36886,-2.41343 0.57539,-0.5375 1.04617,-1.23932 1.04617,-1.55959 0,-0.32028 0.30711,-1.1694 0.68247,-1.88694 1.66857,-3.18968 4.60451,-9.535397 4.96842,-10.738687 0.21959,-0.72611 0.63335,-1.4512 0.91946,-1.61132 0.28612,-0.16012 0.74322,-1.35698 1.01578,-2.65969 0.49669,-2.37393 1.37704,-4.02637 2.84751,-5.34491 0.43278,-0.38805 0.88894,-1.30149 1.01369,-2.02986 0.12476,-0.72838 0.52809,-1.60497 0.89628,-1.948 0.3682,-0.34303 0.82282,-1.30627 1.01026,-2.14052 0.18745,-0.83426 0.57315,-1.78329 0.85712,-2.10895 0.28397,-0.32566 0.62831,-1.21582 0.76521,-1.97813 0.57574,-3.2061 4.123589,-4.85385 6.027569,-2.79943 0.76566,0.82617 1.56659,2.79592 1.57204,3.86619 0.001,0.21246 0.30519,0.66071 0.6758,0.9961 0.3706,0.33539 0.77732,1.02216 0.90381,1.52614 0.12649,0.50398 0.53764,1.30746 0.91367,1.7855 0.37603,0.47804 0.68429,1.0462 0.68502,1.26256 7.3e-4,0.21637 0.47638,1.3459 1.057,2.51007 0.58063,1.16416 1.05628,2.37232 1.05701,2.6848 7.3e-4,0.31247 0.37642,1.12086 0.83487,1.79642 0.45845,0.67556 0.94487,1.97073 1.08095,2.87814 0.17528,1.16884 0.48815,1.80759 1.07315,2.19089 0.45416,0.29758 0.93079,0.95957 1.05917,1.4711 0.12839,0.51153 0.52236,1.33661 0.87549,1.83352 0.35314,0.4969 0.80792,1.50558 1.01062,2.24151 0.20271,0.735927 0.96479,2.236307 1.69351,3.334177 1.39475,2.10128 2.20999,4.00907 2.23586,5.23225 0.009,0.40274 0.3968,1.09048 0.86285,1.52832 0.46606,0.43783 1.01838,1.4752 1.2274,2.30527 0.20901,0.83006 0.61274,1.70235 0.89718,1.93841 0.28444,0.23607 0.78867,1.25043 1.12051,2.25414 0.61236,1.85223 1.28897,3.37423 2.77162,6.23466 0.45257,0.87312 1.00928,2.499 1.23713,3.61306 0.22785,1.11406 0.68766,2.22531 1.0218,2.46945 0.87835,0.64175 2.37674,3.36384 2.86587,5.20638 0.23179,0.87312 0.71488,1.905 1.07353,2.29305 0.35865,0.38806 0.85194,1.49931 1.09619,2.46945 0.24426,0.97013 0.71618,2.08138 1.04871,2.46944 0.33253,0.38806 0.78225,1.37499 0.99938,2.19318 0.21712,0.81819 0.60287,1.61194 0.85721,1.76389 0.49185,0.29383 2.37861,4.08344 2.99994,6.02546 0.20466,0.6397 0.69528,1.57392 1.09025,2.07605 0.41838,0.53188 0.71813,1.43976 0.71813,2.17505 0,0.93864 0.23667,1.4508 0.92346,1.99843 0.68282,0.54445 1.00117,1.22783 1.22162,2.62238 0.1656,1.04761 0.60895,2.21689 0.9973,2.63027 0.78814,0.83893 2.61877,4.16401 3.02957,5.50279 0.14885,0.48507 0.54531,1.27882 0.88103,1.76389 0.33572,0.48507 0.71365,1.44897 0.83986,2.14201 0.1262,0.69303 0.62444,1.79543 1.1072,2.44978 0.48276,0.65435 0.87775,1.36642 0.87775,1.58239 0,0.21596 0.55514,1.49481 1.23364,2.84188 0.6785,1.34707 1.23412,2.71485 1.23472,3.03951 6e-4,0.32466 0.37627,1.03903 0.83482,1.5875 1.14032,1.3639 2.15375,3.47895 2.66262,5.55692 0.23401,0.95562 0.79042,2.1712 1.23646,2.70129 0.44604,0.53009 0.91405,1.60831 1.04001,2.39606 0.12597,0.78775 0.51739,1.71529 0.86983,2.06121 0.93681,0.91948 2.74645,4.31538 3.26146,6.12032 0.24547,0.8603 0.73147,1.8862 1.08001,2.27978 0.34853,0.39358 0.86207,1.34608 1.14119,2.11667 0.62003,1.71175 2.12284,4.96687 2.84557,6.16356 0.29295,0.48507 0.78069,1.43757 1.08386,2.11667 0.30318,0.6791 0.80385,1.69539 1.11261,2.25843 0.30876,0.56303 0.64091,2.01447 0.73811,3.2254 0.16297,2.03021 0.11138,2.24295 -0.66228,2.7313 -1.44491,0.91205 -4.71003,1.13348 -16.71402,1.13348 -6.40291,0 -11.98102,0.13291 -12.39577,0.29536 -0.51157,0.20037 -0.80134,0.15361 -0.90101,-0.14539 z"
       id="path1" /></g></svg>
