<?xml version="1.0" encoding="UTF-8" standalone="no"?>
<!-- Created with Inkscape (http://www.inkscape.org/) -->

<svg
   width="125.51154mm"
   height="153.34694mm"
   viewBox="0 0 125.51154 153.34694"
   version="1.1"
   id="svg1"
   xml:space="preserve"
   xmlns="http://www.w3.org/2000/svg"
   xmlns:svg="http://www.w3.org/2000/svg"><defs
     id="defs1" /><g
     id="layer1"
     transform="translate(-45.044163,-71.729766)"><path
       style="fill:#000000"
       d="m 47.617944,224.79581 c -0.92075,-0.12842 -1.81802,-0.38502 -1.99394,-0.57023 -0.17592,-0.18521 -0.3978,-6.93304 -0.49307,-14.99518 -0.19145,-16.20104 -0.18692,-16.24166 1.95853,-17.56763 1.41223,-0.8728 2.34018,-0.93433 4.31924,-0.28639 1.12759,0.36918 8.57003,0.45674 37.04167,0.43584 32.664396,-0.024 35.703966,-0.0752 36.512496,-0.61508 0.48507,-0.32391 1.77975,-0.69752 2.87707,-0.83023 2.45844,-0.29734 3.88827,-1.13375 5.03003,-2.94242 0.4821,-0.76369 1.01676,-1.44413 1.18813,-1.51209 0.72064,-0.28577 2.25242,-4.46642 2.43913,-6.65709 0.17689,-2.07547 0.10555,-2.43356 -0.73027,-3.6652 -0.50947,-0.75075 -0.92632,-1.57279 -0.92632,-1.82676 0,-0.25397 -0.40784,-0.90184 -0.90632,-1.43971 -0.49849,-0.53787 -0.99524,-1.42248 -1.1039,-1.96579 -0.23951,-1.19751 -0.53049,-1.39781 -2.2566,-1.55329 -0.73663,-0.0664 -2.18138,-0.47891 -3.21056,-0.91679 l -1.87123,-0.79615 -38.981936,-0.17639 c -30.76046,-0.13918 -39.14858,-0.27159 -39.77204,-0.62782 -1.66404,-0.95076 -1.70186,-1.36365 -1.64759,-17.98987 0.0481,-14.72658 0.0887,-15.66077 0.71122,-16.34865 0.36313,-0.40126 0.96814,-0.89434 1.34446,-1.09574 0.46309,-0.24784 13.12021,-0.34445 39.16269,-0.29894 26.821746,0.0469 39.000566,-0.0498 40.201926,-0.31899 0.9479,-0.21243 2.12006,-0.6982 2.6048,-1.0795 0.48474,-0.38129 1.37587,-0.69427 1.9803,-0.69549 0.85032,-0.002 1.23491,-0.24117 1.6999,-1.05834 0.33053,-0.58085 0.84647,-1.0561 1.14653,-1.0561 0.30007,0 0.55495,-0.11906 0.5664,-0.26458 0.0114,-0.14552 0.0643,-0.82608 0.11748,-1.51235 0.0532,-0.68627 0.52004,-1.97022 1.03751,-2.85322 1.50028,-2.56004 1.02335,-6.99935 -1.05648,-9.83374 -0.64069,-0.87312 -1.49135,-2.18842 -1.89036,-2.92287 -0.39901,-0.73446 -0.85034,-1.25821 -1.00295,-1.16389 -0.15261,0.0943 -1.13871,-0.0494 -2.19133,-0.31946 -1.05262,-0.27003 -3.81886,-0.74446 -6.14719,-1.05431 -3.69955,-0.49232 -8.30342,-0.54223 -36.512496,-0.39582 -17.75354,0.0921 -33.70792,0.26222 -35.45417,0.37795 -2.80979,0.18621 -3.30932,0.127 -4.34275,-0.51471 -2.05599,-1.27666 -2.08708,-1.54759 -1.99468,-17.382308 0.0651,-11.15998 0.1863,-14.50298 0.54124,-14.93065 0.25153,-0.30307 1.09836,-0.87808 1.88185,-1.27778 1.32781,-0.6774 1.64536,-0.6996 4.67729,-0.327 2.244,0.27577 15.3433,0.39974 42.23812,0.39974 40.975576,0 40.496006,-0.0167 43.958656,1.53129 0.67909,0.30359 2.64476,1.10976 4.36815,1.79149 1.7234,0.68172 3.34548,1.54223 3.60465,1.91224 0.25916,0.37001 1.19078,0.85393 2.07025,1.07539 0.91908,0.23142 1.78647,0.711 2.0398,1.12779 0.24242,0.39883 1.26266,1.11697 2.26721,1.59586 1.89533,0.90355 6.9832,5.8927 8.32539,8.16386 0.37266,0.63059 0.81839,1.14653 0.9905,1.14653 0.48657,0 2.04416,2.53156 2.8299,4.59946 0.39068,1.02817 1.01026,2.25071 1.37684,2.71674 0.36659,0.46604 0.77225,1.55241 0.90148,2.414148 0.12922,0.86174 0.54533,1.96139 0.92469,2.44366 0.50997,0.64833 0.78028,1.81951 1.03717,4.49378 0.1911,1.98931 0.57679,4.0383 0.8571,4.5533 0.71733,1.31797 0.72714,13.37051 0.0126,15.54366 -0.27336,0.8314 -0.60579,2.06726 -0.73876,2.74636 -0.13296,0.67909 -0.61199,1.79034 -1.06452,2.46944 -0.45252,0.6791 -0.93317,1.99751 -1.0681,2.92979 -0.28438,1.96493 -3.52548,8.56195 -5.07161,10.3229 -0.57762,0.65786 -1.16089,1.78607 -1.29616,2.50713 -0.21858,1.16516 -0.12949,1.4113 0.80077,2.2124 1.60174,1.37937 2.88846,3.27093 3.51985,5.17444 0.31455,0.9483 0.8582,2.04167 1.20812,2.42973 0.34991,0.38805 0.79932,1.71896 0.99868,2.95756 0.19937,1.23861 0.61199,2.52771 0.91694,2.86467 0.30495,0.33697 0.7761,2.02232 1.04699,3.74522 0.2709,1.7229 0.69795,4.2438 0.949,5.60199 0.58058,3.14098 0.48699,8.63078 -0.2158,12.65802 -0.3007,1.72316 -0.54674,3.83703 -0.54674,4.6975 0,1.80991 -0.51071,2.98183 -1.18645,2.72252 -0.3426,-0.13147 -0.62615,0.59745 -1.04527,2.68712 -0.39165,1.95264 -0.85898,3.20484 -1.46477,3.92478 -0.48929,0.58149 -0.88962,1.34575 -0.88962,1.69836 0,0.71421 -3.7014,6.37588 -4.45818,6.81926 -0.26526,0.1554 -0.75975,0.80602 -1.09886,1.44581 -0.84875,1.60131 -6.24834,6.56191 -7.1426,6.56191 -0.42451,0 -0.88438,0.3585 -1.11823,0.87174 -0.22322,0.48991 -0.90287,1.03863 -1.55172,1.25276 -0.63498,0.20957 -1.33867,0.60292 -1.56374,0.87411 -0.22507,0.27119 -0.99183,0.68002 -1.70391,0.9085 -0.71209,0.22848 -1.56501,0.65129 -1.89538,0.93957 -0.33037,0.28828 -1.64443,0.74293 -2.92011,1.01034 -1.27569,0.26741 -2.75163,0.79803 -3.27988,1.17916 -0.78599,0.5671 -1.94269,0.75994 -6.36837,1.06172 -5.91082,0.40306 -81.248599,0.43978 -84.107829,0.041 z"
       id="path1" /></g></svg>
