<?xml version="1.0" encoding="UTF-8" standalone="no"?>
<!-- Created with Inkscape (http://www.inkscape.org/) -->

<svg
   width="98.849709mm"
   height="153.51495mm"
   viewBox="0 0 98.849709 153.51495"
   version="1.1"
   id="svg1"
   xml:space="preserve"
   xmlns="http://www.w3.org/2000/svg"
   xmlns:svg="http://www.w3.org/2000/svg"><defs
     id="defs1" /><g
     id="layer1"
     transform="translate(-49.71691,-57.930306)"><path
       style="fill:#000000"
       d="m 128.53299,211.28164 c -15.9365,-0.31599 -19.57196,-0.56783 -20.28472,-1.40514 -0.37006,-0.43472 -1.45294,-0.73631 -3.60141,-1.00303 -1.68973,-0.20977 -3.69245,-0.69781 -4.4505,-1.08453 -0.758055,-0.38673 -2.149465,-0.89733 -3.092025,-1.13467 -2.34322,-0.59003 -8.484116,-3.52851 -10.159442,-4.8614 -0.754284,-0.60011 -1.527439,-1.09111 -1.718122,-1.09111 -1.107772,0 -5.817765,-3.6018 -6.271872,-4.79619 -0.178283,-0.46892 -0.722151,-0.87613 -1.356114,-1.01538 -0.698516,-0.15342 -1.305635,-0.65141 -1.785327,-1.46443 -0.433071,-0.734 -0.88878,-1.13189 -1.127436,-0.98439 -0.396934,0.24532 -6.495561,-5.81365 -8.374622,-8.32016 -0.5091,-0.6791 -1.282142,-1.52352 -1.717871,-1.8765 -0.435729,-0.35297 -1.359501,-1.78172 -2.052826,-3.175 -1.334001,-2.68074 -2.34965,-4.29972 -3.832687,-6.10942 -0.498836,-0.60871 -0.906974,-1.21921 -0.906974,-1.35665 0,-0.13745 -0.295464,-0.67129 -0.656588,-1.18631 -0.361123,-0.51502 -0.856626,-1.5714 -1.101118,-2.34751 -0.244491,-0.77611 -0.742776,-1.9061 -1.1073,-2.51109 -0.364524,-0.60498 -0.662771,-1.38375 -0.662771,-1.73059 0,-0.34683 -0.384741,-1.13503 -0.85498,-1.75155 -0.602032,-0.7893 -0.966188,-1.9205 -1.230875,-3.82353 -0.206743,-1.48642 -0.701379,-3.61636 -1.099192,-4.73319 -0.952556,-2.67423 -1.378674,-7.58082 -1.371208,-15.78894 0.0086,-9.4451 0.473633,-17.63916 1.131206,-19.93194 0.306061,-1.06715 0.821906,-2.97215 1.146322,-4.23334 1.363715,-5.3015 2.025069,-7.30021 2.801532,-8.46666 0.452051,-0.6791 0.936603,-1.78602 1.076783,-2.45982 0.40701,-1.95637 2.186263,-5.14489 3.104375,-5.56321 0.630452,-0.28725 0.889308,-0.75473 1.039993,-1.87818 0.11974,-0.89273 0.531235,-1.82374 1.020693,-2.30933 0.45104,-0.44747 1.261057,-1.41535 1.800038,-2.15083 3.278232,-4.47341 4.307293,-5.77301 5.978203,-7.54989 1.023702,-1.08862 2.218463,-2.16576 2.655025,-2.39366 0.436563,-0.22789 0.79375,-0.69656 0.79375,-1.04149 0,-0.74724 1.623862,-2.34829 2.715982,-2.67784 0.426638,-0.12873 0.874743,-0.5461 0.99579,-0.92749 0.121047,-0.38138 0.843542,-1.01149 1.605545,-1.40023 0.762003,-0.38875 1.385461,-0.83543 1.385461,-0.99262 0,-0.30642 2.732022,-2.35221 4.308395,-3.2262 0.526354,-0.29183 1.940875,-1.21021 3.14338,-2.04084 1.202505,-0.83063 2.796619,-1.64735 3.542472,-1.81493 0.74586,-0.16759 1.63322,-0.6395 1.9719,-1.04871 0.40663,-0.49129 1.21494,-0.82169 2.37969,-0.97271 1.06726,-0.13838 2.15772,-0.55583 2.76109,-1.05703 0.54846,-0.45558 1.27888,-0.82832 1.62315,-0.82832 0.34427,0 1.372055,-0.39671 2.283955,-0.88157 0.9119,-0.48486 2.80086,-1.06363 4.19768,-1.28614 1.39682,-0.22252 2.7778,-0.60079 3.06885,-0.8406 0.29104,-0.23981 0.92112,-0.5559 1.40019,-0.70243 0.47906,-0.14653 7.78156,-0.39667 16.22777,-0.55586 8.44622,-0.1592 16.16301,-0.38908 17.14843,-0.51084 2.17264,-0.26847 4.04535,0.40801 4.9495,1.78791 0.57194,0.87289 0.61732,2.12502 0.55937,15.433 -0.0691,15.86387 -0.017,15.4669 -2.20408,16.79695 -0.95061,0.5781 -1.87005,0.61796 -10.82875,0.46949 -10.75347,-0.17821 -17.13651,0.33095 -21.05657,1.67965 -1.14014,0.39227 -2.46374,0.71321 -2.94132,0.71321 -0.47759,0 -1.41076,0.47625 -2.07372,1.05834 -0.66296,0.58208 -1.48651,1.05833 -1.83012,1.05833 -0.34361,0 -1.16011,0.39499 -1.81446,0.87775 -0.65435,0.48276 -1.75675,0.97683 -2.44979,1.09793 -1.52445,0.26638 -2.84756,1.04699 -2.84756,1.68001 0,0.42422 -3.487875,3.40187 -5.048305,4.30982 -0.35994,0.20943 -0.99851,0.94505 -1.41904,1.6347 -1.40979,2.31197 -2.60429,3.98825 -3.18607,4.47108 -0.31743,0.26344 -0.57715,0.6664 -0.57715,0.89546 0,0.22906 -0.456846,1.04306 -1.015215,1.80889 -0.558368,0.76583 -1.092927,1.94804 -1.187908,2.62714 -0.09498,0.67909 -0.501972,2.02847 -0.904424,2.99861 -0.798716,1.92535 -1.610345,4.31853 -2.389009,7.04424 -0.367725,1.28722 -0.500665,3.9293 -0.500665,9.9503 0,8.02656 0.01734,8.22328 0.830313,9.42127 0.456672,0.67294 0.92527,1.91632 1.041328,2.76306 0.181707,1.32569 1.330231,3.85306 3.86045,8.49506 0.33925,0.62239 0.61706,1.47832 0.61736,1.90205 3.7e-4,0.51346 0.50063,1.10515 1.49985,1.77396 1.10254,0.73795 1.62487,1.39763 1.97376,2.49276 0.32806,1.02974 0.67216,1.48924 1.11523,1.48924 0.35242,0 1.51675,0.83344 2.5874,1.85208 2.09093,1.98939 4.878345,4.14514 5.359715,4.14514 0.16253,0 0.62324,0.29745 1.02381,0.661 0.65917,0.59826 3.04642,1.72138 6.10815,2.87366 0.63059,0.23732 1.14653,0.64424 1.14653,0.90427 0,0.58879 1.85181,1.06954 5.29166,1.37376 1.5378,0.13601 3.01518,0.48219 3.52778,0.82663 0.77916,0.52356 2.11539,0.59 11.46528,0.57012 5.82083,-0.0124 11.37708,-0.14706 12.34722,-0.29929 1.54219,-0.24198 1.89119,-0.17628 2.77678,0.52272 1.82271,1.43869 1.85569,1.78644 1.64822,17.37864 -0.17615,13.23801 -0.24219,14.44147 -0.81547,14.86027 -0.55497,0.40541 -1.93096,0.67024 -5.37342,1.03416 -0.58208,0.0615 -6.77333,-0.001 -13.75833,-0.13995 z"
       id="path1" /></g></svg>
