<?xml version="1.0" encoding="UTF-8" standalone="no"?>
<!-- Created with Inkscape (http://www.inkscape.org/) -->

<svg
   width="129.78598mm"
   height="152.74927mm"
   viewBox="0 0 129.78598 152.74927"
   version="1.1"
   id="svg1"
   xml:space="preserve"
   xmlns="http://www.w3.org/2000/svg"
   xmlns:svg="http://www.w3.org/2000/svg"><defs
     id="defs1" /><g
     id="layer1"
     transform="translate(-52.672131,-79.532302)"><path
       style="fill:#000000"
       d="m 55.211617,232.00757 c -0.91347,-0.12761 -1.7866,-0.35743 -1.94027,-0.51073 -0.15368,-0.15329 -0.36802,-6.97298 -0.47631,-15.15487 -0.21942,-16.57844 -0.30318,-15.92424 2.20244,-17.20251 1.25811,-0.64184 1.65097,-0.69252 2.7698,-0.35732 0.90192,0.27023 9.27559,0.39061 27.16924,0.39061 24.901103,0 25.892653,-0.0249 26.593793,-0.66885 0.55437,-0.50913 1.64749,-0.75645 4.57754,-1.03569 3.44213,-0.32803 3.92718,-0.46013 4.58611,-1.24899 0.80902,-0.96854 3.00425,-1.98535 4.28627,-1.98535 0.44957,0 1.52942,-0.59532 2.39966,-1.32292 0.87024,-0.7276 2.18958,-1.71979 2.93187,-2.20486 0.74229,-0.48507 3.66251,-3.2117 6.48939,-6.05918 4.15679,-4.18709 5.22583,-5.46899 5.58978,-6.70278 0.24751,-0.83905 0.73823,-1.84304 1.09049,-2.2311 0.35227,-0.38805 0.82999,-1.41903 1.06161,-2.29107 0.23163,-0.87203 0.69943,-2.14203 1.03957,-2.82222 0.34015,-0.68019 0.71367,-1.85171 0.83006,-2.60338 0.11639,-0.75167 0.47565,-1.65843 0.79837,-2.01503 0.4963,-0.5484 0.61505,-1.83545 0.77024,-8.34809 0.17222,-7.22689 0.13893,-7.80045 -0.54209,-9.34 -0.39907,-0.90216 -0.91095,-2.53325 -1.13753,-3.62465 -0.22657,-1.0914 -0.70035,-2.64913 -1.05283,-3.46162 -0.35249,-0.8125 -0.75638,-2.19164 -0.89754,-3.06477 -0.15733,-0.97314 -0.58048,-1.88816 -1.09342,-2.3644 -0.46022,-0.4273 -0.83676,-1.18136 -0.83676,-1.6757 0,-0.49433 -0.35719,-1.2238 -0.79375,-1.62104 -1.94025,-1.76549 -2.4597,-2.33112 -2.90046,-3.1583 -0.47759,-0.89632 -4.51232,-4.80133 -6.48846,-6.27986 -0.59677,-0.4465 -1.28823,-1.23407 -1.5366,-1.75017 -0.30897,-0.64205 -0.83936,-1.01744 -1.67962,-1.18879 -0.67544,-0.13773 -1.54856,-0.63837 -1.94028,-1.11252 -0.49152,-0.59496 -1.21194,-0.92678 -2.32487,-1.07083 -0.89937,-0.1164 -2.9791,-0.92949 -4.70206,-1.83832 -2.42644,-1.2799 -3.70801,-1.7171 -5.97207,-2.03736 -1.97929,-0.27997 -11.63775,-0.41116 -30.820273,-0.41861 -27.74062,-0.0108 -27.94458,-0.016 -28.92777,-0.74511 -0.5446,-0.40383 -1.15012,-1.21418 -1.34561,-1.80078 -0.21861,-0.65596 -0.33939,-6.66411 -0.31374,-15.606618 0.0406,-14.14268 0.0614,-14.55977 0.76238,-15.26074 0.71538,-0.71539 0.93879,-0.72018 30.47623,-0.6543 31.012463,0.0692 37.163583,0.25401 38.937123,1.17001 0.57695,0.29798 2.0015,0.70006 3.16566,0.89351 1.16417,0.19345 2.59292,0.52565 3.175,0.73823 0.58209,0.21258 1.94434,0.62332 3.02724,0.91276 1.0829,0.28943 2.38983,0.91634 2.90428,1.39311 0.56189,0.52075 1.58165,0.96379 2.554,1.1096 0.89024,0.1335 2.05105,0.60659 2.57956,1.0513 0.52851,0.44472 1.5357,0.9164 2.23819,1.04819 0.70249,0.13179 1.63587,0.62134 2.07418,1.0879 0.43831,0.46656 0.99098,0.84829 1.22814,0.84829 0.23717,0 1.51919,0.83367 2.84893,1.8526 2.59285,1.98681 3.43992,2.59884 5.49682,3.97157 1.8449,1.23124 12.61949,12.346998 12.61949,13.019068 0,0.13029 0.67469,1.11606 1.49931,2.19061 0.82462,1.07454 2.00697,2.61558 2.62746,3.42452 0.62049,0.80894 1.22718,1.86767 1.34822,2.35274 0.12103,0.48507 0.68492,1.30956 1.25309,1.8322 0.59512,0.54742 1.03303,1.31168 1.03303,1.80285 0,0.46893 0.40608,1.45099 0.90239,2.18234 0.49631,0.73136 1.06095,2.22195 1.25475,3.31243 0.1938,1.09047 0.66646,2.42039 1.05034,2.95537 0.38389,0.53498 0.86446,1.88436 1.06794,2.99861 0.20348,1.11426 0.65342,2.34342 0.99986,2.73148 0.41143,0.46085 0.70331,1.54098 0.84161,3.11436 0.11644,1.32485 0.57221,3.62672 1.01281,5.11528 0.75624,2.5549 0.80129,3.31185 0.80445,13.51642 0.003,9.4049 -0.07,10.89513 -0.56119,11.46528 -0.35534,0.41248 -0.73156,2.02796 -1.01525,4.35949 -0.24789,2.03729 -0.74136,4.2803 -1.09659,4.98448 -0.35523,0.70417 -0.80488,2.26762 -0.99921,3.47434 -0.25876,1.60674 -0.59317,2.4163 -1.24929,3.02437 -0.69769,0.6466 -0.89595,1.1736 -0.89595,2.3816 0,1.13925 -0.27938,1.96357 -1.05191,3.10365 -0.57856,0.85381 -1.05481,1.73471 -1.05834,1.95754 -0.008,0.50169 -2.00829,4.34122 -2.6377,5.0629 -0.25383,0.29105 -0.7843,1.16417 -1.17883,1.94028 -0.39453,0.77611 -1.04802,1.6109 -1.45221,1.85508 -0.4042,0.24417 -0.7349,0.73459 -0.7349,1.0898 0,0.7177 -2.97196,4.37695 -6.08541,7.4927 -1.11566,1.11649 -2.02848,2.27344 -2.02848,2.57101 0,0.29757 -0.74131,1.10707 -1.64736,1.79889 -0.90605,0.69183 -1.85905,1.56007 -2.11776,1.92944 -0.25872,0.36937 -1.00284,0.84731 -1.65359,1.06208 -0.65076,0.21477 -1.68934,1.02031 -2.30795,1.79009 -0.61862,0.76978 -1.6335,1.66042 -2.2553,1.9792 -0.62179,0.31877 -1.57933,0.95418 -2.12786,1.412 -0.54853,0.45783 -1.42166,0.93258 -1.94028,1.055 -0.51862,0.12242 -1.26045,0.50506 -1.64851,0.8503 -0.38805,0.34524 -1.37498,0.80536 -2.19318,1.02249 -0.81819,0.21712 -1.62533,0.64084 -1.79364,0.94159 -0.1683,0.30075 -1.80075,1.17451 -3.62765,1.9417 -1.8269,0.76719 -3.95664,1.68866 -4.73275,2.0477 -0.77611,0.35905 -2.77907,0.82151 -4.45103,1.02768 -1.67196,0.20618 -3.65634,0.69308 -4.40973,1.082 -1.11272,0.57443 -2.55231,0.77657 -7.67073,1.07711 -6.75844,0.39684 -57.832393,0.43364 -60.623823,0.0437 z"
       id="path1" /></g></svg>
