<?xml version="1.0" encoding="UTF-8" standalone="no"?>
<!-- Created with Inkscape (http://www.inkscape.org/) -->

<svg
   width="110.63378mm"
   height="153.26265mm"
   viewBox="0 0 110.63378 153.26265"
   version="1.1"
   id="svg1"
   xml:space="preserve"
   xmlns="http://www.w3.org/2000/svg"
   xmlns:svg="http://www.w3.org/2000/svg"><defs
     id="defs1" /><g
     id="layer1"
     transform="translate(-55.121695,-73.333973)"><path
       style="fill:#000000"
       d="m 56.324898,226.3129 c -0.25305,-0.19402 -0.62598,-0.79967 -0.82874,-1.34588 -0.48432,-1.30466 -0.50597,-29.66478 -0.0233,-30.56659 0.18994,-0.35489 0.8477,-0.82038 1.4617,-1.03442 0.79376,-0.27671 16.25015,-0.39296 53.487612,-0.40231 50.23772,-0.0126 52.41656,0.0133 53.48344,0.63629 l 1.1122,0.64943 0.0834,14.52214 c 0.0508,8.84545 -0.0518,14.87759 -0.26234,15.43145 -0.42307,1.11276 -1.94542,1.77977 -4.75992,2.08552 -3.63297,0.39466 -103.240552,0.41806 -103.753982,0.0244 z m 1.82152,-59.37727 c -0.78728,-0.25486 -1.78861,-0.85903 -2.22518,-1.34259 l -0.79375,-0.8792 v -14.90596 c 0,-12.30923 0.0872,-15.02525 0.50022,-15.59074 0.46709,-0.63942 1.15063,-0.69982 10.31875,-0.9117 5.40019,-0.12481 20.65832,-0.24387 33.90695,-0.26459 25.257972,-0.0395 25.585272,-0.0214 26.835882,1.48665 0.38352,0.46245 0.48214,3.52113 0.50289,15.59637 l 0.0258,15.02109 -1.04234,1.04233 -1.04233,1.04234 -32.777732,0.0847 c -26.28805,0.0679 -33.06113,-0.007 -34.20916,-0.37869 z m 0.66028,-59.26404 c -1.51711,-0.2407 -2.68152,-0.92628 -3.16668,-1.86446 -0.42428,-0.82048 -0.51253,-3.53845 -0.51253,-15.786232 0,-14.0409 0.0344,-14.83756 0.67431,-15.62793 l 0.67431,-0.83284 52.330552,-0.17639 c 30.19987,-0.10179 52.77812,-0.0434 53.38888,0.13815 1.40636,0.41797 2.22439,1.16771 3.05957,2.80411 0.56591,1.10883 0.62314,1.55064 0.31523,2.43389 -0.23898,0.68556 -0.37619,5.63254 -0.37619,13.56377 v 12.484632 l -1.32291,1.41195 -1.32292,1.41195 -51.53051,0.0737 c -28.341792,0.0405 -51.836792,0.0251 -52.211112,-0.0343 z"
       id="path1" /></g></svg>
