<?xml version="1.0" encoding="UTF-8" standalone="no"?>
<!-- Created with Inkscape (http://www.inkscape.org/) -->

<svg
   width="110.64071mm"
   height="153.22868mm"
   viewBox="0 0 110.64071 153.22868"
   version="1.1"
   id="svg1"
   xml:space="preserve"
   xmlns="http://www.w3.org/2000/svg"
   xmlns:svg="http://www.w3.org/2000/svg"><defs
     id="defs1" /><g
     id="layer1"
     transform="translate(-42.149376,-88.027291)"><path
       style="fill:#000000"
       d="m 43.378053,240.96396 c -0.25298,-0.19402 -0.62587,-0.79967 -0.82863,-1.34588 -0.24918,-0.67122 -0.36867,-15.42787 -0.36867,-45.5291 0,-37.88355 0.0747,-44.63828 0.50019,-45.22078 0.46611,-0.63813 1.14512,-0.70001 9.96597,-0.90825 5.20618,-0.1229 20.46432,-0.24196 33.90698,-0.26458 25.633637,-0.0431 25.936567,-0.0266 27.188657,1.48319 0.38352,0.46245 0.48214,3.52113 0.50289,15.59637 l 0.0258,15.02109 -1.1267,1.12703 c -1.01037,1.01067 -1.33545,1.12551 -3.14871,1.11232 -29.491027,-0.21447 -33.009317,-0.18722 -33.291537,0.25778 -0.16131,0.25437 -0.29572,13.13068 -0.29869,28.61403 -0.005,24.53702 -0.0745,28.28518 -0.54363,29.19236 -0.29602,0.57245 -0.65321,1.04438 -0.79375,1.04874 -7.0483,0.21877 -31.34889,0.0774 -31.69017,-0.18432 z m 1.03959,-119.4977 c -0.807,-0.40211 -1.64044,-1.11115 -1.85208,-1.57566 -0.60131,-1.31972 -0.52965,-29.758971 0.0771,-30.588711 0.25404,-0.34741 1.16685,-0.76695 2.02848,-0.9323 0.86162,-0.16535 24.7241,-0.31143 53.02773,-0.32462 58.229737,-0.0271 52.896927,-0.30916 54.485957,2.88157 0.66701,1.33936 0.74475,1.78453 0.41817,2.39476 -0.28061,0.52431 -0.38692,4.48069 -0.35376,13.165561 0.0261,6.8288 0.0363,12.60092 0.0228,12.82693 -0.0135,0.22601 -0.80288,0.98224 -1.75412,1.68051 l -1.72952,1.26959 -51.451732,-0.0333 c -51.31078,-0.0332 -51.45574,-0.0353 -52.919,-0.76437 z"
       id="path1" /></g></svg>
