<?xml version="1.0" encoding="UTF-8" standalone="no"?>
<!-- Created with Inkscape (http://www.inkscape.org/) -->

<svg
   width="114.42611mm"
   height="153.41324mm"
   viewBox="0 0 114.42611 153.41324"
   version="1.1"
   id="svg1"
   xml:space="preserve"
   xmlns="http://www.w3.org/2000/svg"
   xmlns:svg="http://www.w3.org/2000/svg"><defs
     id="defs1" /><g
     id="layer1"
     transform="translate(-44.651656,-86.136457)"><path
       style="fill:#000000"
       d="m 111.85732,239.08804 c -0.5173,-0.29342 -2.52196,-0.60197 -4.86024,-0.74807 -2.90559,-0.18155 -4.33428,-0.43567 -5.29316,-0.94149 -0.72236,-0.38105 -2.485618,-0.83267 -3.918368,-1.00362 -1.50295,-0.17931 -2.86871,-0.54946 -3.22837,-0.87495 -0.34286,-0.31028 -1.62104,-0.79689 -2.840407,-1.08134 -1.219362,-0.28446 -2.448808,-0.7106 -2.732103,-0.94698 -0.283295,-0.23638 -1.290448,-0.82665 -2.238119,-1.31172 -6.267216,-3.20791 -7.586452,-4.01415 -8.136529,-4.9726 -0.437173,-0.76173 -0.851595,-1.02462 -1.615217,-1.02462 -1.207452,0 -2.804869,-1.15125 -3.260591,-2.34989 -0.194593,-0.51182 -0.924894,-1.10469 -1.84838,-1.50054 -0.839676,-0.35993 -1.951525,-1.18864 -2.470774,-1.84158 -0.519249,-0.65294 -1.213183,-1.42529 -1.542074,-1.71633 -0.328892,-0.29104 -1.163863,-1.16014 -1.855491,-1.93132 -0.691628,-0.77119 -1.657228,-1.80307 -2.145778,-2.29306 -0.488549,-0.48999 -1.166896,-1.32746 -1.507438,-1.86103 -0.340541,-0.53358 -0.837186,-0.97014 -1.103655,-0.97014 -0.792436,0 -2.621435,-2.35836 -2.874288,-3.70619 -0.129164,-0.6885 -0.533351,-1.41158 -0.898193,-1.60683 -0.364842,-0.19526 -0.987728,-0.94502 -1.384191,-1.66614 -0.396463,-0.72112 -1.346374,-2.343 -2.110913,-3.60418 -0.764539,-1.26118 -1.393178,-2.55868 -1.396977,-2.88335 -0.0038,-0.32466 -0.373829,-1.03903 -0.822291,-1.5875 -1.728405,-2.11381 -2.638084,-4.19053 -3.063821,-6.99442 -0.246809,-1.62548 -0.72235,-3.24164 -1.121446,-3.81131 -0.4877,-0.69614 -0.79375,-2.00218 -1.033348,-4.40972 -0.35133,-3.53024 -0.822645,-5.52531 -1.508502,-6.38545 -0.273542,-0.34306 -0.394997,-4.08537 -0.394997,-12.17084 0,-11.21852 0.03009,-11.74478 0.768789,-13.44672 0.484923,-1.11725 0.860765,-2.94088 1.017884,-4.93889 0.143818,-1.82886 0.508705,-3.68947 0.863352,-4.40235 0.337841,-0.6791 0.86646,-2.34597 1.174709,-3.70416 0.783942,-3.45417 2.204129,-6.90182 3.237928,-7.86042 0.481161,-0.44615 0.874837,-1.19612 0.874837,-1.66659 0,-0.47046 0.47625,-1.39781 1.058334,-2.06076 0.582083,-0.66296 1.058333,-1.60154 1.058333,-2.08575 0,-0.4842 0.259716,-1.09591 0.577147,-1.35936 0.519551,-0.43119 0.983524,-1.06609 3.032857,-4.15016 0.660494,-0.99398 3.621975,-4.38269 5.474023,-6.26371 0.630591,-0.64045 1.146528,-1.31952 1.146528,-1.50905 0,-0.18952 0.476454,-0.62604 1.058786,-0.97003 0.582333,-0.34399 1.156735,-0.94828 1.276449,-1.34286 0.336857,-1.11029 1.221384,-1.95358 2.989715,-2.85034 0.891431,-0.45206 1.884192,-1.22394 2.206136,-1.71529 0.721501,-1.10115 4.159764,-3.736521 4.874892,-3.736521 0.288096,0 0.908671,-0.40968 1.379055,-0.91041 0.470384,-0.50073 1.569619,-1.27098 2.442744,-1.71167 4.009688,-2.02379 4.790334,-2.44457 5.629614,-3.03442 0.493226,-0.34664 1.653601,-0.734 2.578611,-0.8608 1.054427,-0.14454 2.027771,-0.55115 2.609152,-1.08995 0.510028,-0.47268 1.148588,-0.85941 1.419028,-0.85941 0.27043,0 1.11235,-0.31663 1.87092,-0.70363 0.75857,-0.38699 3.05465,-0.93881 5.102388,-1.22626 2.04775,-0.28746 4.22368,-0.78147 4.83541,-1.0978 1.98525,-1.02662 14.59728,-1.58498 20.14702,-0.89196 3.38378,0.42254 3.17028,-0.6477 3.15063,15.794191 -0.009,7.92407 -0.0292,14.7643 -0.0439,15.2005 -0.0183,0.54568 -0.52994,1.10635 -1.63989,1.7972 -1.57612,0.981 -1.76319,1.00932 -8.13227,1.23095 -6.08046,0.21159 -6.68987,0.2952 -9.0583,1.24287 -1.39659,0.55882 -3.06656,1.13155 -3.71105,1.27273 -1.65167,0.36182 -5.48901,2.14718 -6.038768,2.8096 -0.2533,0.30522 -0.73493,0.55494 -1.07027,0.55494 -1.49328,0 -2.6956,0.73985 -3.02613,1.86215 -0.23212,0.78815 -0.7243,1.327 -1.60585,1.75814 -0.69914,0.34193 -2.251821,1.6913 -3.450415,2.99861 -1.198593,1.30731 -2.49041,2.70979 -2.870704,3.11661 -1.007908,1.07822 -2.244071,2.97761 -2.767654,4.25256 -0.251094,0.61142 -0.840646,1.47253 -1.310114,1.91358 -0.469469,0.44104 -0.853579,1.16292 -0.853579,1.60417 0,0.44125 -0.396875,1.23051 -0.881945,1.75391 -0.485069,0.52339 -0.885136,1.04751 -0.889037,1.1647 -0.05703,1.71297 -0.792394,4.84742 -1.257932,5.36183 -0.881927,0.97452 -1.3007,6.69816 -1.029996,14.07763 0.189756,5.17282 0.335951,6.36105 0.901838,7.32991 0.53299,0.91254 1.375282,4.41726 1.390518,5.78586 0.0015,0.13166 0.280477,0.51459 0.620026,0.85095 0.784616,0.77725 1.909112,2.58759 3.215862,5.17727 1.225448,2.42855 2.732013,4.12692 8.142872,9.17953 2.6689,2.4922 4.74489,4.11602 6.01557,4.70534 3.958208,1.83573 5.488428,2.69317 6.272288,3.51461 0.89899,0.94209 1.40728,1.08902 4.58881,1.32647 1.21992,0.091 2.41054,0.3216 2.64583,0.51234 1.20635,0.97796 10.36396,1.74024 11.17437,0.93015 0.25441,-0.2543 0.34532,-4.34331 0.28237,-12.7 l -0.0928,-12.32493 -7.13727,-0.0434 c -7.72976,-0.047 -8.21922,-0.15563 -9.49881,-2.10853 -0.5333,-0.81391 -0.59377,-2.38966 -0.58717,-15.3001 0.007,-14.31509 0.0116,-14.39869 0.79381,-15.49721 1.21356,-1.70429 2.60043,-2.28843 4.18871,-1.76425 0.98823,0.32615 6.30832,0.37973 22.29159,0.22451 22.60991,-0.21956 23.02937,-0.1925 24.4737,1.57918 0.5465,0.67036 0.62028,1.1654 0.43575,2.92367 -0.12218,1.16416 -0.25949,21.27769 -0.30512,44.69673 -0.0596,30.58462 -0.19309,42.69025 -0.47388,42.97119 -1.11138,1.11198 -4.84927,1.31395 -25.18547,1.36088 -16.90699,0.039 -20.43133,-0.0363 -21.16517,-0.45258 z"
       id="path1" /></g></svg>
