<?xml version="1.0" encoding="UTF-8" standalone="no"?>
<!-- Created with Inkscape (http://www.inkscape.org/) -->

<svg
   width="133.71613mm"
   height="153.72346mm"
   viewBox="0 0 133.71613 153.72346"
   version="1.1"
   id="svg1"
   xml:space="preserve"
   xmlns="http://www.w3.org/2000/svg"
   xmlns:svg="http://www.w3.org/2000/svg"><defs
     id="defs1" /><g
     id="layer1"
     transform="translate(-41.805606,-80.964763)"><path
       style="fill:#000000"
       d="m 48.504011,234.30291 c -0.6791,-0.26339 -1.83513,-0.48785 -2.56897,-0.4988 -2.20046,-0.0328 -3.64178,-0.82298 -3.90537,-2.14093 -0.2926,-1.46298 -0.30176,-148.266323 -0.009,-149.028453 0.12053,-0.31409 0.71556,-0.82778 1.3223,-1.14154 0.97106,-0.50215 2.83292,-0.56114 15.54712,-0.49259 15.38744,0.083 16.2644,0.17567 17.14002,1.81178 0.31377,0.58628 0.40494,7.35562 0.36378,27.009873 -0.0302,14.42513 0.0479,26.77551 0.17354,27.44529 0.12565,0.66978 0.48542,1.31639 0.79949,1.43691 0.31407,0.12052 14.6131,0.20781 31.775629,0.19397 22.83168,-0.0184 31.3348,-0.13322 31.68985,-0.42788 0.405,-0.33612 0.47661,-4.90824 0.43294,-27.64229 -0.0379,-19.763123 0.0578,-27.445263 0.34879,-27.989023 1.01849,-1.90306 0.97304,-1.898 16.77188,-1.86796 15.50389,0.0295 16.30333,0.11078 16.92119,1.72089 0.13265,0.34567 0.22844,34.284353 0.21288,75.419293 -0.0248,65.4629 -0.0931,74.83939 -0.54833,75.18037 -0.89296,0.66893 -5.32661,0.93666 -14.10773,0.85191 -5.50687,-0.0532 -8.99102,0.0595 -9.96661,0.32231 -1.21782,0.32803 -1.80074,0.30191 -3.09913,-0.13891 -0.87956,-0.29861 -2.21831,-0.54294 -2.97501,-0.54294 -0.7567,0 -1.77172,-0.15052 -2.25562,-0.3345 l -0.8798,-0.3345 -0.1133,-29.45776 c -0.0907,-23.57817 -0.20482,-29.54927 -0.57181,-29.91619 -0.36772,-0.36767 -6.62816,-0.47736 -31.61935,-0.55403 -20.079189,-0.0616 -31.489579,0.0294 -32.085239,0.25585 l -0.9244,0.35145 -0.0499,20.55804 c -0.0274,11.30692 -0.14648,24.60435 -0.26458,29.54985 l -0.21473,8.99182 -1.05833,0.51526 c -0.82228,0.40033 -3.53691,0.56996 -12.17083,0.76052 -6.11188,0.1349 -11.50938,0.32773 -11.99444,0.42853 -0.48507,0.1008 -1.43757,-0.0322 -2.11667,-0.29562 z"
       id="path1" /></g></svg>
