<?xml version="1.0" encoding="UTF-8" standalone="no"?>
<!-- Created with Inkscape (http://www.inkscape.org/) -->

<svg
   width="34.565544mm"
   height="153.78018mm"
   viewBox="0 0 34.565544 153.78018"
   version="1.1"
   id="svg1"
   xml:space="preserve"
   xmlns="http://www.w3.org/2000/svg"
   xmlns:svg="http://www.w3.org/2000/svg"><defs
     id="defs1" /><g
     id="layer1"
     transform="translate(-87.741224,-93.339188)"><path
       style="fill:#000000"
       d="m 92.185986,246.7809 c -0.38806,-0.17383 -1.37755,-0.48598 -2.19887,-0.69366 -0.82131,-0.20768 -1.65334,-0.67663 -1.84894,-1.04211 -0.57488,-1.07417 -0.50336,-148.674622 0.0726,-149.875842 0.8603,-1.79418 1.13751,-1.82492 16.498804,-1.82993 12.90396,-0.004 14.40658,0.0551 15.51731,0.61216 0.6764,0.33925 1.42812,1.01369 1.67049,1.49876 0.34852,0.69749 0.43304,16.265552 0.40414,74.436112 -0.0201,40.45479 -0.13772,74.03041 -0.2614,74.61249 -0.18722,0.88117 -0.50078,1.14692 -1.87305,1.5875 -0.90651,0.29105 -1.76549,0.64823 -1.90886,0.79375 -0.3711,0.37668 -25.221004,0.2821 -26.072244,-0.0992 z"
       id="path1" /></g></svg>
