<?xml version="1.0" encoding="UTF-8" standalone="no"?>
<!-- Created with Inkscape (http://www.inkscape.org/) -->

<svg
   version="1.1"
   id="svg1"
   width="352.18945"
   height="582.12646"
   viewBox="0 0 352.18945 582.12646"
   xmlns="http://www.w3.org/2000/svg"
   xmlns:svg="http://www.w3.org/2000/svg">
  <defs
     id="defs1" />
  <g
     id="g1"
     transform="translate(-3005.6746,-2991.5327)">
    <path
       style="fill:#000000"
       d="m 3168.5004,3572.5126 c -3.4464,-0.5811 -7.0464,-1.5489 -8,-2.1509 -0.9535,-0.602 -8.7239,-1.7655 -17.2676,-2.5856 -12.2023,-1.1714 -16.2908,-2.0865 -19.0626,-4.2668 -1.9408,-1.5266 -5.4505,-3.1859 -7.7994,-3.6874 -10.3107,-2.2012 -29.0514,-12.0076 -37.4801,-19.6121 -1.8251,-1.6466 -5.1965,-4.4939 -7.4919,-6.3272 -8.7277,-6.9707 -22.123,-20.0097 -25.9655,-25.275 -2.2,-3.0145 -7.035,-9.5108 -10.7446,-14.4362 -6.0318,-8.0089 -9.5581,-14.8287 -18.0746,-34.9555 -1.3963,-3.3 -3.6899,-11.7 -5.0967,-18.6666 -1.4068,-6.9667 -3.2517,-14.4667 -4.0997,-16.6667 -2.6237,-6.8069 -2.2156,-20.883 0.7526,-25.963 5.0819,-8.6973 19.1299,-12.1701 30.2203,-7.4708 7.0292,2.9784 54.8414,3.0561 61.9151,0.1005 6.1138,-2.5545 18.7674,-2.5716 24.8417,-0.034 7.1651,2.9938 11.9187,10.6047 14.8844,23.8312 0.4683,2.0887 3.5253,6.2309 6.7932,9.205 4.2713,3.8872 5.9417,6.4343 5.9417,9.0598 0,3.6892 2.0106,5.2709 6.7002,5.2709 1.3651,0 3.3735,1.2729 4.4633,2.8287 1.6982,2.4246 3.7084,2.9272 14.0708,3.518 11.3045,0.6445 12.4144,0.4709 17.0943,-2.6751 2.7526,-1.8504 6.7371,-3.7656 8.8543,-4.256 2.1173,-0.4903 5.4173,-2.7777 7.3333,-5.083 1.9161,-2.3054 5.0575,-5.7427 6.9808,-7.6385 1.9234,-1.8958 3.9413,-5.5276 4.4843,-8.0705 0.5431,-2.543 2.1194,-7.1407 3.5031,-10.2171 2.4273,-5.3971 2.5156,-12.2525 2.5156,-195.2284 0,-171.2002 -0.2054,-189.8617 -2.113,-191.9696 -1.1621,-1.2842 -2.4292,-4.6928 -2.8158,-7.5749 -0.896,-6.6801 4.411,-15.394 10.7136,-17.5912 2.8061,-0.9783 20.9297,-1.4295 54.2152,-1.3497 27.5,0.066 51.8901,-0.276 54.2002,-0.7598 3.5764,-0.749 4.9624,-0.181 9.3333,3.8247 l 5.1332,4.7043 0.3298,205.769 c 0.2811,175.4014 0.044,207.2449 -1.6068,215.7691 -1.0651,5.5 -2.3422,13.5268 -2.8381,17.8372 -0.7014,6.0982 -1.4576,7.9827 -3.4078,8.4927 -1.3784,0.3605 -2.772,1.9337 -3.0968,3.4961 -0.3248,1.5624 -1.2007,5.9381 -1.9463,9.7238 -0.7456,3.7857 -2.8733,9.1194 -4.7282,11.8527 -1.8548,2.7333 -3.3725,5.9694 -3.3725,7.1913 0,1.2219 -2.4182,5.7882 -5.3739,10.1473 -2.9557,4.3591 -6.5993,9.849 -8.0968,12.1998 -1.4976,2.3508 -3.8486,4.6315 -5.2245,5.0682 -1.3759,0.4367 -2.8996,2.1133 -3.3858,3.7258 -1.0876,3.6063 -22.4139,24.9318 -24.9328,24.9318 -1.0013,0 -3.4986,1.7514 -5.5495,3.8921 -2.0509,2.1407 -5.3131,4.2835 -7.2494,4.7618 -1.9363,0.4783 -5.0206,2.2636 -6.8539,3.9675 -4.7397,4.4049 -15.697,9.6692 -22.2941,10.711 -3.0951,0.4888 -7.0424,2.0018 -8.7719,3.3621 -4.0564,3.1908 -6.5896,3.7385 -24.2674,5.2465 -8.0666,0.6882 -17.2921,2.1829 -20.5009,3.3217 -6.1773,2.1923 -15.4251,2.4438 -25.7654,0.7006 z"
       id="path1" />
  </g>
</svg>
