<?xml version="1.0" encoding="UTF-8" standalone="no"?>
<!-- Created with Inkscape (http://www.inkscape.org/) -->

<svg
   width="120.62964mm"
   height="154.17563mm"
   viewBox="0 0 120.62964 154.17563"
   version="1.1"
   id="svg1"
   xml:space="preserve"
   xmlns="http://www.w3.org/2000/svg"
   xmlns:svg="http://www.w3.org/2000/svg"><defs
     id="defs1" /><g
     id="layer1"
     transform="translate(-47.55718,-74.616487)"><path
       style="fill:#000000"
       d="m 51.079033,228.04608 c -1.255507,-0.43946 -2.439433,-0.95572 -2.630947,-1.14723 -0.227477,-0.22748 -0.312456,-25.09835 -0.245098,-71.73237 0.0828,-57.323826 0.01276,-71.921886 -0.355613,-74.114166 -0.42657,-2.53866 -0.410258,-2.82051 0.232732,-4.02138 0.411266,-0.76809 1.225135,-1.55218 2.008489,-1.93499 1.20129,-0.58704 1.616458,-0.60591 4.724016,-0.21476 2.321558,0.29221 6.748704,0.37221 13.896179,0.25109 11.34788,-0.19229 12.099589,-0.0998 13.231949,1.62842 0.710123,1.08379 0.660729,-1.10183 0.56179,24.858396 -0.04463,11.71138 0.0046,21.37919 0.109442,21.48402 0.104827,0.10483 0.947368,-0.64147 1.872313,-1.65844 0.924944,-1.01697 2.451623,-2.66674 3.39262,-3.66616 0.940997,-0.99941 1.930789,-2.24233 2.199538,-2.76203 0.268749,-0.51971 0.96691,-1.28548 1.551468,-1.70172 0.584558,-0.41624 1.530093,-1.42095 2.10119,-2.23268 0.571096,-0.81172 1.801779,-2.30059 2.734851,-3.30858 0.933071,-1.00799 1.99405,-2.25465 2.35773,-2.77036 0.363681,-0.51571 1.179808,-1.15432 1.813618,-1.41914 0.70176,-0.29322 1.28912,-0.86529 1.50206,-1.46298 0.40208,-1.12858 3.75195,-4.776566 4.93072,-5.369516 0.43657,-0.2196 0.79375,-0.62674 0.79375,-0.90476 0,-0.43746 2.26506,-3.22055 5.56145,-6.83338 0.53072,-0.58167 1.41714,-1.62342 1.96983,-2.315 0.55268,-0.69158 1.17258,-1.25742 1.37753,-1.25742 0.60335,0 5.18839,-5.05802 5.19566,-5.73162 0.0103,-0.95909 2.49051,-3.48174 4.14529,-4.21631 1.40717,-0.62466 2.61141,-0.65956 20.99028,-0.60845 16.08403,0.0447 19.63642,0.14119 20.29121,0.55094 0.69455,0.43463 0.79375,0.79165 0.79375,2.85675 v 2.36004 l -1.94028,1.8348 c -1.06715,1.00914 -1.94027,2.06535 -1.94027,2.34713 0,0.28178 -0.72456,1.07683 -1.61014,1.76678 -0.88557,0.68994 -3.18971,3.08805 -5.1203,5.32913 -1.93059,2.24108 -3.83795,4.25012 -4.23858,4.46453 -0.40062,0.21441 -0.89183,0.85861 -1.09156,1.43155 -0.19973,0.57295 -0.82218,1.2791 -1.38323,1.56923 -0.56104,0.29013 -1.02008,0.785466 -1.02008,1.100756 0,0.3153 -0.83344,1.40034 -1.85209,2.41121 -2.93176,2.90939 -5.28529,5.4603 -7.29056,7.902 -1.02151,1.24384 -2.34803,2.59321 -2.94781,2.99861 -0.59979,0.4054 -1.44622,1.45146 -1.88097,2.32458 -0.45476,0.91331 -1.74259,2.40767 -3.0324,3.51871 -1.23306,1.06216 -3.66633,3.65624 -5.40725,5.76461 -4.49873,5.44827 -4.93868,5.88613 -5.91424,5.88613 -0.71568,0 -0.89771,0.21438 -1.0668,1.25636 -0.14198,0.87493 -0.77183,1.84984 -2.07463,3.2112 -8.19975,8.56833 -11.246,11.88039 -11.69936,12.72024 -0.22107,0.40954 -0.83851,1.08696 -1.37208,1.5054 -1.20451,0.94458 -1.30926,2.54514 -0.22537,3.44361 2.06487,1.71163 4.94107,4.96555 5.26994,5.96203 0.24653,0.74699 0.70991,1.24329 1.37842,1.47633 0.58371,0.20349 1.64531,1.21635 2.5254,2.40947 0.8351,1.13213 2.39787,2.93727 3.47283,4.01143 1.07496,1.07417 2.24058,2.39094 2.59028,2.92617 0.3497,0.53523 0.99877,1.11114 1.44239,1.2798 1.09689,0.41704 2.67699,2.35931 2.92395,3.59415 0.13689,0.68444 0.61767,1.24501 1.4867,1.73343 0.70641,0.39703 1.63495,1.22934 2.06342,1.84959 0.42847,0.62026 2.29855,2.71523 4.15574,4.65551 1.85719,1.94028 3.59268,4.02803 3.85664,4.63945 0.26397,0.61142 0.92523,1.32579 1.46947,1.5875 0.54425,0.2617 1.35722,1.03145 1.80661,1.71055 0.44939,0.6791 2.04282,2.51846 3.54095,4.08747 1.49813,1.569 3.99154,4.30744 5.5409,6.08541 1.54937,1.77797 2.93435,3.23268 3.07775,3.23268 0.14339,0 0.48766,0.43656 0.76503,0.97013 0.27737,0.53358 1.27363,1.77595 2.21392,2.76083 0.94028,0.98488 3.69398,3.91395 6.11933,6.50904 2.42534,2.59509 5.08441,5.39492 5.90903,6.22185 1.45422,1.45829 1.4993,1.57206 1.4993,3.7841 0,2.0436 -0.0966,2.3566 -0.92952,3.01177 -0.91273,0.71795 -1.25403,0.73116 -18.89113,0.73116 -14.72526,0 -18.13409,-0.0892 -18.91887,-0.49502 -0.5265,-0.27226 -1.73045,-0.61097 -2.67544,-0.75268 -0.94499,-0.14171 -1.9378,-0.51426 -2.20624,-0.82789 -1.31328,-1.53439 -2.8239,-3.2032 -4.34823,-4.80357 -0.92404,-0.97014 -1.94301,-2.27983 -2.26438,-2.91042 -0.32137,-0.63059 -0.79524,-1.14653 -1.05305,-1.14653 -0.59525,0 -4.61953,-4.50475 -4.9475,-5.5382 -0.13539,-0.42664 -0.53021,-0.86586 -0.87737,-0.97604 -0.72663,-0.23062 -5.85854,-5.70812 -6.80292,-7.26103 -0.34832,-0.57277 -0.79673,-1.04139 -0.99646,-1.04139 -0.19973,0 -0.65842,-0.48554 -1.01931,-1.07897 -0.36089,-0.59344 -1.19199,-1.36363 -1.84689,-1.71155 -1.375085,-0.7305 -2.778241,-2.61133 -2.778241,-3.72404 0,-0.49842 -0.36302,-0.94207 -1.039793,-1.27075 -0.978493,-0.4752 -10.601873,-10.56635 -10.601873,-11.1172 0,-0.34274 -2.860489,-2.96971 -3.233699,-2.96971 -0.161743,0 -0.294079,10.05921 -0.294079,22.35381 0,25.51289 0.260193,23.52042 -3.219706,24.65544 -1.630045,0.53166 -3.575432,0.63045 -13.887963,0.7052 -11.668001,0.0846 -12.054139,0.0653 -14.275133,-0.71209 z"
       id="path1" /></g></svg>
