<?xml version="1.0" encoding="UTF-8" standalone="no"?>
<!-- Created with Inkscape (http://www.inkscape.org/) -->

<svg
   width="110.04251mm"
   height="153.5332mm"
   viewBox="0 0 110.04251 153.5332"
   version="1.1"
   id="svg1"
   xml:space="preserve"
   xmlns="http://www.w3.org/2000/svg"
   xmlns:svg="http://www.w3.org/2000/svg"><defs
     id="defs1" /><g
     id="layer1"
     transform="translate(-55.098041,-83.616607)"><path
       style="fill:#000000"
       d="m 56.445133,236.86406 c -0.33191,-0.19422 -0.76759,-0.94404 -0.96817,-1.66628 -0.48623,-1.75073 -0.51399,-148.87519 -0.0283,-150.15256 0.19998,-0.52599 0.74547,-1.00821 1.32291,-1.16949 0.54044,-0.15094 7.77187,-0.26734 16.06983,-0.25867 14.62614,0.0153 15.10887,0.0374 15.79563,0.72418 0.70307,0.70307 0.70901,1.15298 0.78778,59.69553 l 0.0794,58.98712 34.936087,0.0169 c 22.23997,0.0108 35.26987,-0.10998 35.85453,-0.33227 0.72037,-0.27388 1.2406,-0.1898 2.41227,0.3899 2.52147,1.24752 2.51205,1.17911 2.3947,17.39286 -0.11673,16.12656 0.11412,14.9494 -3.13065,15.9636 -1.75416,0.54829 -6.14825,0.60421 -53.41694,0.67986 -33.883737,0.0542 -51.712027,-0.0384 -52.109027,-0.2707 z"
       id="path1" /></g></svg>
