<?xml version="1.0" encoding="UTF-8" standalone="no"?>
<!-- Created with Inkscape (http://www.inkscape.org/) -->

<svg
   version="1.1"
   id="svg1"
   width="549.80493"
   height="581.26318"
   viewBox="0 0 549.80493 581.26318"
   xmlns="http://www.w3.org/2000/svg"
   xmlns:svg="http://www.w3.org/2000/svg">
  <defs
     id="defs1" />
  <g
     id="g1"
     transform="translate(-2897.5435,-3074.7361)">
    <path
       style="fill:#000000"
       d="m 2950.0127,3655.6874 -41.5551,-0.4462 -4.5201,-6.3145 c -2.486,-3.473 -4.9279,-7.3919 -5.4264,-8.7086 -0.4984,-1.3168 -0.9315,-125.1383 -0.9625,-275.1588 -0.048,-233.795 0.2137,-272.9801 1.833,-274.2725 1.039,-0.8294 2.2796,-3.7386 2.7567,-6.465 1.5645,-8.939 -0.6401,-8.5697 55.8524,-9.3554 28.2151,-0.3924 53.7211,-0.2707 56.6801,0.2704 2.959,0.5411 7.1409,2.4219 9.2932,4.1796 2.1523,1.7577 4.9512,3.8029 6.2199,4.5449 1.4748,0.8626 2.5676,3.6647 3.0303,7.7701 0.5842,5.183 1.3339,6.6529 3.8888,7.6242 1.7407,0.6618 4.8074,3.9631 6.8149,7.3362 2.0075,3.373 4.8499,8.0026 6.3166,10.2879 1.4667,2.2854 4.1667,6.6828 6,9.7721 5.2175,8.7919 10.1077,15.7367 12.45,17.6806 1.1804,0.9796 2.5129,3.7363 2.9612,6.126 0.5476,2.9189 2.7166,5.9344 6.6083,9.1875 3.1863,2.6634 6.2175,6.1979 6.736,7.8544 0.5185,1.6566 2.3448,4.6892 4.0585,6.7392 1.7137,2.05 3.7507,6.0848 4.5266,8.9663 0.8936,3.3185 3.5364,7.2313 7.2097,10.6742 3.5031,3.2834 8.038,9.8719 11.4545,16.6417 3.1105,6.1635 6.7819,12.2258 8.1587,13.4718 1.3767,1.2459 2.5032,2.9899 2.5032,3.8754 0,0.8855 1.65,3.7352 3.6666,6.3326 2.0167,2.5974 4.8667,6.6806 6.3334,9.0738 5.9458,9.7016 8.2484,12.834 13.651,18.5703 3.5094,3.7261 5.9652,7.7685 6.48,10.6666 0.5004,2.8167 2.5801,6.3202 5.246,8.8377 2.4293,2.294 6.3352,7.57 8.6798,11.7244 2.3446,4.1545 4.8997,7.3413 5.6779,7.0819 0.7782,-0.2594 2.0562,-2.2354 2.8401,-4.3911 2.4149,-6.6415 8.9133,-16.5862 10.8383,-16.5862 2.2404,0 4.5869,-4.1376 4.5869,-8.0883 0,-4.2194 5.1258,-11.8988 8.8999,-13.3337 1.8587,-0.7067 4.1096,-3.3352 5.3039,-6.1936 2.0234,-4.8426 4.1481,-7.9999 11.2829,-16.7668 1.9178,-2.3563 3.9339,-5.7843 4.4805,-7.6176 0.5465,-1.8333 2.6396,-5.1333 4.6513,-7.3333 2.0117,-2.2 5.0075,-6.8674 6.6572,-10.3719 1.6497,-3.5046 4.8875,-8.7097 7.1952,-11.5669 2.3076,-2.8573 6.8334,-9.4762 10.0572,-14.7088 3.2237,-5.2326 7.8737,-11.0487 10.3333,-12.9247 2.4595,-1.876 4.4719,-4.599 4.4719,-6.051 0,-1.4521 1.8,-4.3216 4,-6.3767 2.2,-2.0552 4,-4.7353 4,-5.956 0,-2.4439 2.4555,-7.6413 4.1332,-8.7484 1.8722,-1.2354 7.6479,-9.7427 11.2897,-16.629 1.9392,-3.6666 5.7702,-9.3666 8.5135,-12.6666 2.7434,-3.3 5.9861,-7.9323 7.2062,-10.2938 1.2201,-2.3616 3.4121,-4.9328 4.8712,-5.7136 1.4591,-0.7809 2.6529,-2.6285 2.6529,-4.1058 0,-4.0759 3.3508,-9.7073 8.4296,-14.1665 l 4.5658,-4.0089 55.8356,-0.6657 c 32.3942,-0.3863 56.9654,-0.155 58.5267,0.5508 1.4801,0.6692 4.1801,3.3923 6,6.0515 2.6201,3.8283 3.2561,6.2985 3.0551,11.8659 -0.1397,3.8671 -0.8897,8.219 -1.6667,9.6709 -0.9816,1.8341 -1.4128,85.4707 -1.4128,274.0089 v 271.369 l -2.9284,2.7282 c -1.6106,1.5005 -4.7775,3.2388 -7.0375,3.8628 -2.26,0.624 -26.5922,0.8544 -54.0716,0.5119 l -49.9625,-0.6228 -3.5355,-3.5214 c -1.9446,-1.9368 -4.4946,-4.2951 -5.6667,-5.2407 -1.9234,-1.5516 -2.1394,-13.5762 -2.2155,-123.3333 -0.1278,-184.2382 -0.3631,-207.9848 -2.0664,-208.5529 -0.8162,-0.2723 -2.1662,1.3276 -3,3.5552 -0.8337,2.2276 -2.1361,5.7232 -2.894,7.7679 -1.2735,3.4354 -8.1565,11.9697 -16.5026,20.4621 -1.899,1.9322 -3.4526,4.9644 -3.4526,6.7382 0,1.7738 -1.568,6.3715 -3.4843,10.2171 -2.6886,5.3954 -4.3454,7.1642 -7.2556,7.7463 -2.6447,0.5289 -4.1825,1.9338 -5.1478,4.7029 -0.7571,2.1717 -2.8921,5.7497 -4.7444,7.9511 -1.8524,2.2014 -3.3679,4.752 -3.3679,5.6679 0,0.9159 -1.4689,3.0452 -3.2642,4.7318 -1.7953,1.6866 -3.6474,4.8115 -4.1159,6.9442 -0.4684,2.1328 -2.2291,4.7803 -3.9126,5.8834 -1.6836,1.1031 -3.4387,3.8941 -3.9003,6.2022 -0.4616,2.3081 -3.5482,7.8352 -6.859,12.2825 -3.3108,4.4473 -8.6737,12.286 -11.9176,17.4193 -8.8023,13.9295 -11.8509,17.9227 -13.7139,17.9633 -0.9259,0.02 -3.2151,3.1867 -5.087,7.0367 -8.3395,17.1518 -11.3342,22.0621 -17.0909,28.0234 -3.3763,3.4962 -6.1386,6.9346 -6.1386,7.6408 0,0.7062 -2.1012,4.5687 -4.6693,8.5833 -3.8169,5.9667 -5.5295,7.4607 -9.3805,8.1832 -10.6266,1.9935 -20.6744,-4.3192 -23.4249,-14.7172 -0.7828,-2.9591 -2.7755,-6.8802 -4.4283,-8.7135 -1.6528,-1.8333 -3.7653,-5.2634 -4.6945,-7.6223 -0.9291,-2.359 -2.796,-4.6403 -4.1487,-5.0696 -1.3526,-0.4293 -4.0041,-4.0459 -5.8921,-8.0369 -1.8881,-3.9909 -4.8719,-8.1992 -6.6308,-9.3517 -1.759,-1.1525 -3.8274,-3.9007 -4.5966,-6.1072 -0.7692,-2.2065 -2.7641,-5.7087 -4.4331,-7.7828 -1.669,-2.074 -4.8346,-6.8813 -7.0346,-10.6828 -2.2,-3.8015 -5.8,-9.2551 -8,-12.119 -2.2,-2.864 -5.35,-6.9567 -7,-9.095 -1.65,-2.1383 -3,-5.4708 -3,-7.4056 0,-2.509 -1.1417,-4.1691 -3.9813,-5.7891 -2.9263,-1.6694 -4.2614,-3.6792 -5.0381,-7.5843 -0.6872,-3.4544 -2.0791,-5.8226 -3.9792,-6.7699 -4.3158,-2.1517 -9.9066,-9.6254 -17.5908,-23.5154 -1.5006,-2.7124 -4.2318,-6.4351 -6.0694,-8.2727 -1.8797,-1.8796 -3.3412,-4.8819 -3.3412,-6.8635 0,-2.3543 -2.3786,-6.2433 -7.1727,-11.7273 -8.974,-10.2654 -14.1606,-17.9025 -14.1606,-20.851 0,-2.1743 -3.895,-6.6872 -5.7717,-6.6872 -0.4922,0 -0.895,74.3509 -0.895,165.2243 0,90.8733 -0.374,166.1989 -0.8311,167.3901 -0.4571,1.1912 -3.3071,3.4439 -6.3333,5.0059 -6.4694,3.3393 -8.6774,3.4293 -68.3907,2.7882 z"
       id="path1" />
  </g>
</svg>
