<?xml version="1.0" encoding="UTF-8" standalone="no"?>
<!-- Created with Inkscape (http://www.inkscape.org/) -->

<svg
   width="130.60381mm"
   height="154.04153mm"
   viewBox="0 0 130.60381 154.04153"
   version="1.1"
   id="svg1"
   xml:space="preserve"
   xmlns="http://www.w3.org/2000/svg"
   xmlns:svg="http://www.w3.org/2000/svg"><defs
     id="defs1" /><g
     id="layer1"
     transform="translate(-37.290687,-74.200121)"><path
       style="fill:#000000"
       d="m 42.296819,228.10351 c -1.06716,-0.10033 -2.57528,-0.4972 -3.35139,-0.88194 l -1.41111,-0.69952 -0.17639,-74.43611 c -0.1331,-56.168588 -0.0755,-74.710514 0.23472,-75.554243 0.22611,-0.614972 0.76754,-1.308889 1.20318,-1.542038 1.01939,-0.545561 30.03091,-0.59711 31.37043,-0.05574 1.26443,0.51102 3.39703,2.888978 3.68399,4.107829 0.13455,0.571528 0.67039,1.555354 1.19074,2.186281 1.38299,1.676864 2.77516,3.59632 4.03834,5.567855 0.61235,0.955747 1.46694,2.119228 1.89907,2.585514 0.43214,0.466285 0.88785,1.312818 1.01268,1.881184 0.12484,0.568366 0.53105,1.19613 0.9027,1.395032 0.37165,0.198901 1.00856,1.014045 1.41536,1.811431 0.4068,0.797386 1.19917,1.836475 1.76084,2.309087 0.56167,0.472611 1.33168,1.561147 1.71113,2.418967 0.37946,0.857821 0.86324,1.559671 1.07507,1.559671 0.21184,0 0.67532,0.67694 1.02997,1.50431 0.35465,0.82737 0.90464,1.71993 1.22219,1.98347 0.31755,0.26355 0.57736,0.67768 0.57736,0.92029 0,0.24261 0.87313,1.50631 1.94028,2.80822 1.15114,1.40437 1.94028,2.71025 1.94028,3.2108 0,0.5722 0.32591,1.01222 1.01281,1.36743 0.75257,0.38917 1.11645,0.93535 1.41619,2.12573 0.22186,0.88109 0.56879,1.60198 0.77096,1.60198 0.49909,0 2.366531,2.04982 3.053211,3.35139 0.3071,0.58208 1.20858,1.91007 2.00329,2.95107 2.17225,2.84548 2.67552,3.68243 2.6802,4.45726 0.002,0.40396 0.51673,1.05449 1.20312,1.52185 0.65937,0.44897 1.40812,1.32209 1.66388,1.94028 0.25577,0.61819 1.29722,2.23523 2.31434,3.59343 1.01712,1.35819 1.93891,2.87018 2.04842,3.35997 0.10951,0.48979 0.98757,1.56969 1.95125,2.39978 1.36272,1.17382 1.80025,1.81014 1.96862,2.86303 0.13879,0.86797 0.48736,1.50339 0.97134,1.77071 0.88662,0.48969 2.04277,2.06111 3.05963,4.15859 0.39978,0.82462 0.87375,1.4993 1.05328,1.4993 0.17954,0 0.95567,0.99219 1.72475,2.20487 1.32628,2.09125 2.44647,3.67243 4.13195,5.83232 0.41145,0.52726 0.86679,1.51427 1.01188,2.19337 0.34469,1.61336 0.80827,2.46891 1.33926,2.47167 0.23571,0.001 0.69899,0.47748 1.02952,1.05834 0.33052,0.58085 0.76708,1.0561 0.97013,1.0561 0.25509,0 0.36919,-13.57571 0.36919,-43.92601 V 77.110302 l 1.19801,-1.307254 1.198,-1.307253 12.29575,0.09619 c 6.76584,0.05293 13.07122,-0.05438 14.02003,-0.238599 2.39351,-0.464729 4.3935,0.144337 5.24143,1.596201 0.6148,1.052685 0.64082,4.191288 0.62476,75.379943 -0.009,40.85483 -0.11324,74.53294 -0.23116,74.84024 -0.11792,0.30729 -0.86951,0.89399 -1.67019,1.30378 -1.40933,0.72128 -1.89497,0.74468 -15.21413,0.73307 l -13.75834,-0.012 -1.80716,-0.92049 c -1.56332,-0.7963 -3.66089,-2.85462 -3.66089,-3.59241 0,-0.13285 -0.43656,-0.77746 -0.97014,-1.43247 -2.35549,-2.89155 -2.81225,-3.57991 -3.37014,-5.07895 -0.34776,-0.93441 -0.91723,-1.73486 -1.38038,-1.94027 -0.98367,-0.43628 -2.39323,-2.49667 -2.39323,-3.49828 0,-0.41317 -0.43656,-1.15082 -0.97014,-1.63922 -0.53357,-0.4884 -1.24436,-1.35719 -1.57952,-1.93064 -0.33516,-0.57345 -1.16796,-1.75701 -1.85068,-2.63014 -0.68272,-0.87312 -1.40578,-1.96842 -1.6068,-2.43398 -0.20102,-0.46557 -0.7655,-1.33869 -1.2544,-1.94028 -2.53651,-3.12116 -3.30013,-4.17395 -3.51225,-4.84228 -0.30148,-0.9499 -1.63199,-2.93623 -3.16457,-4.72443 -0.66811,-0.77955 -1.73436,-2.19867 -2.36945,-3.15359 -2.1992,-3.30677 -2.84434,-4.19846 -4.77066,-6.59375 -0.63059,-0.78412 -1.14653,-1.70047 -1.14653,-2.03635 0,-0.33587 -0.39687,-0.98353 -0.88194,-1.43923 -0.485071,-0.45569 -0.881951,-1.00217 -0.881951,-1.21438 0,-0.21222 -0.7897,-1.33549 -1.7549,-2.49615 -0.96519,-1.16066 -2.00065,-2.82467 -2.30102,-3.6978 -0.40076,-1.16498 -0.84915,-1.73604 -1.68468,-2.14562 -1.38912,-0.68094 -2.629,-2.4323 -2.94199,-4.15561 -0.14218,-0.78286 -0.79914,-1.91074 -1.68428,-2.89162 -0.79815,-0.88447 -1.72838,-2.0751 -2.06719,-2.64583 -0.3388,-0.57074 -1.05318,-1.69116 -1.5875,-2.48984 -0.53432,-0.79867 -1.39002,-2.07663 -1.90155,-2.83991 -0.51153,-0.76328 -1.58309,-2.06746 -2.38125,-2.89818 -1.01539,-1.05682 -1.45119,-1.81605 -1.45119,-2.52819 0,-0.66231 -0.40045,-1.4448 -1.14653,-2.24036 -2.20377,-2.34992 -4.4011,-5.34041 -5.11222,-6.95751 -0.39427,-0.89659 -0.89359,-1.73939 -1.10961,-1.8729 -0.46295,-0.28612 -0.42452,-3.53681 -0.44184,37.36974 -0.007,17.26847 -0.11832,35.9982 -0.24669,41.62162 l -0.23339,10.2244 -1.51822,0.83677 c -1.50848,0.83141 -1.59561,0.8371 -13.58194,0.8881 -6.63505,0.0282 -12.93685,-0.0308 -14.004,-0.1311 z"
       id="path1" /></g></svg>
