<?xml version="1.0" encoding="UTF-8" standalone="no"?>
<!-- Created with Inkscape (http://www.inkscape.org/) -->

<svg
   width="153.59906mm"
   height="153.73238mm"
   viewBox="0 0 153.59906 153.73238"
   version="1.1"
   id="svg1"
   xml:space="preserve"
   xmlns="http://www.w3.org/2000/svg"
   xmlns:svg="http://www.w3.org/2000/svg"><defs
     id="defs1" /><g
     id="layer1"
     transform="translate(-30.593098,-68.375618)"><path
       style="fill:#000000"
       d="m 103.99183,221.88995 c -2.1518,-0.0762 -3.46683,-0.28161 -3.77488,-0.58966 -0.555328,-0.55533 -2.155245,-0.8018 -7.210469,-1.11075 -2.149378,-0.13136 -4.148392,-0.44884 -4.7625,-0.75637 -1.331184,-0.66661 -4.327127,-1.50349 -5.402089,-1.50901 -0.710889,-0.004 -3.63661,-1.20503 -6.415966,-2.63457 -0.485069,-0.24949 -1.458061,-0.63882 -2.162203,-0.86518 -0.704143,-0.22635 -1.56279,-0.72375 -1.908106,-1.10532 -0.345316,-0.38157 -1.230493,-0.85603 -1.96706,-1.05437 -0.736566,-0.19834 -1.579751,-0.60115 -1.873743,-0.89514 -0.293992,-0.294 -1.055199,-0.70828 -1.69157,-0.92063 -0.636372,-0.21235 -1.553914,-0.73539 -2.038984,-1.16231 -0.485069,-0.42692 -1.637184,-1.20645 -2.560254,-1.73229 -0.923071,-0.52584 -1.939508,-1.35471 -2.25875,-1.84194 -0.319241,-0.48722 -1.151502,-1.17791 -1.849467,-1.53485 -0.697966,-0.35695 -2.267928,-1.73687 -3.488805,-3.06649 -1.220878,-1.32962 -2.447814,-2.65561 -2.726525,-2.94665 -0.278712,-0.29104 -1.105437,-1.15989 -1.837168,-1.93078 -0.73173,-0.77089 -1.785939,-1.84448 -2.342685,-2.38575 -1.799072,-1.74908 -3.044678,-3.52235 -3.044678,-4.33446 0,-0.46327 -0.378871,-1.04111 -0.911411,-1.39004 -0.501275,-0.32845 -1.13387,-1.1296 -1.405765,-1.78034 -0.271896,-0.65074 -0.646919,-1.27745 -0.833385,-1.39269 -0.346642,-0.21424 -3.199439,-5.87989 -3.199439,-6.35409 0,-0.14407 -0.377181,-0.7102 -0.838179,-1.25806 -0.559229,-0.66461 -0.923248,-1.67698 -1.093788,-3.04194 -0.179851,-1.43948 -0.48947,-2.26256 -1.04466,-2.77709 -0.535308,-0.49611 -0.858179,-1.31494 -1.004011,-2.54627 -0.118228,-0.99825 -0.461629,-2.29201 -0.763114,-2.87501 -0.301485,-0.58301 -0.869914,-2.77436 -1.263176,-4.86966 -0.393262,-2.09531 -0.963154,-4.38326 -1.266427,-5.08433 -0.471491,-1.08994 -0.529335,-2.80272 -0.399125,-11.81805 0.136284,-9.43579 0.229759,-10.79388 0.889813,-12.92793 0.405643,-1.31151 0.848643,-3.6583 0.984445,-5.2151 0.160788,-1.84324 0.460733,-3.10335 0.859927,-3.61267 0.337158,-0.43017 0.729812,-1.33775 0.872563,-2.01685 0.142751,-0.6791 0.626568,-1.6316 1.07515,-2.11666 0.485986,-0.52552 0.915621,-1.56424 1.063089,-2.57022 0.136118,-0.92855 0.625489,-2.24528 1.08749,-2.92608 0.462002,-0.6808 0.840003,-1.33216 0.840003,-1.44747 0,-0.31424 2.742385,-5.74693 3.633078,-7.19716 0.427154,-0.69549 1.428167,-2.04487 2.224472,-2.99861 0.796305,-0.95374 1.907555,-2.43011 2.469444,-3.28082 0.561889,-0.85071 1.283529,-1.93895 1.603645,-2.4183 0.320115,-0.47935 1.391678,-1.63168 2.38125,-2.56074 0.989572,-0.92906 1.799222,-1.87299 1.799222,-2.09762 0,-0.22464 0.555625,-0.64058 1.234722,-0.92433 0.679097,-0.28374 1.2349,-0.7122 1.235118,-0.95214 7.52e-4,-0.82798 3.565063,-3.8568 8.001945,-6.79977 1.005802,-0.66714 1.929385,-1.37585 2.052408,-1.57491 0.123022,-0.19905 0.808218,-0.66545 1.522658,-1.03645 0.71444,-0.37099 1.823863,-1.16169 2.465385,-1.75711 0.641522,-0.59542 1.594022,-1.18274 2.116666,-1.30516 0.522645,-0.12242 1.744013,-0.66086 2.714152,-1.19653 1.020968,-0.56375 2.630466,-1.07729 3.82137,-1.21928 1.369871,-0.16333 2.302301,-0.49014 2.790037,-0.97787 0.402905,-0.40291 1.452123,-0.86699 2.331594,-1.03129 0.879472,-0.16431 1.92583,-0.5954 2.325241,-0.95798 0.515799,-0.46825 1.538112,-0.72926 3.5285,-0.90088 1.541264,-0.1329 3.684389,-0.57916 4.7625,-0.99169 1.817671,-0.69551 2.776891,-0.76005 13.192045,-0.88753 9.37757,-0.11478 11.32862,-0.0541 11.81805,0.36726 0.33988,0.29265 2.47588,0.75068 5.08325,1.09002 2.62845,0.34209 5.04709,0.86211 5.82083,1.25149 0.72809,0.36642 2.08595,0.77189 3.01747,0.90106 1.32084,0.18315 1.76105,0.41207 1.99976,1.03994 0.24602,0.64707 0.66194,0.84724 2.11908,1.01981 1.16702,0.13822 2.17381,0.51835 2.82571,1.06688 0.55701,0.46869 1.6194,0.96238 2.36087,1.09709 0.74147,0.13472 1.90375,0.59502 2.58285,1.0229 0.6791,0.42789 1.55222,0.97653 1.94028,1.21921 0.38806,0.24268 1.53899,0.84568 2.55764,1.34001 1.01864,0.49432 1.85208,1.05152 1.85208,1.23822 0,0.1867 0.69985,0.63944 1.55521,1.0061 0.85536,0.36665 1.6888,0.90256 1.85208,1.19092 0.16328,0.28836 1.17,1.11514 2.23716,1.8373 2.01894,1.36624 3.62053,2.89614 4.23626,4.04665 0.19765,0.36932 0.87317,0.92909 1.50114,1.24392 1.23848,0.6209 3.80732,3.67268 4.74284,5.63449 0.32072,0.67256 0.87372,1.31508 1.22888,1.4278 0.35516,0.11272 1.30998,1.18589 2.12183,2.38482 0.81185,1.19894 1.67046,2.37687 1.90803,2.61763 0.23757,0.24076 0.62657,1.03451 0.86445,1.76389 0.23788,0.72937 0.72692,1.70473 1.08676,2.16746 0.35984,0.46273 0.65425,1.04586 0.65425,1.29585 0,0.24999 0.37323,0.90327 0.8294,1.45173 0.45617,0.54847 1.2716,2.02908 1.81207,3.29026 0.54046,1.26118 1.42685,3.28089 1.96975,4.48823 0.5429,1.20735 1.0932,2.9536 1.2229,3.88056 0.1297,0.92696 0.59897,2.47913 1.04281,3.44927 0.5298,1.15801 0.88583,2.79388 1.03649,4.7625 0.34284,4.47952 0.55846,5.59909 1.2028,6.24531 0.51549,0.51701 0.58424,1.68187 0.57736,9.7826 -0.007,8.80706 -0.0395,9.24043 -0.75859,10.25403 -0.62795,0.88518 -0.78373,1.74491 -0.95214,5.25469 -0.16683,3.47682 -0.34535,4.4749 -1.04115,5.82083 -0.46189,0.89347 -0.94354,2.40663 -1.07033,3.36259 -0.1268,0.95596 -0.45147,1.98783 -0.7215,2.29305 -0.27003,0.30522 -0.7506,1.58 -1.06794,2.83283 -0.31733,1.25284 -0.80578,2.53072 -1.08544,2.83974 -0.27966,0.30902 -0.74435,1.2304 -1.03264,2.04752 -0.54749,1.55174 -2.22518,4.19785 -3.14613,4.96217 -0.29494,0.24478 -0.63797,0.90817 -0.76229,1.4742 -0.12433,0.56602 -0.6721,1.34676 -1.21729,1.73497 -0.60984,0.43424 -1.07663,1.16096 -1.21315,1.88867 -0.22457,1.19708 -1.2736,2.41596 -2.43189,2.82566 -0.34831,0.12319 -0.87217,0.7957 -1.16413,1.49446 -0.68429,1.63775 -8.03094,9.01327 -9.95646,9.9956 -0.81141,0.41395 -1.47529,0.97109 -1.47529,1.23809 0,0.75534 -2.39669,2.67521 -3.33964,2.67521 -0.52972,0 -1.11675,0.38072 -1.57132,1.0191 -0.39911,0.56051 -1.16399,1.12851 -1.69971,1.26221 -0.53573,0.13371 -1.21217,0.45414 -1.50322,0.71208 -0.29104,0.25794 -1.87854,1.1683 -3.52777,2.02304 -1.64924,0.85473 -3.54907,1.89677 -4.22185,2.31564 -0.67277,0.41887 -1.94277,0.86585 -2.82222,0.99328 -0.87944,0.12742 -1.86451,0.50902 -2.18904,0.84799 -0.35304,0.36875 -1.41585,0.71484 -2.64584,0.8616 -1.13068,0.1349 -2.69078,0.57164 -3.46689,0.97051 -1.0175,0.52295 -2.69032,0.84079 -5.99722,1.13952 -2.52236,0.22786 -4.95406,0.61605 -5.40377,0.86265 -0.66833,0.36647 -8.62499,1.24678 -9.23651,1.02192 -0.097,-0.0357 -1.66235,-0.11748 -3.47853,-0.18179 z m 12.29798,-34.24937 5.46805,-0.6142 6.35,-4.27462 c 5.05537,-3.40312 7.08242,-5.0188 9.94241,-7.92473 3.35232,-3.40617 3.78438,-4.01555 6.46491,-9.11816 2.58069,-4.91255 2.99585,-5.98239 4.08654,-10.53076 1.2052,-5.02589 1.21244,-5.1054 0.99517,-10.93611 -0.25926,-6.95786 -1.0237,-10.35703 -3.74061,-16.63313 -2.0758,-4.79513 -5.88895,-10.25771 -9.63453,-13.80206 -4.87572,-4.61379 -14.55893,-9.74425 -20.85118,-11.04759 -1.37871,-0.28558 -5.28439,-0.6979 -8.67928,-0.91627 l -6.17253,-0.39704 -3.844332,1.13243 c -9.935746,2.92679 -18.079399,8.53437 -24.628005,16.95842 -6.221619,8.00342 -8.320496,14.32996 -8.320496,25.08006 0,4.13379 0.110254,4.96696 1.067969,8.07049 1.508056,4.88695 3.568117,9.68531 6.208513,14.46107 1.963097,3.55071 2.671553,4.47351 5.172015,6.73677 5.166181,4.6761 9.503002,7.90207 14.362612,10.68369 l 4.7625,2.72604 4.938884,0.4504 c 6.83969,0.62375 9.7343,0.60487 16.05139,-0.1047 z"
       id="path1" /></g></svg>
