<?xml version="1.0" encoding="UTF-8" standalone="no"?>
<!-- Created with Inkscape (http://www.inkscape.org/) -->

<svg
   width="107.05709mm"
   height="154.0359mm"
   viewBox="0 0 107.05709 154.0359"
   version="1.1"
   id="svg1"
   xml:space="preserve"
   xmlns="http://www.w3.org/2000/svg"
   xmlns:svg="http://www.w3.org/2000/svg"><defs
     id="defs1" /><g
     id="layer1"
     transform="translate(-61.998189,-72.464385)"><path
       style="fill:#000000"
       d="m 64.418521,225.99633 c -1.82384,-0.57008 -1.93401,-0.66892 -1.83593,-1.64722 0.0574,-0.57241 0.0889,-17.78888 0.0701,-38.25881 -0.0241,-26.16558 -0.14994,-37.54533 -0.42373,-38.32013 -0.47094,-1.33271 -0.2458,-2.02421 0.90445,-2.77788 0.77917,-0.51053 3.72044,-0.57676 28.329368,-0.63791 l 27.459941,-0.0682 1.40588,-0.79375 c 0.77324,-0.43656 1.99608,-0.79375 2.71743,-0.79375 1.70889,0 3.10863,-0.65497 3.10863,-1.45459 0,-0.37902 0.81921,-1.19238 2.02847,-2.014 3.05782,-2.07758 5.62395,-6.53426 6.44137,-11.18693 0.56124,-3.19452 0.053,-7.54857 -1.05623,-9.0489 -0.87733,-1.18665 -1.76917,-3.55604 -1.76917,-4.70024 0,-0.59426 -0.33933,-0.93516 -1.32291,-1.32899 -0.72761,-0.29134 -1.62534,-0.8642 -1.99496,-1.27303 -0.36962,-0.40882 -0.84938,-0.74332 -1.06615,-0.74332 -0.21676,0 -1.01873,-0.51486 -1.78215,-1.14414 -0.77851,-0.64171 -2.40171,-1.44701 -3.69635,-1.83384 -2.17823,-0.65082 -3.86234,-0.70065 -29.884971,-0.88432 l -27.576668,-0.19464 -0.8999,-0.84563 c -1.26136,-1.18528 -1.75607,-2.83957 -1.23527,-4.13064 0.44029,-1.09146 0.55398,-21.38835 0.1357,-24.224765 -0.40311,-2.733551 1.23843,-5.251609 3.40695,-5.226131 0.65008,0.0076 14.43759,0.107147 30.638908,0.221132 27.409501,0.192841 29.518241,0.250617 30.338891,0.831224 0.48507,0.343187 2.11767,0.821889 3.628,1.063781 2.96487,0.474847 7.20439,2.196237 7.91792,3.214951 0.2685,0.383335 1.12029,0.72365 2.17398,0.86857 1.16267,0.159907 1.99628,0.519053 2.53446,1.091921 0.44108,0.469503 1.06622,0.853641 1.38921,0.853641 0.32299,0 1.1859,0.436563 1.91757,0.970139 1.1267,0.821643 2.3571,1.866743 6.89719,5.858457 1.55071,1.363411 5.17853,5.768811 5.58859,6.78644 0.26032,0.646039 0.73657,1.264021 1.05833,1.373295 0.75978,0.258028 2.37728,2.939844 2.92739,4.853595 0.23732,0.82562 0.68832,1.898 1.00222,2.38307 0.93306,1.44186 2.75358,5.38952 2.99982,6.50487 0.12589,0.57025 0.52822,1.45719 0.89407,1.97098 1.55735,2.18709 1.7337,23.09533 0.21936,26.00715 -0.32765,0.63003 -0.74916,2.37628 -0.93668,3.88056 -0.24714,1.98252 -0.5282,2.88991 -1.02152,3.29786 -0.37431,0.30955 -0.86734,1.25646 -1.09563,2.10425 -0.22829,0.84779 -0.70823,1.91414 -1.06654,2.36965 -0.35831,0.45552 -0.84129,1.4136 -1.0733,2.12908 -0.46686,1.43976 -1.41888,2.931 -2.7797,4.35412 -0.49257,0.51512 -1.4512,1.68116 -2.1303,2.5912 -0.6791,0.91004 -1.649,2.07927 -2.15535,2.59829 -0.50634,0.51902 -1.0285,1.25798 -1.16035,1.64214 -0.13185,0.38415 -1.34299,1.57159 -2.69143,2.63874 -1.34845,1.06715 -3.36629,2.69502 -4.4841,3.61748 -1.11781,0.92246 -2.56125,1.82604 -3.20765,2.00797 -0.6464,0.18192 -1.55163,0.73687 -2.01163,1.23321 -0.46,0.49635 -1.21717,0.90245 -1.6826,0.90245 -0.46544,0 -1.57395,0.38692 -2.46336,0.85983 -0.88941,0.4729 -2.518,1.02636 -3.61909,1.22991 -1.10109,0.20355 -2.50078,0.67836 -3.11042,1.05514 -0.77497,0.47896 -2.51541,0.84863 -5.78516,1.22877 -2.5722,0.29905 -5.03251,0.74701 -5.46737,0.99546 -0.98214,0.56112 -19.21114,0.7391 -21.000841,0.20504 -2.36665,-0.70624 -2.25927,-1.87511 -2.04609,22.27344 0.10549,11.94888 0.0763,22.13296 -0.0648,22.63128 -0.14116,0.49832 -0.81228,1.38815 -1.49137,1.9774 l -1.23473,1.07137 -13.934718,0.1952 c -12.53482,0.1756 -14.12964,0.13428 -15.875,-0.41126 z"
       id="path1" /></g></svg>
