<?xml version="1.0" encoding="UTF-8" standalone="no"?>
<!-- Created with Inkscape (http://www.inkscape.org/) -->

<svg
   width="153.8116mm"
   height="153.93549mm"
   viewBox="0 0 153.8116 153.93549"
   version="1.1"
   id="svg1"
   xml:space="preserve"
   xmlns="http://www.w3.org/2000/svg"
   xmlns:svg="http://www.w3.org/2000/svg"><defs
     id="defs1" /><g
     id="layer1"
     transform="translate(-22.853187,-90.240521)"><path
       style="fill:#000000"
       d="m 138.01832,243.78657 c -1.64124,-0.80831 -3.18766,-2.34733 -4.02644,-4.00716 -1.16797,-2.31124 -2.04417,-2.53746 -4.6129,-1.19097 -1.29646,0.67959 -2.90599,1.1961 -4.14792,1.3311 -1.11617,0.12133 -2.58503,0.54811 -3.26413,0.94841 -0.79053,0.46599 -2.4801,0.88299 -4.69651,1.15913 -2.41269,0.3006 -3.68021,0.62888 -4.1825,1.08325 -0.67215,0.60803 -1.55576,0.65194 -13.118759,0.65194 -11.5009,0 -12.48689,-0.0484 -13.62569,-0.66836 -0.73552,-0.40044 -2.77331,-0.8586 -5.08353,-1.14294 -2.12074,-0.26101 -4.10831,-0.69412 -4.41681,-0.96246 -0.30851,-0.26834 -1.42671,-0.69043 -2.4849,-0.93797 -1.0582,-0.24755 -2.80445,-0.8334 -3.88056,-1.3019 -2.32152,-1.0107 -7.02798,-3.2273 -7.7774,-3.66292 -3.03591,-1.7647 -5.65962,-3.44326 -6.53653,-4.18185 -0.58767,-0.49496 -1.89326,-1.45556 -2.90132,-2.13466 -1.00807,-0.67909 -1.83694,-1.44126 -1.84194,-1.69369 -0.005,-0.25244 -0.59972,-0.70575 -1.32159,-1.00737 -1.68748,-0.70507 -4.68522,-3.38586 -5.47398,-4.89522 -0.33707,-0.64502 -0.8927,-1.2683 -1.23472,-1.38508 -0.34203,-0.11678 -1.57436,-1.4017 -2.73853,-2.85537 -1.16417,-1.45367 -2.55323,-3.11427 -3.08681,-3.69022 -0.53357,-0.57595 -0.97013,-1.30548 -0.97013,-1.62118 0,-0.3157 -0.43657,-1.08744 -0.97014,-1.71498 -0.53358,-0.62754 -1.24699,-1.601 -1.58535,-2.16324 -0.33837,-0.56224 -1.1124,-1.81601 -1.72007,-2.78615 -0.60767,-0.97013 -1.31388,-2.35327 -1.56936,-3.07364 -0.25547,-0.72036 -0.7903,-1.75224 -1.18849,-2.29305 -0.45405,-0.61667 -0.81033,-1.81622 -0.95553,-3.21716 -0.19473,-1.87886 -0.35746,-2.28173 -1.02399,-2.53514 -0.63026,-0.23963 -0.84455,-0.68496 -1.04696,-2.17587 -0.13998,-1.03102 -0.55398,-2.46519 -0.91999,-3.18705 -0.36601,-0.72187 -0.91453,-3.02374 -1.21894,-5.11528 -0.3044,-2.09154 -0.8007,-4.57059 -1.10289,-5.509 -0.4659,-1.44681 -0.51988,-3.27022 -0.35511,-11.99444 0.17026,-9.01523 0.28191,-10.55461 0.9023,-12.44088 0.3894,-1.18394 0.87747,-3.37114 1.08462,-4.86045 0.20714,-1.4893 0.69511,-3.3321 1.08437,-4.09512 0.38926,-0.76302 0.70775,-1.68795 0.70775,-2.0554 0,-0.36745 0.3815,-1.07974 0.84778,-1.58286 0.47115,-0.50839 0.95533,-1.58914 1.08988,-2.43277 0.13316,-0.83489 0.61854,-2.10046 1.07862,-2.81236 0.46007,-0.71191 0.94497,-1.74378 1.07755,-2.29306 0.31763,-1.31592 2.13428,-4.93866 2.63025,-5.24518 0.21442,-0.13253 0.68061,-0.91923 1.03596,-1.74823 0.8608,-2.00816 4.53251,-6.78044 7.58572,-9.85946 1.35816,-1.36964 2.63247,-2.80776 2.83181,-3.19581 0.19933,-0.38806 0.95343,-0.98462 1.67576,-1.3257 0.72233,-0.34107 1.31333,-0.84911 1.31333,-1.12896 0,-0.27986 0.73943,-1.11205 1.64318,-1.84931 0.90374,-0.73726 1.9011,-1.5786 2.21635,-1.86964 0.31524,-0.29105 1.33054,-1.0848 2.25621,-1.76389 0.92566,-0.6791 2.32458,-1.75066 3.10869,-2.38125 0.78411,-0.63059 1.63659,-1.14653 1.89438,-1.14653 0.2578,0 0.91747,-0.36715 1.46593,-0.8159 0.54846,-0.44874 1.71326,-1.082351 2.58843,-1.408021 0.87517,-0.32567 2.80263,-1.21166 4.28325,-1.96885 1.48062,-0.7572 3.38394,-1.48758 4.22961,-1.62306 0.84567,-0.13549 2.09321,-0.62043 2.77231,-1.07766 1.67585,-1.12832 6.94679,-2.43603 12.69999,-3.15084 2.61938,-0.325448 5.55625,-0.822108 6.52639,-1.103698 1.41117,-0.40959 3.13952,-0.46523 8.643059,-0.27823 4.27024,0.14509 7.21364,0.39848 7.76111,0.66812 0.48507,0.23891 2.46944,0.62766 4.40972,0.863888 1.94028,0.23623 4.19255,0.72014 5.00504,1.07535 0.8125,0.35521 2.4,0.83387 3.52778,1.06369 1.12778,0.22982 2.39031,0.73072 2.80561,1.11311 0.43187,0.39763 1.56447,0.80891 2.64584,0.96078 1.12094,0.15742 2.44938,0.64987 3.26288,1.20954 0.75468,0.5192 1.52392,0.944 1.70943,0.944 0.1855,0 0.75866,0.29547 1.27368,0.65659 0.51503,0.36112 1.53294,0.85009 2.26203,1.08659 0.72909,0.236501 1.48184,0.721881 1.67276,1.078621 0.19093,0.35675 0.8365,0.75611 1.43461,0.88748 0.59811,0.13137 1.59162,0.67601 2.20779,1.21033 0.61618,0.53431 1.5172,1.06969 2.00227,1.18973 0.48507,0.12004 1.51695,0.82117 2.29306,1.55807 0.77611,0.7369 2.15527,1.93509 3.0648,2.66263 0.90954,0.72755 1.75017,1.62676 1.86808,1.99826 0.11791,0.37149 0.67503,0.9671 1.23804,1.32358 0.56302,0.35648 2.30378,2.12339 3.86836,3.92647 1.56458,1.80307 3.41479,3.86401 4.11158,4.57985 0.69679,0.71584 1.55132,1.85715 1.89895,2.53625 0.34763,0.67909 0.96645,1.53713 1.37515,1.90676 0.4087,0.36962 0.74309,1.03883 0.74309,1.48714 0,0.44831 0.47625,1.3023 1.05833,1.89776 0.58209,0.59546 1.05834,1.38251 1.05834,1.74899 0,0.36648 0.39452,1.13518 0.87671,1.70823 0.48219,0.57306 1.43991,2.37117 2.12826,3.99582 0.68836,1.62465 1.55032,3.58891 1.91548,4.36502 0.36516,0.77611 0.83697,2.56953 1.04847,3.98537 0.21683,1.4516 0.6849,2.9901 1.07328,3.52778 0.53666,0.74297 0.76272,1.9214 1.02379,5.33696 0.29854,3.90594 0.42051,4.44793 1.11968,4.97531 0.7827,0.59039 0.78425,0.61425 0.62843,9.6342 -0.14713,8.51625 -0.19847,9.08883 -0.88243,9.84136 -0.61421,0.67579 -0.76132,1.44884 -0.95384,5.01246 -0.18227,3.37379 -0.3756,4.46347 -0.97013,5.46806 -0.40838,0.69003 -0.87375,2.28648 -1.03417,3.54766 -0.31015,2.43835 -1.96256,6.85916 -3.10821,8.31562 -0.37958,0.48255 -0.79505,1.49828 -0.92326,2.25717 -0.12882,0.76246 -0.84983,2.2178 -1.61152,3.25281 -0.75813,1.03016 -1.68297,2.52518 -2.05521,3.32228 -0.37225,0.79711 -0.98539,1.52997 -1.36255,1.6286 -0.46992,0.12289 -0.75401,0.60006 -0.90268,1.51621 -0.11932,0.73529 -0.61696,1.75442 -1.10587,2.26472 -1.49022,1.55546 -1.5151,2.81637 -0.0892,4.52301 0.67395,0.80667 1.91785,2.67969 2.76422,4.16227 0.84637,1.48258 1.85635,3.19977 2.24441,3.81598 0.38805,0.6162 1.02305,1.64713 1.41111,2.29094 0.38806,0.64382 1.14212,1.73286 1.67569,2.4201 0.53358,0.68724 0.97014,1.37331 0.97014,1.5246 0,0.15129 0.85434,1.31736 1.89853,2.59125 1.73946,2.12211 1.91931,2.51019 2.1465,4.6317 0.19702,1.83975 0.13145,2.49336 -0.31916,3.18107 l -0.56713,0.86556 H 158.5231 c -8.40728,0 -16.22205,0.0831 -17.36617,0.18457 -1.44495,0.12821 -2.40343,0.0254 -3.13856,-0.33666 z M 111.20721,209.4882 c 2.13431,-0.70201 3.92028,-1.30767 3.96883,-1.34591 0.0485,-0.0382 -2.42261,-4.50126 -5.49145,-9.91783 l -5.57971,-9.8483 16.81981,-0.0915 16.81982,-0.0916 1.41785,-3.09508 c 1.80037,-3.93013 3.15283,-10.33811 3.40324,-16.12459 0.15169,-3.50555 0.0177,-5.29467 -0.7797,-10.40694 l -0.96289,-6.17361 -3.83,-6.59801 c -5.31727,-9.16016 -8.31792,-12.53477 -14.53986,-16.35195 l -4.47583,-2.74594 -6.38366,-1.52446 c -6.28871,-1.50178 -6.47766,-1.52451 -12.701869,-1.52774 l -6.31819,-0.003 -6.008,1.82179 c -5.85484,1.77535 -6.14341,1.9089 -11.32069,5.23933 -5.20421,3.34777 -5.39307,3.51365 -9.24896,8.12367 -3.91116,4.67611 -3.94901,4.73909 -5.93613,9.87863 -1.09992,2.84488 -2.45905,7.21974 -3.02027,9.72191 -0.92625,4.12959 -1.00355,4.97258 -0.83768,9.1355 0.10166,2.5514 0.58869,6.84911 1.09773,9.68676 l 0.91501,5.10065 2.62698,4.31709 c 5.70122,9.36916 11.74182,14.93182 21.55082,19.84568 4.27879,2.14347 5.68957,2.6612 9.67985,3.55227 4.34527,0.97035 5.04014,1.03114 9.962729,0.87148 4.88461,-0.15842 5.59017,-0.26981 9.17222,-1.448 z"
       id="path1" /></g></svg>
