<?xml version="1.0" encoding="UTF-8" standalone="no"?>
<!-- Created with Inkscape (http://www.inkscape.org/) -->

<svg
   width="109.71715mm"
   height="153.85826mm"
   viewBox="0 0 109.71715 153.85826"
   version="1.1"
   id="svg1"
   xml:space="preserve"
   xmlns="http://www.w3.org/2000/svg"
   xmlns:svg="http://www.w3.org/2000/svg"><defs
     id="defs1" /><g
     id="layer1"
     transform="translate(-52.133575,-82.515961)"><path
       style="fill:#000000"
       d="m 54.012033,236.1725 c -1.7779,-0.35857 -1.69489,1.72155 -1.79493,-44.97653 -0.0841,-39.27423 -0.0371,-43.80656 0.4644,-44.77642 1.10224,-2.13149 0.39681,-2.0817 29.5158,-2.08315 l 26.557847,-0.001 2.11667,-1.05568 c 1.2121,-0.60453 2.68,-1.05625 3.43485,-1.05701 1.16346,-0.001 1.37663,-0.1412 1.81609,-1.19298 0.27385,-0.65541 0.66901,-1.2974 0.87813,-1.42665 0.20913,-0.12925 0.92474,-1.06144 1.59025,-2.07154 1.09266,-1.65842 1.23416,-2.16664 1.4589,-5.23999 0.21646,-2.96018 0.14471,-3.76424 -0.55094,-6.17361 -0.56164,-1.94524 -1.14486,-3.13785 -1.95852,-4.00489 -0.63728,-0.67909 -1.31459,-1.64925 -1.50513,-2.1559 -0.28421,-0.75571 -0.62709,-0.95281 -1.90898,-1.09729 -0.8594,-0.0969 -2.07551,-0.55547 -2.70247,-1.01911 l -1.13992,-0.84297 -27.928347,-0.17639 c -30.53807,-0.19287 -29.10755,-0.0851 -29.86233,-2.25024 -0.46502,-1.33397 -0.48626,-29.119315 -0.0232,-30.337295 0.18474,-0.4859 0.70067,-1.07901 1.14652,-1.31802 0.62572,-0.33543 7.67947,-0.42533 30.92222,-0.39407 16.561357,0.0223 30.610737,0.14592 31.220827,0.27477 0.61009,0.12886 1.5855,0.5142 2.16759,0.85631 0.58208,0.34211 1.81035,0.71854 2.72948,0.83652 1.86243,0.23905 5.393,1.88761 6.3776,2.97795 0.35224,0.39006 1.1863,0.81161 1.85348,0.93677 0.66718,0.12516 1.49816,0.53359 1.84662,0.90762 0.34846,0.37402 1.31082,0.919 2.13858,1.21105 0.82776,0.29205 2.01047,0.87862 2.62824,1.30349 2.35539,1.61991 10.82461,10.823715 10.82461,11.763485 0,0.27876 0.3119,0.67376 0.69312,0.87778 0.38121,0.20402 0.88757,1.04304 1.12524,1.86449 0.23767,0.82146 0.77625,1.91538 1.19684,2.43095 0.42059,0.51557 0.87236,1.6106 1.00393,2.43338 0.13156,0.82279 0.61259,1.93971 1.06893,2.48205 0.71121,0.84522 1.61472,4.15786 1.61472,5.92022 0,0.23449 0.32847,0.87064 0.72993,1.41364 0.7004,0.94734 0.72327,1.31431 0.56528,9.06975 -0.0906,4.44535 -0.31933,9.03495 -0.50838,10.19912 -0.52851,3.2546 -1.76649,7.05139 -2.52215,7.73525 -0.43332,0.39215 -0.82786,1.48865 -1.08572,3.01746 -0.29418,1.74408 -0.6395,2.62171 -1.26146,3.20601 -0.47101,0.4425 -0.85639,1.06329 -0.85639,1.37954 0,1.52183 -5.48021,7.72311 -11.71352,13.25472 -2.35738,2.09201 -2.36392,2.103 -2.05793,3.4557 0.16883,0.74635 0.62021,1.69885 1.00307,2.11666 0.8987,0.98075 2.2715,3.76656 3.0689,6.22771 0.34575,1.06715 0.98874,2.65465 1.42887,3.52778 0.44012,0.87312 1.22175,2.54 1.73696,3.70417 0.5152,1.16416 1.80184,3.86291 2.8592,5.99722 1.05737,2.1343 1.9198,4.2672 1.91652,4.73976 -0.003,0.47256 0.32502,1.21152 0.72955,1.64212 0.40453,0.43061 0.89046,1.47271 1.07984,2.3158 0.18939,0.84308 0.65708,1.86584 1.03932,2.2728 0.42147,0.44874 0.83362,1.62882 1.04726,2.99862 0.23385,1.4993 0.58683,2.45628 1.04991,2.84642 0.66746,0.56234 2.44421,3.96729 2.45456,4.70392 0.003,0.19403 0.47984,1.06715 1.06027,1.94028 0.58042,0.87312 1.05599,1.83515 1.05682,2.13784 8.3e-4,0.30268 0.55713,1.67818 1.23623,3.05665 0.6791,1.37848 1.23472,2.60267 1.23472,2.72042 0,0.11776 0.40657,0.82847 0.90348,1.57936 0.57595,0.8703 0.9771,2.07854 1.10655,3.33278 0.13134,1.27258 0.43525,2.17765 0.86041,2.56241 1.03826,0.93962 0.83364,2.13499 -0.48919,2.85773 -1.04165,0.56912 -2.59859,0.63577 -17.02152,0.72871 -13.95947,0.0899 -16.05599,0.0332 -17.3749,-0.47038 -1.77348,-0.67712 -2.55705,-1.66112 -2.55705,-3.21112 0,-0.69924 -0.34672,-1.54121 -0.91066,-2.21141 -0.50086,-0.59524 -1.5321,-2.60374 -2.29164,-4.46334 -0.75955,-1.85959 -1.61975,-3.72196 -1.91157,-4.13858 -0.29182,-0.41663 -0.53058,-1.26563 -0.53058,-1.88667 0,-0.70578 -0.34928,-1.54425 -0.93153,-2.23623 -0.51235,-0.60889 -1.06921,-1.84398 -1.23748,-2.74466 -0.16826,-0.90068 -0.68451,-2.04186 -1.14721,-2.53597 -0.89595,-0.95675 -2.681,-4.29155 -2.681,-5.0086 0,-0.45768 -0.64741,-1.93109 -2.85605,-6.49999 -0.7575,-1.56701 -1.37728,-3.03996 -1.37728,-3.27323 0,-0.5518 -2.23993,-5.21267 -3.16111,-6.57767 -0.39282,-0.58208 -0.81702,-1.82591 -0.94266,-2.76406 -0.12563,-0.93816 -0.44286,-1.78802 -0.70494,-1.88859 -0.26208,-0.10057 -0.66368,-0.84112 -0.89245,-1.64566 -0.22876,-0.80454 -0.7357,-1.82165 -1.12652,-2.26024 -0.39083,-0.4386 -0.80042,-1.47048 -0.91021,-2.29306 l -0.199607,-1.49561 h -6.70278 -6.70277 l -0.0625,1.76389 c -0.0344,0.97014 -0.0741,13.53349 -0.0882,27.91856 -0.0247,25.20208 -0.0502,26.185 -0.69981,26.9875 l -0.67415,0.83283 -15.11266,0.0455 c -8.31196,0.0251 -15.45831,-0.0242 -15.88078,-0.10937 z"
       id="path1" /></g></svg>
