<?xml version="1.0" encoding="UTF-8" standalone="no"?>
<!-- Created with Inkscape (http://www.inkscape.org/) -->

<svg
   width="105.80925mm"
   height="153.50137mm"
   viewBox="0 0 105.80925 153.50137"
   version="1.1"
   id="svg1"
   xml:space="preserve"
   xmlns="http://www.w3.org/2000/svg"
   xmlns:svg="http://www.w3.org/2000/svg"><defs
     id="defs1" /><g
     id="layer1"
     transform="translate(-54.577791,-70.482498)"><path
       style="fill:#000000"
       d="m 100.69846,223.56145 c -0.17067,-0.51199 -2.472635,-0.90621 -7.081183,-1.21267 -2.977811,-0.19801 -3.989101,-0.40221 -4.67878,-0.94471 -0.510283,-0.40139 -2.026365,-0.88458 -3.609406,-1.15036 -2.477212,-0.4159 -6.814404,-2.2002 -7.314311,-3.00907 -0.102323,-0.16556 -0.938236,-0.55362 -1.857586,-0.86236 -0.919349,-0.30873 -2.465294,-1.12293 -3.435433,-1.80933 -0.970139,-0.68639 -2.254747,-1.55806 -2.854685,-1.93704 -0.599938,-0.37898 -1.271222,-1.08504 -1.491743,-1.56903 -0.221198,-0.48548 -0.699315,-0.87998 -1.066489,-0.87998 -0.88485,0 -2.422412,-1.23901 -2.726491,-2.19707 -0.133986,-0.42216 -1.135557,-1.6654 -2.225713,-2.76275 -1.090155,-1.09736 -2.344146,-2.53376 -2.786645,-3.192 -0.781658,-1.16275 -1.098743,-1.62052 -3.817793,-5.51166 -1.169268,-1.6733 -1.273551,-2.01186 -1.118081,-3.62986 0.21444,-2.23173 1.721959,-4.26017 3.484098,-4.68805 3.331488,-0.80893 3.77175,-0.98825 3.93212,-1.60151 0.222193,-0.84966 3.606969,-2.52266 5.103807,-2.52266 0.900186,0 1.263956,-0.19958 1.563996,-0.8581 0.215037,-0.47195 0.886321,-1.04486 1.491742,-1.27312 1.946783,-0.73399 5.660203,-2.5567 6.576935,-3.22826 1.008958,-0.73911 4.037503,-1.20266 5.484589,-0.83946 1.340793,0.33651 3.832,3.08095 4.342079,4.78344 0.316617,1.05677 0.608256,1.4155 1.150767,1.4155 0.844019,0 3.125561,2.14487 3.125561,2.93832 0,0.37203 0.622897,0.66875 2.007177,0.95613 1.103947,0.22917 2.447326,0.7421 2.985286,1.13983 0.638917,0.47237 1.869679,0.82317 3.549077,1.01157 1.414025,0.15864 3.285325,0.39321 4.158455,0.52128 0.90809,0.1332 3.90094,-0.0449 6.99302,-0.41605 4.42519,-0.53122 5.46715,-0.76407 5.74536,-1.28391 0.18691,-0.34925 0.88813,-0.86409 1.55825,-1.14408 0.85089,-0.35552 1.15594,-0.67189 1.01131,-1.0488 -0.11391,-0.29684 0.11051,-1.05968 0.49871,-1.69519 1.38607,-2.26909 1.62572,-3.83081 1.11588,-7.27182 -0.46389,-3.13086 -0.47824,-3.16118 -2.72019,-5.74751 -1.51152,-1.7437 -2.67853,-2.74806 -3.54328,-3.04945 -0.70919,-0.24717 -1.69104,-0.83406 -2.18189,-1.3042 -0.49085,-0.47014 -1.47691,-1.09894 -2.19124,-1.39734 -0.71434,-0.29839 -1.39124,-0.6921 -1.50422,-0.87492 -0.11299,-0.18281 -0.79853,-0.52227 -1.52343,-0.75435 -0.7249,-0.23208 -1.66375,-0.73684 -2.08633,-1.12168 -0.42259,-0.38485 -2.07806,-1.3087 -3.67884,-2.05302 -1.600775,-0.74431 -3.047419,-1.59795 -3.214763,-1.89698 -0.167344,-0.29902 -1.157633,-0.79176 -2.200641,-1.09497 -1.043008,-0.30321 -2.081125,-0.7739 -2.306926,-1.04598 -0.225801,-0.27207 -0.993161,-0.67531 -1.705244,-0.89608 -1.900508,-0.58923 -6.282029,-2.75962 -6.778361,-3.35766 -0.235841,-0.28417 -1.057917,-0.61727 -1.826835,-0.74023 -0.768918,-0.12295 -1.819864,-0.56253 -2.335434,-0.97683 -0.51557,-0.41431 -1.5724,-1.15555 -2.348511,-1.6472 -4.573645,-2.89734 -5.868993,-3.8791 -7.9375,-6.01596 -3.915577,-4.04496 -5.804623,-6.30959 -6.233689,-7.47309 -0.227072,-0.61575 -1.139884,-2.53538 -2.028472,-4.26584 -0.888589,-1.73046 -1.615616,-3.55892 -1.615616,-4.06324 0,-0.50433 -0.415569,-1.52853 -0.923486,-2.27599 l -0.923487,-1.35904 -0.04665,-10.09994 -0.04665,-10.09994 1.304051,-3.70417 c 1.597091,-4.536554 2.690916,-7.470034 2.827021,-7.581664 0.05624,-0.0461 0.438478,-0.25849 0.849408,-0.47191 0.42136,-0.21884 0.847114,-0.88787 0.976406,-1.53433 0.24043,-1.20215 1.803574,-3.1121 2.54701,-3.1121 0.238916,0 0.776032,-0.55278 1.193591,-1.22841 0.41756,-0.67562 1.252795,-1.57988 1.856079,-2.00945 0.603284,-0.42958 1.634966,-1.37665 2.292627,-2.1046 0.657661,-0.72795 2.41506,-2.03361 3.905332,-2.90146 1.490272,-0.86785 3.139674,-1.91471 3.665338,-2.32635 0.540582,-0.42333 1.730732,-0.84023 2.739811,-0.95974 1.487757,-0.17621 1.81836,-0.34796 1.990588,-1.03417 0.15502,-0.61766 0.527501,-0.87363 1.493521,-1.02637 0.707847,-0.11193 1.946871,-0.5037 2.753387,-0.87062 0.806516,-0.36692 3.425891,-0.92681 5.820833,-1.2442 2.394942,-0.3174 5.068812,-0.80369 5.941942,-1.08065 1.93505,-0.61382 14.22437,-0.69064 16.40416,-0.10254 0.77611,0.20939 2.91924,0.68268 4.7625,1.05176 5.46278,1.09381 8.98397,2.23998 10.93611,3.55978 0.48507,0.32795 1.65996,0.76985 2.61086,0.98201 0.9509,0.21216 2.1713,0.73689 2.712,1.16607 1.73674,1.37855 2.93307,2.18191 3.84307,2.58068 0.78282,0.34304 3.22663,2.19055 7.01746,5.30517 0.65468,0.5379 1.3449,1.42139 1.53381,1.96332 0.2043,0.58605 0.60061,0.98533 0.97799,0.98533 0.71719,0 2.82426,2.23138 2.82426,2.99088 0,0.27329 0.32662,0.72567 0.72583,1.00528 0.39921,0.27962 1.42214,1.59831 2.27318,2.93042 0.85104,1.33212 1.87379,2.84401 2.27277,3.35977 0.49929,0.6454 0.72544,1.461594 0.72544,2.618114 0,1.52555 -0.14312,1.8175 -1.5534,3.16879 -0.85436,0.81862 -2.16405,1.68409 -2.91041,1.92325 -0.74636,0.23917 -1.68216,0.73035 -2.07954,1.09152 -0.39738,0.36118 -1.27051,0.76306 -1.94028,0.89308 -0.66977,0.13003 -1.65273,0.59714 -2.18437,1.03802 -0.53164,0.44089 -1.84182,0.98331 -2.91151,1.20537 -1.1479,0.23831 -2.07606,0.64882 -2.26495,1.00178 -0.17603,0.32891 -1.83726,1.35625 -3.69162,2.28297 -1.85436,0.92673 -3.4598,1.82772 -3.56763,2.0022 -0.28659,0.46371 -3.11732,0.81896 -4.35667,0.54675 -1.62504,-0.35691 -4.22082,-2.81467 -4.49039,-4.25161 -0.15402,-0.82096 -0.57773,-1.428 -1.33533,-1.91308 -2.40317,-1.53873 -3.6121,-2.42196 -4.06953,-2.97312 -0.26289,-0.31677 -0.64444,-0.57594 -0.84788,-0.57594 -0.20344,0 -1.33494,-0.46781 -2.51444,-1.03959 -4.27505,-2.07237 -9.89836,-2.86277 -14.09584,-1.98128 -4.56717,0.95913 -5.60369,1.28411 -6.66007,2.08813 -3.852797,2.93241 -4.325341,3.61824 -4.685326,6.80009 -0.312846,2.76518 0.335041,5.87814 1.636548,7.86327 0.562452,0.85789 1.02264,1.91377 1.02264,2.34641 0,0.78882 0.992809,1.59594 3.873908,3.14936 0.71972,0.38806 1.56061,0.96138 1.86866,1.27404 0.30804,0.31267 1.20072,0.67093 1.98373,0.79614 0.85474,0.13668 1.56369,0.48932 1.77409,0.88244 0.19273,0.36013 0.87243,0.86302 1.51044,1.11754 0.638,0.25451 1.55688,0.7305 2.04195,1.05774 0.48507,0.32725 1.46456,0.7839 2.17664,1.01479 0.71208,0.23088 1.47885,0.64167 1.70391,0.91287 0.22507,0.27119 0.99183,0.68265 1.70392,0.91436 0.71208,0.23171 1.81616,0.87483 2.4535,1.42916 0.80084,0.69653 1.54076,1.00787 2.3953,1.00787 1.53738,0 3.74079,1.09402 4.61191,2.28988 0.43402,0.59582 1.30062,1.07317 2.54344,1.40102 1.0368,0.27351 2.16786,0.75318 2.51346,1.06594 0.3456,0.31276 1.24092,0.73779 1.98961,0.94451 0.74868,0.20672 1.81152,0.75474 2.36184,1.21781 0.55033,0.46307 1.22,0.84195 1.48815,0.84195 0.69431,0 6.73713,5.01499 10.60383,8.80021 0.4847,0.4745 1.11978,1.36531 1.41128,1.9796 0.29149,0.61428 0.89695,1.28407 1.34547,1.48843 0.56698,0.25833 0.94435,0.88334 1.23836,2.05096 0.23259,0.92366 0.81047,2.14001 1.28418,2.70299 0.47372,0.56298 0.86286,1.28924 0.86475,1.6139 0.002,0.32466 0.37486,1.38789 0.82882,2.36272 0.45395,0.97484 1.09753,2.9958 1.43019,4.49102 0.33265,1.49523 0.75344,2.81044 0.93508,2.9227 0.18959,0.11718 0.33025,3.64621 0.33025,8.28614 0,7.97219 -0.015,8.13563 -1.10115,12.02652 -1.32439,4.74421 -2.42817,7.33593 -3.64066,8.54843 -0.49645,0.49645 -0.90264,1.22689 -0.90264,1.62321 0,0.39632 -0.59531,1.37929 -1.32292,2.18439 -0.7276,0.8051 -1.64041,1.97954 -2.02847,2.60987 -0.38805,0.63032 -1.37119,1.67862 -2.18474,2.32956 -0.81356,0.65093 -2.32168,1.85035 -3.35139,2.66539 -1.02971,0.81503 -2.3716,1.88778 -2.98198,2.38389 -0.61038,0.49611 -1.67109,1.13655 -2.35713,1.4232 -0.68604,0.28664 -1.34439,0.6782 -1.46301,0.87013 -0.11862,0.19192 -1.02301,0.58871 -2.00977,0.88175 -0.98676,0.29303 -1.97213,0.67783 -2.18971,0.85511 -0.21758,0.17728 -1.25543,0.57593 -2.30633,0.88589 -1.05091,0.30996 -2.20098,0.82623 -2.55572,1.14726 -0.45703,0.41361 -1.75062,0.67606 -4.43926,0.90067 -2.08686,0.17434 -5.21561,0.62677 -6.95277,1.0054 -3.60799,0.7864 -13.434,1.00542 -13.66759,0.30465 z"
       id="path1" /></g></svg>
