<?xml version="1.0" encoding="UTF-8" standalone="no"?>
<!-- Created with Inkscape (http://www.inkscape.org/) -->

<svg
   width="132.64754mm"
   height="153.85707mm"
   viewBox="0 0 132.64754 153.85707"
   version="1.1"
   id="svg1"
   xml:space="preserve"
   xmlns="http://www.w3.org/2000/svg"
   xmlns:svg="http://www.w3.org/2000/svg"><defs
     id="defs1" /><g
     id="layer1"
     transform="translate(-40.302425,-74.051769)"><path
       style="fill:#000000"
       d="m 91.829956,227.0403 c -1.01865,-0.47771 -1.89014,-0.91556 -1.93666,-0.973 -0.0465,-0.0574 -0.16557,-26.53629 -0.26458,-58.84192 l -0.18001,-58.73749 -22.81193,-0.0328 c -16.86849,-0.0242 -23.07807,-0.14303 -23.83346,-0.45593 -1.30779,-0.5417 -2.22285,-2.09626 -2.24259,-3.80984 -0.009,-0.74024 -0.008,-6.267141 5.1e-4,-12.282001 0.009,-6.01486 -0.0782,-11.606803 -0.19324,-12.426543 -0.17027,-1.21285 -0.0357,-1.78652 0.7225,-3.08031 0.51245,-0.87444 1.24365,-1.75682 1.62488,-1.96085 0.75999,-0.40674 127.104514,-0.55233 128.159014,-0.14769 0.31947,0.1226 0.92037,0.77225 1.33534,1.44367 0.73912,1.19592 0.75411,1.51169 0.73649,15.512813 -0.0156,12.416531 -0.0912,14.403781 -0.57586,15.143481 -1.33267,2.03392 -0.26112,1.95036 -24.71756,1.92744 -16.35394,-0.0153 -22.6176,0.0887 -22.97041,0.38152 -0.40795,0.33857 -0.48508,9.50458 -0.48508,57.64168 0,31.4815 -0.10089,57.74351 -0.22419,58.36002 -0.14119,0.70595 -0.68592,1.47325 -1.4714,2.07257 l -1.2472,0.95164 -13.78625,0.091 -13.786234,0.0911 z"
       id="path1" /></g></svg>
