<?xml version="1.0" encoding="UTF-8" standalone="no"?>
<!-- Created with Inkscape (http://www.inkscape.org/) -->

<svg
   version="1.1"
   id="svg1"
   width="490.84546"
   height="580.12573"
   viewBox="0 0 490.84546 580.12573"
   xmlns="http://www.w3.org/2000/svg"
   xmlns:svg="http://www.w3.org/2000/svg">
  <defs
     id="defs1" />
  <g
     id="g1"
     transform="translate(-2926.8259,-3081.7881)">
    <path
       style="fill:#000000"
       d="m 3131.5678,3660.7254 c -2.2,-0.5713 -5.8,-1.9451 -8,-3.0528 -2.2,-1.1077 -8.5,-2.4142 -14,-2.9034 -6.4448,-0.5732 -12.1615,-2.0039 -16.0798,-4.0244 -3.3439,-1.7242 -8.901,-3.558 -12.349,-4.0751 -3.448,-0.5171 -7.6121,-1.9769 -9.2535,-3.2441 -1.6414,-1.2672 -5.6843,-3.2285 -8.9843,-4.3584 -3.3,-1.1299 -9.344,-4.0739 -13.431,-6.5422 -4.087,-2.4684 -9.487,-5.6879 -12,-7.1546 -2.513,-1.4667 -7.355,-5.5167 -10.7601,-9 -3.6871,-3.7718 -7.381,-6.3333 -9.1333,-6.3333 -3.3786,0 -12.009,-8.0296 -12.009,-11.1729 0,-1.1585 -2.4,-3.3307 -5.3333,-4.8271 -2.9333,-1.4965 -5.3333,-3.3043 -5.3333,-4.0175 0,-0.7131 -4.4398,-6.1181 -9.8662,-12.0111 -5.4265,-5.893 -10.9204,-12.9473 -12.2088,-15.6763 -1.2885,-2.729 -3.3551,-5.6803 -4.5926,-6.5585 -1.2375,-0.8781 -3.273,-4.2752 -4.5233,-7.5491 -1.2503,-3.2738 -3.1438,-6.2865 -4.2078,-6.6948 -1.0641,-0.4083 -1.9347,-1.6152 -1.9347,-2.6819 0,-1.0668 -1.5045,-3.7276 -3.3434,-5.913 -1.9019,-2.2603 -3.9199,-7.0133 -4.6805,-11.0242 -0.7355,-3.8779 -2.2524,-8.4476 -3.3711,-10.1549 -2.6494,-4.0436 -10.016,-26.0245 -11.3002,-33.7187 -0.5509,-3.3 -2.3954,-12.6 -4.099,-20.6667 l -3.0975,-14.6667 -0.4251,-175.5465 -0.4251,-175.5466 5.9874,-4.9062 5.9873,-4.9061 53.2862,0.035 c 57.0955,0.037 59.2859,0.2777 62.8286,6.8973 0.9876,1.8453 1.5127,54.8789 1.7062,172.3195 l 0.2796,169.6538 2.9894,6.9865 c 1.6442,3.8426 3.3848,11.2404 3.868,16.4395 0.5495,5.9122 1.6771,10.2432 3.0106,11.563 2.0425,2.0216 4.311,5.3698 10.132,14.9544 1.4666,2.415 5.7902,8.2597 9.6078,12.9882 3.8177,4.7285 7.3081,9.7533 7.7565,11.1662 0.4485,1.4129 1.9017,2.5689 3.2293,2.5689 6.3066,0 18.086,7.4404 20.0792,12.6828 0.914,2.4041 2.7898,3.2899 9.4509,4.4632 5.2887,0.9316 9.484,2.5651 11.5375,4.4923 3.1691,2.9742 3.7875,3.0276 34.5573,2.9864 30.8359,-0.041 31.3659,-0.089 33.5759,-3.0189 1.6032,-2.1253 4.5284,-3.3507 10.2256,-4.2836 4.389,-0.7187 8.1448,-1.3102 8.3463,-1.3145 0.2015,0 0.9356,-1.505 1.6314,-3.335 0.6958,-1.83 4.4309,-5.368 8.3003,-7.8621 3.8694,-2.4941 10.5787,-8.4968 14.9095,-13.3393 4.3308,-4.8426 8.9074,-8.8046 10.1701,-8.8046 2.9712,0 4.7608,-2.3025 5.8874,-7.5746 0.4985,-2.3326 1.7961,-4.9796 2.8835,-5.8821 3.7397,-3.1036 8.6202,-15.6959 10.6363,-27.4428 1.1108,-6.472 3.2116,-15.3672 4.6685,-19.7672 2.5955,-7.8386 2.6387,-11.2148 2.1404,-167.3333 -0.2797,-87.6334 -0.9471,-161.1334 -1.4831,-163.3334 -0.7894,-3.2404 -0.2594,-4.9238 2.7908,-8.8651 6.6465,-8.5883 4.0399,-8.2571 62.3374,-7.9203 56.9505,0.329 56.2099,0.2443 63.813,7.3023 l 3.7185,3.4519 -0.4251,172.349 c -0.4551,184.4621 -0.01,170.4243 -6.4477,201.6822 -0.7556,3.6667 -1.8667,10.2667 -2.4691,14.6667 -1.3103,9.5705 -5.7555,21.6369 -8.7878,23.8541 -1.2065,0.8823 -3.0383,5.67 -4.0913,10.6935 -1.1773,5.6162 -3.1775,10.6062 -5.2284,13.0436 -1.827,2.1712 -3.6527,5.5514 -4.0572,7.5116 -1.0897,5.2802 -4.8158,12.2351 -8.6401,16.1275 -1.8571,1.89 -5.1571,7.0237 -7.3334,11.4081 -2.4295,4.8945 -7.4311,11.3829 -12.9569,16.8084 -4.95,4.8601 -9,9.5251 -9,10.3666 0,0.8416 -2.6543,2.2401 -5.8984,3.1078 -5.1008,1.3642 -6.0058,2.1501 -6.6927,5.8118 -0.8865,4.725 -3.7552,7.7789 -8.7405,9.3044 -1.8324,0.5607 -6.0324,3.687 -9.3333,6.9474 -3.301,3.2604 -8.1018,7.0094 -10.6684,8.3311 -2.5667,1.3217 -7.3667,3.7763 -10.6667,5.4545 -3.3,1.6783 -7.696,4.4416 -9.769,6.1405 -2.0729,1.699 -4.8063,3.0891 -6.0743,3.0891 -1.2679,0 -4.3384,1.5 -6.8234,3.3333 -2.4849,1.8334 -6.0515,3.3356 -7.9257,3.3384 -1.8742,0 -6.9136,1.7509 -11.1988,3.8849 -6.3324,3.1535 -10.2018,4.0384 -20.6666,4.7264 -16.0894,1.0577 -18.8755,1.6383 -18.8755,3.9331 0,1.0076 -0.9491,2.1961 -2.1091,2.6412 -3.0717,1.1788 -76.4994,0.7246 -81.2243,-0.5023 z"
       id="path1" />
  </g>
</svg>
