<?xml version="1.0" encoding="UTF-8" standalone="no"?>
<!-- Created with Inkscape (http://www.inkscape.org/) -->

<svg
   version="1.1"
   id="svg1"
   width="528.55273"
   height="573.56396"
   viewBox="0 0 528.55273 573.56396"
   xmlns="http://www.w3.org/2000/svg"
   xmlns:svg="http://www.w3.org/2000/svg">
  <defs
     id="defs1" />
  <g
     id="g1"
     transform="translate(-2724.4143,-3280.7593)">
    <path
       style="fill:#000000"
       d="m 2979.1147,3852.2804 c -1.1236,-1.1236 -2.4542,-4.2736 -2.957,-7 -0.5027,-2.7264 -3.7621,-10.0571 -7.2431,-16.2905 -3.481,-6.2333 -6.7513,-13.9151 -7.2674,-17.0706 -0.5163,-3.1569 -2.3795,-7.2923 -4.1426,-9.1947 -1.7623,-1.9016 -3.2042,-4.1532 -3.2042,-5.0037 0,-0.8504 -1.5,-3.5794 -3.3333,-6.0643 -1.8334,-2.4849 -3.3334,-5.517 -3.3334,-6.738 0,-1.221 -1.7223,-5.4544 -3.8274,-9.4076 -2.1051,-3.9533 -4.246,-9.1066 -4.7574,-11.4519 -0.5115,-2.3453 -2.5645,-6.321 -4.5622,-8.8348 -3.9297,-4.9448 -6.4841,-10.5837 -10.2337,-22.5906 -1.3207,-4.2293 -3.1724,-8.3296 -4.1148,-9.1117 -0.9424,-0.7822 -2.6953,-4.8218 -3.8952,-8.9771 -1.1999,-4.1552 -2.9569,-8.455 -3.9044,-9.555 -0.9475,-1.1 -2.1538,-3.5 -2.6805,-5.3333 -0.5268,-1.8333 -2.3536,-5.4333 -4.0596,-8 -1.7059,-2.5667 -3.5175,-7.6667 -4.0256,-11.3333 -0.6782,-4.8948 -1.9447,-7.6213 -4.7648,-10.2582 -2.1126,-1.9753 -3.8435,-4.3753 -3.8466,-5.3333 0,-0.958 -1.5031,-4.6935 -3.3333,-8.3012 -1.8303,-3.6076 -3.3278,-7.6115 -3.3278,-8.8977 0,-1.2861 -1.4195,-4.0344 -3.1544,-6.1073 -4.5055,-5.3832 -9.66,-16.2283 -10.6039,-22.3105 -0.4445,-2.8644 -2.288,-6.7644 -4.0965,-8.6666 -1.8086,-1.9022 -3.7287,-5.2586 -4.267,-7.4586 -0.5383,-2.2 -2.3364,-6.1 -3.9957,-8.6666 -1.6594,-2.5667 -3.674,-7.1763 -4.477,-10.2435 -0.8029,-3.0673 -4.1817,-11.0865 -7.5082,-17.8205 -3.3266,-6.734 -6.6942,-15.4593 -7.4835,-19.3896 -0.9027,-4.4947 -2.235,-7.4014 -3.5911,-7.8343 -2.0023,-0.6393 -10.8405,-18.2095 -10.8282,-21.5261 0,-0.8143 -1.468,-3.652 -3.2691,-6.3059 -1.801,-2.654 -3.9546,-7.3877 -4.7858,-10.5194 -0.8313,-3.1317 -2.6091,-6.8941 -3.9508,-8.3607 -1.3417,-1.4667 -2.8645,-4.9683 -3.384,-7.7813 -0.5195,-2.813 -2.3309,-6.6105 -4.0252,-8.4387 -1.6944,-1.8282 -3.4932,-5.2267 -3.9973,-7.552 -0.5042,-2.3254 -2.0148,-6.328 -3.3569,-8.8947 -5.221,-9.9847 -10.5587,-22.3119 -10.5587,-24.3847 0,-1.1957 -1.4948,-3.5601 -3.3218,-5.2542 -2.3213,-2.1524 -3.7487,-5.482 -4.7389,-11.054 -0.8306,-4.6742 -2.4323,-8.8426 -3.8706,-10.0734 -2.9231,-2.5014 -7.7145,-11.7474 -12.7309,-24.567 -2.0088,-5.1334 -5.3286,-12.0334 -7.3774,-15.3334 -2.0488,-3.3 -4.6518,-9.1705 -5.7844,-13.0455 -1.1327,-3.8751 -3.2856,-8.7677 -4.7844,-10.8725 -1.4987,-2.1048 -2.725,-4.3678 -2.725,-5.0287 0,-0.661 -1.4756,-3.202 -3.2792,-5.6467 -1.8037,-2.4446 -3.9549,-7.8112 -4.7806,-11.9257 -0.8257,-4.1145 -2.0249,-8.3809 -2.665,-9.4809 -6.4117,-11.0195 -9.0964,-17.8939 -8.3824,-21.4638 0.9164,-4.582 7.375,-10.5103 11.5429,-10.5952 1.5937,-0.033 29.1766,-0.083 61.2953,-0.1112 51.9033,-0.046 58.7682,0.1906 61.7303,2.1315 4.016,2.6313 8.1351,9.1143 9.3092,14.6516 0.4728,2.2296 1.5912,4.9538 2.4853,6.0538 0.8941,1.1 2.6746,4.8438 3.9566,8.3196 1.2821,3.4757 2.8837,6.6611 3.5593,7.0786 0.6756,0.4176 1.2364,1.7738 1.2462,3.0138 0.01,1.2401 3.6099,9.4409 8,18.224 4.3902,8.7831 7.9821,17.3371 7.9821,19.0088 0,1.6717 1.4445,4.2955 3.21,5.8305 1.7654,1.5351 3.6157,4.9542 4.1117,7.5982 0.496,2.644 2.2671,6.4296 3.9356,8.4126 1.8259,2.17 3.3952,6.3298 3.9415,10.4481 0.6595,4.9714 1.8404,7.648 4.3181,9.7876 4.1884,3.6168 7.9485,10.7391 9.2048,17.4355 0.5193,2.7683 2.2781,6.6404 3.9085,8.6047 1.6303,1.9642 3.392,5.3713 3.9149,7.5713 0.5228,2.2 2.3285,6.1079 4.0127,8.6842 1.6841,2.5763 3.5099,6.1763 4.0573,8 0.5473,1.8237 2.352,5.7158 4.0102,8.6492 1.6583,2.9333 3.7708,7.7333 4.6944,10.6666 0.9236,2.9334 4.3045,10.6648 7.5131,17.181 3.2087,6.5161 5.8339,12.8633 5.8339,14.1047 0,1.2414 1.7366,4.91 3.8592,8.1524 2.1225,3.2424 4.2806,8.4771 4.7958,11.6326 0.5151,3.1555 2.3412,7.2529 4.058,9.1053 1.7168,1.8525 3.5254,5.2707 4.0193,7.5961 0.4938,2.3254 1.881,5.3304 3.0828,6.6779 1.2017,1.3475 2.8136,4.9475 3.582,8 0.8089,3.2132 2.1855,5.55 3.2696,5.55 1.084,0 2.4607,-2.3368 3.2695,-5.55 0.7684,-3.0525 2.44,-6.6919 3.7146,-8.0875 1.2747,-1.3956 2.6956,-4.5981 3.1576,-7.1166 0.462,-2.5186 2.2127,-6.6792 3.8903,-9.2459 1.6777,-2.5666 3.4657,-6.7666 3.9732,-9.3333 1.0176,-5.1457 6.2414,-15.0667 10.2884,-19.5398 1.4297,-1.5802 3.1851,-5.4802 3.9009,-8.6666 0.7158,-3.1865 2.393,-6.9936 3.7272,-8.4603 1.3341,-1.4666 3.3362,-6.2666 4.449,-10.6666 2.1802,-8.6203 9.3614,-25.404 12.2645,-28.664 0.9808,-1.1015 2.5,-4.6928 3.376,-7.9807 0.8759,-3.2879 3.3317,-7.9588 5.4573,-10.3797 2.1257,-2.421 3.8724,-5.4309 3.8817,-6.6887 0.016,-2.2047 6.7621,-16.5139 9.1917,-19.4973 0.6523,-0.801 2.0914,-4.4563 3.198,-8.123 3.3328,-11.0426 7.6927,-19.7939 11.7532,-23.5915 2.6272,-2.457 3.8402,-4.8922 3.8402,-7.7095 0,-3.808 2.152,-9.8724 5.2161,-14.699 2.0149,-3.1739 9.1002,-19.0009 10.1472,-22.6666 0.5237,-1.8334 1.7347,-4.2334 2.6912,-5.3334 1.8357,-2.1111 5.3929,-11.1146 7.2115,-18.2526 1.7536,-6.8832 6.8241,-13.9211 11.4098,-15.8371 5.8602,-2.4485 120.8838,-2.9941 126.1038,-0.5982 4.1814,1.9192 7.8871,7.8407 7.8871,12.6032 0,4.3377 -3.3199,12.4856 -6.5464,16.0666 -1.3305,1.4766 -3.1224,5.582 -3.982,9.123 -0.8596,3.541 -4.4562,11.941 -7.9924,18.6667 -3.5363,6.7256 -7.197,14.6284 -8.1348,17.5618 -3.0288,9.4727 -6.4309,14.9823 -9.7688,15.82 -2.7705,0.6954 -3.3015,1.8052 -3.972,8.3021 -0.5055,4.8973 -1.9497,9.1959 -4.1621,12.3885 -1.8635,2.6889 -3.7913,6.9741 -4.284,9.5225 -0.4927,2.5485 -2.6048,7.868 -4.6934,11.8212 -2.0886,3.9533 -3.7975,7.9572 -3.7975,8.8977 0,0.9405 -1.534,3.5331 -3.4088,5.7613 -1.8749,2.2281 -3.7684,6.2664 -4.2078,8.974 -0.4394,2.7076 -3.6213,10.0806 -7.0711,16.3844 -3.4497,6.3039 -6.6934,13.2143 -7.2082,15.3564 -0.5148,2.1421 -2.0311,5.2869 -3.3695,6.9884 -1.3384,1.7015 -2.8498,5.3488 -3.3586,8.1052 -0.5089,2.7564 -2.0119,6.2116 -3.34,7.6783 -1.3281,1.4666 -2.8395,4.6728 -3.3587,7.1247 -0.5192,2.452 -2.3594,5.6889 -4.0895,7.1931 -1.9675,1.7108 -3.6865,5.341 -4.59,9.6931 -0.7945,3.8269 -2.8948,8.9238 -4.6674,11.3264 -1.7725,2.4025 -3.6212,7.0251 -4.1082,10.2723 -0.4869,3.2471 -2.788,8.7134 -5.1136,12.1472 -2.3255,3.4337 -5.0845,8.9057 -6.131,12.1598 -1.0465,3.2542 -3.3592,8.0542 -5.1392,10.6667 -1.7801,2.6125 -3.9847,7.57 -4.8992,11.0167 -0.9144,3.4466 -2.8628,7.9521 -4.3297,10.0122 -1.4669,2.06 -3.3224,6.1791 -4.1233,9.1535 -0.8009,2.9744 -2.9629,6.8235 -4.8045,8.5535 -2.1461,2.0161 -3.3588,4.6181 -3.3776,7.2465 -0.039,5.4467 -4.2858,14.5666 -8.4827,18.2157 -2.2791,1.9817 -3.884,5.371 -4.93,10.4117 -0.8529,4.1104 -2.9774,9.1696 -4.7211,11.2425 -1.7436,2.0729 -3.1733,4.7729 -3.1771,6 0,1.2271 -1.485,4.631 -3.2917,7.5644 -1.8067,2.9333 -3.3036,6.8564 -3.3265,8.718 -0.042,3.3853 -0.6604,4.7579 -9.7582,21.6457 -2.6757,4.9667 -5.7903,12.1466 -6.9213,15.9553 -1.1311,3.8088 -3.4151,9.0451 -5.0756,11.6363 -1.6605,2.5912 -4.3071,7.7113 -5.8812,11.378 -8.0667,18.79 -11.4051,25.3363 -14.279,27.9997 -1.8832,1.7453 -3.5558,5.2899 -4.1468,8.7879 -0.5447,3.2246 -2.713,8.915 -4.8183,12.6454 -2.1054,3.7305 -3.8279,7.7106 -3.8279,8.8449 0,1.1342 -0.872,2.786 -1.9379,3.6705 -1.0658,0.8846 -2.8597,4.7796 -3.9865,8.6555 -1.1268,3.876 -2.924,7.7737 -3.9939,8.6617 -1.0699,0.8879 -2.667,3.8164 -3.549,6.5077 -0.882,2.6914 -2.4738,6.2312 -3.5372,7.8664 -1.0634,1.6351 -2.5072,5.5263 -3.2083,8.647 -1.9297,8.5881 -4.2139,10.38 -13.2319,10.38 -5.1368,0 -8.3779,-0.6797 -9.741,-2.0429 z"
       id="path1" />
  </g>
</svg>
