<?xml version="1.0" encoding="UTF-8" standalone="no"?>
<!-- Created with Inkscape (http://www.inkscape.org/) -->

<svg
   width="161.42448mm"
   height="154.00322mm"
   viewBox="0 0 161.42448 154.00322"
   version="1.1"
   id="svg1"
   xml:space="preserve"
   xmlns="http://www.w3.org/2000/svg"
   xmlns:svg="http://www.w3.org/2000/svg"><defs
     id="defs1" /><g
     id="layer1"
     transform="translate(-31.077887,-82.052067)"><path
       style="fill:#000000"
       d="m 54.934791,235.85281 c -1.452613,-0.37105 -2.971293,-1.80128 -3.403641,-3.20542 -0.18431,-0.59858 -0.527683,-4.10458 -0.76305,-7.79111 -0.342866,-5.37029 -0.558392,-6.92145 -1.084155,-7.80275 -0.36655,-0.61443 -0.656215,-1.76727 -0.656215,-2.61169 0,-2.75313 -1.081738,-11.43676 -1.581131,-12.69251 -0.270067,-0.67909 -0.591304,-2.68995 -0.71386,-4.46856 -0.122556,-1.77861 -0.450172,-4.08049 -0.728035,-5.11528 -0.277864,-1.03479 -0.742929,-4.43489 -1.033479,-7.55579 -0.29055,-3.12089 -0.767788,-6.45464 -1.060529,-7.40833 -0.292741,-0.95369 -0.699265,-4.27398 -0.903387,-7.37842 -0.20544,-3.12449 -0.681384,-6.90442 -1.066066,-8.46667 -0.382214,-1.55222 -0.848284,-4.96535 -1.035709,-7.58472 -0.187426,-2.61938 -0.406442,-5.68099 -0.486702,-6.80358 -0.08026,-1.1226 -0.408313,-2.44154 -0.729006,-2.93098 -0.428567,-0.65407 -0.672321,-2.29994 -0.919848,-6.21096 -0.242062,-3.82466 -0.520622,-5.73671 -0.990528,-6.79901 -0.422105,-0.95423 -0.745629,-2.84284 -0.913026,-5.32989 -0.142597,-2.11858 -0.558777,-5.04259 -0.924845,-6.4978 -0.366068,-1.45521 -0.841274,-4.94771 -1.056013,-7.76111 -0.306552,-4.01629 -0.534638,-5.32064 -1.061635,-6.07113 -0.429474,-0.61162 -0.673807,-1.56449 -0.678438,-2.64584 -0.01605,-3.747084 -1.027466,-12.086264 -1.600215,-13.193844 -0.413849,-0.80029 -0.540342,-1.69794 -0.428802,-3.04296 0.133605,-1.61111 0.354526,-2.10413 1.420499,-3.1701 l 1.262289,-1.26229 14.739117,0.0576 c 16.204447,0.0634 15.763286,0.005 16.954543,2.25614 0.686008,1.29654 1.032556,3.33151 1.516369,8.90431 0.528652,6.08928 1.098389,10.138004 1.588576,11.288894 0.24792,0.58209 0.548716,2.65665 0.668434,4.61015 0.119719,1.9535 0.45957,4.33475 0.755227,5.29167 0.295656,0.95692 0.769278,4.51797 1.052493,7.91346 0.283216,3.39549 0.747492,6.96736 1.031725,7.9375 0.284233,0.97014 0.693578,4.06576 0.909656,6.87916 0.216078,2.81341 0.704687,6.38528 1.085799,7.9375 0.402247,1.63831 0.860359,5.41204 1.09205,8.99584 0.316652,4.89796 0.535689,6.40375 1.060053,7.28739 0.808759,1.36289 1.486332,6.5691 1.393132,10.70427 -0.03717,1.64924 0.0295,3.39289 0.14815,3.87479 0.203631,0.82702 0.260067,0.78743 1.005961,-0.70556 0.434625,-0.86995 1.050683,-2.05798 1.369019,-2.64006 0.318337,-0.58208 0.806346,-1.53458 1.084466,-2.11667 0.27812,-0.58208 1.13386,-2.24896 1.901644,-3.70416 0.767785,-1.45521 1.930257,-3.67771 2.583271,-4.93889 0.653014,-1.26118 1.550132,-2.7418 1.993594,-3.29026 0.443463,-0.54847 0.808954,-1.18347 0.812203,-1.41111 0.0032,-0.22765 0.635591,-1.68391 1.405204,-3.23613 0.769613,-1.55222 1.401954,-3.02699 1.405204,-3.27725 0.009,-0.69246 1.396147,-3.31473 2.278616,-4.30747 0.431186,-0.48507 0.970076,-1.5378 1.197533,-2.3394 0.227457,-0.80161 0.650954,-1.65448 0.941103,-1.89528 0.290149,-0.24081 0.527544,-0.60413 0.527544,-0.80739 0,-0.32893 2.220802,-5.03753 5.41655,-11.48431 0.61041,-1.23138 1.38433,-2.38612 1.71981,-2.56609 0.33548,-0.17997 0.86992,-1.23622 1.18766,-2.34724 0.31773,-1.11101 0.78485,-2.25814 1.03805,-2.54918 0.25319,-0.29104 1.16062,-2.03729 2.01651,-3.88056 0.85589,-1.84326 1.82198,-3.5702 2.14687,-3.83764 0.89267,-0.73484 3.21698,-0.67781 4.07647,0.10002 0.40026,0.36223 1.05411,1.53089 1.453,2.59702 0.39889,1.06614 0.95784,2.27049 1.24211,2.67634 0.28428,0.40586 0.51686,0.99549 0.51686,1.3103 0,0.31482 0.32119,0.86306 0.71375,1.21833 0.39257,0.35526 0.95619,1.47987 1.25249,2.49913 0.29631,1.01926 0.84825,2.24667 1.22653,2.72758 0.37828,0.48091 0.68779,1.03559 0.68779,1.23264 0,0.19704 0.40112,0.83496 0.89137,1.4176 0.61504,0.73093 0.97077,1.69494 1.14748,3.10957 0.22088,1.76829 0.38938,2.11412 1.22529,2.51476 0.53305,0.25548 0.96919,0.61912 0.96919,0.80808 0,0.53684 2.4472,5.55977 2.82144,5.79107 0.36633,0.2264 3.17578,5.83064 3.17578,6.335 0,0.34043 1.95579,4.62697 2.50194,5.48354 0.18556,0.29104 0.73755,1.32291 1.22663,2.29305 0.48908,0.97014 1.11789,2.16076 1.39736,2.64583 0.27946,0.48507 0.51045,1.15429 0.51332,1.48715 0.003,0.33285 0.48145,1.09239 1.06353,1.68785 0.98116,1.00372 1.13125,1.48632 1.20687,3.88056 0.0177,0.55955 0.31811,1.00929 0.82189,1.23031 0.44685,0.19604 0.96603,0.89017 1.18738,1.5875 0.21633,0.68152 0.66101,1.47726 0.98818,1.7683 0.76077,0.67677 2.32296,3.12463 2.64832,4.14977 0.13775,0.43401 0.39851,0.78912 0.57946,0.78912 0.37577,0 0.43627,-0.49525 0.53867,-4.40972 0.12002,-4.58802 0.78999,-11.48414 1.33665,-13.75834 0.85589,-3.56067 1.22661,-5.86509 1.44721,-8.99583 0.1162,-1.64924 0.43085,-4.34798 0.69921,-5.99722 0.92423,-5.67991 1.24616,-8.13069 1.24616,-9.4867 0,-0.74785 0.32645,-2.09771 0.72544,-2.9997 0.56101,-1.26826 0.80263,-2.89767 1.06599,-7.1886 0.23796,-3.87717 0.55978,-6.22039 1.06836,-7.7787 0.46377,-1.42106 0.84275,-3.91668 1.04464,-6.87917 0.17426,-2.55699 0.46787,-5.5222 0.65246,-6.58935 0.83536,-4.829264 1.40922,-9.284944 1.63569,-12.700004 0.21799,-3.28728 0.35987,-3.87026 1.26062,-5.17994 0.55824,-0.81167 1.37183,-1.59006 1.80797,-1.72974 0.43615,-0.13969 7.36968,-0.2294 15.40784,-0.19937 16.25643,0.0607 15.82373,-0.002 16.84912,2.45187 0.6034,1.44416 0.41321,4.06478 -0.36172,4.98417 -0.28067,0.33299 -0.6378,2.45983 -0.89289,5.31745 -0.23382,2.61938 -0.7502,6.032504 -1.14751,7.584734 -0.40336,1.57583 -0.84334,4.85879 -0.99627,7.43366 -0.19905,3.35155 -0.43491,4.85721 -0.86328,5.51098 -0.60917,0.92972 -1.23106,6.08272 -1.269,10.51508 -0.0132,1.54455 -0.25922,2.81125 -0.75363,3.88055 -0.603,1.30414 -0.81833,2.90985 -1.20637,8.99583 -0.25979,4.07459 -0.63398,7.88459 -0.83152,8.46667 -0.42637,1.25636 -0.99595,5.06747 -1.44988,9.70139 -0.18057,1.84326 -0.56857,4.30389 -0.86223,5.46805 -0.29366,1.16417 -0.5364,2.78841 -0.53943,3.60943 -0.007,1.89887 -0.59513,5.96247 -1.28852,8.90302 -0.29594,1.25504 -0.67767,4.11254 -0.84829,6.35 -0.17061,2.23746 -0.46762,4.54436 -0.66002,5.12644 -0.49465,1.49654 -1.44202,9.34628 -1.44202,11.94832 0,1.51081 -0.18994,2.45055 -0.61736,3.05444 -0.47455,0.67047 -0.74848,2.42816 -1.1842,7.59852 -0.3921,4.65282 -0.73526,6.9909 -1.11319,7.58472 -0.36467,0.57298 -0.66537,2.45917 -0.90423,5.67205 -0.21739,2.924 -0.5653,5.21472 -0.88626,5.8354 -0.29062,0.56199 -0.7007,2.28524 -0.91129,3.82945 -0.59719,4.37905 0.86039,4.04238 -17.50064,4.04238 -8.59687,0 -15.88178,-0.0964 -16.18869,-0.21413 -0.30692,-0.11778 -0.55802,-0.44338 -0.55802,-0.72356 0,-0.28018 -0.56254,-0.74447 -1.25008,-1.03174 -0.68754,-0.28727 -1.33656,-0.79511 -1.44228,-1.12853 -0.3508,-1.10634 -2.04013,-4.46887 -2.85489,-5.68252 -0.44152,-0.65767 -0.80275,-1.46895 -0.80275,-1.80286 0,-0.3339 -0.4196,-1.22456 -0.93244,-1.97924 -0.51284,-0.75468 -1.16977,-2.08652 -1.45985,-2.95964 -0.29007,-0.87313 -0.72092,-1.82563 -0.95744,-2.11667 -0.81286,-1.00024 -4.36678,-8.29112 -4.58806,-9.41243 -0.1218,-0.61718 -0.47397,-1.33156 -0.78259,-1.5875 -0.75725,-0.62798 -1.51018,-2.50501 -1.51018,-3.76483 0,-0.69434 -0.27289,-1.2079 -0.83892,-1.57878 -0.50235,-0.32915 -0.93304,-1.05137 -1.07351,-1.80017 -0.12903,-0.68777 -0.52701,-1.40698 -0.88439,-1.59825 -0.35739,-0.19127 -0.75626,-0.77194 -0.88638,-1.29038 -0.41471,-1.65233 -2.59855,-5.93278 -3.35147,-6.56907 -0.43696,-0.36927 -0.74138,-1.07216 -0.76394,-1.76389 -0.0744,-2.28263 -0.14707,-2.56109 -0.66806,-2.56109 -0.36585,0 -0.58625,0.49597 -0.71415,1.60706 -0.10174,0.88388 -0.52927,2.04474 -0.95006,2.57968 -0.42078,0.53494 -0.95488,1.55802 -1.18689,2.2735 -0.23201,0.71548 -0.69526,1.69775 -1.02945,2.18282 -0.33419,0.48507 -0.79653,1.46456 -1.02741,2.17664 -0.23089,0.71208 -0.64085,1.47816 -0.91104,1.70239 -0.27018,0.22424 -0.83956,1.46725 -1.26528,2.76225 -0.93474,2.84337 -1.84306,4.71076 -2.59489,5.33472 -0.30718,0.25494 -0.80135,1.27619 -1.09815,2.26945 -0.29681,0.99327 -1.085898,2.67906 -1.753536,3.74621 -1.420454,2.27046 -2.731481,4.96153 -3.887898,7.98049 -0.914768,2.3881 -2.289306,4.58997 -3.312901,5.30692 -0.366729,0.25687 -0.771596,1.08744 -0.899706,1.84571 -0.128109,0.75827 -0.61846,1.90124 -1.08967,2.53993 -0.47121,0.63869 -0.856745,1.60441 -0.856745,2.14604 0,0.76469 -0.328953,1.20273 -1.471855,1.95993 -1.412117,0.93557 -1.673421,0.97863 -6.438194,1.06088 -14.222657,0.24553 -25.381115,0.23483 -26.399554,-0.0253 z"
       id="path1" /></g></svg>
