<?xml version="1.0" encoding="UTF-8" standalone="no"?>
<!-- Created with Inkscape (http://www.inkscape.org/) -->

<svg
   version="1.1"
   id="svg1"
   width="453.10425"
   height="581.57104"
   viewBox="0 0 453.10425 581.57104"
   xmlns="http://www.w3.org/2000/svg"
   xmlns:svg="http://www.w3.org/2000/svg">
  <defs
     id="defs1" />
  <g
     id="g1"
     transform="translate(-2965.4578,-3080.4666)">
    <path
       style="fill:#000000"
       d="m 2972.9261,3660.7121 c -8.027,-2.4746 -9.3646,-6.0679 -5.0623,-13.5988 1.3856,-2.4253 2.9259,-6.8096 3.423,-9.7429 1.043,-6.1543 6.5785,-15.3333 9.2469,-15.3333 2.9138,0 4.7102,-3.1045 6.1306,-10.5945 0.7512,-3.9608 2.7776,-8.7207 4.6703,-10.9701 1.8389,-2.1853 3.3434,-5.1065 3.3434,-6.4913 0,-1.3849 1.8,-4.5681 4,-7.0738 2.2,-2.5056 4,-5.4783 4,-6.6058 0,-1.1276 3.1509,-7.3484 7.0021,-13.824 9.6254,-16.1851 10.9591,-18.572 15.7209,-28.1354 2.2898,-4.5988 5.527,-9.9988 7.1937,-12 1.6667,-2.0012 3.7708,-5.9097 4.6758,-8.6857 0.905,-2.776 3.1024,-6.0018 4.8831,-7.1686 1.992,-1.3052 3.7946,-4.3333 4.6853,-7.8706 0.7962,-3.1621 2.5858,-6.7793 3.9767,-8.0381 1.391,-1.2588 2.5291,-3.012 2.5291,-3.896 0,-0.8841 1.575,-3.9283 3.5,-6.7649 1.9251,-2.8367 4.3193,-7.4796 5.3206,-10.3175 1.0013,-2.8379 3.3262,-6.3442 5.1666,-7.7919 2.0536,-1.6153 3.3461,-3.9833 3.3461,-6.1303 0,-3.1639 1.8595,-6.6484 9.6186,-18.0246 1.3942,-2.044 3.3875,-6.1331 4.4296,-9.0868 1.0421,-2.9536 3.1076,-6.9122 4.59,-8.7967 1.4823,-1.8845 2.6952,-4.0117 2.6952,-4.727 0,-2.6875 8.7653,-14.6967 11.4803,-15.729 2.2317,-0.8485 2.9659,-2.5143 3.4839,-7.9052 0.4753,-4.9464 1.609,-7.8246 4.1105,-10.4356 1.9882,-2.0753 3.8246,-5.9223 4.3271,-9.0645 1.1668,-7.2967 -1.6926,-20.6911 -4.8961,-22.9349 -1.3779,-0.9652 -3.1718,-4.4015 -3.9863,-7.6363 -0.8223,-3.2654 -2.4533,-6.2119 -3.6669,-6.6244 -2.5679,-0.8728 -8.534,-10.318 -10.7406,-17.0039 -0.8501,-2.5759 -2.7231,-5.7491 -4.1621,-7.0514 -1.4391,-1.3023 -2.6165,-2.9149 -2.6165,-3.5835 0,-0.6686 -1.4343,-3.1256 -3.1873,-5.46 -1.7531,-2.3344 -3.5842,-6.119 -4.0692,-8.4103 -0.485,-2.2912 -2.3196,-5.5166 -4.0768,-7.1674 -1.7573,-1.6509 -3.5909,-4.8762 -4.0748,-7.1675 -0.4839,-2.2912 -1.9746,-5.3659 -3.3127,-6.8325 -1.3381,-1.4667 -3.7189,-5.3667 -5.2907,-8.6667 -5.2617,-11.0471 -8.6359,-17.0446 -11.1462,-19.8122 -1.37,-1.5104 -2.8038,-5.5216 -3.1862,-8.9138 -0.5423,-4.8113 -1.3855,-6.4821 -3.8349,-7.598 -1.7268,-0.7868 -4.2778,-3.2858 -5.6688,-5.5533 -1.391,-2.2675 -4.7156,-7.6806 -7.388,-12.0293 -2.6723,-4.3486 -5.3866,-10.2557 -6.0317,-13.1268 -0.6451,-2.8712 -2.3384,-6.5133 -3.763,-8.0935 -4.7622,-5.2827 -9.6363,-13.4637 -9.6414,-16.1826 0,-1.4798 -1.3527,-4.7548 -3,-7.2779 -5.5814,-8.5491 -8.8555,-14.0653 -10.9285,-18.4126 -8.7698,-18.3902 -11.4898,-23.2149 -15.0665,-26.7236 -1.65,-1.6187 -3,-4.1703 -3,-5.6703 0,-1.5 -1.4504,-4.1777 -3.2231,-5.9504 -5.0532,-5.0533 -10.5064,-15.9734 -9.5234,-19.0708 1.3749,-4.332 6.147,-9.6764 9.9216,-11.1116 4.4224,-1.6814 122.7066,-1.5179 130.1583,0.1799 7.2283,1.647 10,5.4044 10,13.5565 0,5.7771 0.4479,6.8397 3.6666,8.6983 3.9343,2.2719 9.4842,10.0905 12.7269,17.9292 1.1006,2.6605 2.646,5.2359 3.4342,5.723 0.7882,0.4872 2.11,3.3995 2.9373,6.4719 0.8273,3.0723 3.7559,8.297 6.5079,11.6103 5.9588,7.1741 7.3999,9.8587 8.5551,15.9368 0.4787,2.5185 1.7847,5.5895 2.9022,6.8244 3.6378,4.0197 11.0268,17.1213 11.9011,21.1022 0.4692,2.1364 2.0217,4.9419 3.4499,6.2344 1.4282,1.2925 3.2425,4.8047 4.0319,7.8049 0.7894,3.0002 2.8869,6.8292 4.6611,8.5089 1.7742,1.6796 3.2258,4.2583 3.2258,5.7303 0,1.472 1.4497,4.0199 3.2216,5.6621 1.7719,1.6421 3.76,5.0635 4.4181,7.603 1.5399,5.9429 4.528,5.9185 6.0387,-0.049 0.6497,-2.5667 2.6378,-6.0409 4.4181,-7.7206 1.7802,-1.6797 3.2368,-4.4251 3.2368,-6.1009 0,-1.6759 1.4428,-4.4024 3.2061,-6.059 1.7634,-1.6566 3.6135,-5.2112 4.1113,-7.8991 1.0092,-5.4485 7.2163,-15.6089 11.2703,-18.4485 1.4516,-1.0167 3.0303,-3.9333 3.5083,-6.4813 0.478,-2.548 2.602,-6.8133 4.7199,-9.4784 2.1179,-2.665 3.8541,-5.513 3.8582,-6.3289 0.024,-4.6967 3.3221,-11.5305 7.9765,-16.5251 2.9258,-3.1396 5.7195,-7.3396 6.2084,-9.3333 0.4889,-1.9937 2.2956,-5.7142 4.0149,-8.2677 1.7194,-2.5536 3.1261,-5.3576 3.1261,-6.2311 0,-0.8735 1.461,-3.3245 3.2467,-5.4467 1.7858,-2.1222 3.6595,-5.5027 4.1638,-7.5122 0.5044,-2.0095 2.3433,-4.5882 4.0866,-5.7304 1.9006,-1.2454 3.1696,-3.3764 3.1696,-5.323 0,-4.3202 2.8754,-9.6046 7.7446,-14.2326 l 3.9827,-3.7855 64.4255,0.1739 c 73.1088,0.1974 68.4097,-0.5695 69.9062,11.4082 1.3948,11.163 -0.1671,17.434 -4.8223,19.3622 -3.1728,1.3143 -3.9034,2.4205 -3.9034,5.9106 0,2.3922 -1.2089,5.7158 -2.7298,7.5049 -5.4116,6.3661 -9.6997,13.9961 -11.3396,20.177 -0.9192,3.4646 -2.9741,7.9646 -4.5664,10 -5.1123,6.5349 -13.5752,20.5128 -16.7073,27.595 -1.6733,3.7836 -3.941,7.6251 -5.0395,8.5367 -1.0984,0.9117 -2.7815,3.5877 -3.7402,5.9467 -0.9587,2.359 -2.7993,5.0564 -4.0902,5.9941 -1.291,0.9377 -2.7383,3.7897 -3.2163,6.3378 -0.478,2.548 -2.602,6.8132 -4.7199,9.4783 -2.118,2.6651 -3.8508,5.8585 -3.8508,7.0965 0,1.238 -1.4274,3.5919 -3.172,5.2308 -1.7446,1.639 -3.5049,5.0316 -3.9119,7.5392 -0.4069,2.5076 -2.2795,6.5778 -4.1613,9.045 -1.8818,2.4672 -3.4215,4.9365 -3.4215,5.4874 0,0.5509 -1.2219,2.7178 -2.7154,4.8152 -1.4936,2.0975 -3.3767,5.7901 -4.1847,8.2058 -0.8081,2.4158 -2.5457,5.5923 -3.8614,7.059 -1.3157,1.4667 -3.6593,5.3667 -5.208,8.6667 -1.5487,3.3 -3.9665,8.1 -5.3729,10.6666 -1.4064,2.5667 -2.8713,6.2377 -3.2553,8.1579 -0.3841,1.9201 -3.1174,5.9102 -6.074,8.8668 -3.3291,3.3292 -6.0928,7.7586 -7.2594,11.6349 -1.0361,3.4426 -2.7544,7.2525 -3.8184,8.4665 -1.064,1.214 -3.9032,6.1073 -6.3093,10.8739 -2.4061,4.7667 -5.4273,9.8667 -6.7137,11.3334 -1.2865,1.4666 -3.5823,6.2271 -5.1019,10.5787 -3.0344,8.6896 -2.2433,16.024 2.1141,19.5993 2.4782,2.0333 12.427,22.4496 12.427,25.5018 0,1.0744 1.7592,4.1671 3.9092,6.8726 2.1501,2.7056 4.2887,6.6466 4.7524,8.7579 0.4637,2.1113 1.7417,4.5845 2.84,5.496 2.5906,2.15 11.1651,15.0662 11.1651,16.8185 0,0.7419 1.2509,2.9392 2.7799,4.883 1.529,1.9438 3.3849,5.7747 4.1242,8.5131 0.7394,2.7385 2.721,6.4791 4.4036,8.3124 1.6826,1.8333 3.4957,4.8333 4.029,6.6667 0.5334,1.8333 2.0269,4.5333 3.3189,6 1.2921,1.4666 3.0573,4.8791 3.9227,7.5833 0.8654,2.7042 2.6521,6.3042 3.9703,8 1.3183,1.6958 3.1301,5.3315 4.0262,8.0792 0.8961,2.7477 2.8325,5.8387 4.3031,6.8687 1.63,1.1417 2.9579,3.99 3.4013,7.2955 0.4855,3.6198 1.7249,6.0763 3.7281,7.3888 1.7524,1.1482 3.3767,3.9701 3.9044,6.783 0.5644,3.0083 2.8207,6.734 6.0096,9.9228 2.8434,2.8434 6.3005,8.2989 7.802,12.3119 1.4828,3.9632 5.0585,10.7821 7.946,15.153 2.8874,4.3709 5.6429,9.5509 6.1232,11.511 0.4803,1.9602 2.2636,5.2602 3.9628,7.3333 1.6992,2.0732 4.294,6.1695 5.7663,9.1028 4.7906,9.5447 9.8015,19.2844 13.9893,27.1911 1.3181,2.4884 3.5283,5.5789 4.9117,6.8678 1.713,1.5959 2.7953,5.0756 3.3929,10.9092 1.1794,11.5115 -0.019,16.9216 -4.0899,18.4695 -1.8049,0.6863 -30.7818,1.2291 -65.6124,1.2291 h -62.3798 l -5.4723,-3.9642 c -3.9791,-2.8824 -5.8721,-5.4484 -6.9371,-9.4036 -0.8056,-2.9918 -2.4917,-6.4666 -3.747,-7.7219 -2.4123,-2.4123 -12.2437,-21.505 -12.2437,-23.7774 0,-0.7341 -1.557,-2.7893 -3.46,-4.5672 -4.2161,-3.9387 -7.2067,-9.4527 -7.2067,-13.2876 0,-1.5698 -1.9589,-5.1428 -4.3531,-7.9399 -2.3943,-2.7971 -5.1793,-7.3925 -6.189,-10.212 -1.0097,-2.8194 -3.1945,-6.7554 -4.8552,-8.7466 -1.6606,-1.9912 -3.4351,-6.0812 -3.9432,-9.0888 -0.6567,-3.8871 -1.8129,-5.8735 -3.9981,-6.8692 -3.9247,-1.7882 -9.9947,-12.8646 -9.9947,-18.238 0,-2.8917 -0.9652,-4.7546 -3.2336,-6.2409 -1.7784,-1.1653 -3.8859,-3.9901 -4.6833,-6.2775 -0.7974,-2.2873 -2.3355,-5.1375 -3.4181,-6.3337 -1.0826,-1.1963 -2.7855,-4.5352 -3.7842,-7.4199 -2.3681,-6.8401 -5.022,-6.6548 -7.0921,0.4951 -2.035,7.0287 -6.4409,14.4227 -11.398,19.1282 -2.4752,2.3495 -3.724,4.8863 -3.724,7.5644 0,2.2846 -1.365,5.6614 -3.1522,7.7984 -1.7338,2.0729 -5.0998,8.2689 -7.4801,13.7689 -2.3803,5.5 -5.7467,11.5171 -7.4808,13.3712 -1.7341,1.8541 -3.8715,5.4541 -4.7497,8 -0.8782,2.5459 -3.2192,6.7288 -5.2022,9.2955 -1.983,2.5667 -4.2192,6.5329 -4.9693,8.8138 -0.7501,2.2809 -3.0743,6.7207 -5.1648,9.8661 -5.0711,7.6301 -4.9168,7.3563 -9.9686,17.6919 -2.4298,4.9711 -5.7294,9.8978 -7.3324,10.9482 -1.8827,1.2335 -3.2502,3.9346 -3.8622,7.6282 -1.2783,7.7154 -2.624,9.9424 -7.6773,12.7047 -3.9109,2.1378 -10,2.3693 -68.2938,2.5963 -35.2,0.137 -65.6883,-0.2714 -67.7519,-0.9075 z"
       id="path1" />
  </g>
</svg>
