<?xml version="1.0" encoding="UTF-8" standalone="no"?>
<!-- Created with Inkscape (http://www.inkscape.org/) -->

<svg
   width="146.62508mm"
   height="153.61177mm"
   viewBox="0 0 146.62508 153.61177"
   version="1.1"
   id="svg1"
   xml:space="preserve"
   xmlns="http://www.w3.org/2000/svg"
   xmlns:svg="http://www.w3.org/2000/svg"><defs
     id="defs1" /><g
     id="layer1"
     transform="translate(-27.991279,-90.921045)"><path
       style="fill:#000000"
       d="m 86.200267,244.37931 c -0.5019,-0.13432 -1.21729,-0.52 -1.58974,-0.85707 -0.65675,-0.59435 -0.67629,-1.4079 -0.64695,-26.93902 l 0.0303,-26.32617 -1.32133,-2.62649 c -0.72673,-1.44456 -1.82632,-3.26148 -2.44352,-4.0376 -1.46473,-1.84186 -1.921,-2.75481 -1.921,-3.84373 0,-0.55299 -0.50233,-1.4084 -1.32292,-2.2528 -1.41327,-1.45427 -4.42077,-6.06744 -4.83763,-7.42038 -0.13843,-0.4493 -0.93304,-1.81211 -1.76578,-3.02846 -0.83275,-1.21635 -1.62838,-2.59499 -1.76806,-3.06364 -0.13968,-0.46865 -0.65134,-1.43988 -1.13701,-2.15829 -1.07204,-1.58576 -1.93644,-3.11452 -2.95163,-5.22019 -0.42095,-0.87313 -1.0443,-1.905 -1.38521,-2.29306 -0.34092,-0.38806 -0.81031,-1.30038 -1.04308,-2.02738 -0.23278,-0.727 -0.72149,-1.53073 -1.08602,-1.78606 -0.36454,-0.25533 -0.96682,-1.16864 -1.3384,-2.02957 -0.37158,-0.86093 -1.0366,-1.88282 -1.47781,-2.27088 -0.44122,-0.38805 -1.16771,-1.5244 -1.61443,-2.5252 -0.44671,-1.00081 -0.99595,-1.93321 -1.22052,-2.072 -0.22456,-0.13879 -0.67533,-0.82807 -1.0017,-1.53174 -0.96669,-2.0842 -2.85694,-5.24665 -3.41072,-5.70625 -0.28316,-0.235 -0.61104,-1.02889 -0.72862,-1.76421 -0.12288,-0.76845 -0.57156,-1.64802 -1.05518,-2.06852 -0.46276,-0.40237 -0.84139,-0.94892 -0.84139,-1.21457 0,-0.26564 -0.47625,-1.08227 -1.05833,-1.81473 -0.58209,-0.73246 -1.05834,-1.62741 -1.05834,-1.98879 0,-0.36137 -0.35718,-1.00949 -0.79375,-1.44025 -1.12822,-1.11324 -3.0868,-3.90001 -3.0868,-4.39207 0,-0.22827 -0.39768,-0.88765 -0.88374,-1.46529 -0.48605,-0.57765 -0.98052,-1.53421 -1.09882,-2.1257 -0.1183,-0.5915 -0.52013,-1.3515 -0.89296,-1.68891 -0.37283,-0.3374 -0.99195,-1.25833 -1.37583,-2.0465 -0.38387,-0.78817 -1.24821,-2.30617 -1.92075,-3.37332 -0.67254,-1.06715 -1.47844,-2.48582 -1.7909,-3.15259 -0.31246,-0.66676 -0.93895,-1.69864 -1.39221,-2.29305 -0.45326,-0.59441 -1.32978,-2.11262 -1.94782,-3.37381 -0.61804,-1.261181 -1.49987,-2.695671 -1.95963,-3.187761 -1.2716,-1.36102 -1.40976,-2.75257 -0.41904,-4.22057 l 0.83328,-1.23472 17.46251,-0.0914 17.46252,-0.0914 1.62251,1.02896 c 1.31903,0.83651 1.7322,1.35923 2.20898,2.79469 0.32257,0.97114 0.80047,1.84783 1.06201,1.9482 0.26154,0.10036 0.66982,0.7889 0.90727,1.53009 0.23746,0.74119 0.71177,1.665121 1.05404,2.053171 0.34226,0.38806 0.9461,1.35118 1.34187,2.14027 0.39577,0.78909 0.96931,1.64196 1.27453,1.89528 0.30523,0.25331 0.55495,0.62458 0.55495,0.82504 0,0.20046 0.37248,0.85571 0.82774,1.45611 0.45525,0.6004 1.10936,1.94417 1.45356,2.98617 0.34421,1.04199 0.92423,2.19293 1.28893,2.55764 0.36471,0.3647 0.66311,0.87662 0.66311,1.13759 0,0.26097 0.31887,0.76307 0.7086,1.11577 0.38973,0.3527 0.89567,1.26565 1.1243,2.02877 0.26406,0.88134 0.70557,1.4977 1.21032,1.6896 0.51206,0.19469 1.24018,1.22849 2.04771,2.90742 0.68921,1.43292 1.56597,2.88845 1.94836,3.23451 0.38239,0.34606 0.88244,1.20532 1.11121,1.90946 0.22878,0.70414 0.63177,1.40729 0.89555,1.56255 0.26378,0.15526 0.77844,0.86964 1.14369,1.5875 1.30682,2.56843 2.10439,3.99117 2.51423,4.485 0.62406,0.75194 2.81825,4.45164 2.81825,4.75194 0,0.14384 0.47625,0.86081 1.05833,1.59327 0.63004,0.79279 1.05834,1.74845 1.05834,2.36145 0,0.68113 0.34521,1.35139 1.01976,1.97996 0.56087,0.52264 1.48529,1.83278 2.05426,2.91143 0.56896,1.07864 1.147033,2.14327 1.284583,2.36584 0.42222,0.68316 1.23009,0.0844 1.47526,-1.09329 0.29007,-1.39349 1.82448,-4.09575 2.75224,-4.847 0.38379,-0.31078 0.91179,-1.40118 1.17332,-2.42312 0.56787,-2.21894 1.68229,-3.90111 2.58446,-3.90111 0.6539,0 1.0953,-0.94619 1.58392,-3.39528 0.12095,-0.60622 0.60855,-1.46733 1.08355,-1.91357 0.475,-0.44625 0.86364,-1.11986 0.86364,-1.49692 0,-0.37706 0.6578,-1.34158 1.46177,-2.14337 0.80397,-0.80179 1.59938,-1.95272 1.76758,-2.55763 0.16819,-0.60491 0.69956,-1.63678 1.18081,-2.29306 0.48125,-0.65627 1.07561,-1.59009 1.32079,-2.07516 0.85286,-1.68731 2.50396,-4.41419 3.09724,-5.11528 0.32839,-0.38806 0.97031,-1.46994 1.42649,-2.40419 0.45617,-0.93425 1.32104,-2.28362 1.92191,-2.99861 0.60088,-0.71499 1.37384,-2.0524 1.71769,-2.97203 0.34385,-0.91962 0.756,-1.75289 0.9159,-1.85171 0.15989,-0.0988 0.87336,-1.33078 1.58548,-2.73768 0.71212,-1.4069 1.67162,-2.95488 2.13223,-3.43995 0.4606,-0.48507 1.0709,-1.440791 1.35622,-2.123831 0.28532,-0.68303 0.84936,-1.54107 1.25344,-1.90676 0.40407,-0.36568 0.73468,-1.00182 0.73468,-1.41364 0,-1.04361 0.82903,-2.11762 2.3695,-3.06968 l 1.3117,-0.81068 14.12259,0.0888 c 7.76743,0.0489 14.94668,-0.0504 15.95389,-0.22062 1.28832,-0.2177 2.21665,-0.17697 3.13098,0.13736 1.55907,0.53598 3.68078,2.49876 3.68078,3.40506 0,0.97913 -1.32171,3.37185 -2.08957,3.78279 -0.37188,0.19903 -0.86223,0.9257 -1.08967,1.61484 -0.22743,0.689131 -0.96873,1.980341 -1.64733,2.869351 -0.6786,0.88901 -1.52418,2.27108 -1.87907,3.07127 -0.35489,0.80018 -1.1995,2.24863 -1.87691,3.21877 -0.67742,0.97014 -1.83346,2.94102 -2.56897,4.37974 -0.73552,1.43873 -1.70249,3.00991 -2.14883,3.49152 -0.44635,0.48161 -0.97442,1.48058 -1.17351,2.21994 -0.19909,0.73936 -0.51944,1.4416 -0.71188,1.56053 -0.19245,0.11894 -0.76365,1.03846 -1.26934,2.04337 -1.33466,2.65222 -3.98908,6.64538 -5.00557,7.53008 -0.77446,0.67406 -0.97178,1.18683 -1.08773,2.8267 -0.0162,0.22868 -0.30721,0.69098 -0.64676,1.02734 -0.7981,0.7906 -1.89816,2.58889 -3.28026,5.36229 -0.60828,1.22062 -1.63518,2.73327 -2.28201,3.36146 -0.64682,0.62819 -1.28859,1.61388 -1.42614,2.19042 -0.13756,0.57655 -0.44448,1.2864 -0.68206,1.57744 -0.23758,0.29104 -0.85094,1.40229 -1.36302,2.46944 -0.51208,1.06716 -1.40225,2.65466 -1.97815,3.52778 -0.57591,0.87313 -1.39168,2.2225 -1.81282,2.99861 -0.42114,0.77611 -1.14089,1.85986 -1.59944,2.40832 -0.45856,0.54846 -0.83374,1.21099 -0.83374,1.47228 0,0.2613 -0.56183,1.21112 -1.24851,2.11071 -0.68667,0.8996 -1.6398,2.45958 -2.11806,3.46661 -0.84391,1.77698 -1.78823,3.26546 -3.34557,5.27346 -0.41507,0.53518 -0.91505,1.56705 -1.11108,2.29306 -0.19602,0.726 -0.73849,1.72557 -1.20548,2.22125 -0.46699,0.49569 -0.84908,1.08548 -0.84908,1.31064 0,0.22517 -0.45236,0.93086 -1.00526,1.5682 -0.55289,0.63734 -1.11907,1.62537 -1.25818,2.19562 -0.1391,0.57025 -0.55986,1.46788 -0.93501,1.99474 -0.37516,0.52685 -0.6821,1.10724 -0.6821,1.28975 0,0.18251 -0.3118,0.61401 -0.69288,0.95889 -0.38108,0.34487 -0.96827,1.36166 -1.30485,2.25953 -0.33659,0.89787 -0.93037,2.07256 -1.3195,2.61042 -0.52608,0.72714 -0.70869,1.54136 -0.71207,3.175 -0.002,1.20839 0.0384,13.14678 0.0909,26.52976 0.10597,27.03024 0.28254,24.99959 -2.20827,25.39659 -1.7499,0.27891 -29.057383,0.3888 -30.058223,0.12096 z"
       id="path1" /></g></svg>
