<?xml version="1.0" encoding="UTF-8" standalone="no"?>
<!-- Created with Inkscape (http://www.inkscape.org/) -->

<svg
   version="1.1"
   id="svg1"
   width="445.92139"
   height="581.70898"
   viewBox="0 0 445.92139 581.70898"
   xmlns="http://www.w3.org/2000/svg"
   xmlns:svg="http://www.w3.org/2000/svg">
  <defs
     id="defs1" />
  <g
     id="g1"
     transform="translate(-2966.084,-3097.7556)">
    <path
       style="fill:#000000"
       d="m 2973.39,3677.6052 c -6.8499,-4.1794 -6.664,-2.517 -6.9282,-61.9447 -0.1368,-30.7659 0.2195,-57.7381 0.7918,-59.9381 2.0007,-7.6913 4.5842,-11.2362 9.0164,-12.3715 3.5443,-0.908 4.6394,-2.1134 6.1215,-6.7381 1.1022,-3.4393 3.5112,-6.9337 6.187,-8.9747 2.4101,-1.8383 5.8961,-5.5713 7.7466,-8.2957 1.8505,-2.7243 5.9663,-7.7776 9.1463,-11.2294 3.18,-3.4519 9.6656,-11.1019 14.4125,-17 4.7469,-5.8982 9.0888,-10.7239 9.6487,-10.7239 0.56,0 1.8754,-2.0517 2.9231,-4.5594 1.0478,-2.5076 3.1496,-5.2254 4.6708,-6.0395 1.5212,-0.8141 3.6587,-3.1124 4.7501,-5.1073 1.0914,-1.9949 4.6976,-6.5896 8.0138,-10.2103 3.3162,-3.6207 6.0294,-7.1066 6.0294,-7.7464 0,-0.6399 2.8935,-4.2775 6.43,-8.0836 3.5364,-3.8061 7.6858,-8.7417 9.2208,-10.968 1.535,-2.2263 4.3577,-4.8863 6.2727,-5.9112 1.915,-1.0249 3.8471,-3.4034 4.2935,-5.2855 1.2017,-5.0662 9.9516,-16.0803 13.4778,-16.9653 1.6858,-0.4231 4.0249,-2.6256 5.1982,-4.8944 2.1518,-4.1611 15.5548,-20.3982 21.3233,-25.8321 1.7144,-1.615 3.1171,-3.5779 3.1171,-4.3619 0,-0.7841 1.5144,-2.1156 3.3653,-2.959 1.8509,-0.8433 3.7432,-3.0804 4.2052,-4.9714 0.4619,-1.8909 4.0475,-6.9222 7.968,-11.1807 3.9205,-4.2585 7.1281,-8.4908 7.1281,-9.4051 0,-2.1258 8.2645,-10.1856 10.4442,-10.1856 0.9078,0 2.7619,-2.55 4.1202,-5.6666 1.3583,-3.1167 6.27,-9.5667 10.9149,-14.3334 4.6448,-4.7666 9.4869,-10.9258 10.7602,-13.687 1.2733,-2.7611 3.2625,-5.3839 4.4204,-5.8282 1.158,-0.4444 2.9257,-2.3852 3.9282,-4.313 1.0025,-1.9278 4.4806,-6.2051 7.7292,-9.5051 3.2485,-3.3 7.5496,-8.4952 9.5579,-11.5449 2.0083,-3.0497 5.3244,-6.2379 7.3692,-7.0849 2.5933,-1.0742 4.1805,-3.0845 5.2477,-6.6466 1.055,-3.5211 2.4798,-5.3451 4.5888,-5.8744 2.8051,-0.7041 10.2525,-10.1246 10.2525,-12.9689 0,-1.7693 -244.611,-1.5845 -250.9996,0.1897 -4.1014,1.139 -6.0178,0.937 -10.6667,-1.1241 -10.1559,-4.5027 -9.6059,-0.8362 -9.4388,-62.9216 0.107,-39.7456 0.5966,-56.4953 1.7125,-58.5803 0.8595,-1.606 3.4745,-4.0857 5.811,-5.5104 4.1594,-2.5361 8.6264,-2.5897 213.5816,-2.5635 119.662,0.015 211.5555,0.5423 214.5209,1.2303 9.9606,2.3106 9.4358,-0.9779 9.8551,61.7549 l 0.3761,56.2624 -4.2262,8.3262 c -2.3244,4.5794 -5.2791,8.6603 -6.566,9.0688 -1.2869,0.4084 -3.0744,2.5162 -3.9723,4.6839 -0.8979,2.1677 -3.9384,6.0244 -6.7565,8.5705 -2.8182,2.546 -6.2994,6.9025 -7.736,9.681 -1.4365,2.7786 -3.7106,6.0531 -5.0535,7.2769 -4.3844,3.9955 -9.2311,9.6592 -13.6928,16.0012 -2.4092,3.4244 -5.7373,6.5668 -7.3958,6.983 -1.6585,0.4163 -3.7397,2.5052 -4.6248,4.6421 -0.8851,2.1369 -3.0611,5.2491 -4.8354,6.9161 -1.7744,1.6669 -3.2262,3.7853 -3.2262,4.7075 0,0.9223 -1.8,2.9585 -4,4.5251 -2.2,1.5665 -4,3.6006 -4,4.5202 0,0.9196 -4.2659,6.1288 -9.4797,11.5759 -5.2139,5.4471 -10.458,11.4039 -11.6536,13.2372 -5.4277,8.3227 -11.4794,15.4485 -16.482,19.4073 -2.9902,2.3661 -6.221,6.1675 -7.1796,8.4474 -0.9587,2.2799 -2.7026,4.1453 -3.8754,4.1453 -1.1728,0 -2.9735,2.013 -4.0015,4.4733 -1.028,2.4604 -3.9518,6.302 -6.4973,8.537 -2.5455,2.2351 -5.6665,6.0715 -6.9355,8.5255 -1.269,2.4539 -5.2146,7.4307 -8.768,11.0596 -3.5534,3.6288 -6.4607,7.003 -6.4607,7.4983 0,0.4953 -3.373,5.0269 -7.4957,10.0701 -4.8308,5.9096 -8.734,9.4099 -10.9789,9.8457 -2.8287,0.549 -3.639,1.6344 -4.3122,5.7763 -0.7842,4.8244 -1.9043,6.3395 -12.2132,16.5203 -2.0167,1.9916 -3.6667,4.4063 -3.6667,5.366 0,0.9597 -0.9222,2.0988 -2.0493,2.5313 -1.1271,0.4326 -2.8775,2.3881 -3.8898,4.3456 -1.0123,1.9575 -6.9704,9.2348 -13.2404,16.1717 -6.2699,6.937 -11.4195,13.5504 -11.4435,14.6965 -0.054,2.585 -6.3864,8.6513 -10.2444,9.8141 -1.5771,0.4754 -3.2548,2.4076 -3.7282,4.2939 -0.4735,1.8863 -4.4362,7.7148 -8.8061,12.9522 -4.3699,5.2374 -9.1283,11.0226 -10.5742,12.8559 -1.446,1.8334 -4.431,5.3599 -6.6335,7.8368 -2.2024,2.4769 -3.6808,5.0269 -3.2854,5.6667 1.0959,1.7732 242.6973,1.4808 249.1168,-0.3015 4.5001,-1.2495 6.0934,-1.0417 11.5266,1.5031 3.5262,1.6515 6.954,4.378 7.778,6.1867 1.0016,2.1981 1.4734,21.3143 1.4734,59.6899 0,53.5952 -0.1291,56.6158 -2.5482,59.604 l -2.5483,3.1477 -99.1184,0.3326 c -334.843,1.1237 -330.62,1.1378 -334.3149,-1.1165 z"
       id="path1" />
  </g>
</svg>
