<?xml version="1.0" encoding="UTF-8" standalone="no"?>
<!-- Created with Inkscape (http://www.inkscape.org/) -->

<svg
   width="210mm"
   height="297mm"
   viewBox="0 0 210 297"
   version="1.1"
   id="svg1"
   xml:space="preserve"
   xmlns:inkscape="http://www.inkscape.org/namespaces/inkscape"
   xmlns:sodipodi="http://sodipodi.sourceforge.net/DTD/sodipodi-0.dtd"
   xmlns="http://www.w3.org/2000/svg"
   xmlns:svg="http://www.w3.org/2000/svg"><sodipodi:namedview
     id="namedview1"
     pagecolor="#505050"
     bordercolor="#eeeeee"
     borderopacity="1"
     inkscape:showpageshadow="0"
     inkscape:pageopacity="0"
     inkscape:pagecheckerboard="0"
     inkscape:deskcolor="#505050"
     inkscape:document-units="mm"><inkscape:page
       x="0"
       y="0"
       width="210"
       height="297"
       id="page2"
       margin="0"
       bleed="0" /></sodipodi:namedview><defs
     id="defs1" /><g
     inkscape:label="Capa 1"
     inkscape:groupmode="layer"
     id="layer1"><path
       style="fill:#000000;stroke-width:5.76288"
       d="m 98.790779,289.4139 c -8.330585,-1.71044 -14.819254,-4.70993 -21.786089,-10.07099 -8.701458,-6.6959 -11.487028,-9.85074 -16.044605,-18.17152 -9.163496,-16.72989 -14.038947,-28.44707 -17.256983,-41.4737 -0.934208,-3.78178 -2.431884,-9.41657 -3.328116,-12.52178 -2.743859,-9.50679 -4.547153,-19.23269 -6.371638,-34.36564 -1.626545,-13.49122 -1.762058,-15.69269 -1.979129,-32.15648 -0.184424,-13.99765 -0.08533,-18.64386 0.476525,-22.33769 0.841366,-5.53002 0.90981,-5.3746 -4.688048,-10.64835 -5.089545,-4.7948 -7.546917,-9.425128 -9.014523,-16.985548 -1.091371,-5.622385 -1.097842,-5.845856 -0.351667,-12.145893 0.680196,-5.742019 0.95013,-6.764702 2.562355,-9.707136 2.251068,-4.108508 7.365414,-9.707062 10.593531,-11.59644 3.978243,-2.328383 10.048386,-4.607419 13.248151,-4.973882 l 2.981723,-0.341531 2.445229,-5.861573 c 1.344809,-3.223841 2.445172,-5.929414 2.445172,-6.012276 0,-0.08293 -1.337022,-0.303838 -2.971184,-0.491131 -3.482645,-0.398934 -5.329182,-1.585421 -7.031558,-4.518411 -2.366017,-4.076159 -0.374577,-8.405134 5.165605,-11.229749 2.951766,-1.504946 3.853616,-1.701282 10.306985,-2.243904 l 7.072166,-0.594692 1.851531,-2.588562 c 3.319012,-4.640177 13.76105,-11.5198464 20.801536,-13.7049494 7.31305,-2.2697019 14.875962,-2.5938933 21.298812,-0.912972 4.5515,1.1911256 11.75366,4.4677913 15.49797,7.0508414 6.19189,4.271572 12.42408,11.592623 15.28962,17.961102 2.50556,5.568286 3.53616,10.865259 3.14406,16.159913 l -0.33334,4.498755 2.35531,1.391577 c 3.14569,1.858588 7.5487,5.818781 9.45113,8.500752 1.375,1.938373 1.53319,2.504136 1.43901,5.145687 -0.0877,2.4592 -0.3528,3.283917 -1.54812,4.811646 -1.17139,1.497271 -1.93457,1.947129 -4.06192,2.39425 -3.60715,0.758146 -5.75727,0.23136 -8.35793,-2.047274 -1.20845,-1.05885 -2.3244,-1.796427 -2.47988,-1.639059 -0.28523,0.288763 -2.00754,5.60713 -2.02077,6.240221 -0.005,0.187861 1.47311,1.128897 3.2823,2.091385 2.69025,1.43124 3.76892,2.39751 5.92141,5.304408 3.95343,5.338936 5.52868,9.55872 6.8256,18.284694 l 1.09486,7.366341 -1.33623,4.17074 c -0.98048,3.06027 -2.36659,5.73933 -5.2058,10.062 -5.00016,7.61242 -7.66519,9.63354 -16.12798,12.23085 -3.15561,0.96845 -6.12393,1.76089 -6.59623,1.76089 -0.76266,0 -0.89887,0.75518 -1.21748,6.7504 -0.43643,8.21549 -0.0229,27.61658 0.60007,28.04329 0.59463,0.4082 2.95365,12.9065 3.7196,19.70695 1.19778,10.63414 -0.76401,19.3165 -6.09283,26.9654 -1.6431,2.3584 -2.95938,3.53725 -6.16345,5.51975 -3.49009,2.15942 -4.73371,2.63941 -8.67444,3.34804 -4.27308,0.76843 -4.91452,0.7705 -9.018811,0.0292 -2.848716,-0.51376 -5.867565,-1.48661 -8.496759,-2.7377 -3.827485,-1.82122 -4.341363,-2.25788 -8.360098,-7.10384 -4.037009,-4.86806 -4.433232,-5.55644 -6.927605,-12.03651 -2.147345,-5.57842 -2.93424,-8.49151 -4.177273,-15.46453 -1.505179,-8.44294 -1.532842,-8.87569 -1.602317,-25.03788 -0.04009,-9.04551 0.1071,-17.70561 0.324749,-19.24451 0.501152,-3.54714 1.940293,-5.74139 4.685584,-7.14538 3.519933,-1.80019 7.052693,-0.67673 9.400903,2.98965 1.086733,1.69677 1.278022,2.5369 1.278022,5.61154 0,1.98881 -0.244558,4.07872 -0.543535,4.64417 -0.686837,1.29934 -0.679731,21.00375 0.0118,28.60911 0.956545,10.54182 4.041067,20.49829 8.239831,26.59694 1.423824,2.06822 2.317645,2.78831 4.803667,3.87016 2.710191,1.17942 3.420382,1.29125 6.303992,0.99298 3.42183,-0.3537 4.27345,-0.74239 6.66501,-3.04056 1.11738,-1.07377 1.69894,-2.33707 2.39609,-5.20479 0.83822,-3.448 0.87125,-4.41443 0.36941,-10.80064 -0.30297,-3.85755 -1.36176,-11.65315 -2.35238,-17.32351 l -1.80119,-10.30971 -0.0812,-16.14278 -0.0813,-16.14282 -1.41732,-0.74887 c -4.14647,-2.19097 -8.692701,-7.39527 -12.646776,-14.47748 -2.468875,-4.42213 -3.246325,-10.36352 -2.27845,-17.412339 0.637651,-4.643543 1.016124,-5.843946 3.140437,-9.960235 2.283485,-4.424774 2.658918,-4.868239 6.876339,-8.120888 6.51959,-5.028218 10.75599,-7.393758 14.93324,-8.338504 1.97482,-0.44649 3.73402,-0.954148 3.90923,-1.127744 0.17525,-0.173452 1.0817,-2.798756 2.01424,-5.833752 l 1.69561,-5.518061 -2.29224,-0.68915 c -1.26082,-0.379298 -3.38129,-1.247969 -4.7123,-1.930741 -2.20691,-1.132211 -2.46735,-1.450257 -2.95766,-3.611527 -0.43242,-1.905325 -0.38603,-3.010632 0.23484,-5.637172 l 0.77256,-3.267213 3.43298,-1.030101 c 1.88818,-0.566513 3.9786,-1.03242 4.64533,-1.035203 3.13042,-0.01153 3.25509,-0.201786 2.69364,-4.07419 -0.6707,-4.625393 -2.68695,-8.121358 -7.13261,-12.367181 -3.69192,-3.52595 -6.42855,-5.014826 -12.18667,-6.630284 -4.20146,-1.178716 -7.428261,-1.22667 -13.475547,-0.200046 -3.587514,0.608898 -5.327389,1.208692 -8.086711,2.787678 -1.933588,1.106531 -3.515691,2.169451 -3.515691,2.362075 0,0.192512 0.536088,0.486494 1.191374,0.652853 1.839085,0.467357 3.301828,4.205756 3.057371,7.814155 -0.179841,2.656458 -0.34306,2.99161 -2.342295,4.807928 l -2.148893,1.952409 -5.643107,-0.218025 -5.643046,-0.218022 -3.691755,8.05711 c -2.030517,4.431433 -3.691769,8.242025 -3.691769,8.468049 0,0.226142 0.859063,0.80309 1.909024,1.282393 2.981962,1.361367 10.164496,9.176385 12.420946,13.514811 l 1.915039,3.682047 -0.04011,7.609519 c -0.04011,7.53949 -0.05727,7.660312 -1.939723,13.121223 l -1.899803,5.511688 -5.134848,5.53551 c -5.024379,5.4165 -5.233029,5.57565 -9.698509,7.40026 -3.432244,1.40243 -5.585602,1.94987 -8.685539,2.20812 l -4.121886,0.34329 -0.312722,3.43653 c -1.260558,13.86595 -0.862557,39.01438 0.843026,53.26683 1.316174,10.99811 4.229852,24.65631 8.463655,39.67371 5.484167,19.45258 10.427904,30.92349 18.487372,42.89597 3.790038,5.63027 5.191723,7.27106 8.645335,10.1205 8.031553,6.62645 16.895502,9.91593 26.720122,9.91593 4.07024,0 5.27772,-0.21049 8.9938,-1.56988 5.89614,-2.15646 11.47917,-5.6148 15.0389,-9.31572 2.42754,-2.52381 3.43838,-4.11867 5.39139,-8.50645 1.32201,-2.97021 3.00543,-7.72004 3.74084,-10.55519 1.29572,-4.99506 1.32907,-5.44393 1.07619,-14.48267 -0.21535,-7.69488 -0.60587,-11.47651 -2.2309,-21.60132 -2.70021,-16.82332 -3.0197,-20.12822 -3.03724,-31.42002 -0.0171,-11.13687 0.44274,-13.99029 4.15988,-25.81325 1.78673,-5.68274 2.69145,-7.63908 6.13006,-13.2553 6.98298,-11.40558 10.31019,-14.01965 16.15769,-12.6948 2.49352,0.56477 2.82888,0.80539 3.94645,2.82972 1.1911,2.15754 1.20313,2.27579 0.48627,4.77198 -0.4748,1.65342 -2.24286,4.70965 -4.99401,8.63247 -5.71521,8.14937 -7.96123,13.1534 -9.66665,21.53743 -1.17418,5.77216 -1.33958,7.6416 -1.28151,14.48264 0.0676,7.94068 1.78158,23.73564 4.15568,38.29321 0.7984,4.8957 1.04548,8.55486 1.06067,15.71007 0.0229,10.87104 -0.67432,15.4848 -3.67242,24.29438 -3.75931,11.04633 -8.39743,17.47436 -17.86367,24.75778 -10.73031,8.25599 -24.60877,11.01415 -39.763891,7.90246 z M 129.82601,130.27311 c 4.35963,-1.23009 8.26153,-3.624 11.88318,-7.29055 5.61217,-5.6817 8.15734,-11.80973 8.15734,-19.64011 0,-7.830338 -2.54517,-13.958346 -8.15734,-19.640044 -5.61212,-5.681716 -11.66502,-8.258497 -19.39953,-8.258497 -7.73442,0 -13.78741,2.576781 -19.39952,8.258497 -5.708951,5.779699 -8.189008,11.845441 -8.13044,19.885544 0.134582,18.47369 17.44228,31.65219 35.04631,26.68516 z m -17.61978,-6.28505 c -5.55581,-2.31272 -8.92351,-5.50438 -11.58696,-10.98134 -3.65006,-7.50573 -1.802101,-18.211237 4.20213,-24.343532 5.1308,-5.240215 10.90104,-7.076357 18.57362,-5.910302 3.87412,0.588783 4.91708,0.96274 7.34967,2.635139 6.77313,4.656583 9.73818,10.422252 9.73818,18.936335 0,9.37145 -3.58769,15.11972 -11.94251,19.1346 -3.39787,1.63285 -3.87938,1.72961 -8.5526,1.71862 -4.09974,-0.0126 -5.43894,-0.21455 -7.78153,-1.18952 z M 55.632392,111.12651 c 4.359579,-1.23009 8.261476,-3.62402 11.883198,-7.29055 5.612119,-5.681721 8.157292,-11.80973 8.157292,-19.640108 0,-7.830323 -2.545173,-13.95835 -8.157292,-19.640047 -5.612131,-5.681697 -11.665095,-8.258486 -19.399586,-8.258486 -7.73443,0 -13.787394,2.576789 -19.399513,8.258486 -5.708914,5.779699 -8.188966,11.845441 -8.130431,19.885564 0.134598,18.473691 17.442266,31.652191 35.046332,26.685141 z m -9.134859,-5.57107 c -6.144828,-2.23811 -10.575827,-6.127961 -13.253877,-11.635358 -1.440229,-2.961689 -1.552947,-3.561423 -1.582903,-8.420277 -0.05898,-9.587269 2.729886,-14.978457 9.959899,-19.253392 8.355865,-4.940592 17.601776,-4.275332 24.863876,1.789077 2.633607,2.199293 3.490093,3.326353 5.231931,6.885163 l 2.082796,4.255339 0.0047,5.70106 c 0.0045,5.535588 -0.04582,5.800449 -1.688345,9.12763 -2.129759,4.31049 -6.295292,8.695008 -9.807158,10.322758 -5.075056,2.35221 -11.379797,2.84189 -15.810972,1.228 z"
       id="path1" /></g></svg>
