<?xml version="1.0" encoding="UTF-8" standalone="no"?>
<!-- Created with Inkscape (http://www.inkscape.org/) -->

<svg
   width="110.39354mm"
   height="56.473454mm"
   viewBox="0 0 110.39354 56.473454"
   version="1.1"
   id="svg1"
   xml:space="preserve"
   xmlns="http://www.w3.org/2000/svg"
   xmlns:svg="http://www.w3.org/2000/svg"><defs
     id="defs1" /><g
     id="layer1"
     transform="translate(-46.416174,-119.25562)"><path
       style="fill:#000000"
       d="m 99.31936,175.05583 c -0.676331,-1.26373 -0.3737,-2.08519 1.59232,-4.32223 2.53064,-2.87948 9.89346,-14.0009 10.61252,-16.03005 0.12887,-0.36365 0.61579,-1.17713 1.08204,-1.80772 0.69732,-0.9431 1.0852,-1.14652 2.18621,-1.14652 2.47594,0 3.20837,2.18386 1.81928,5.4245 -0.37779,0.88134 -0.79232,2.20419 -0.92118,2.93966 l -0.23429,1.33722 0.94407,-1.23472 c 0.51924,-0.6791 1.97969,-3.29847 3.24546,-5.82083 1.26576,-2.52236 2.46552,-4.78455 2.66613,-5.02708 0.46532,-0.56256 3.17785,-0.57537 3.73558,-0.0176 0.57127,0.57126 0.53421,3.86738 -0.0791,7.03546 -1.00775,5.20553 -1.00874,5.18566 0.26336,5.30895 1.47151,0.14261 1.63822,1.20872 0.53305,3.40885 -1.38045,2.74817 -1.95393,3.22618 -3.87052,3.22618 -1.53508,0 -1.76621,-0.11263 -2.52614,-1.23096 l -0.83646,-1.23096 -1.02834,1.25582 c -1.35415,1.6537 -2.39127,2.16408 -4.99652,2.45883 -2.05164,0.23212 -2.20466,0.19556 -3.0644,-0.73211 -0.4977,-0.53703 -0.90492,-0.8109 -0.90492,-0.60859 0,0.54454 -3.77559,5.4053 -5.06182,6.51667 -0.89868,0.77652 -1.46441,0.96247 -2.95146,0.97014 -1.46378,0.008 -1.91429,-0.12993 -2.20486,-0.67287 z m -52.386847,-5.6532 c -0.539709,-0.59637 -0.599591,-1.16463 -0.436802,-4.14514 0.103759,-1.89971 0.441812,-5.67652 0.751229,-8.39291 0.900272,-7.90351 1.29458,-14.44496 1.550089,-25.71551 l 0.239085,-10.54606 0.923133,-0.68842 c 1.042517,-0.77744 1.716539,-0.79664 14.775478,-0.42091 9.473529,0.27258 9.362295,0.22574 9.045217,3.80836 -0.122575,1.38495 -0.375297,3.70872 -0.561605,5.16393 -0.186307,1.45521 -0.345712,4.18465 -0.354232,6.06541 -0.01415,3.12459 -0.08313,3.46696 -0.799542,3.96875 -1.020301,0.71465 -2.724121,0.70004 -3.769709,-0.0323 -0.829696,-0.58114 -0.830097,-0.58523 -0.666784,-6.80906 l 0.163411,-6.22757 -3.027683,-0.46451 c -4.867473,-0.74678 -5.962004,-0.82314 -8.261029,-0.57635 l -2.174988,0.23348 -0.08722,6.06622 c -0.23747,16.51609 -2.114536,37.23294 -3.513589,38.77887 -0.784433,0.86679 -2.984832,0.82837 -3.794458,-0.0663 z m 42.8473,0.15938 c -0.315946,-0.38069 -0.372275,-1.23226 -0.198297,-2.99785 0.133652,-1.35637 0.142953,-2.62801 0.02067,-2.82587 -0.125092,-0.2024 -1.175896,0.49024 -2.402537,1.58365 -3.369897,3.00387 -5.627448,4.06625 -8.640709,4.06625 -2.15069,0 -2.624882,-0.1209 -3.559929,-0.90769 -2.939917,-2.47378 -2.043226,-8.5091 1.774158,-11.94126 1.489389,-1.33909 2.058868,-1.60836 4.145947,-1.96039 2.449385,-0.41315 6.030701,-0.0623 7.524528,0.7372 0.490949,0.26275 1.18226,-0.11437 3.311793,-1.80664 1.48023,-1.17628 3.29405,-2.44618 4.030712,-2.822 3.299851,-1.68346 5.990241,-1.13397 5.990241,1.22345 0,1.87535 -0.56473,3.01345 -1.49528,3.01345 -0.81725,0 -3.336768,1.56246 -5.518966,3.42255 l -1.193415,1.01725 0.62471,1.20806 c 0.393057,0.76009 0.688534,2.32742 0.796825,4.22667 0.164673,2.88813 0.130714,3.06782 -0.785572,4.15676 -0.804882,0.95655 -1.199085,1.13815 -2.47063,1.13815 -0.917719,0 -1.686563,-0.2092 -1.954249,-0.53174 z m -8.782046,-6.56883 c 1.893497,-1.34592 3.492513,-2.80918 3.492513,-3.19599 0,-0.47055 -2.077598,-0.3251 -3.130018,0.21913 -1.218848,0.63029 -1.649999,1.14436 -2.335228,2.78435 -0.698057,1.67068 -0.178196,1.72142 1.972733,0.19251 z m 57.467513,5.58833 c -2.46437,-1.23926 -2.07551,-6.80136 0.76132,-10.88944 0.7362,-1.06092 0.79645,-1.63052 0.30831,-2.91445 -0.50283,-1.32254 -1.31255,-0.83139 -1.13511,0.68852 0.21972,1.88204 -0.67395,2.98594 -2.41728,2.98594 -1.21012,0 -1.50648,-0.16125 -2.10722,-1.14653 -0.89138,-1.46196 -0.94826,-4.49919 -0.10827,-5.78118 1.12314,-1.71413 3.02742,-2.59729 5.60032,-2.59729 2.11493,0 2.42365,0.0965 3.38454,1.05734 l 1.05735,1.05735 2.90635,-2.92606 c 3.10002,-3.12102 4.74156,-4.12779 7.17819,-4.40244 2.17005,-0.24459 2.91594,0.50996 2.91594,2.94983 0,1.60214 -0.1325,1.96422 -0.95579,2.61182 -0.61734,0.4856 -1.35245,0.71766 -2.07597,0.65532 -1.48324,-0.12779 -3.59466,1.60133 -6.35328,5.20295 l -2.08023,2.71592 -0.22282,3.59576 c -0.24216,3.90803 -1.10364,6.53166 -2.36664,7.2076 -0.95937,0.51343 -3.20135,0.47635 -4.28971,-0.071 z"
       id="path1" /></g></svg>
