<?xml version="1.0" encoding="UTF-8" standalone="no"?>
<!-- Created with Inkscape (http://www.inkscape.org/) -->

<svg
   width="37.345184mm"
   height="51.152782mm"
   viewBox="0 0 37.345184 51.152782"
   version="1.1"
   id="svg1"
   xml:space="preserve"
   xmlns="http://www.w3.org/2000/svg"
   xmlns:svg="http://www.w3.org/2000/svg"><defs
     id="defs1" /><g
     id="layer1"
     transform="translate(-82.970842,-111.87568)"><path
       style="fill:#000000"
       d="m 84.460443,162.4793 c -0.632202,-0.44281 -0.784051,-0.8903 -0.784051,-2.31057 0,-0.96878 0.256527,-2.25747 0.570059,-2.86378 0.313533,-0.6063 1.017888,-2.38436 1.565233,-3.95123 0.547346,-1.56687 2.504192,-6.608 4.348546,-11.2025 1.844354,-4.5945 3.536017,-9.0395 3.759251,-9.87778 0.223234,-0.83827 0.610741,-1.76226 0.861126,-2.0533 0.250386,-0.29104 0.789117,-1.19336 1.197181,-2.00516 0.865162,-1.72114 1.946076,-2.58095 3.244642,-2.58095 1.04095,0 2.09285,0.96768 2.09285,1.9253 0,0.34926 0.53153,1.22336 1.18118,1.94244 l 1.18117,1.30742 1.44067,-1.26467 c 2.80135,-2.45909 3.47104,-4.67205 2.36367,-7.81066 -1.66279,-4.71285 -4.74213,-5.85612 -10.050196,-3.73135 -3.598453,1.44044 -9.169271,5.659 -9.169271,6.94353 0,0.93613 -1.274156,1.50481 -2.886912,1.2885 -1.909154,-0.25607 -2.404754,-0.77838 -2.404754,-2.53432 0,-1.24966 0.239245,-1.76643 1.459685,-3.15292 1.693751,-1.92421 6.047722,-5.27665 8.594481,-6.61753 2.866293,-1.50911 5.27307,-2.05408 9.071587,-2.05408 2.98929,0 3.71416,0.12096 5.18169,0.86461 2.1044,1.06638 3.35726,2.51151 4.75559,5.48539 1.0061,2.13974 1.0789,2.56729 1.08883,6.39454 l 0.0106,4.10148 -1.31689,1.91281 c -0.72429,1.05205 -2.27088,2.69889 -3.43687,3.65964 -1.16598,0.96074 -2.0815,1.84046 -2.03449,1.95493 1.48846,3.62421 7.56291,16.89498 7.73462,16.89774 0.13244,0.002 0.34677,-0.33001 0.47629,-0.73807 0.69458,-2.18843 3.52672,-5.02504 4.83213,-4.83977 0.68966,0.0979 0.81598,0.3533 0.9104,1.84092 0.0603,0.95 -0.04,2.14062 -0.22294,2.64583 -0.18291,0.50521 -0.62912,1.8667 -0.99157,3.02554 -0.44396,1.41942 -1.12853,2.59939 -2.09785,3.61597 -1.3235,1.38805 -1.58177,1.509 -3.22214,1.509 -1.6353,0 -1.89,-0.11809 -3.06868,-1.42275 -1.32858,-1.47058 -1.5548,-1.92068 -5.37715,-10.69878 -1.25551,-2.88329 -2.74092,-6.24273 -3.30092,-7.46541 l -1.01818,-2.22305 -1.5176,0.18984 c -0.834683,0.10442 -1.622762,0.28885 -1.751288,0.40986 -0.277389,0.26116 -5.655381,13.83625 -7.532214,19.01277 -1.398111,3.85614 -2.330253,5.01974 -4.021237,5.01974 -0.512745,0 -1.285086,-0.24713 -1.716314,-0.54917 z"
       id="path1" /></g></svg>
