<?xml version="1.0" encoding="UTF-8" standalone="no"?>
<!-- Created with Inkscape (http://www.inkscape.org/) -->

<svg
   version="1.1"
   id="svg1"
   width="66.461769"
   height="66.632088"
   viewBox="0 0 66.46177 66.632088"
   xmlns="http://www.w3.org/2000/svg"
   xmlns:svg="http://www.w3.org/2000/svg">
  <defs
     id="defs1" />
  <g
     id="g1"
     transform="translate(-34.213962,-42.106098)">
    <path
       style="fill:#000000"
       d="m 36.265371,108.68158 -1.446337,0.0566 -0.605071,-0.69572 0.0029,-1.48257 0.05299,-31.120458 c 0.05355,-31.449251 -0.170067,-32.05975 0.353906,-32.538198 l 0.730101,-0.666666 1.341564,-0.01172 c 1.052596,-0.04578 12.123754,-0.09078 24.602574,-0.1 l 22.688763,-0.01675 8.256185,8.340783 8.256184,8.340783 0.0882,7.09255 c 0.0485,3.900903 0.0883,14.955051 0.0884,24.564775 l -0.14292,17.007271 -0.37325,0.88455 -1.017026,0.34806 -30.733333,0.0237 c -16.903332,0.0131 -31.368089,9e-4 -32.143904,-0.027 z M 87.075941,92.136945 V 78.034668 l -0.334958,-0.492935 c -0.648242,-0.953975 0.539051,-0.902301 -20.731707,-0.902301 -21.424194,0 -20.090555,-0.06181 -20.768566,0.962572 l -0.364767,0.551113 -0.0402,13.609824 c -0.02211,7.485404 -0.0046,13.803759 0.03893,14.040799 l 0.07913,0.43097 21.061067,0.002 21.061066,0.002 z m -36.394938,0.17454 c -0.217991,-0.232041 -0.308091,-0.487069 -0.308091,-0.872053 0,-0.384984 0.0901,-0.640012 0.308091,-0.872053 l 0.30809,-0.327947 h 15.020183 15.020182 l 0.30809,0.327947 c 0.4234,0.450689 0.4234,1.293417 0,1.744106 l -0.30809,0.327947 H 66.009276 50.989093 Z m 0.05086,-7.980809 c -0.287818,-0.247571 -0.358951,-0.424186 -0.358951,-0.891244 0,-0.467058 0.07113,-0.643673 0.358951,-0.891244 l 0.35895,-0.308756 h 14.918463 14.918462 l 0.35895,0.308756 c 0.513032,0.441291 0.513032,1.341197 0,1.782488 l -0.35895,0.308756 H 66.009276 51.090813 Z M 72.920308,61.233702 c 0.5594,-0.166123 0.76299,-0.311808 1.057534,-0.756749 l 0.364767,-0.551021 0.04271,-7.205678 c 0.02349,-3.963122 0.006,-7.401537 -0.03894,-7.640921 L 74.264729,44.64409 H 59.609276 44.953819 l -0.08165,0.435243 c -0.04491,0.239384 -0.06243,3.677799 -0.03894,7.640921 l 0.04271,7.205678 0.365702,0.552434 c 0.650959,0.983345 0.01893,0.941309 14.310097,0.951779 11.054503,0.0081 12.764408,-0.01703 13.368566,-0.196443 z M 60.875942,57.485336 c -0.146666,-0.03182 -0.416666,-0.171733 -0.6,-0.310926 l -0.333333,-0.253078 v -3.8819 -3.8819 l 0.333333,-0.254125 c 0.500317,-0.381429 1.042942,-0.418644 5.435297,-0.372779 l 4.035296,0.04214 0.393517,0.421266 0.393517,0.421266 v 3.624132 3.624135 l -0.393534,0.421266 -0.393533,0.421266 -4.301947,0.01854 c -2.36607,0.0102 -4.421946,-0.0075 -4.568613,-0.0393 z"
       id="path1" />
  </g>
</svg>
