<?xml version="1.0" encoding="UTF-8" standalone="no"?>
<!-- Created with Inkscape (http://www.inkscape.org/) -->

<svg
   version="1.1"
   id="svg1"
   width="288.978"
   height="244.57954"
   viewBox="0 0 288.978 244.57954"
   xmlns="http://www.w3.org/2000/svg"
   xmlns:svg="http://www.w3.org/2000/svg">
  <defs
     id="defs1" />
  <g
     id="g1"
     transform="translate(-153.43102,-166.9697)">
    <path
       style="fill:#000000"
       d="m 248.66667,410.9386 c -27.88991,-3.33952 -54.63373,-16.5011 -69.45734,-34.1824 -7.37207,-8.79325 -15.8947,-23.48754 -19.21681,-33.13266 -6.2893,-18.25976 -8.56567,-53.06148 -4.57783,-69.98717 2.27533,-9.65725 9.20654,-23.18646 15.8625,-30.96246 l 4.37862,-5.11544 0.6412,-21.62772 c 0.59919,-20.21091 0.93801,-22.50117 5.17209,-34.96105 4.23423,-12.46031 4.78321,-13.36214 8.38435,-13.77325 7.96306,-0.90909 37.42629,11.70381 57.04971,24.42238 l 11.56982,7.49877 10.04063,-2.07395 c 12.03463,-2.48582 43.14903,-2.77659 59.06913,-0.55201 l 10.91608,1.52535 9.75059,-6.04077 c 19.3856,-12.00994 49.47255,-25.00652 57.88983,-25.00652 3.93362,0 4.70403,1.73207 9.99702,22.47558 3.21634,12.60503 3.8647,17.85519 3.86948,31.33333 l 0.006,16.19109 5.28167,6.96636 c 13.66632,18.02549 18.17303,34.28828 16.91349,61.03364 -1.41485,30.04339 -9.23309,52.71177 -24.37267,70.66667 -13.08933,15.52338 -28.22367,24.3938 -54.45834,31.91866 -10.00559,2.86989 -13.81782,3.11859 -58.04229,3.78639 -26.0336,0.39311 -51.5336,0.21184 -56.66693,-0.40282 z m 102.78377,-17.37665 c 27.83842,-5.61236 43.60822,-18.95595 50.10895,-42.39961 4.62372,-16.67457 2.24988,-32.96332 -6.68001,-45.83674 -5.80607,-8.3701 -10.60767,-12.44261 -19.42497,-16.47543 l -7.87892,-3.60364 -30.12108,1.0487 c -39.33957,1.36964 -40.7709,1.3716 -77.45441,0.1062 -30.18344,-1.04117 -31.60818,-0.9761 -38.82254,1.77312 -9.62157,3.66655 -19.4893,13.08737 -24.59013,23.47644 -3.6293,7.39194 -3.91745,9.07534 -3.87744,22.65204 0.0388,13.16151 0.45008,15.65593 4.00779,24.30624 4.97214,12.08939 13.91692,21.63451 25.95463,27.69661 18.58499,9.35925 34.09581,11.36392 80.66102,10.4249 27.26445,-0.54981 38.94027,-1.31874 48.11711,-3.16883 z M 239.86384,363.9181 c -2.49178,-1.67838 -6.03051,-5.72838 -7.86384,-9 -2.82758,-5.04587 -3.33333,-7.66797 -3.33333,-17.28173 0,-9.61376 0.50575,-12.23587 3.33333,-17.28173 3.82697,-6.8293 10.76023,-12.05161 16,-12.05161 5.23977,0 12.17303,5.22231 16,12.05161 2.82758,5.04586 3.33333,7.66797 3.33333,17.28173 0,9.61376 -0.50575,12.23586 -3.33333,17.28173 -3.82697,6.82929 -10.76023,12.0516 -16,12.0516 -1.9831,0 -5.64437,-1.37322 -8.13616,-3.0516 z m 100,0 c -2.49178,-1.67838 -6.03051,-5.72838 -7.86384,-9 -2.82758,-5.04587 -3.33333,-7.66797 -3.33333,-17.28173 0,-9.61376 0.50575,-12.23587 3.33333,-17.28173 3.82697,-6.8293 10.76023,-12.05161 16,-12.05161 5.23977,0 12.17303,5.22231 16,12.05161 2.82758,5.04586 3.33333,7.66797 3.33333,17.28173 0,9.61376 -0.50575,12.23586 -3.33333,17.28173 -3.82697,6.82929 -10.76023,12.0516 -16,12.0516 -1.9831,0 -5.64437,-1.37322 -8.13616,-3.0516 z"
       id="path1" />
  </g>
</svg>
