<?xml version="1.0" encoding="UTF-8" standalone="no"?>
<!-- Created with Inkscape (http://www.inkscape.org/) -->

<svg
   version="1.1"
   id="svg1"
   width="625.17749"
   height="610.45367"
   viewBox="0 0 625.17751 610.4537"
   xmlns="http://www.w3.org/2000/svg"
   xmlns:svg="http://www.w3.org/2000/svg">
  <defs
     id="defs1" />
  <g
     id="g1"
     transform="translate(-357.26982,-351.23231)">
    <path
       style="fill:#000000"
       d="M 632.52521,960.34726 C 575.43227,953.90883 515.66868,928.79469 469.85855,891.99071 409.49959,843.49814 369.14117,771.57541 359.225,694.83067 c -2.6069,-20.17576 -2.6069,-56.35433 0,-76.53009 14.96824,-115.84454 96.86419,-214.03136 209.30022,-250.93453 35.30626,-11.58803 63.85707,-16.13374 101.33332,-16.13374 37.47626,0 66.02707,4.54571 101.33333,16.13374 112.43602,36.90317 194.33197,135.08999 209.30026,250.93453 2.6069,20.17576 2.6069,56.35433 0,76.53009 -9.91621,76.74474 -50.27463,148.66747 -110.6336,197.16004 -46.67184,37.49628 -105.90794,62.09729 -164.94744,68.50337 -15.2455,1.65421 -57.16922,1.56918 -72.38588,-0.14682 z m 66.61594,-210.78164 c 4.21421,-2.77302 12.48956,-11.53477 22.98249,-24.33333 9.01838,-11 16.39807,-20.45 16.39931,-21 0.005,-2.24379 2.14018,-0.74075 4.27357,3.00843 3.83435,6.73841 13.40018,4.65088 24.16739,-5.27399 l 5.93307,-5.46891 0.5137,10.17268 c 0.47967,9.49898 0.79989,10.42841 4.83514,14.03391 7.85273,7.0164 15.46809,4.71544 16.88478,-5.1017 0.50562,-3.50373 1.22416,-7.87042 1.59677,-9.70375 0.60938,-2.99834 0.38117,-2.89083 -2.27081,1.06978 -2.05146,3.06379 -3.80754,4.2805 -5.77315,4 -2.5204,-0.35967 -2.87182,-1.40908 -3.26042,-9.73645 -0.57095,-12.23494 1.72323,-22.46624 6.85411,-30.5671 3.21796,-5.08065 4.16947,-8.09861 4.20377,-13.33333 0.0432,-6.59277 -0.0551,-6.76623 -3.83558,-6.76623 -3.51799,0 -4.51296,1.15409 -10.66666,12.3727 -6.46411,11.78449 -24.45493,33.62729 -27.69712,33.62729 -2.42713,0 0.23941,-17.41353 3.71761,-24.27742 3.86087,-7.61907 3.9993,-10.57936 0.637,-13.6222 -3.67452,-3.32539 -6.89289,-1.10011 -10.7981,7.46612 -6.44772,14.14331 -33.00446,51.59686 -46.47166,65.53997 -4.1293,4.27523 -10.35782,9.23534 -13.84115,11.02246 -6.41944,3.2935 -7.94623,6.39151 -4.73333,9.6044 2.86676,2.86677 9.5322,1.75242 16.34927,-2.73333 z m -181.2826,-7.79506 c 17.16753,-5.45246 47.39512,-22.58315 65.33333,-37.02593 8.06667,-6.49481 20.61908,-18.04205 27.89425,-25.66054 7.27517,-7.61849 14.47517,-14.58054 16,-15.47122 1.52483,-0.89068 5.88903,-1.64068 9.69822,-1.66666 9.85984,-0.0673 49.54088,-3.84471 63.75672,-6.06934 25.86622,-4.04779 50.36661,-13.37697 59.24569,-22.55938 l 4.59489,-4.75186 h -4.6463 c -2.55547,0 -7.02317,1.22458 -9.92822,2.72129 -7.81487,4.02628 -26.47408,10.45153 -38.61526,13.29706 -17.26413,4.04619 -76.66666,10.17994 -76.66666,7.91639 0,-0.42304 1.77036,-2.46528 3.93414,-4.53831 5.38076,-5.1551 16.13321,-22.98589 24.29399,-40.28674 l 6.77962,-14.37277 0.16279,-20.03513 c 0.19643,-24.17553 -1.67061,-30.91976 -11.30196,-40.82551 -7.07915,-7.28083 -12.38983,-9.19133 -25.57957,-9.20217 -15.33981,-0.0126 -24.93612,6.50524 -32.81471,22.28787 -5.21264,10.44213 -5.68559,21.43075 -1.29512,30.09114 3.79566,7.48708 12.31221,17.55268 19.97903,23.61295 8.42491,6.65951 18.68372,8.11121 27.42306,3.88057 3.24018,-1.56854 6.19305,-2.5501 6.56193,-2.18122 0.92884,0.92884 -10.66111,22.47513 -16.56561,30.79627 -9.72722,13.70844 -17.76554,23.38403 -19.979,24.04837 -1.24589,0.37394 -9.91638,1.35542 -19.26775,2.18108 -19.03881,1.68097 -25.38751,1.1434 -66.33083,-5.6165 -21.57634,-3.56234 -26.6145,-3.96653 -40.21404,-3.22617 -25.11699,1.36737 -37.37116,6.8958 -46.46207,20.96119 -7.9811,12.34832 -10.02025,20.78136 -8.17451,33.80617 1.5822,11.16509 5.97918,19.55393 14.48955,27.64409 4.88817,4.64681 21.18825,12.81891 28.51854,14.29787 9.2712,1.87055 25.96233,0.14381 39.17586,-4.05286 z m -40,-4.3239 c -15.06085,-5.02785 -27.51326,-15.01509 -31.9445,-25.62054 -5.08229,-12.16364 -0.65841,-30.99829 9.85103,-41.94074 6.23865,-6.4957 16.9305,-11.98642 23.34065,-11.98642 1.88072,0 3.41949,-0.56104 3.41949,-1.24675 0,-1.92448 22.19428,-0.23339 45.33333,3.45416 32.07653,5.11187 37.8984,5.67136 59.66666,5.73404 11.18334,0.0322 20.33334,0.51793 20.33334,1.07939 0,1.42523 -29.99387,30.76549 -37.52472,36.70699 -14.54874,11.47832 -40.50621,25.21031 -59.80861,31.63989 -10.8108,3.60105 -25.47791,4.57985 -32.66667,2.17998 z M 630.59556,589.94083 c -4.73112,-0.76412 -6.98321,-2.1449 -11.14204,-6.83132 -7.09991,-8.00059 -10.33016,-14.7951 -10.58495,-22.26436 -0.17412,-5.10454 0.59211,-7.4496 4.09505,-12.53288 2.37008,-3.43935 6.62737,-8.08935 9.46062,-10.33334 4.46997,-3.54027 6.22522,-4.07996 13.26943,-4.07996 7.73736,0 8.3944,0.26573 14.0111,5.66666 7.28108,7.00138 9.4791,14.02839 8.23695,26.33333 -0.93877,9.29971 -4.48755,15.96506 -11.75676,22.0817 -4.00285,3.36818 -5.61582,3.57099 -15.5894,1.96017 z m 212.31609,130.47078 c 3.08745,-1.55138 9.91331,-6.35137 15.16857,-10.66667 5.25525,-4.31529 10.23403,-7.84598 11.06395,-7.84598 1.88171,0 6.89999,5.56918 11.71189,12.99761 2.01802,3.11536 4.67006,5.66536 5.89342,5.66667 4.387,0.005 6.44238,-1.64695 6.44238,-5.17693 0,-4.28855 -2.42346,-8.10704 -10.43738,-16.44551 l -6.04661,-6.29149 12.9987,-13.39578 c 9.7976,-10.09691 12.89443,-14.1295 12.57533,-16.37518 -1.14385,-8.04964 -13.7375,-1.43771 -29.12967,15.29367 l -7.37297,8.01447 -5.2937,-1.46966 c -18.10739,-5.02707 -27.83693,3.43665 -33.0642,28.76254 -0.76642,3.71328 2.25608,8.06918 6.11557,8.81348 1.64355,0.31696 3.16217,0.658 3.37472,0.75786 0.21255,0.0999 2.91255,-1.08773 6,-2.6391 z m -3.65984,-16.17932 c 1.70032,-5.62829 7.37949,-10.33333 12.47272,-10.33333 h 4.70042 l -6.56642,6.66666 c -7.08518,7.19335 -12.20704,8.96394 -10.60672,3.66667 z"
       id="path1" />
  </g>
</svg>
