<?xml version="1.0" encoding="UTF-8" standalone="no"?>
<!-- Created with Inkscape (http://www.inkscape.org/) -->

<svg
   version="1.1"
   id="svg1"
   width="320.8941"
   height="199.83643"
   viewBox="0 0 320.8941 199.83643"
   xmlns="http://www.w3.org/2000/svg"
   xmlns:svg="http://www.w3.org/2000/svg">
  <defs
     id="defs1" />
  <g
     id="g1"
     transform="translate(-331.62836,-395.80456)">
    <path
       style="fill:#000000"
       d="m 412.00657,558.80046 c -39.71087,-20.18208 -73.17125,-37.57166 -74.35641,-38.6435 -7.89438,-7.1396 -8.0608,-24.75204 -0.29842,-31.5823 1.02103,-0.89842 3.85777,-2.64039 6.30387,-3.87106 5.87088,-2.95371 14.95418,-2.41045 21.26274,1.27171 2.35939,1.37712 20.0398,10.48133 39.2898,20.23157 19.25,9.75024 46.01084,23.37343 59.46854,30.27377 28.3185,14.5201 29.0334,14.68831 38.53146,9.06613 3.3,-1.95337 31.875,-16.73296 63.5,-32.84354 65.1977,-33.21337 62.85007,-32.35009 74.10118,-27.24859 6.05291,2.74451 6.69546,3.35007 8.86682,8.35622 3.569,8.22847 3.75838,13.53032 0.69897,19.56778 -2.26744,4.47459 -3.64685,5.67955 -12.35963,10.79662 -5.39404,3.16795 -38.83234,20.54371 -74.30734,38.61282 l -64.5,32.85291 -7,-0.0729 -7,-0.0729 z m 1,-87 c -39.71087,-20.18208 -73.17125,-37.57166 -74.35641,-38.6435 -7.89438,-7.1396 -8.0608,-24.75204 -0.29842,-31.5823 1.02103,-0.89842 3.85777,-2.64039 6.30387,-3.87106 5.87088,-2.95371 14.95418,-2.41045 21.26274,1.27171 2.35939,1.37712 20.0398,10.48133 39.2898,20.23157 19.25,9.75024 46.01084,23.37343 59.46854,30.27377 28.3185,14.5201 29.0334,14.68831 38.53146,9.06613 3.3,-1.95337 31.875,-16.73296 63.5,-32.84354 65.1977,-33.21337 62.85007,-32.35009 74.10118,-27.24859 6.05291,2.74451 6.69546,3.35007 8.86682,8.35622 3.569,8.22847 3.75838,13.53032 0.69897,19.56778 -2.26744,4.47459 -3.64685,5.67955 -12.35963,10.79662 -5.39404,3.16795 -38.83234,20.54371 -74.30734,38.61282 l -64.5,32.85291 -7,-0.0729 -7,-0.0729 z"
       id="path1" />
  </g>
</svg>
