<?xml version="1.0" encoding="UTF-8" standalone="no"?>
<!-- Created with Inkscape (http://www.inkscape.org/) -->

<svg
   version="1.1"
   id="svg1"
   width="266.53809"
   height="427.71405"
   viewBox="0 0 266.5381 427.71407"
   xmlns="http://www.w3.org/2000/svg"
   xmlns:svg="http://www.w3.org/2000/svg">
  <defs
     id="defs1" />
  <g
     id="g1"
     transform="translate(-498.99848,-447.89387)">
    <path
       style="fill:#000000"
       d="m 724.1913,872.75308 c -8.39852,-4.47921 -12.34557,-11.45581 -65.29936,-115.41979 l -43.80388,-86 -0.0448,-8.70604 -0.0448,-8.70604 49.07132,-96.89944 c 26.98922,-53.2947 50.23922,-98.19082 51.66666,-99.76917 9.51647,-10.52252 33.00123,-10.74256 42.10667,-0.39451 1.19789,1.36137 3.52052,5.14369 5.16141,8.40516 3.93829,7.82785 3.21393,19.9389 -1.69561,28.35032 -1.83617,3.14585 -13.9751,26.71973 -26.97542,52.3864 -13.00032,25.66666 -31.16458,61.34778 -40.36503,79.29138 -19.36013,37.75799 -19.58441,38.7112 -12.08817,51.37528 2.60449,4.4 22.31061,42.49999 43.79138,84.66666 44.28449,86.93025 43.13345,83.80008 36.33145,98.80157 -3.65686,8.06504 -4.4713,8.93018 -11.14163,11.83517 -10.51335,4.57866 -19.08177,4.83023 -26.67025,0.78305 z m -115.99999,-1.33334 c -8.39852,-4.4792 -12.34557,-11.45581 -65.29936,-115.41979 l -43.80388,-85.99999 -0.0448,-8.70604 -0.0448,-8.70604 49.07132,-96.89945 c 26.98922,-53.29469 50.23922,-98.19081 51.66666,-99.76916 9.51646,-10.52253 33.00123,-10.74256 42.10666,-0.39451 1.19789,1.36137 3.52053,5.14369 5.16142,8.40516 3.93828,7.82784 3.21393,19.9389 -1.69562,28.35031 -1.83616,3.14586 -13.9751,26.71974 -26.97542,52.3864 -13.00031,25.66667 -31.16458,61.34779 -40.36502,79.29139 -19.36013,37.75799 -19.58441,38.7112 -12.08817,51.37527 2.60449,4.4 22.31061,42.5 43.79138,84.66666 44.28448,86.93026 43.13345,83.80009 36.33145,98.80158 -3.65686,8.06504 -4.47131,8.93018 -11.14163,11.83516 -10.51336,4.57866 -19.08177,4.83024 -26.67025,0.78305 z"
       id="path1" />
  </g>
</svg>
