<?xml version="1.0" encoding="UTF-8" standalone="no"?>
<!-- Created with Inkscape (http://www.inkscape.org/) -->

<svg
   version="1.1"
   id="svg1"
   width="602.67908"
   height="422.67865"
   viewBox="0 0 602.6791 422.67867"
   xmlns="http://www.w3.org/2000/svg"
   xmlns:svg="http://www.w3.org/2000/svg">
  <defs
     id="defs1" />
  <g
     id="g1"
     transform="translate(-382.99761,-440.41197)">
    <path
       style="fill:#000000"
       d="m 493.67674,860.4242 c -3.41245,-3.41245 -3.41245,-9.64686 0,-22.66667 3.42026,-13.04961 3.44478,-12.8887 -1.86937,-12.2683 -6.77644,0.79111 -10.70838,-3.58338 -9.5775,-10.65547 1.13981,-7.12802 6.55154,-17.51175 10.91582,-20.94469 4.6874,-3.68711 14.75597,-3.75798 21.82115,-0.15359 5.15559,2.63019 5.21531,2.63035 10.94689,0.0293 7.87947,-3.5758 20.77334,-3.57309 27.78865,0.006 7.60327,3.87889 9.69935,8.81404 8.99442,21.17702 -0.31809,5.57877 -1.02232,11.14211 -1.56494,12.36297 -0.85192,1.91677 -0.2777,2.12466 4.20704,1.52313 3.78296,-0.5074 5.80171,-0.0885 7.4324,1.54216 6.15086,6.15087 -1.64603,25.09286 -12.69502,30.84165 -5.09754,2.65225 -14.94771,2.32807 -20.85658,-0.68641 -9.56318,-4.87877 -10.42593,-12.89492 -3.5273,-32.77361 2.54494,-7.33333 4.63252,-14.68333 4.63908,-16.33333 0.0206,-5.17219 -5.16716,-3.66864 -12.0771,3.50031 -5.89634,6.11734 -6.47868,7.39381 -9.88449,21.66666 -4.35623,18.25576 -6.27968,23.16113 -9.82595,25.05904 -4.39979,2.35469 -11.90544,1.73575 -14.8672,-1.22601 z M 395.15225,741.23933 c -3.50099,-1.83145 -6.83134,-4.89182 -8.27745,-7.60642 -3.34304,-6.27548 -3.31158,-18.49463 0.0642,-24.92849 1.42756,-2.72078 21.84071,-27.42991 45.36254,-54.90916 23.52184,-27.47926 42.52519,-50.59237 42.22967,-51.36248 -0.29551,-0.77011 -19.62019,-27.48708 -42.94372,-59.37105 -23.32354,-31.88396 -43.78766,-60.37084 -45.47585,-63.30418 -6.69709,-11.63667 -2.04771,-31.08234 8.74858,-36.5902 5.30705,-2.70745 6.91174,-2.74313 123.38485,-2.74313 134.61956,0 124.93577,-0.83558 131.09254,11.31152 1.86454,3.67866 8.10361,17.69106 13.86461,31.13866 11.34812,26.48934 12.44514,31.99359 8.16526,40.96859 -3.12913,6.56186 -9.97991,9.91456 -20.25904,9.91456 -11.08095,0 -16.55414,-2.89612 -21.27224,-11.25614 -10.49724,-18.60008 -29.56491,-27.75524 -65.30072,-31.35352 -13.98616,-1.40828 -85.52538,-1.98232 -85.52538,-0.68627 0,0.38724 13.71582,19.43724 30.4796,42.33333 16.76378,22.8961 31.76378,44.15536 33.33333,47.24281 3.93893,7.74825 3.81433,17.98394 -0.30666,25.18979 -1.72054,3.0085 -17.18687,21.9085 -34.36961,42 -17.18275,20.09149 -31.73782,37.33599 -32.34461,38.32109 -0.91844,1.49107 7.2425,1.68935 48.71902,1.18371 54.1893,-0.66064 65.5329,-1.962 81.46394,-9.34573 9.30799,-4.31407 18.99858,-13.10809 23.77953,-21.57948 4.79461,-8.49559 10.20858,-11.38293 21.3438,-11.38293 14.55584,0 22.57106,7.23818 22.56626,20.37857 -0.002,5.3849 -18.56702,57.02904 -25.11427,69.86272 -5.27138,10.33274 2.31857,9.7662 -129.92891,9.69845 l -117.62142,-0.0602 z m 356.74401,-48.96429 c -6.26329,-3.30443 -5.92713,-2.71285 -23.40267,-41.18416 l -14.23312,-31.33333 -5.95854,-0.77567 c -3.27719,-0.42662 -7.65666,-1.59486 -9.73215,-2.59608 -8.33113,-4.01899 -11.60243,-20.09034 -6.23206,-30.61713 2.80974,-5.50754 18.72981,-18.60288 28.95256,-23.81545 10.76899,-5.49109 25.5099,-2.32356 30.96999,6.65484 1.36341,2.24195 5.62661,11.21775 9.47378,19.94621 3.84717,8.72847 7.42086,15.86994 7.94154,15.86994 0.52069,0 14.582,-28.35 31.24737,-62.99999 16.66537,-34.65 31.16139,-64.34228 32.21338,-65.98285 1.05199,-1.64057 4.28004,-4.19057 7.17343,-5.66667 5.04904,-2.57582 7.75968,-2.68381 67.36695,-2.68381 59.61335,0 62.31745,0.10776 67.3685,2.68461 7.10681,3.62562 10.63149,10.69236 10.63149,21.31539 0,10.62302 -3.52468,17.68976 -10.63149,21.31538 -5.0009,2.55127 -7.78057,2.68461 -55.96286,2.68461 h -50.70059 l -3.89765,7.72121 c -2.14371,4.24667 -6.71366,13.99667 -10.15545,21.66667 -5.82321,12.97698 -43.3155,89.95481 -62.31624,127.94545 -7.2613,14.51847 -9.02313,17.05051 -13.66904,19.64473 -7.05961,3.942 -19.18691,4.0365 -26.44713,0.2061 z m 114.2659,-45.41028 c -3.05661,-1.48004 -5.81877,-6.382 -5.81877,-10.32648 0,-1.98436 12.79362,-55.36483 15.52591,-64.78073 0.59986,-2.06722 0.4077,-2.31927 -0.85481,-1.12125 -0.89574,0.84999 -2.76279,5.64999 -4.14901,10.66667 -1.38621,5.01668 -3.53545,9.87124 -4.77608,10.78791 -5.61755,4.15065 -15.07935,-0.0898 -15.07935,-6.758 0,-4.81095 3.89619,-16.91358 7.73299,-24.02081 4.10669,-7.60716 10.71115,-11.56877 19.21389,-11.52524 6.36457,0.0326 16.69379,4.14957 17.82825,7.10591 0.58961,1.5365 2.31588,1.09846 8.75171,-2.22076 13.38666,-6.90404 30.66833,-6.39908 39.65007,1.15855 10.43106,8.77717 10.55033,23.46877 0.43321,53.36527 -5.87093,17.34882 -6.22123,19.01475 -3.45111,16.41236 1.69569,-1.59301 4.33519,-6.65902 5.86556,-11.25779 2.88119,-8.65797 4.24261,-9.92616 10.6559,-9.92616 8.2296,0 10.11921,7.52213 5.15097,20.50495 -7.26084,18.97374 -23.15843,27.67621 -38.13723,20.87662 -12.99508,-5.89908 -14.26368,-17.27441 -4.97889,-44.64492 7.18447,-21.17901 8.62802,-29.96191 5.36907,-32.6666 -3.65331,-3.03198 -13.45391,1.86904 -20.1406,10.07178 -5.16351,6.33421 -5.93788,8.4539 -11.92752,32.64942 -3.52303,14.23148 -7.22808,27.51526 -8.23346,29.51951 -3.22078,6.42077 -12.03832,9.32187 -18.6307,6.12979 z"
       id="path1" />
  </g>
</svg>
