<?xml version="1.0" encoding="UTF-8" standalone="no"?>
<!-- Created with Inkscape (http://www.inkscape.org/) -->

<svg
   version="1.1"
   id="svg1"
   width="465.1441"
   height="465.11075"
   viewBox="0 0 465.14412 465.11077"
   xmlns="http://www.w3.org/2000/svg"
   xmlns:svg="http://www.w3.org/2000/svg">
  <defs
     id="defs1" />
  <g
     id="g1"
     transform="translate(-415.63414,-436.19456)">
    <path
       style="fill:#000000"
       d="m 464.66789,900.15103 c -23.25372,-2.71918 -43.78855,-22.93249 -47.95043,-47.19963 -0.92826,-5.41253 -1.25815,-68.32828 -0.99669,-190.09021 l 0.3908,-181.99999 3.80826,-8.76854 c 7.60404,-17.50835 24.2298,-31.33524 41.43662,-34.46095 5.37813,-0.97696 60.73271,-1.43717 172.8655,-1.43717 H 799.1759 l 40.77778,44.99999 40.77777,45 0.0234,163.66135 0.0234,163.66135 -2.86252,8.33864 c -7.21744,21.02467 -24.78363,35.47723 -46.55454,38.30269 -11.8185,1.53382 -353.57207,1.5268 -366.69326,-0.008 z m 203.29769,-46.58585 c 30.18409,-7.71979 53.97156,-31.19434 61.45926,-60.6508 2.58624,-10.1742 2.58624,-27.26553 0,-37.43973 -7.4877,-29.45645 -31.27517,-52.93101 -61.45926,-60.6508 -46.11708,-11.79476 -93.73216,15.66522 -105.16731,60.6508 -6.69543,26.33965 1.71751,55.33893 21.86959,75.38419 22.00926,21.89258 53.21722,30.39964 83.29772,22.70634 z m 85.01557,-218.18393 c 3.38719,-2.42283 7.4599,-7.13418 9.79707,-11.33333 l 4,-7.18673 0.4291,-73.86099 c 0.23601,-40.62354 0.0738,-75.2768 -0.36055,-77.00723 l -0.78966,-3.14625 -117.63944,0.34058 -117.63944,0.34057 -0.39245,74.66666 c -0.27992,53.25667 0.0462,76.19595 1.13726,80 2.07859,7.24698 9.87492,16.46614 16.48055,19.48827 5.1747,2.36747 10.18756,2.47366 102.3109,2.16725 l 96.86959,-0.32219 z M 679.44489,552.1201 v -57.2589 h 28.01431 28.01432 l -0.34765,57 -0.34765,56.99999 -27.66667,0.25891 -27.66666,0.2589 z"
       id="path1" />
  </g>
</svg>
