<?xml version="1.0" encoding="UTF-8" standalone="no"?>
<!-- Created with Inkscape (http://www.inkscape.org/) -->

<svg
   version="1.1"
   id="svg1"
   width="1260.8225"
   height="471.70499"
   viewBox="0 0 1260.8224 471.70499"
   sodipodi:docname="grafo_logo_01_.png"
   xmlns:inkscape="http://www.inkscape.org/namespaces/inkscape"
   xmlns:sodipodi="http://sodipodi.sourceforge.net/DTD/sodipodi-0.dtd"
   xmlns="http://www.w3.org/2000/svg"
   xmlns:svg="http://www.w3.org/2000/svg">
  <defs
     id="defs1" />
  <sodipodi:namedview
     id="namedview1"
     pagecolor="#505050"
     bordercolor="#eeeeee"
     borderopacity="1"
     inkscape:showpageshadow="0"
     inkscape:pageopacity="0"
     inkscape:pagecheckerboard="0"
     inkscape:deskcolor="#505050"
     showgrid="false">
    <inkscape:page
       x="6.4079865e-14"
       y="0"
       width="1260.8224"
       height="471.70499"
       id="page2"
       margin="0"
       bleed="0" />
  </sodipodi:namedview>
  <g
     inkscape:groupmode="layer"
     inkscape:label="Image"
     id="g1"
     transform="translate(-96.760208,-98.66841)">
    <path
       style="fill:#000000"
       d="m 709.2273,569.98612 c -19.63636,-3.02284 -36.17316,-6.53656 -47.04316,-9.99567 -40.73857,-12.96405 -75.7596,-34.0511 -103.51197,-62.3272 -9.29781,-9.47328 -9.11588,-10.15834 4.10323,-15.45031 13.28416,-5.31801 26.92544,-5.96593 40.52895,-1.925 8.70965,2.5872 12.76899,4.77811 21.28468,11.48779 12.01824,9.4694 28.95004,18.38161 47.55655,25.03183 71.48081,25.54823 149.79258,3.55857 199.39495,-55.98938 18.77178,-22.53564 34.09252,-55.00567 38.37652,-81.33333 0.83529,-5.13334 2.10372,-11.23903 2.81873,-13.56821 1.46074,-4.75844 -1.68544,-3.40599 44.49154,-19.1255 99.41198,-33.8417 156.55368,-53.2442 206.00008,-69.94738 31.1666,-10.52824 56.3036,-19.191 55.8598,-19.25058 -1.3919,-0.18689 -69.7896,17.93469 -101.8598,26.98717 -16.8667,4.76096 -37.8667,10.56332 -46.6667,12.89414 -8.8,2.33081 -40,11.03347 -69.3334,19.33924 -29.33331,8.30576 -59.33332,16.70959 -66.66665,18.67517 -7.33333,1.96558 -29.13103,8.62623 -48.43933,14.80145 -82.54281,26.399 -172.30502,49.40407 -225.56068,57.80874 -9.90001,1.56239 -28.80001,4.89239 -42.00001,7.4 -13.2,2.5076 -11.13686,2.47851 -33.67803,7.21481 -8.24745,1.73294 -8.51564,2.56004 -18.1095,4.41596 -6.88605,1.3321 -10.26715,1.78812 -21.01136,3.0625 -9.09395,1.07865 -19.83445,2.59378 -23.86778,3.36697 -13.38377,2.56565 -83.99414,11.18652 -124.33334,15.17994 -88.76789,8.78765 -102.78493,10.00054 -139.66667,12.08526 -57.32245,3.24012 -86.82607,3.81335 -109.63197,2.13005 -50.758057,-3.74643 -63.862452,-10.93018 -39.91074,-21.8788 30.35113,-13.87387 78.29943,-29.41039 136.87604,-44.35146 19.06667,-4.86332 42.46667,-10.85681 52,-13.31886 9.53334,-2.46206 23.33334,-5.46134 30.66667,-6.66507 7.33333,-1.20374 16.63333,-3.10725 20.66667,-4.23003 8.02957,-2.23523 29.02436,-12.37845 42.24148,-20.40812 44.12301,-26.80566 96.87571,-79.97814 130.40391,-131.44161 17.05863,-26.1838 20.53951,-30.80518 33.35462,-44.28319 27.50092,-28.92346 52.22121,-45.65041 89.67234,-60.67663 19.03293,-7.63644 33.90147,-11.52884 59.661,-15.61851 13.6981,-2.174757 52.13971,-1.769047 68.66667,0.72471 47.19426,7.12114 90.88092,27.86609 127.71254,60.6453 13.15034,11.70346 14.4623,12.50506 32,19.55193 58.32994,23.43768 102.80642,34.61274 167.62082,42.11604 18.5362,2.14585 82.4096,2.10452 125.3334,-0.0811 17.6,-0.89618 51.8,-1.76251 76,-1.9252 49.0832,-0.32996 49.8835,-0.20573 54.5414,8.466 3.352,6.2404 2.239,10.17289 -4.8574,17.16373 -7.0685,6.96321 -15.6998,11.42311 -37.0174,19.12723 -29.3198,10.59613 -59.3775,18.91511 -174.6666,48.34198 -23.8334,6.08332 -48.4334,12.82891 -54.6667,14.99022 -6.2333,2.1613 -17.9334,5.299 -26,6.97268 -8.0667,1.67367 -34.8174,8.34385 -52.1944,15.97471 l -22.61431,12.46562 -11.09465,12.72291 c -18.01665,20.66078 -11.30977,48.99058 -28.59788,77.33812 -18.87993,30.95768 -39.54233,52.45802 -72.16548,75.09209 -23.73886,16.47011 -65.30472,32.93907 -97.01243,38.43766 -8.65447,1.50081 -58.65981,2.85593 -65.65425,1.7792 z M 606.18424,356.75371 c 37.68633,-5.50707 92.81992,-14.79706 127.04307,-21.40671 22.98789,-4.43975 104.43684,-18.27956 149.33334,-25.37473 11.73333,-1.85427 21.8954,-3.91458 22.58238,-4.57846 3.84641,-3.71711 -14.49678,-43.56286 -28.19318,-61.2423 -11.11827,-14.35155 -32.82518,-34.92718 -45.72254,-43.33966 -27.39596,-17.86938 -64.62446,-28.64609 -99.04037,-28.66967 -27.97035,-0.0192 -59.30871,7.10586 -82.38709,18.73137 -22.99188,11.58194 -52.86911,37.54181 -66.09497,57.42892 -8.44389,12.69668 -19.29262,34.8323 -23.84218,48.64729 -7.6613,23.26397 -7.53956,52.63285 0.25188,60.76536 4.69621,4.90179 6.15454,4.87135 46.06966,-0.96141 z"
       id="path1"
       sodipodi:nodetypes="sssssssssssssssssssssssssssssssssssssssssssssssssscssssssssssssssssss" />
  </g>
</svg>
