<?xml version="1.0" encoding="UTF-8" standalone="no"?>
<!-- Created with Inkscape (http://www.inkscape.org/) -->

<svg
   version="1.1"
   id="svg1"
   width="1259.1053"
   height="470.37323"
   viewBox="0 0 1259.1053 470.37323"
   sodipodi:docname="grafo_logo_.png"
   inkscape:version="1.4.2 (ebf0e940d0, 2025-05-08)"
   inkscape:dataloss="true"
   inkscape:export-filename="grafo_logo_.svg"
   inkscape:export-xdpi="96"
   inkscape:export-ydpi="96"
   xmlns:inkscape="http://www.inkscape.org/namespaces/inkscape"
   xmlns:sodipodi="http://sodipodi.sourceforge.net/DTD/sodipodi-0.dtd"
   xmlns="http://www.w3.org/2000/svg"
   xmlns:svg="http://www.w3.org/2000/svg">
  <defs
     id="defs1" />
  <sodipodi:namedview
     id="namedview1"
     pagecolor="#505050"
     bordercolor="#eeeeee"
     borderopacity="1"
     inkscape:showpageshadow="0"
     inkscape:pageopacity="0"
     inkscape:pagecheckerboard="0"
     inkscape:deskcolor="#505050"
     showgrid="false"
     inkscape:zoom="0.55535272"
     inkscape:cx="604.12057"
     inkscape:cy="423.1545"
     inkscape:window-width="1340"
     inkscape:window-height="742"
     inkscape:window-x="0"
     inkscape:window-y="0"
     inkscape:window-maximized="1"
     inkscape:current-layer="g1"
     showguides="true">
    <sodipodi:guide
       position="2026.2512,-248.37239"
       orientation="-0.70710678,-0.70710678"
       id="guide1"
       inkscape:locked="false" />
    <inkscape:page
       x="0"
       y="0"
       width="1259.1053"
       height="470.37323"
       id="page2"
       margin="0"
       bleed="0" />
  </sodipodi:namedview>
  <g
     inkscape:groupmode="layer"
     inkscape:label="Image"
     id="g1"
     transform="translate(-117.93779,-117.56128)">
    <path
       style="fill:#000000"
       d="m 710.65949,585.06894 c -45.08991,-7.9358 -90.66511,-30.80478 -124.03905,-62.24099 -8.08601,-7.61652 -14.89217,-14.33753 -15.1248,-14.93556 -0.23263,-0.59803 3.29927,-2.96631 7.84867,-5.26283 5.90823,-2.98247 11.64384,-4.60116 20.07403,-5.66524 11.05752,-1.39572 12.41347,-1.289 21.48467,1.69087 5.32525,1.74934 10.42708,3.31585 11.33741,3.48113 0.91033,0.16529 6.61912,4.17668 12.68621,8.91421 32.44967,25.33854 82.55292,38.92978 126.65043,34.35578 16.61474,-1.72336 44.49605,-9.77664 59.00823,-17.04403 35.73073,-17.89319 62.06242,-43.63808 81.72639,-79.90511 11.07811,-20.4318 15.49869,-33.18804 18.94333,-54.66389 0.84245,-5.25226 2.2364,-10.51262 3.09767,-11.6897 1.45852,-1.99331 51.43536,-19.62127 140.23262,-49.4632 84.5124,-28.40192 174.5967,-59.13308 173.5738,-59.21259 -1.9219,-0.14938 -68.6049,17.23919 -96.9071,25.26998 -15.0334,4.26572 -42.0334,11.75191 -60,16.63598 -17.9667,4.88407 -47.0667,12.98973 -64.6667,18.01257 -17.6,5.02285 -44.29996,12.51112 -59.33336,16.64061 -15.0333,4.12949 -40.32025,11.68181 -56.19318,16.78293 -26.15026,8.40398 -28.93799,9.58608 -29.69207,12.59055 -0.96387,3.84036 -2.77999,4.27277 -4.56314,1.08647 -1.13189,-2.02258 -3.27082,-1.65785 -23.06626,3.93335 -12.00027,3.38946 -27.81867,7.72268 -35.152,9.62938 -7.33334,1.9067 -17.23334,4.61468 -22,6.01772 -31.00875,9.12729 -86.0102,21.41919 -119.33334,26.669 -9.53334,1.5019 -27.83334,4.76382 -40.66667,7.24869 -12.83334,2.48488 -28.46491,5.64659 -33.96997,6.12576 -6.13663,0.53414 23.41988,-5.20004 21.85986,-4.1835 -4.457,2.90427 -44.71653,10.72791 -61.22323,12.75139 -8.43333,1.03381 -23.43333,3.14154 -33.33333,4.68384 -19.72382,3.07274 -83.01124,10.60757 -116.66668,13.89001 -99.73363,9.72711 -96.79054,9.48001 -144.66667,12.14628 -74.54806,4.15165 -132.23603,1.70919 -147.66668,-6.25208 -3.28139,-1.693 -4.04166,-6.6511 -1.33333,-8.69535 2.42896,-1.83338 19.26091,-9.08341 34.86009,-15.01532 24.36438,-9.26504 68.72184,-22.78262 108.13992,-32.95478 21.26667,-5.48804 43.16667,-11.16629 48.66667,-12.61834 16.41506,-4.33371 38.82521,-9.14675 42.5885,-9.14675 18.29147,0 61.52477,-23.51707 98.10122,-53.36288 5.14601,-4.19906 17.85924,-16.26021 28.25163,-26.80255 26.75976,-27.14589 45.96753,-50.73175 62.84373,-77.1679 14.5183,-22.74257 19.98339,-29.78232 35.20559,-45.34934 45.91759,-46.95774 102.84122,-71.80472 170.12363,-74.25842 66.49001,-2.42481 127.15526,20.55989 175.62791,66.54147 7.10814,6.74284 10.30256,8.55653 26.6667,15.1405 62.96336,25.33282 115.53116,38.06608 179.03796,43.36755 21.1099,1.76223 81.5781,1.10542 132.2198,-1.43618 41.954,-2.10559 104.9846,-1.34495 109.0004,1.31539 4.7244,3.12971 7.305,9.69599 5.594,14.2339 -3.7106,9.84149 -15.4499,17.19357 -43.9277,27.51089 -14.5623,5.27584 -62.7511,19.72771 -78,23.39231 -28.5895,6.87059 -133.8313,33.9889 -138.2653,35.62769 -12.8374,4.7446 -22.3411,7.53403 -33.7347,9.90143 -6.6,1.37138 -24.8817,6.54228 -41.015,9.93469 -16.1334,3.3924 -28.0136,9.55862 -30.1802,10.98415 -9.144,6.01625 -9.3934,5.65242 -12.89488,7.68672 -9.55287,5.5501 -9.00068,34.89647 -16.09698,53.76767 -7.2069,19.16567 -21.2769,43.61129 -36.00102,62.54917 -15.93495,20.49526 -47.48818,46.93407 -71.81193,60.17202 -21.94183,11.94162 -60.44126,25.07608 -82.49244,28.14311 -17.10323,2.37884 -64.34165,1.50951 -81.43336,-1.49863 z M 659.30515,416.77496 c 14.37738,-3.75469 28.78669,-12.13521 37.5578,-21.84377 5.36279,-5.93597 13.61294,-18.37604 14.92185,-22.50007 0.75267,-2.37145 2.35359,-2.79642 13.16202,-3.49387 7.28552,-0.47012 15.02465,-1.85906 18.9718,-3.40486 9.86767,-3.86442 20.07789,-9.20687 21.98316,-11.50258 1.41422,-1.70404 1.20238,-2.02029 -1.35329,-2.02029 -2.64721,0 -2.37308,-0.48362 2.17008,-3.82831 2.86003,-2.10556 6.9623,-5.70556 9.11617,-8 2.15387,-2.29443 4.40387,-4.17169 5,-4.17169 1.3626,0 1.44527,5.31278 0.0839,5.39018 -0.55,0.0313 -3.66498,2.39665 -6.92217,5.25641 l -5.92217,5.19957 5.2555,-1.29074 c 2.89053,-0.70991 25.05551,-4.51947 49.25551,-8.46569 72.49002,-11.82072 102.61287,-17.03842 103.6283,-17.94984 1.20591,-1.08242 -7.13961,-25.28134 -10.73599,-31.1304 -1.46864,-2.38856 -3.72637,-7.04283 -5.01719,-10.34283 -5.24096,-13.39869 -31.23345,-42.88652 -51.29662,-58.19473 -18.12742,-13.83124 -50.89228,-27.46947 -76.07699,-31.66673 -7.20275,-1.2004 -20.49169,-2.13854 -30.29297,-2.13854 -50.163,0 -90.06798,15.56063 -125.5415,48.95391 -16.37886,15.41838 -26.1888,28.96015 -37.21224,51.36827 -13.07095,26.57023 -15.41184,35.55672 -15.40727,59.14721 0.004,18.26877 0.10758,18.95977 3.66364,24.33333 3.64322,5.50528 3.69807,5.53057 11.9744,5.52054 7.24845,-0.009 16.43492,-1.03487 29.22786,-3.26463 l 3.58011,-0.624 -4.16985,6.70789 c -7.55449,12.15262 -4.96165,24.55213 6.67755,31.93349 5.44867,3.45544 7.39655,3.92399 16.31299,3.92399 5.56902,0 13.40156,-0.85555 17.40563,-1.90122 z m -25.30895,-3.57207 c -14.12952,-4.31717 -18.73342,-15.91152 -11.33267,-28.53996 4.8976,-8.35712 6.88298,-9.51532 19.25508,-11.23282 6.23334,-0.86532 20.17637,-3.04934 30.98452,-4.85338 16.7076,-2.78875 20.60218,-3.04974 26,-1.74236 3.49185,0.84574 6.84588,1.9832 7.45341,2.52768 1.95449,1.75169 -5.5864,14.40464 -13.00794,21.82618 -9.35428,9.35427 -16.65056,14.25157 -27.87463,18.70958 -10.19575,4.04958 -24.22133,5.52222 -31.47777,3.30508 z m -2.95351,-43.75499 c 3.18491,-2.94484 9.43074,-7.17319 13.87963,-9.39632 10.87,-5.4318 22.40302,-5.53823 40.6815,-0.3754 10.50562,2.96736 12.14627,3.74701 8.60234,4.0879 -2.40851,0.23167 -7.9609,-0.81833 -12.33864,-2.33334 -15.21457,-5.26531 -29.98165,-2.91633 -43.72146,6.95475 -3.5514,2.55142 -7.90542,5.03894 -9.6756,5.52781 -2.62541,0.72506 -2.15139,-0.0978 2.57223,-4.4654 z m 74.20926,-5.32494 c -2.18188,-0.87037 -1.75355,-1.17158 2.35608,-1.65685 3.15552,-0.37262 4.8493,-0.072 4.55618,0.80848 -0.60676,1.82272 -3.56083,2.18528 -6.91226,0.84837 z m 12.48844,-1.11344 c 0.93127,-1.73988 5.55885,-3.11529 18.19464,-5.40782 9.32015,-1.69097 17.20364,-2.81658 17.51887,-2.50135 1.28535,1.28536 -26.13595,10.2425 -31.35628,10.2425 -4.92609,0 -5.45466,-0.28305 -4.35723,-2.33333 z m -2.48844,-3.48225 c 0,-0.26523 1.74941,-4.34048 3.88757,-9.05611 2.13817,-4.71562 4.25381,-10.94861 4.70142,-13.85109 l 0.81385,-5.27722 -3.16672,6.71471 c -5.41963,11.4918 -13.58639,14.39656 -20.64125,7.3417 -8.25246,-8.25246 -6.67646,-24.34592 3.28609,-33.55629 10.77261,-9.95925 24.45983,-1.58055 24.61815,15.07012 0.0958,10.07499 -8.01704,33.09643 -11.6633,33.09643 -1.0097,0 -1.83581,-0.21701 -1.83581,-0.48225 z m 3.13979,-22.78713 c 1.47189,-2.83626 2.93618,-8.29233 3.25398,-12.1246 0.48001,-5.78821 0.10058,-7.44501 -2.24131,-9.78689 -3.58858,-3.58858 -6.84038,-3.56834 -11.46756,0.0714 -8.6373,6.79411 -9.71561,19.61001 -2.36012,28.05068 2.99896,3.44141 9.42131,0.32892 12.81501,-6.21059 z m 64.26853,57.30258 c 2.37968,-1.81507 6.68192,-6.8271 9.56052,-11.13785 4.78004,-7.15815 5.34065,-7.59455 6.46583,-5.0332 0.87507,1.99199 2.19773,2.67746 4.56533,2.36597 4.65697,-0.6127 7.24979,-3.51963 13.33883,-14.9548 5.37885,-10.10143 5.92715,-9.32613 2.63556,3.72668 -3.51736,13.94803 8.36792,20.15051 14.97089,7.81274 1.17001,-2.18618 1.00956,-2.40473 -1.1235,-1.53031 -7.84263,3.215 -7.65561,3.45778 -6.73136,-8.7379 0.46731,-6.16616 1.23992,-13.45057 1.71691,-16.18757 0.70875,-4.06689 0.42519,-5.14601 -1.55158,-5.90457 -1.61881,-0.62119 -2.88799,-0.13913 -3.83729,1.45748 -7.00132,11.77541 -17.14209,26.8547 -18.33731,27.2675 -1.44959,0.50065 -1.18998,-3.00447 1.05007,-14.17737 0.67198,-3.35171 0.41495,-4.33334 -1.13462,-4.33334 -2.59678,0 -3.70237,1.44206 -9.71122,12.66667 -2.74802,5.13333 -5.39309,9.63333 -5.87794,10 -0.48484,0.36667 -2.29134,2.98551 -4.01444,5.81964 -1.80515,2.96909 -5.02454,5.94335 -7.59629,7.0179 -4.86251,2.03168 -4.83056,1.98749 -3.65406,5.05341 1.15594,3.01232 4.28149,2.61054 9.26567,-1.19108 z m 73.39164,-15.17134 c 2.86002,-2.09264 6.34304,-5.09264 7.74003,-6.66667 3.41727,-3.85032 5.07039,-3.61862 9.97517,1.39811 3.00244,3.07097 4.57001,3.85487 5.61629,2.80859 1.04629,-1.04629 0.147,-2.89518 -3.22198,-6.62424 l -4.67337,-5.17286 10.49387,-9.3024 c 9.92061,-8.79422 12.38316,-12.71171 9.21965,-14.66687 -0.76105,-0.47035 -6.50763,4.14424 -12.77019,10.25464 l -11.38646,11.10984 -6.44901,-0.44747 c -6.02049,-0.41774 -6.81098,-0.0855 -11.89648,5 -4.19542,4.19541 -5.44747,6.46898 -5.44747,9.89191 0,2.44445 0.4,4.84445 0.88888,5.33333 1.93429,1.93428 6.96567,0.70256 11.91107,-2.91591 z m -7.46662,-4.09842 c 0,-3.02886 5.95445,-8.09678 9.51315,-8.09678 3.63438,0 3.08762,1.35973 -2.51315,6.24989 -5.79897,5.06323 -7,5.38011 -7,1.84689 z M 1253.5575,272.53729 c -0.443,-0.44305 -1.593,-0.49042 -2.5555,-0.10526 -1.0637,0.42564 -0.7477,0.74158 0.8055,0.80556 1.4056,0.0579 2.1931,-0.25724 1.75,-0.7003 z"
       id="path1"
       sodipodi:nodetypes="sssssssssssssssssssssssssssssssssssssssssssssssssssssssssssssssssssssssssscsssssssssscscscsssssssssssssssssssssssssssssssssscsssssssssssssssssssssssssssssssssssssscssscsssssssssssss" />
  </g>
</svg>
