<?xml version="1.0" encoding="UTF-8" standalone="no"?>
<!-- Created with Inkscape (http://www.inkscape.org/) -->

<svg
   width="177.78815mm"
   height="137.95976mm"
   viewBox="0 0 177.78815 137.95976"
   version="1.1"
   id="svg1"
   xml:space="preserve"
   xmlns="http://www.w3.org/2000/svg"
   xmlns:svg="http://www.w3.org/2000/svg"><defs
     id="defs1" /><g
     id="layer1"
     transform="translate(-16.151439,-79.727777)"><path
       style="fill:#000000"
       d="m 17.9423,217.17158 c -1.877633,-1.04069 -1.77678,2.81102 -1.790218,-68.37095 -0.0096,-50.610026 0.08684,-66.435456 0.408957,-67.142436 0.788281,-1.73009 1.751325,-1.93042 9.279931,-1.93042 7.528606,0 8.49165,0.20033 9.279931,1.93042 0.850137,1.86585 0.197029,4.66962 -1.241189,5.32839 -0.346725,0.15882 -1.979784,0.37649 -3.62902,0.48372 l -2.998611,0.19497 v 60.854166 60.85417 l 2.998611,0.19497 c 3.523138,0.22907 4.086415,0.4379 4.775548,1.77054 1.073733,2.07637 0.438502,4.9236 -1.298932,5.82206 -1.345333,0.6957 -14.532906,0.70439 -15.785008,0.0104 z m 158.39723,0 c -1.72061,-0.95366 -2.34525,-3.78527 -1.2866,-5.83246 0.68913,-1.33264 1.25241,-1.54147 4.77554,-1.77054 l 2.99862,-0.19497 V 148.51944 87.665274 l -2.99862,-0.19497 c -1.64923,-0.10723 -3.28229,-0.3249 -3.62902,-0.48372 -1.43821,-0.65877 -2.09132,-3.46254 -1.24118,-5.32839 0.78828,-1.73009 1.75132,-1.93042 9.27993,-1.93042 7.5286,0 8.49165,0.20033 9.27993,1.93042 0.32197,0.70665 0.42146,16.53145 0.42146,67.037636 0,50.50618 -0.0995,66.33099 -0.42146,67.03764 -0.79114,1.73636 -1.7427,1.93153 -9.35061,1.91792 -5.11846,-0.009 -7.21017,-0.13737 -7.82799,-0.47981 z M 60.848686,201.42747 c -4.866488,-1.22868 -8.114658,-5.26417 -9.866947,-12.25858 -0.615346,-2.4562 -0.771733,-4.11278 -0.773533,-8.19389 -0.0026,-5.84707 0.51156,-8.43106 2.520909,-12.66972 2.464017,-5.19776 5.934837,-7.43862 11.521521,-7.43862 2.556424,0 3.201712,0.13627 5.072558,1.07114 3.447035,1.7225 5.564529,4.50406 7.375558,9.68859 0.936706,2.68156 0.986208,3.13871 0.993197,9.17222 0.0081,6.99692 -0.33866,8.97898 -2.31097,13.20915 -2.310528,4.95557 -5.640831,7.34913 -10.595321,7.61508 -1.434717,0.077 -3.206354,-0.0109 -3.936972,-0.19537 z m 5.401195,-5.65278 c 2.113188,-2.26217 3.159146,-7.09694 3.159146,-14.60262 0,-7.32772 -1.367901,-12.9658 -3.60179,-14.84549 -1.224066,-1.02999 -1.763292,-1.07872 -3.113132,-0.28135 -1.35373,0.79967 -2.675595,3.3415 -3.380233,6.49989 -0.730667,3.27506 -0.83858,13.52866 -0.177825,16.89654 1.252735,6.38523 4.426084,9.21028 7.113834,6.33303 z m 71.446849,4.75428 c -0.3049,-0.3049 -0.55437,-1.00794 -0.55437,-1.56231 0,-1.3233 0.8395,-2.11666 2.23976,-2.11666 0.62207,0 1.48385,-0.24713 1.91508,-0.54917 l 0.78405,-0.54917 v -13.56194 c 0,-7.45907 -0.0762,-13.56194 -0.16925,-13.56194 -0.0931,0 -0.80742,0.25534 -1.58741,0.56743 -1.78513,0.71427 -3.09691,0.42449 -3.39149,-0.7492 -0.48812,-1.94482 -0.071,-2.33907 5.31295,-5.02171 2.8232,-1.4067 5.51723,-2.55764 5.98673,-2.55764 2.00663,0 1.96236,-0.41059 1.96236,18.20199 v 17.09326 l 0.90491,0.34404 c 0.4977,0.18923 1.43886,0.34405 2.09147,0.34405 1.45214,0 2.29529,0.77753 2.29529,2.11666 0,2.0442 -0.31406,2.11667 -9.17223,2.11667 -6.86007,0 -8.14622,-0.0827 -8.61785,-0.55436 z m 4.9964,-64.71816 c -4.86649,-1.22869 -8.11466,-5.26418 -9.86694,-12.25859 -1.03074,-4.11425 -1.09836,-12.0677 -0.13417,-15.77861 1.58028,-6.08203 4.63942,-10.340606 8.45318,-11.767516 2.89694,-1.08388 7.16978,-1.05063 9.57911,0.0746 3.63915,1.69953 6.1659,4.891556 7.83776,9.901406 0.88879,2.66334 0.95205,3.26554 0.96636,9.19988 0.0171,7.09266 -0.32677,9.00571 -2.413,13.42388 -1.55411,3.29127 -2.98837,4.85379 -5.66481,6.17139 -2.44751,1.20491 -6.28507,1.65783 -8.75749,1.0336 z m 4.69191,-4.93674 c 0.36921,-0.1976 1.061,-1.03104 1.53731,-1.85209 1.48714,-2.56353 2.00993,-5.28508 2.21806,-11.54698 0.28931,-8.70433 -0.94219,-14.62232 -3.48873,-16.76509 -1.32238,-1.112716 -2.07094,-1.101296 -3.44216,0.0525 -2.59003,2.17937 -3.685,6.62853 -3.67896,14.94868 0.002,3.24547 0.20234,6.83537 0.45202,8.11389 1.11279,5.69834 3.66855,8.51221 6.40246,7.04907 z m -91.53276,4.03823 c -0.3049,-0.3049 -0.554365,-1.00794 -0.554365,-1.5623 0,-1.32331 0.839498,-2.11667 2.239759,-2.11667 0.622066,0 1.483851,-0.24713 1.915079,-0.54917 l 0.784051,-0.54917 v -13.56194 c 0,-7.45907 -0.07616,-13.56194 -0.16925,-13.56194 -0.09309,0 -0.80742,0.25534 -1.587407,0.56743 -1.785129,0.71427 -3.096916,0.42449 -3.391492,-0.74919 -0.488119,-1.94482 -0.071,-2.33908 5.312953,-5.021716 2.823199,-1.4067 5.517223,-2.55764 5.986722,-2.55764 2.006629,0 1.962363,-0.41059 1.962363,18.201986 v 17.09326 l 0.904911,0.34404 c 0.4977,0.18923 1.438861,0.34405 2.091468,0.34405 1.452137,0 2.295288,0.77754 2.295288,2.11667 0,2.04419 -0.314054,2.11666 -9.172222,2.11666 -6.860077,0 -8.146227,-0.0827 -8.617858,-0.55436 z"
       id="path1" /></g></svg>
