<?xml version="1.0" encoding="UTF-8" standalone="no"?>
<!-- Created with Inkscape (http://www.inkscape.org/) -->

<svg
   version="1.1"
   id="svg1"
   width="454.73462"
   height="452.22711"
   viewBox="0 0 454.73464 452.22713"
   sodipodi:docname="grafo_x_.png"
   xmlns:inkscape="http://www.inkscape.org/namespaces/inkscape"
   xmlns:sodipodi="http://sodipodi.sourceforge.net/DTD/sodipodi-0.dtd"
   xmlns="http://www.w3.org/2000/svg"
   xmlns:svg="http://www.w3.org/2000/svg">
  <defs
     id="defs1" />
  <sodipodi:namedview
     id="namedview1"
     pagecolor="#505050"
     bordercolor="#eeeeee"
     borderopacity="1"
     inkscape:showpageshadow="0"
     inkscape:pageopacity="0"
     inkscape:pagecheckerboard="0"
     inkscape:deskcolor="#505050"
     showgrid="false">
    <inkscape:page
       x="0"
       y="0"
       width="454.73465"
       height="452.22714"
       id="page2"
       margin="0"
       bleed="0" />
  </sodipodi:namedview>
  <g
     inkscape:groupmode="layer"
     inkscape:label="Image"
     id="g1"
     transform="translate(-443.71718,-410.4492)">
    <path
       style="fill:#000000"
       d="M 636.59502,861.01851 C 524.06698,842.74929 443.71715,749.16165 443.71715,636.3636 c 0,-98.24268 61.844,-184.24936 154.74986,-215.21119 27.23767,-9.07724 38.26396,-10.70318 72.58346,-10.70318 26.90783,0 32.38265,0.37171 44.66666,3.03263 94.86291,20.54886 164.08643,92.08877 179.99131,186.01424 3.65779,21.60095 3.65779,52.13405 0,73.735 -15.85397,93.62486 -85.3608,165.6584 -179.32464,185.84345 -17.54687,3.76937 -61.89072,4.84976 -79.78878,1.94396 z m 56.57883,-96.44656 c 3.28833,-2.0854 8.07606,-6.24183 10.63939,-9.2365 6.24081,-7.29098 15.09095,-20.22924 14.34657,-20.97363 -0.32865,-0.32865 -7.26486,4.1873 -15.4138,10.03544 -8.14894,5.84815 -15.93783,10.633 -17.30865,10.633 -3.25524,0 -10.98518,-14.33354 -15.47341,-28.69216 -4.2201,-13.50083 -6.70108,-24.86188 -11.64113,-53.30784 -2.16502,-12.46667 -4.53698,-24.0449 -5.27104,-25.7294 -3.89413,-8.93624 -1.71695,-11.74527 48.43946,-62.49725 17.92156,-18.13436 31.4593,-32.85634 30.95849,-33.66666 -0.48949,-0.79201 -2.88856,-1.44002 -5.33128,-1.44002 -8.08314,0 -28.13054,17.20897 -60.50001,51.93404 -9.26224,9.93628 -17.30413,18.26596 -17.87087,18.5104 -0.56674,0.24445 -1.03043,-1.06345 -1.03043,-2.90643 0,-5.26176 -7.54278,-37.52851 -12.12309,-51.86059 -4.2406,-13.26908 -9.3142,-21.93679 -15.03453,-25.68489 -5.56824,-3.64845 -22.24831,-3.07714 -34.84238,1.19339 -15.86647,5.38017 -33.52727,14.34496 -43.61476,22.13926 -9.56941,7.394 -11.38408,10.31711 -9.07886,14.62446 2.03858,3.80912 5.25345,3.38313 9.26319,-1.22742 9.07787,-10.43807 50.05458,-29.38888 63.54662,-29.38888 9.95057,0 13.82481,3.59652 18.25502,16.94643 5.52552,16.65054 14.31636,57.32054 14.30171,66.16559 -0.004,2.69024 -1.8844,5.76276 -6.52649,10.66666 -3.58613,3.78839 -8.23594,8.98798 -10.33293,11.55464 -4.87611,5.96827 -34.51788,39.1973 -51.82368,58.09541 -25.75471,28.12442 -34.20888,38.87275 -33.74524,42.90253 0.32216,2.80016 1.22595,3.76241 3.81751,4.06445 4.16354,0.48524 3.88932,0.76925 65.76362,-68.11133 20.14953,-22.43115 30.34391,-34.17665 33.26793,-38.32979 3.22098,-4.57493 4.33886,-2.21944 5.38099,11.33827 1.99479,25.95155 12.8364,72.85815 20.19724,87.38407 4.57609,9.03048 11.99313,17.03458 16.41044,17.70933 1.97139,0.30113 4.21688,0.6374 4.98998,0.74728 0.77309,0.10988 4.09608,-1.50646 7.38442,-3.59186 z m 87.90192,-198.54168 c 3.79789,-4.21667 7.5422,-9.01667 8.32067,-10.66667 0.77847,-1.65 2.42499,-3 3.65894,-3 2.76106,0 19.23739,11.51739 24.57787,17.18057 4.19664,4.45023 10.90779,5.69838 12.22219,2.27311 1.13596,-2.96026 -2.85567,-9.35638 -8.04458,-12.89049 -2.6082,-1.77642 -4.74628,-3.59491 -4.75129,-4.04108 -0.0123,-1.09741 -14.29591,-10.52211 -15.94675,-10.52211 -3.13579,0 1.36534,-6.22348 15.09991,-20.87786 8.38925,-8.9511 9.10753,-12.46223 2.54624,-12.44668 -2.03968,0.005 -5.29301,1.05483 -7.22963,2.33333 -3.59091,2.37062 -15.57655,15.28356 -20.58518,22.17779 -2.53731,3.49254 -3.04722,3.66869 -6,2.07273 -4.3376,-2.34444 -20.5473,-1.76616 -24.58116,0.87693 -7.394,4.84473 -9.92674,21.9858 -4.53712,30.70638 2.63841,4.26904 3.15967,4.49071 10.56001,4.49071 h 7.78461 z m -17.31173,-5.57901 c -2.09375,-3.91221 -1.66947,-7.36035 1.3832,-11.24118 2.23192,-2.83743 3.88373,-3.51315 8.58797,-3.51315 6.39882,0 8.95582,2.1695 5.51895,4.6826 -1.21203,0.88626 -2.2037,2.01123 -2.2037,2.49993 0,1.71657 -8.44796,10.15081 -10.16732,10.15081 -0.95637,0 -2.35996,-1.16056 -3.1191,-2.57901 z"
       id="path1" />
  </g>
</svg>
