<?xml version="1.0" encoding="UTF-8" standalone="no"?>
<!-- Created with Inkscape (http://www.inkscape.org/) -->

<svg
   version="1.1"
   id="svg1"
   width="454.73459"
   height="452.22711"
   viewBox="0 0 454.73461 452.22713"
   xmlns="http://www.w3.org/2000/svg"
   xmlns:svg="http://www.w3.org/2000/svg">
  <defs
     id="defs1" />
  <g
     id="g1"
     transform="translate(-456.34342,-433.17653)">
    <path
       style="fill:#000000"
       d="M 649.22127,883.74579 C 536.69323,865.47657 456.3434,771.88893 456.3434,659.09088 c 0,-98.24268 61.844,-184.24936 154.74986,-215.21119 27.23767,-9.07724 38.26396,-10.70318 72.58346,-10.70318 26.90783,0 32.38265,0.37171 44.66666,3.03263 94.86291,20.54886 164.08643,92.08877 179.99131,186.01424 3.65779,21.60095 3.65779,52.13405 0,73.735 -15.85397,93.62486 -85.3608,165.6584 -179.32464,185.84345 -17.54687,3.76937 -61.89072,4.84976 -79.78878,1.94396 z m 59.94198,-89.92486 c 7.56524,-4.3391 14.59307,-11.74933 22.95916,-24.20845 5.89568,-8.78009 6.96232,-14.25646 3.45907,-17.7597 -4.30915,-4.30915 -7.52901,-3.09245 -24.7068,9.33603 l -11.55447,8.3599 -3.35499,-6.22892 c -6.59978,-12.25326 -11.61387,-31.44366 -18.34948,-70.22892 -2.16502,-12.46666 -4.55355,-24.08125 -5.30786,-25.81019 -1.21376,-2.78208 -0.48717,-4.1619 6.31896,-12 4.22973,-4.87106 22.54629,-23.92345 40.70348,-42.33865 29.00327,-29.41541 33.01306,-33.99044 33.01306,-37.66667 0,-6.50439 -3.96226,-9.51781 -12.51473,-9.51781 -6.19387,0 -8.34822,0.76831 -15.66666,5.58727 -4.6669,3.073 -19.75534,16.86977 -33.52987,30.65948 -13.77453,13.78972 -25.25106,24.32545 -25.50339,23.41273 -0.25233,-0.91272 -2.38601,-9.75948 -4.7415,-19.65948 -7.27951,-30.59537 -14.23551,-44.92791 -24.34104,-50.15369 -2.78773,-1.44159 -8.06936,-2.14405 -16.88,-2.24505 -10.76164,-0.12336 -14.53738,0.44251 -23.48947,3.52034 -23.88021,8.2103 -49.84078,23.39235 -55.65964,32.55043 -2.84275,4.4741 -2.98418,9.88202 -0.38967,14.89927 2.23528,4.32254 4.4305,5.4287 10.77351,5.4287 3.42979,0 5.71267,-1.20113 9.55762,-5.02868 7.23667,-7.20394 21.9343,-15.61222 39.17541,-22.41161 22.08591,-8.71005 25.6973,-7.95223 30.80222,6.46363 5.2883,14.93371 15.06576,61.46181 13.47485,64.12292 -0.49992,0.83622 -4.35918,5.4204 -8.57613,10.18707 -35.5264,40.15758 -46.14446,52.04756 -57.26638,64.1262 -7.02619,7.63058 -17.97619,20.04897 -24.33333,27.59642 -11.12303,13.20568 -11.55845,13.97166 -11.55845,20.33333 0,8.69572 3.05441,11.94404 11.23103,11.94404 7.53685,0 9.40365,-1.57542 32.22957,-27.19899 9.86482,-11.07389 24.07178,-26.83071 31.57104,-35.01516 7.49926,-8.18445 17.83502,-19.67215 22.96835,-25.52822 9.41723,-10.74311 11.27048,-11.40697 11.31292,-4.05242 0.0399,6.92321 7.06367,42.04597 11.52629,57.63823 7.3374,25.63667 17.03928,41.05377 27.3723,43.49689 8.11861,1.91955 12.38447,1.34185 19.27502,-2.61027 z m 90.08407,-200.22123 8.90771,-9.49118 4.42751,3.14655 c 2.43513,1.7306 7.58386,6.00163 11.44162,9.49118 6.39618,5.78567 7.6002,6.34463 13.66667,6.34463 7.92541,0 11.98588,-3.17986 11.98588,-9.38645 0,-5.32811 -4.32659,-13.64721 -8.53004,-16.40142 -1.84267,-1.20737 -4.42724,-3.30607 -5.74347,-4.6638 -1.31624,-1.35772 -4.64999,-3.97152 -7.40834,-5.80845 l -5.01519,-3.33988 10.01519,-10.87634 c 8.47709,-9.20599 10.01518,-11.59154 10.01518,-15.53333 0,-6.75486 -3.7829,-9.992 -11.66666,-9.98349 -8.32182,0.009 -14.00495,3.57412 -24.25728,15.21711 l -8.12222,9.22394 -12.85517,0.46474 c -15.2733,0.55217 -20.12464,2.85622 -24.33739,11.55862 -3.91497,8.08724 -3.90085,24.93082 0.0264,31.52875 4.30427,7.23127 6.01455,8 17.79858,8 h 10.74327 z m -22.85703,-10.42116 c -2.09375,-3.91221 -1.66947,-7.36035 1.3832,-11.24118 2.23192,-2.83743 3.88373,-3.51315 8.58797,-3.51315 6.39882,0 8.95582,2.1695 5.51895,4.6826 -1.21203,0.88626 -2.2037,2.01123 -2.2037,2.49993 0,1.71657 -8.44796,10.15081 -10.16732,10.15081 -0.95637,0 -2.35996,-1.16056 -3.1191,-2.57901 z"
       id="path1" />
  </g>
</svg>
