<?xml version="1.0" encoding="UTF-8" standalone="no"?>
<!-- Created with Inkscape (http://www.inkscape.org/) -->

<svg
   version="1.1"
   id="svg1"
   width="625.17749"
   height="610.45367"
   viewBox="0 0 625.17751 610.4537"
   xmlns="http://www.w3.org/2000/svg"
   xmlns:svg="http://www.w3.org/2000/svg">
  <defs
     id="defs1" />
  <g
     id="g1"
     transform="translate(-324.19454,-324.14629)">
    <path
       style="fill:#000000"
       d="M 599.44994,933.26125 C 542.357,926.82282 482.59341,901.70868 436.78328,864.9047 376.42432,816.41213 336.0659,744.4894 326.14973,667.74466 c -2.6069,-20.17576 -2.6069,-56.35433 0,-76.53009 14.96824,-115.84454 96.86419,-214.03136 209.30022,-250.93453 35.30626,-11.58803 63.85707,-16.13374 101.33332,-16.13374 37.47626,0 66.02707,4.54571 101.33333,16.13374 112.43602,36.90317 194.33197,135.08999 209.30021,250.93453 2.60691,20.17576 2.60691,56.35433 0,76.53009 -9.91616,76.74474 -50.27458,148.66747 -110.63355,197.16004 -46.67184,37.49628 -105.90794,62.09729 -164.94744,68.50337 -15.2455,1.65421 -57.16922,1.56918 -72.38588,-0.14682 z m 70.89287,-205.09327 c 4.2876,-2.45907 9.8311,-7.57009 14.66666,-13.52244 4.27559,-5.26304 10.88124,-13.28397 14.67921,-17.8243 l 6.90542,-8.25513 7.30424,1.32394 c 6.39824,1.15973 8.01345,0.97306 13.02183,-1.50489 3.14467,-1.55586 5.79404,-2.6961 5.88748,-2.53386 0.0934,0.16224 1.04749,2.68544 2.1201,5.60711 3.66503,9.98306 18.20021,15.62181 27.44091,10.64537 2.46275,-1.32628 4.75892,-3.65928 5.1026,-5.18446 1.85039,-8.21155 3.3034,-21.36633 2.60357,-23.57129 -0.88593,-2.79134 -6.0763,-4.62006 -9.44446,-3.32758 -4.03676,1.54905 -1.01925,-13.29687 4.58155,-22.54084 4.00275,-6.60642 4.93498,-9.54296 5.35163,-16.85758 0.43447,-7.6274 0.11441,-9.24772 -2.30454,-11.66667 -3.15565,-3.15565 -10.0083,-3.72427 -15.38104,-1.27629 -2.22849,1.01537 -5.37243,5.42129 -9.31353,13.05199 -3.27219,6.33556 -7.27388,12.6958 -8.89265,14.13388 l -2.94321,2.61467 1.52734,-2.91234 c 0.84004,-1.60179 1.52735,-5.39794 1.52735,-8.4359 0,-4.3272 -0.84415,-6.3677 -3.89744,-9.42098 -7.6155,-7.61551 -16.45052,-4.27299 -22.0917,8.35787 -4.21524,9.43809 -12.38569,22.04168 -27.06159,41.74469 -12.76593,17.1388 -24.6688,29.38174 -32.44955,33.37664 -3.39182,1.74147 -6.54182,4.14322 -7,5.33722 -1.95619,5.09775 -0.061,13.0878 3.69989,15.59905 0.80688,0.53877 5.06706,0.98314 9.46706,0.98749 6.43819,0.006 9.34566,-0.76388 14.89287,-3.94537 z m -184.22619,-6.26539 c 10.3911,-3.23358 32.83018,-14.29954 49.36371,-24.34401 12.90564,-7.84045 33.36099,-25.09141 48.90957,-41.24776 l 14.2733,-14.8312 h 7.31917 c 9.89567,0 49.31395,-3.7004 64.15009,-6.0221 27.10269,-4.24128 53.43698,-14.62154 62.47554,-24.62615 12.34696,-13.66661 -1.55731,-21.5044 -21.45218,-12.09253 -9.48009,4.48484 -29.57074,11.09456 -40.37255,13.28235 -8.4791,1.71735 -52.39642,6.83978 -53.04871,6.18749 -0.24079,-0.24079 1.80529,-3.94434 4.54687,-8.23011 2.74157,-4.28577 8.61137,-15.3013 13.04399,-24.47896 l 8.05932,-16.68666 -0.0248,-23.33333 c -0.0225,-21.17754 -0.30337,-24.00157 -3.03967,-30.56604 -4.02782,-9.66286 -9.801,-16.6947 -17.32966,-21.10785 -5.48561,-3.21555 -7.84613,-3.69477 -20.30262,-4.12171 -13.4968,-0.46259 -14.43094,-0.31269 -22,3.53026 -9.92416,5.03869 -13.72214,9.11849 -19.76542,21.23206 -4.32375,8.66683 -4.80594,10.71075 -4.80594,20.37135 0,9.22897 0.54633,11.81003 3.88764,18.36662 4.70672,9.23593 15.27001,21.26957 23.39477,26.65118 4.16538,2.75904 8.40969,4.23322 14.01304,4.86716 4.42083,0.50016 8.03788,1.40983 8.03788,2.02149 0,1.48237 -10.90087,17.37047 -19.0431,27.75548 -4.36581,5.56836 -7.48865,8.34474 -9.41194,8.36773 -1.58306,0.0189 -8.87829,0.61841 -16.21162,1.3322 -14.54601,1.41583 -27.83706,0.15684 -64.41505,-6.1017 -36.88484,-6.31103 -65.961,-3.04818 -81.80849,9.18035 -10.19636,7.8679 -19.77645,27.81713 -19.77645,41.18174 0,23.11986 10.23525,39.73136 30.89806,50.14661 6.10606,3.07781 13.80193,6.15567 17.10193,6.83969 9.63408,1.99694 31.23821,0.2402 43.33334,-3.52365 z m -38.66667,-18.21842 c -8.84571,-2.92775 -15.73468,-7.03241 -20.85309,-12.42491 -9.50807,-10.01725 -11.27998,-18.15732 -6.62216,-30.42185 8.64683,-22.76798 28.13878,-28.60459 71.47525,-21.40232 30.40462,5.05307 38.21881,5.91995 53.95826,5.98598 l 13.95826,0.0585 -7.95826,8.13446 c -20.30509,20.75463 -46.86119,37.59428 -74.07458,46.97187 -12.66327,4.3637 -22.86474,5.42135 -29.88368,3.09823 z M 601.44994,556.45973 c -2.56667,-0.28171 -6.05038,-1.80374 -7.74158,-3.38229 -5.23097,-4.88251 -10.92508,-14.53486 -10.92508,-18.51957 0,-8.3968 11.88,-21.07825 19.74612,-21.07825 5.68015,0 13.13516,6.70294 14.94967,13.44153 2.45408,9.11375 0.42371,17.50526 -5.8517,24.18497 -4.82824,5.13931 -6.08874,5.80237 -10.17743,5.35361 z m 213.03801,142.44724 c 4.19575,-2.14829 10.54054,-6.34545 14.09952,-9.32702 3.55897,-2.98157 7.00121,-5.09327 7.64941,-4.69266 0.6482,0.40061 3.09671,3.54777 5.44113,6.99368 2.34442,3.44592 4.90219,6.70612 5.68392,7.24489 2.19914,1.51565 11.26414,1.19543 14.50898,-0.51252 4.15961,-2.18944 4.86957,-3.71007 4.88695,-10.46706 0.0163,-6.35153 -2.90097,-12.484 -9.0503,-19.02467 l -3.47048,-3.69134 8.749,-8.97533 c 11.26926,-11.56078 13.13051,-14.48159 13.13051,-20.60533 0,-6.96179 -3.64968,-10.36999 -11.10474,-10.36999 -7.08727,0 -15.30262,5.09236 -26.88776,16.66666 l -8.0075,8 -9.64963,-0.47001 c -8.42428,-0.41033 -10.38466,-0.0393 -15.43799,2.92219 -9.3608,5.4858 -15.35953,16.73045 -17.54123,32.88115 -1.38113,10.22421 4.81812,16.75728 16.33354,17.21308 1.67092,0.0661 6.47092,-1.63743 10.66667,-3.78572 z m -8.31141,-21.76069 c 1.70032,-5.62829 7.37949,-10.33333 12.47272,-10.33333 h 4.70042 l -6.56642,6.66666 c -7.08518,7.19335 -12.20704,8.96394 -10.60672,3.66667 z"
       id="path1" />
  </g>
</svg>
