<?xml version="1.0" encoding="UTF-8" standalone="no"?>
<!-- Created with Inkscape (http://www.inkscape.org/) -->

<svg
   version="1.1"
   id="svg1"
   width="444.03244"
   height="531.46222"
   viewBox="0 0 444.03244 531.46222"
   sodipodi:docname="grafo_data_.png"
   xmlns:inkscape="http://www.inkscape.org/namespaces/inkscape"
   xmlns:sodipodi="http://sodipodi.sourceforge.net/DTD/sodipodi-0.dtd"
   xmlns="http://www.w3.org/2000/svg"
   xmlns:svg="http://www.w3.org/2000/svg">
  <defs
     id="defs1" />
  <sodipodi:namedview
     id="namedview1"
     pagecolor="#505050"
     bordercolor="#eeeeee"
     borderopacity="1"
     inkscape:showpageshadow="0"
     inkscape:pageopacity="0"
     inkscape:pagecheckerboard="0"
     inkscape:deskcolor="#505050"
     showgrid="false">
    <inkscape:page
       x="0"
       y="0"
       width="444.03244"
       height="531.46222"
       id="page2"
       margin="0"
       bleed="0" />
  </sodipodi:namedview>
  <g
     inkscape:groupmode="layer"
     inkscape:label="Image"
     id="g1"
     transform="translate(-149.46464,-98.499878)">
    <path
       style="fill:#000000"
       d="m 319.46466,629.17777 c -33.01889,-2.61808 -85.13823,-13.04552 -104.2787,-20.86289 -20.87327,-8.52507 -29.0696,-12.51773 -38.38798,-18.69986 -14.54183,-9.64753 -15.71036,-10.71762 -21.2006,-19.41459 l -4.7994,-7.60262 0.13981,-52.39738 c 0.11034,-41.3545 0.46159,-51.40842 1.66667,-47.70483 6.4931,19.9555 35.87368,38.47232 80.19353,50.54119 42.31268,11.52229 74.35627,15.77435 128,16.98508 63.42841,1.43157 114.2498,-4.69448 158.66667,-19.12579 37.71492,-12.25382 65.36315,-30.23459 70.89771,-46.10768 l 2.43563,-6.98536 0.34954,50.51143 0.34954,50.51144 -3.41122,7.48857 c -5.30197,11.6393 -16.49238,21.25261 -35.85896,30.80523 -31.65454,15.61369 -67.08223,24.9593 -114.13846,30.10902 -21.92345,2.39925 -99.1985,3.64786 -120.62378,1.94904 z m 224.71031,-58.06396 c 4.43739,-2.29466 7.95636,-8.1818 7.95636,-13.31076 0,-5.12897 -3.51897,-11.01611 -7.95636,-13.31077 -13.69504,-7.08198 -27.77368,6.98505 -20.69355,20.67651 3.75901,7.26912 12.99945,9.92379 20.69355,5.94502 z m -215.37698,-68.153 c -30.52893,-1.91845 -71.72657,-8.9591 -97.32293,-16.6324 -42.27442,-12.67307 -63.91267,-25.06229 -76.7255,-43.93001 l -5.28491,-7.78237 0.17541,-36.4065 c 0.0965,-20.02357 0.54648,-43.30649 1,-51.73982 l 0.82459,-15.33334 2.3471,6.71883 c 1.6704,4.78169 4.74575,9.08812 10.66667,14.93658 22.8447,22.56512 73.46687,39.55169 140.70665,47.21496 30.08706,3.42899 87.84845,4.74437 112.56379,2.56337 46.1372,-4.07136 82.51967,-11.39797 115.81681,-23.32289 29.90579,-10.71035 52.82214,-27.99388 57.8548,-43.63415 1.6613,-5.16291 1.83831,0.0559 1.58923,46.85664 -0.27154,51.02299 -0.37064,52.85392 -3.17539,58.66667 -9.2512,19.17277 -41.99878,36.98964 -90.36965,49.16713 -36.03209,9.07117 -66.37136,12.28393 -120.66667,12.77791 -23.1,0.21017 -45.6,0.15589 -50,-0.12061 z m 219.62342,-61.71438 c 7.16271,-8.01647 4.17506,-20.70058 -5.81763,-24.69886 -5.25475,-2.10254 -6.01544,-2.10548 -11.41295,-0.0441 -9.53122,3.64 -13.0873,16.00035 -6.87535,23.89757 3.78892,4.81683 7.27205,6.14837 14.43926,5.51989 4.61118,-0.40434 6.79478,-1.46025 9.66667,-4.67445 z M 311.46466,375.00511 c -43.46827,-5.30347 -73.90839,-11.74692 -99.33334,-21.02649 -24.81327,-9.05632 -47.8975,-24.18891 -56.59045,-37.0972 l -4.74289,-7.04279 0.0127,-54.0178 0.0127,-54.01779 7.32456,12.85777 c 7.29041,12.79783 7.38825,12.89836 20.98735,21.56386 19.41204,12.36957 38.60328,19.40083 75.3892,27.621 86.98931,19.4386 183.56787,17.36174 261.60693,-5.62569 8.45543,-2.49066 22.18483,-8.22956 34.66667,-14.49068 17.68849,-8.87288 21.87126,-11.59289 29.02584,-18.87514 5.32779,-5.42288 9.29423,-10.9035 10.93763,-15.11307 l 2.57846,-6.60472 0.0624,51.71978 c 0.0602,49.91332 -0.0351,51.91078 -2.72726,57.18791 -7.29888,14.30698 -21.26358,25.6011 -44.83082,36.25746 -24.47106,11.06505 -72.23767,22.22827 -114.6553,26.79534 -24.14032,2.59917 -98.13373,2.54246 -119.72426,-0.0917 z m 76.14811,-34.31441 c 3.69175,-4.2919 3.26476,-9.40906 -1.10319,-13.22099 -2.30807,-2.01426 -5.61631,-2.3349 -24.19264,-2.34474 -49.094,-0.026 -101.9578,-7.64375 -138.24309,-19.92099 -21.44607,-7.25635 -24.40875,-7.33721 -27.92756,-0.76225 -3.99961,7.47335 1.51508,11.79957 24.49747,19.21803 17.52499,5.65687 40.59834,11.0489 57.48756,13.43432 5.86667,0.8286 13.96667,2.06832 18,2.75493 4.03333,0.6866 14.53334,1.85565 23.33334,2.59788 8.8,0.74223 18.7,1.57815 22,1.8576 3.3,0.27945 14.3143,0.41658 24.47623,0.30474 18.45371,-0.20311 18.48013,-0.20789 21.67188,-3.91853 z m 160.30394,-25.40031 c 2.97499,-2.975 3.54795,-4.72318 3.54795,-10.82535 0,-6.36854 -0.5189,-7.79629 -4.15501,-11.4324 -3.64261,-3.64261 -5.04023,-4.14849 -11.33333,-4.10214 -6.28436,0.0463 -7.63147,0.55925 -10.81701,4.11908 -6.84583,7.65021 -6.49684,14.8846 1.08373,22.46517 4.31852,4.31852 5.06346,4.57871 11.37346,3.9724 4.98491,-0.47899 7.6809,-1.57746 10.30021,-4.19676 z M 328.79799,251.66125 c -74.33473,-5.57141 -134.73231,-23.70765 -163.61371,-49.13007 -8.29518,-7.30171 -13.06164,-17.05761 -13.02368,-26.6566 0.0381,-9.63794 3.30281,-16.60999 11.71832,-25.0255 45.87722,-45.87721 198.13616,-66.137262 317.58574,-42.25894 45.55742,9.10706 79.62998,23.16889 97.63213,40.29303 14.08397,13.39707 17.68022,26.41594 11,39.82139 -18.84053,37.80801 -112.23141,64.99936 -220.63213,64.23846 -14.3,-0.10037 -32.6,-0.67717 -40.66667,-1.28177 z"
       id="path1" />
  </g>
</svg>
