<?xml version="1.0" encoding="UTF-8" standalone="no"?>
<!-- Created with Inkscape (http://www.inkscape.org/) -->

<svg
   version="1.1"
   id="svg1"
   width="931.8006"
   height="889.73004"
   viewBox="0 0 931.80063 889.73007"
   sodipodi:docname="grafo_cte_.png"
   xmlns:inkscape="http://www.inkscape.org/namespaces/inkscape"
   xmlns:sodipodi="http://sodipodi.sourceforge.net/DTD/sodipodi-0.dtd"
   xmlns="http://www.w3.org/2000/svg"
   xmlns:svg="http://www.w3.org/2000/svg">
  <defs
     id="defs1" />
  <sodipodi:namedview
     id="namedview1"
     pagecolor="#505050"
     bordercolor="#eeeeee"
     borderopacity="1"
     inkscape:showpageshadow="0"
     inkscape:pageopacity="0"
     inkscape:pagecheckerboard="0"
     inkscape:deskcolor="#505050"
     showgrid="false">
    <inkscape:page
       x="0"
       y="7.0656926e-16"
       width="931.80066"
       height="889.73004"
       id="page2"
       margin="0"
       bleed="0" />
  </sodipodi:namedview>
  <g
     inkscape:groupmode="layer"
     inkscape:label="Image"
     id="g1"
     transform="translate(-198.27137,-213.54559)">
    <path
       style="fill:#000000;stroke-width:3.69248"
       d="M 569.3541,1097.7731 C 398.39461,1062.4721 266.24461,946.80616 212.37338,785.32144 c -13.16681,-39.46898 -14.10201,-47.91769 -14.10201,-127.4 0,-79.48229 0.9352,-87.931 14.10201,-127.39997 42.39815,-127.09295 130.37793,-223.97969 251.91263,-277.41587 78.5425,-34.53347 103.94032,-39.56001 199.88564,-39.56001 95.94535,0 121.34314,5.02654 199.88567,39.56001 121.53462,53.43618 209.51458,150.32292 251.91248,277.41587 13.167,39.46897 14.1022,47.91768 14.1022,127.39997 0,79.48231 -0.9352,87.93102 -14.1022,127.4 -30.096,90.2162 -88.9155,172.68246 -160.97323,225.68786 -42.54124,31.2932 -122.28401,69.1507 -172.94361,82.1041 -43.28379,11.0675 -168.39308,13.8083 -212.69886,4.6597 z M 947.60963,786.09713 c 21.33139,-10.17869 33.17055,-24.42143 29.40344,-35.37321 -4.14182,-12.04159 -16.61466,-15.8032 -36.1941,-10.91549 -23.37125,5.83426 -31.19862,2.21279 -48.26744,-22.33169 -12.56104,-18.06242 -15.12658,-25.88363 -12.70415,-38.72949 5.49888,-29.15996 5.31379,-29.03461 27.46952,-18.60483 23.27838,10.95826 26.82234,11.29197 51.83326,4.88064 32.58276,-8.35225 40.72698,-19.5995 40.72698,-56.24427 0,-36.67366 -11.22802,-57.45229 -39.18696,-72.51966 -13.19435,-7.11063 -19.97652,-7.86398 -37.7054,-4.1883 -39.38355,8.16526 -68.78943,43.90462 -87.18736,105.96588 -9.39828,31.70303 -10.13133,40.29979 -5.23337,61.37381 8.13198,34.9888 27.93757,63.37731 55.44691,79.47541 26.20486,15.33475 40.95539,17.06153 61.59867,7.2112 z M 902.49688,609.08802 c 0,-10.53785 20.5687,-29.20024 32.1829,-29.20024 9.71053,0 19.06985,13.77397 19.06985,28.06496 0,8.57057 -3.14502,9.76953 -25.62637,9.76953 -21.39396,0 -25.62638,-1.42603 -25.62638,-8.63425 z M 472.41224,764.61243 c 39.10364,-13.71034 52.33422,-34.22068 27.65892,-42.87742 -9.26479,-3.25036 -19.67383,-2.40688 -36.90144,2.99022 -33.20482,10.40239 -64.73628,6.4924 -83.84032,-10.3964 -12.49774,-11.04857 -14.98624,-17.02589 -14.98624,-35.99666 0,-19.5613 2.63857,-25.4431 18.83461,-41.98517 10.35905,-10.58038 25.23591,-22.29157 33.05975,-26.02488 18.50038,-8.8278 50.53395,-8.67607 64.43008,0.30541 19.65513,12.70337 43.91611,-3.78333 37.76846,-25.66582 -5.48139,-19.51102 -32.57732,-29.82096 -70.59445,-26.86105 -98.54773,7.67274 -164.77274,102.98103 -119.0209,171.28992 27.08282,40.43547 86.88442,55.10437 143.59153,35.22203 z m 214.57962,-25.31629 c 3.40643,-9.01669 4.28886,-28.14925 2.25398,-48.86987 -5.29301,-53.89809 -3.35366,-57.0341 36.72692,-59.38908 35.27179,-2.07242 43.042,-6.74707 43.18854,-25.98272 0.13601,-17.85475 -13.24912,-25.16669 -46.06969,-25.16669 -31.95635,0 -30.67039,0.99922 -38.04014,-29.55824 -2.6747,-11.09029 -5.71949,-13.0056 -20.67497,-13.0056 -19.72407,0 -23.97788,4.262 -28.16072,28.21525 -2.86223,16.39097 -3.45901,16.75884 -30.95086,19.07789 -24.61051,2.07601 -28.60823,3.88466 -32.75004,14.81689 -8.9246,23.55596 7.90117,37.20555 45.86295,37.20555 h 17.60482 v 41.85812 c 0,47.80428 6.75914,70.75006 22.42414,76.12475 15.40876,5.28677 22.16655,1.66353 28.58507,-15.32625 z"
       id="path1" />
  </g>
</svg>
