<?xml version="1.0" encoding="UTF-8" standalone="no"?>
<!-- Created with Inkscape (http://www.inkscape.org/) -->

<svg
   version="1.1"
   id="svg1"
   width="291.36105"
   height="291.23831"
   viewBox="0 0 291.36105 291.23831"
   xmlns="http://www.w3.org/2000/svg"
   xmlns:svg="http://www.w3.org/2000/svg">
  <defs
     id="defs1" />
  <g
     id="g1"
     transform="translate(-27.213257,-23.371438)">
    <path
       style="fill:#000000"
       d="m 147.34904,312.37032 c -3.32096,-2.68915 -5.17203,-10.41432 -5.35058,-22.32991 -0.0549,-3.66666 -0.60268,-7.45964 -1.21719,-8.42883 -1.04898,-1.65442 -20.80658,-10.9045 -23.29134,-10.9045 -0.62892,0 -6.4679,4.2 -12.9755,9.33333 -6.507589,5.13334 -12.909999,9.33334 -14.227579,9.33334 -5.9622,0 -37.68079,-32.09895 -37.68079,-38.13265 0,-1.55389 2.28673,-5.45972 5.08162,-8.67964 2.79489,-3.21991 7.28528,-8.77808 9.97864,-12.35148 4.66577,-6.19027 4.8027,-6.66253 2.89972,-10 -1.09852,-1.9266 -3.43001,-7.1029 -5.18108,-11.5029 -3.07188,-7.71883 -3.36411,-8.01062 -8.31467,-8.30219 -2.82199,-0.1662 -10.12168,-0.98441 -16.22153,-1.81825 -9.87704,-1.35017 -11.22662,-1.87373 -12.33333,-4.78462 -2.00858,-5.28295 -1.58073,-47.45633 0.51046,-50.31619 1.30642,-1.78664 4.61909,-2.68599 13,-3.52936 16.94392,-1.70507 21.24684,-2.63173 21.24684,-4.57564 0,-0.96718 1.8,-5.77037 4,-10.67376 2.2,-4.90338 4,-9.72282 4,-10.70986 0,-0.98704 -2.38187,-4.54666 -5.29305,-7.91026 -7.77873,-8.987618 -13.37362,-17.513358 -13.37362,-20.379308 0,-3.08552 22.12752,-26.917495 30.05925,-32.374666 3.165,-2.17758 6.7475,-3.959237 7.9611,-3.959237 1.2136,0 7.3293,4.2 13.590449,9.333334 11.51111,9.437629 14.98132,10.768229 19.75919,7.576336 1.44651,-0.966349 5.47381,-2.813604 8.94955,-4.105011 3.47575,-1.291408 6.65374,-2.888742 7.06219,-3.549633 0.40845,-0.66089 1.56958,-7.897123 2.58027,-16.080518 1.2243,-9.912903 2.55419,-15.595753 3.98456,-17.026704 1.8155,-1.816249 5.8626,-2.147805 26.21689,-2.147805 29.29232,0 28.29168,-0.614311 29.70375,18.23569 1.30867,17.469735 1.4419,17.802586 7.89849,19.731891 3.06221,0.915023 8.23397,3.016441 11.49281,4.669817 l 5.92516,3.006136 12.07484,-9.801353 c 6.64116,-5.390745 13.3201,-9.810541 14.84209,-9.821768 5.91058,-0.0436 37.89942,31.527581 37.89942,37.404591 0,1.19819 -1.65,4.30671 -3.66667,6.90782 -2.01667,2.6011 -6.4586,8.377428 -9.87095,12.836278 l -6.20429,8.10699 4.78351,11.91707 4.7835,11.91708 14.08745,0.88097 c 7.74809,0.48453 15.13808,1.17536 16.42219,1.53518 4.70075,1.31717 5.59539,5.77155 5.63088,28.0359 0.0317,19.86197 -0.18679,21.85965 -2.77034,25.33333 -2.62913,3.53497 -3.69209,3.85619 -16.97904,5.13104 -9.3191,0.89414 -14.80751,2.03593 -16.02286,3.33333 -1.9794,2.11304 -8.86005,19.53961 -8.86005,22.43978 0,0.95876 3.59423,6.14181 7.98719,11.51789 8.35397,10.22356 11.32963,15.84295 9.77566,18.4609 -5.50402,9.27256 -32.33209,34.22145 -36.79906,34.22145 -1.41389,0 -7.99941,-4.52956 -14.63449,-10.06569 -6.63509,-5.53612 -12.72353,-9.75955 -13.52988,-9.38538 -0.80635,0.37416 -6.33325,2.63688 -12.28199,5.02825 l -10.81591,4.34795 -1.28616,15.09188 c -0.95299,11.18239 -1.87561,15.68222 -3.56162,17.37077 -1.93507,1.93798 -5.72185,2.34116 -25.31437,2.69523 -20.91606,0.37798 -23.32372,0.18573 -26.12973,-2.08644 z m 43.64657,-50.41022 c 5.86025,-1.18624 15.65174,-4.67325 22.78273,-8.11353 21.89563,-10.56337 39.65261,-31.31197 47.75978,-55.80616 3.11734,-9.41841 3.5305,-12.7731 3.5305,-28.66667 0,-15.89357 -0.41316,-19.24826 -3.5305,-28.66667 -5.09237,-15.38557 -12.06707,-26.49698 -24.40925,-38.88646 -8.96999,-9.004358 -13.00695,-11.929518 -23.35053,-16.919688 -27.89211,-13.45632 -54.45245,-13.45632 -82.34456,0 -21.89563,10.56336 -39.652599,31.311958 -47.759779,55.806148 -3.11734,9.41841 -3.53049,12.7731 -3.53049,28.66667 0,15.89357 0.41315,19.24826 3.53049,28.66667 5.09238,15.38557 12.06707,26.49698 24.409259,38.88646 8.96223,8.99658 13.01588,11.93521 23.35052,16.92761 20.20943,9.76266 38.84624,12.2989 59.56183,8.10562 z m -31.05622,-9.36255 c -11.98327,-2.89337 -15.6112,-4.08815 -22.31334,-7.34844 -11.29963,-5.49675 -18.62435,-10.92279 -26.16356,-19.3816 -18.281759,-20.51168 -25.553789,-49.64065 -18.893759,-75.68113 7.648799,-29.90652 27.962159,-50.793949 59.370659,-61.048518 7.02407,-2.29328 34.30928,-2.29328 41.33334,0 24.26114,7.92102 41.47313,21.712488 51.92821,41.608538 24.72489,47.05155 1.32164,103.06949 -49.92821,119.50799 -6.02706,1.93319 -30.35066,3.54623 -35.33334,2.34316 z m 14.62562,-63.89047 c 1.57423,-4.4 5.16943,-15.92771 7.98934,-25.61714 4.23589,-14.5548 4.83145,-17.97339 3.42616,-19.66666 -2.12141,-2.55614 -5.88829,-2.64354 -7.92953,-0.18399 -2.0913,2.51987 -14.7445,43.26028 -14.7633,47.53445 -0.0184,4.17803 2.43739,6.82961 5.85117,6.31776 1.79709,-0.26945 3.42,-2.77715 5.42616,-8.38442 z m -21.87129,3.28642 c 4.31753,-2.31068 2.93523,-6.44426 -4.90301,-14.66184 l -7.48202,-7.84412 7.48202,-7.84412 c 4.11511,-4.31426 7.48202,-9.01987 7.48202,-10.4569 0,-3.15125 -2.43985,-5.82664 -5.26667,-5.7751 -3.00862,0.0548 -24.06667,20.78539 -24.06667,23.69237 0,2.24237 21.1092,24.26995 23.25808,24.26995 0.50448,0 2.07779,-0.62111 3.49625,-1.38024 z m 55.40859,-9.52293 c 6.14373,-5.99675 11.17042,-11.73474 11.17042,-12.7511 0,-2.55872 -20.11227,-23.5787 -23.07339,-24.11475 -3.22201,-0.58327 -6.25994,2.11512 -6.25994,5.56028 0,1.61743 3.21733,6.04935 7.62492,10.50341 l 7.62493,7.70533 -7.62493,7.70533 c -7.92672,8.01031 -9.49308,12.4074 -5.29159,14.85454 1.28333,0.74747 2.85664,1.37729 3.49625,1.39959 0.6396,0.0223 6.1896,-4.86589 12.33333,-10.86263 z"
       id="path1" />
  </g>
</svg>
