<?xml version="1.0" encoding="UTF-8" standalone="no"?>
<!-- Created with Inkscape (http://www.inkscape.org/) -->

<svg
   width="105.95469mm"
   height="54.628201mm"
   viewBox="0 0 105.95469 54.628201"
   version="1.1"
   id="svg1"
   xml:space="preserve"
   xmlns="http://www.w3.org/2000/svg"
   xmlns:svg="http://www.w3.org/2000/svg"><defs
     id="defs1" /><g
     id="layer1"
     transform="translate(-52.788988,-119.13684)"><path
       style="fill:#000000"
       d="m 130.58067,173.09179 c -0.67617,-1.26344 -0.37385,-2.08502 1.59048,-4.32223 1.69736,-1.93316 3.16336,-4.00259 6.70102,-9.4593 2.01389,-3.10634 4.04331,-6.53784 4.04331,-6.83674 0,-0.18073 0.40495,-0.85953 0.89989,-1.50843 0.74176,-0.97249 1.13512,-1.17983 2.23838,-1.17983 2.47595,0 3.20838,2.18387 1.81929,5.4245 -0.37779,0.88135 -0.79232,2.2042 -0.92118,2.93967 l -0.23429,1.33722 0.94407,-1.23472 c 0.51924,-0.6791 1.97969,-3.29847 3.24546,-5.82083 1.26576,-2.52236 2.46552,-4.78455 2.66613,-5.02709 0.46532,-0.56256 3.17785,-0.57536 3.73558,-0.0176 0.57127,0.57127 0.5342,3.86739 -0.0791,7.03546 -1.00776,5.20554 -1.00874,5.18567 0.26336,5.30896 1.4715,0.14261 1.63822,1.20872 0.53305,3.40885 -1.38045,2.74816 -1.95393,3.22618 -3.87052,3.22618 -1.53508,0 -1.76621,-0.11263 -2.52614,-1.23096 l -0.83646,-1.23097 -1.02834,1.25582 c -1.35415,1.65371 -2.39127,2.16409 -4.99652,2.45884 -2.05165,0.23211 -2.20466,0.19556 -3.0644,-0.73211 -0.49771,-0.53704 -0.90492,-0.8109 -0.90492,-0.60859 0,0.54454 -3.77559,5.4053 -5.06182,6.51667 -0.89868,0.77652 -1.46442,0.96247 -2.95146,0.97014 -1.46378,0.008 -1.91429,-0.12993 -2.20486,-0.67287 z m -71.015261,-0.96385 c -2.608324,-0.44278 -5.062017,-2.69344 -6.08961,-5.58573 -1.668931,-4.69742 -0.253673,-10.2459 3.781723,-14.82616 4.49758,-5.10484 9.082463,-8.159 14.012879,-9.33447 2.601767,-0.6203 9.581492,-0.25845 13.21683,0.68518 1.528285,0.39671 3.059113,0.72128 3.40184,0.72128 0.49969,0 1.051404,-0.63926 1.051404,-1.21825 0,-0.0562 -1.27161,-0.17582 -2.8258,-0.26579 -3.387703,-0.19611 -4.148229,-0.73938 -5.252365,-3.75194 -1.168556,-3.18832 -1.233905,-4.50413 -0.37946,-7.64041 1.392966,-5.11294 4.425062,-9.30953 7.928459,-10.97342 2.17414,-1.03258 3.734185,-1.06382 5.696149,-0.11405 2.691646,1.30301 4.005239,4.66545 4.005239,10.25235 0,4.50935 -0.852822,7.77159 -3.220472,12.31904 -0.6513,1.25093 -1.230199,2.36936 -1.286441,2.48539 -0.137854,0.28443 4.441522,1.02375 6.341082,1.02375 3.689434,0 5.599214,-1.45017 7.369794,-5.59614 1.4049,-3.2897 1.91813,-3.92886 3.15474,-3.92886 1.17614,0 1.5884,0.48259 1.90307,2.2277 0.58555,3.24742 -1.84422,8.4304 -4.93677,10.53064 -2.66204,1.80788 -7.624054,2.14538 -14.053463,0.95587 -2.365649,-0.43766 -2.451537,-0.42809 -2.998611,0.33443 -2.78872,3.88694 -5.409547,6.92444 -9.342366,10.82768 -5.920394,5.87586 -9.490402,8.4365 -14.082633,10.10094 -1.773618,0.64285 -5.723942,1.05468 -7.395218,0.77097 z m 5.559254,-5.57171 c 1.268217,-0.47735 3.375279,-1.56361 4.682359,-2.41389 2.747425,-1.78727 8.774789,-7.13432 10.86658,-9.64007 3.253592,-3.89746 4.771551,-5.86048 4.636337,-5.99569 -0.281078,-0.28108 -4.000743,-1.13255 -6.740984,-1.54309 -4.742356,-0.71049 -7.935229,0.18092 -12.413855,3.4658 -4.455706,3.26806 -7.331042,6.98958 -8.264488,10.69662 -0.563933,2.23958 0.400142,4.81313 2.127906,5.68033 1.628036,0.81715 2.36711,0.78096 5.106145,-0.25001 z m 23.792851,-30.69382 c 2.170552,-1.12243 4.116741,-6.19581 3.495014,-9.11089 -0.536302,-2.51456 -1.034805,-2.67629 -2.912952,-0.94507 -0.879224,0.81044 -2.075178,2.42726 -2.657675,3.59294 -1.756376,3.51482 -1.857335,5.79114 -0.290344,6.54633 1.077155,0.51912 1.210037,0.51444 2.365957,-0.0833 z m 32.123606,31.73556 c -0.31594,-0.38069 -0.37227,-1.23226 -0.1983,-2.99786 0.13366,-1.35636 0.14296,-2.628 0.0207,-2.82586 -0.12509,-0.2024 -1.17589,0.49024 -2.40253,1.58365 -3.3699,3.00386 -5.62745,4.06625 -8.64071,4.06625 -2.15069,0 -2.62488,-0.12091 -3.55993,-0.9077 -2.93992,-2.47377 -2.04323,-8.50909 1.77416,-11.94125 1.48939,-1.33909 2.05886,-1.60836 4.14594,-1.9604 2.45903,-0.41477 6.03192,-0.0616 7.5395,0.74522 0.51137,0.27367 1.13307,-0.0686 3.18424,-1.75298 1.40185,-1.15118 3.20894,-2.42469 4.01575,-2.83002 3.4483,-1.73236 6.11779,-1.22192 6.11779,1.1698 0,1.87535 -0.56473,3.01344 -1.49528,3.01344 -0.81725,0 -3.33677,1.56246 -5.51897,3.42255 l -1.19341,1.01726 0.62471,1.20806 c 0.39803,0.76971 0.68916,2.33842 0.80233,4.3233 0.1737,3.0465 0.15561,3.13823 -0.82021,4.15676 -0.79429,0.82906 -1.2994,1.04152 -2.47614,1.04152 -0.88685,0 -1.65487,-0.21274 -1.91961,-0.53174 z m -9.18882,-6.3356 c 2.00276,-1.26429 3.92762,-3.03198 3.70094,-3.39876 -0.48645,-0.78709 -3.32802,-0.007 -4.31772,1.18587 -0.70083,0.84445 -1.51849,3.08301 -1.1261,3.08301 0.20049,0 0.98478,-0.39156 1.74288,-0.87012 z"
       id="path1" /></g></svg>
