<?xml version="1.0" encoding="UTF-8" standalone="no"?>
<!-- Created with Inkscape (http://www.inkscape.org/) -->

<svg
   width="113.01024mm"
   height="59.110783mm"
   viewBox="0 0 113.01024 59.110783"
   version="1.1"
   id="svg1"
   xml:space="preserve"
   xmlns="http://www.w3.org/2000/svg"
   xmlns:svg="http://www.w3.org/2000/svg"><defs
     id="defs1" /><g
     id="layer1"
     transform="translate(-50.002684,-116.05433)"><path
       style="fill:#000000"
       d="m 56.779102,175.07392 c -2.608324,-0.44277 -5.062017,-2.69344 -6.08961,-5.58573 -1.668931,-4.69741 -0.253673,-10.24589 3.781723,-14.82615 4.49758,-5.10485 9.082463,-8.159 14.012879,-9.33447 2.601767,-0.6203 9.581492,-0.25846 13.21683,0.68518 1.528285,0.3967 3.059113,0.72128 3.40184,0.72128 0.49969,0 1.051405,-0.63927 1.051405,-1.21825 0,-0.0562 -1.271611,-0.17582 -2.825801,-0.26579 -3.387703,-0.19611 -4.148228,-0.73938 -5.252365,-3.75194 -1.168556,-3.18832 -1.233905,-4.50413 -0.37946,-7.64041 1.392967,-5.11295 4.425062,-9.30954 7.928459,-10.97343 2.174141,-1.03258 3.734186,-1.06381 5.69615,-0.11404 2.691645,1.303 4.005239,4.66545 4.005239,10.25234 0,4.50935 -0.852823,7.77159 -3.220472,12.31905 -0.651301,1.25093 -1.230199,2.36935 -1.286441,2.48539 -0.137855,0.28442 4.441522,1.02374 6.341086,1.02374 3.689426,0 5.599206,-1.45016 7.369786,-5.59614 1.4049,-3.28969 1.91813,-3.92886 3.15474,-3.92886 1.17614,0 1.58841,0.4826 1.90307,2.2277 0.58556,3.24743 -1.84422,8.4304 -4.93677,10.53065 -2.66204,1.80788 -7.624052,2.14538 -14.05346,0.95587 -2.365649,-0.43767 -2.451537,-0.42809 -2.998611,0.33443 -2.78872,3.88693 -5.409547,6.92444 -9.342366,10.82768 -5.920394,5.87586 -9.490402,8.43649 -14.082633,10.10094 -1.773618,0.64285 -5.723942,1.05467 -7.395218,0.77096 z m 5.559254,-5.5717 c 1.268218,-0.47736 3.375279,-1.56361 4.682359,-2.4139 2.747426,-1.78726 8.774789,-7.13431 10.86658,-9.64006 3.253592,-3.89746 4.771551,-5.86048 4.636337,-5.99569 -0.281078,-0.28108 -4.000743,-1.13256 -6.740984,-1.54309 -4.742356,-0.71049 -7.935229,0.18092 -12.413855,3.4658 -4.455706,3.26806 -7.331042,6.98957 -8.264487,10.69662 -0.563934,2.23958 0.400141,4.81313 2.127905,5.68033 1.628036,0.81715 2.36711,0.78096 5.106145,-0.25001 z M 86.131207,138.8084 c 2.170552,-1.12243 4.116741,-6.19581 3.495015,-9.1109 -0.536302,-2.51455 -1.034805,-2.67628 -2.912952,-0.94507 -0.879224,0.81044 -2.075178,2.42727 -2.657676,3.59295 -1.756376,3.51482 -1.857335,5.79114 -0.290343,6.54633 1.077155,0.51912 1.210036,0.51444 2.365956,-0.0833 z m 48.718703,3.36271 c -0.67617,-1.26344 -0.37384,-2.08502 1.59049,-4.32223 1.69736,-1.93316 3.16336,-4.00259 6.70102,-9.4593 2.01389,-3.10634 4.0433,-6.53784 4.0433,-6.83674 0,-0.18073 0.40496,-0.85952 0.8999,-1.50843 0.74175,-0.97249 1.13512,-1.17983 2.23838,-1.17983 2.47595,0 3.20838,2.18387 1.81928,5.42451 -0.37779,0.88134 -0.79231,2.20419 -0.92117,2.93966 l -0.23429,1.33722 0.94407,-1.23472 c 0.51923,-0.6791 1.97969,-3.29847 3.24545,-5.82083 1.26576,-2.52236 2.46553,-4.78455 2.66614,-5.02709 0.46532,-0.56256 3.17785,-0.57536 3.73558,-0.0176 0.57126,0.57127 0.5342,3.86739 -0.0791,7.03546 -1.00775,5.20554 -1.00874,5.18567 0.26336,5.30896 1.47151,0.14261 1.63822,1.20872 0.53306,3.40885 -1.38045,2.74817 -1.95393,3.22618 -3.87052,3.22618 -1.53508,0 -1.76621,-0.11263 -2.52614,-1.23096 l -0.83646,-1.23097 -1.02834,1.25583 c -1.35415,1.6537 -2.39128,2.16408 -4.99652,2.45883 -2.05165,0.23212 -2.20467,0.19556 -3.0644,-0.73211 -0.49771,-0.53703 -0.90492,-0.8109 -0.90492,-0.60859 0,0.54454 -3.7756,5.4053 -5.06182,6.51667 -0.89869,0.77652 -1.46442,0.96247 -2.95147,0.97014 -1.46377,0.008 -1.91429,-0.12993 -2.20486,-0.67287 z m -9.53954,-5.49382 c -0.31595,-0.38069 -0.37228,-1.23226 -0.1983,-2.99786 0.13365,-1.35636 0.14295,-2.628 0.0207,-2.82586 -0.12509,-0.2024 -1.1759,0.49024 -2.40254,1.58365 -3.36989,3.00387 -5.62745,4.06625 -8.64071,4.06625 -2.15069,0 -2.62488,-0.12091 -3.55993,-0.9077 -2.93991,-2.47377 -2.04322,-8.50909 1.77416,-11.94125 1.48939,-1.33909 2.05887,-1.60836 4.14595,-1.9604 2.45903,-0.41477 6.03191,-0.0616 7.53949,0.74522 0.51137,0.27367 1.13307,-0.0686 3.18425,-1.75298 1.40185,-1.15118 3.20893,-2.42469 4.01575,-2.83001 3.4483,-1.73237 6.11779,-1.22193 6.11779,1.16979 0,1.87535 -0.56473,3.01344 -1.49529,3.01344 -0.81725,0 -3.33676,1.56246 -5.51896,3.42255 l -1.19342,1.01726 0.62471,1.20806 c 0.39804,0.76971 0.68916,2.33842 0.80234,4.3233 0.1737,3.0465 0.1556,3.13823 -0.82022,4.15676 -0.79429,0.82906 -1.29939,1.04152 -2.47614,1.04152 -0.88685,0 -1.65486,-0.21274 -1.9196,-0.53174 z m -9.18883,-6.3356 c 2.00277,-1.26429 3.92762,-3.03198 3.70094,-3.39876 -0.48645,-0.78709 -3.32801,-0.007 -4.31771,1.18587 -0.70084,0.84445 -1.51849,3.08301 -1.1261,3.08301 0.20048,0 0.98478,-0.39156 1.74287,-0.87012 z"
       id="path1" /></g></svg>
