<?xml version="1.0" encoding="UTF-8" standalone="no"?>
<!-- Created with Inkscape (http://www.inkscape.org/) -->

<svg
   width="98.025414mm"
   height="54.671436mm"
   viewBox="0 0 98.025414 54.671436"
   version="1.1"
   id="svg1"
   xml:space="preserve"
   xmlns="http://www.w3.org/2000/svg"
   xmlns:svg="http://www.w3.org/2000/svg"><defs
     id="defs1" /><g
     id="layer1"
     transform="translate(-51.470836,-117.50071)"><path
       style="fill:#000000"
       d="m 121.33325,171.49889 c -0.67633,-1.26374 -0.37371,-2.08519 1.59232,-4.32223 2.53063,-2.87948 9.89345,-14.00091 10.61252,-16.03005 0.12887,-0.36366 0.61578,-1.17713 1.08203,-1.80772 0.69733,-0.94311 1.08521,-1.14653 2.18621,-1.14653 2.47595,0 3.20838,2.18387 1.81929,5.4245 -0.37779,0.88134 -0.79232,2.20419 -0.92118,2.93967 l -0.23429,1.33722 0.94407,-1.23472 c 0.51924,-0.6791 1.97969,-3.29847 3.24546,-5.82084 1.26576,-2.52236 2.46552,-4.78454 2.66613,-5.02708 0.46532,-0.56256 3.17785,-0.57537 3.73558,-0.0176 0.57127,0.57127 0.5342,3.86739 -0.0791,7.03546 -1.00776,5.20554 -1.00874,5.18567 0.26336,5.30895 1.4715,0.14261 1.63822,1.20873 0.53305,3.40886 -1.38045,2.74816 -1.95393,3.22618 -3.87052,3.22618 -1.53508,0 -1.76621,-0.11263 -2.52614,-1.23097 l -0.83646,-1.23096 -1.02834,1.25582 c -1.35415,1.65371 -2.39127,2.16409 -4.99652,2.45884 -2.05165,0.23211 -2.20466,0.19556 -3.0644,-0.73211 -0.4977,-0.53704 -0.90492,-0.8109 -0.90492,-0.60859 0,0.54453 -3.77559,5.4053 -5.06182,6.51667 -0.89868,0.77651 -1.46442,0.96247 -2.95146,0.97014 -1.46378,0.008 -1.91429,-0.12994 -2.20486,-0.67287 z M 52.960443,168.1043 c -0.632202,-0.44281 -0.784051,-0.8903 -0.784051,-2.31057 0,-0.96878 0.256527,-2.25747 0.570059,-2.86378 0.313533,-0.6063 1.017888,-2.38436 1.565233,-3.95123 0.547346,-1.56687 2.504192,-6.608 4.348546,-11.2025 1.844354,-4.5945 3.536017,-9.0395 3.759251,-9.87778 0.223234,-0.83827 0.610741,-1.76226 0.861126,-2.0533 0.250386,-0.29104 0.789117,-1.19336 1.197181,-2.00516 0.865162,-1.72114 1.946076,-2.58095 3.244645,-2.58095 1.04095,0 2.092848,0.96768 2.092848,1.9253 0,0.34926 0.531529,1.22336 1.181175,1.94244 l 1.181175,1.30742 1.440673,-1.26467 c 2.801346,-2.45909 3.471033,-4.67205 2.363667,-7.81066 -1.662788,-4.71285 -4.742136,-5.85612 -10.050197,-3.73135 -3.598453,1.44044 -9.169271,5.659 -9.169271,6.94353 0,0.93613 -1.274156,1.50481 -2.886912,1.2885 -1.909154,-0.25607 -2.404754,-0.77838 -2.404754,-2.53432 0,-1.24966 0.239245,-1.76643 1.459685,-3.15292 1.693751,-1.92421 6.047722,-5.27665 8.594481,-6.61753 2.866293,-1.50911 5.27307,-2.05408 9.071591,-2.05408 2.989282,0 3.714161,0.12096 5.181683,0.86461 2.104405,1.06638 3.357268,2.51151 4.75559,5.48539 1.006107,2.13974 1.078908,2.56729 1.088833,6.39454 l 0.01064,4.10148 -1.316893,1.91281 c -0.724291,1.05205 -2.270879,2.69889 -3.436862,3.65964 -1.165983,0.96074 -2.081506,1.84046 -2.034496,1.95493 1.488466,3.62421 7.562909,16.89498 7.734617,16.89774 0.132446,0.002 0.346777,-0.33001 0.476292,-0.73807 0.69458,-2.18843 3.526717,-5.02504 4.832131,-4.83977 0.689664,0.0979 0.815977,0.3533 0.910397,1.84092 0.0603,0.95 -0.04002,2.14062 -0.222933,2.64583 -0.18291,0.50521 -0.629118,1.8667 -0.991575,3.02554 -0.443962,1.41942 -1.128532,2.59939 -2.097845,3.61597 -1.323508,1.38805 -1.581769,1.509 -3.222144,1.509 -1.635299,0 -1.889994,-0.11809 -3.068678,-1.42275 -1.328585,-1.47058 -1.554799,-1.92068 -5.377149,-10.69878 -1.255508,-2.88329 -2.740922,-6.24273 -3.300921,-7.46541 l -1.01818,-2.22305 -1.517602,0.18984 c -0.834682,0.10442 -1.622761,0.28885 -1.751287,0.40986 -0.277389,0.26116 -5.655381,13.83625 -7.532214,19.01277 -1.398111,3.85614 -2.330253,5.01974 -4.021237,5.01974 -0.512745,0 -1.285086,-0.24713 -1.716314,-0.54917 z m 58.833257,-2.09923 c -0.31594,-0.38069 -0.37227,-1.23226 -0.1983,-2.99786 0.13366,-1.35636 0.14296,-2.628 0.0207,-2.82586 -0.12509,-0.20241 -1.17589,0.49024 -2.40253,1.58364 -3.3699,3.00387 -5.62745,4.06626 -8.64071,4.06626 -2.150692,0 -2.624884,-0.12091 -3.559931,-0.9077 -2.939917,-2.47378 -2.043226,-8.5091 1.774158,-11.94125 1.489393,-1.33909 2.058873,-1.60837 4.145943,-1.9604 2.44939,-0.41314 6.03071,-0.0623 7.52453,0.7372 0.49095,0.26275 1.18226,-0.11437 3.3118,-1.80663 1.48023,-1.17629 3.29405,-2.44619 4.03071,-2.822 3.29985,-1.68346 5.99024,-1.13397 5.99024,1.22345 0,1.87534 -0.56473,3.01344 -1.49528,3.01344 -0.81725,0 -3.33677,1.56246 -5.51897,3.42255 l -1.19341,1.01726 0.62471,1.20806 c 0.39305,0.76009 0.68853,2.32741 0.79682,4.22667 0.16468,2.88812 0.13072,3.06782 -0.78557,4.15676 -0.80488,0.95655 -1.19908,1.13814 -2.47063,1.13814 -0.91772,0 -1.68656,-0.20919 -1.95425,-0.53173 z m -8.78204,-6.56884 c 1.89349,-1.34592 3.49251,-2.80917 3.49251,-3.19598 0,-0.47055 -2.0776,-0.3251 -3.13002,0.21913 -1.21885,0.63029 -1.65,1.14436 -2.33523,2.78434 -0.69805,1.67069 -0.17819,1.72142 1.97274,0.19251 z"
       id="path1" /></g></svg>
