<?xml version="1.0" encoding="UTF-8" standalone="no"?>
<!-- Created with Inkscape (http://www.inkscape.org/) -->

<svg
   width="82.926987mm"
   height="71.966705mm"
   viewBox="0 0 82.926987 71.966705"
   version="1.1"
   id="svg1"
   xml:space="preserve"
   xmlns="http://www.w3.org/2000/svg"
   xmlns:svg="http://www.w3.org/2000/svg"><defs
     id="defs1" /><g
     id="layer1"
     transform="translate(-67.063271,-109.79272)"><path
       style="fill:#000000"
       d="m 105.56193,180.84152 c -2.31116,-1.94472 -4.60213,-7.04114 -6.327175,-14.0752 -0.60414,-2.46349 -1.97374,-10.07749 -2.24377,-12.4738 -0.0803,-0.71288 -0.52352,-0.33724 -3.09238,2.62104 -1.64923,1.89925 -4.60883,5.16011 -6.57688,7.24636 -1.96804,2.08624 -5.49178,5.98677 -7.83052,8.66784 -4.858323,5.56944 -5.980086,6.46217 -8.120047,6.46217 -2.149888,0 -3.225329,-1.1497 -3.225329,-3.44803 0,-2.16933 0.79742,-3.2726 8.572389,-11.86038 3.143307,-3.47191 7.748937,-8.63129 10.234717,-11.46527 2.48579,-2.83399 5.37371,-6.1235 6.4176,-7.31002 1.22698,-1.39462 1.8479,-2.39239 1.75629,-2.82222 -0.0779,-0.3657 -0.39958,-2.09366 -0.71477,-3.83991 -1.38722,-7.68561 -3.15961,-13.67777 -4.3043,-14.55208 -0.94883,-0.72473 -2.06666,-0.52076 -6.28111,1.1461 -4.30985,1.7046 -8.918735,4.30415 -9.94565,5.60966 -0.874474,1.11171 -1.942014,1.62271 -3.390066,1.62271 -1.716207,0 -2.29291,-0.28689 -2.887315,-1.43634 -0.895296,-1.73132 -0.66729,-3.6586 0.604143,-5.10669 2.319867,-2.64218 9.909524,-6.83759 15.006138,-8.29509 3.35705,-0.96003 8.77425,-0.95319 10.66906,0.0135 2.7927,1.42474 4.83848,5.97285 6.946385,15.44301 0.35641,1.60128 0.73742,2.87128 0.84667,2.82223 0.10926,-0.0491 2.09498,-2.12398 4.41271,-4.61093 4.36765,-4.68655 9.13472,-8.93847 11.60631,-10.3521 2.17134,-1.24189 5.67831,-1.04362 6.62526,0.37457 0.14255,0.21348 0.26161,0.98374 0.26459,1.71167 0.005,1.24526 -0.3199,1.64161 -5.49582,6.70278 -3.02566,2.95859 -7.86929,7.94765 -10.7636,11.08679 -4.79106,5.19633 -5.23026,5.78086 -4.90367,6.52639 0.1973,0.45037 0.74768,3.12073 1.22307,5.93414 1.4996,8.8747 2.95202,14.81858 4.42242,18.09821 1.17259,2.61539 1.12146,2.5997 3.27851,1.0062 4.81462,-3.55677 6.59165,-4.24574 7.80957,-3.02783 1.16779,1.16779 0.70535,2.99729 -1.51604,5.99774 -2.04909,2.76773 -3.99252,4.79252 -5.68101,5.91884 -0.62171,0.41471 -1.65255,0.58184 -3.5889,0.58184 -2.41144,0 -2.83922,-0.10313 -3.80748,-0.91786 z m 22.27712,-50.7874 c -1.49428,-1.04663 -2.19097,-3.03164 -2.18464,-6.22444 0.007,-3.38363 0.76926,-5.17109 2.78577,-6.53001 1.02801,-0.69277 1.6444,-0.80418 4.44931,-0.80418 h 3.25597 l 2.38285,-2.66241 c 2.78075,-3.107 4.3659,-4.04037 6.8618,-4.04037 2.35571,0 3.18905,0.7934 3.18905,3.03621 0,1.53946 -0.13462,1.76394 -2.55471,4.25979 -2.22635,2.29604 -2.47552,2.679 -1.93855,2.9795 1.11068,0.62157 5.18855,4.21558 5.55052,4.89193 0.19462,0.36365 0.35385,1.46537 0.35385,2.44827 0,2.40712 -0.78037,3.19819 -3.15492,3.19819 -1.59129,0 -1.93842,-0.16374 -3.96875,-1.87199 -4.02907,-3.38993 -3.49961,-3.34266 -6.22628,-0.55589 l -2.37552,2.42788 h -2.81849 c -1.98722,0 -3.05112,-0.16295 -3.60726,-0.55248 z m 5.14444,-6.25185 c 1.73282,-1.7656 1.8612,-2.36789 0.50473,-2.36789 -1.63088,0 -2.54794,0.896 -2.54794,2.48945 0,0.7651 0.12569,1.3911 0.27932,1.3911 0.15363,0 0.94738,-0.68069 1.76389,-1.51266 z"
       id="path1" /></g></svg>
